<svg xmlns="http://www.w3.org/2000/svg" xmlns:xlink="http://www.w3.org/1999/xlink" width="60" zoomAndPan="magnify" viewBox="0 0 45 44.999999" height="60" preserveAspectRatio="xMidYMid meet" version="1.2"><defs><clipPath id="2affc00843"><path d="M 3.84375 12.128906 L 40.59375 12.128906 L 40.59375 43.679688 L 3.84375 43.679688 Z M 3.84375 12.128906 "/></clipPath></defs><g id="aa0cdba6f4"><rect x="0" width="45" y="0" height="44.999999" style="fill:#ffffff;fill-opacity:1;stroke:none;"/><rect x="0" width="45" y="0" height="44.999999" style="fill:#ffffff;fill-opacity:1;stroke:none;"/><path style=" stroke:none;fill-rule:nonzero;fill:#1f6636;fill-opacity:1;" d="M 4.683594 3.515625 C 5.523438 3 6.84375 2.320312 8.578125 1.9375 C 9.734375 1.683594 13.089844 1 16.550781 2.816406 C 17.261719 3.1875 19.769531 4.550781 21.152344 7.546875 C 21.835938 9.023438 22.003906 10.371094 22.039062 11.230469 C 21.347656 11.628906 20.332031 12.125 19.027344 12.457031 C 19.027344 12.457031 16.125 13.191406 13.183594 12.457031 C 9.4375 11.519531 6.144531 8.089844 4.683594 3.515625 "/><g clip-rule="nonzero" clip-path="url(#2affc00843)"><path style=" stroke:none;fill-rule:nonzero;fill:#bb1b32;fill-opacity:1;" d="M 18.585938 12.550781 C 19.738281 13.21875 20.886719 13.890625 22.039062 14.558594 C 22.101562 14.519531 22.246094 14.421875 22.460938 14.296875 C 22.496094 14.273438 22.53125 14.25 22.570312 14.230469 C 24.1875 13.277344 29.011719 10.894531 33.726562 12.984375 C 37.160156 14.503906 38.628906 17.546875 39.21875 18.765625 C 42.660156 25.894531 39.03125 34.378906 35.144531 38.75 C 32.605469 41.609375 29.550781 43.164062 27.707031 43.484375 C 26.226562 43.742188 24.875 43.660156 24.875 43.660156 C 23.699219 43.589844 23.433594 43.390625 22.394531 43.308594 C 20.773438 43.183594 20.164062 43.566406 18.851562 43.660156 C 17.144531 43.785156 15.84375 43.304688 14.425781 42.785156 C 11.085938 41.554688 7.128906 37.617188 5.214844 32.441406 C 3.375 27.460938 2.921875 19.976562 6.808594 15.789062 C 8.6875 13.761719 11.414062 12.457031 11.414062 12.457031 C 11.660156 12.335938 11.902344 12.230469 12.144531 12.128906 "/></g><path style=" stroke:none;fill-rule:nonzero;fill:#351f16;fill-opacity:1;" d="M 22.460938 14.296875 C 22.277344 13.546875 22.097656 12.492188 22.085938 11.230469 C 22.082031 10.328125 22.160156 9.324219 22.394531 8.25 C 22.988281 5.503906 24.289062 3.597656 25.050781 2.640625 C 25.234375 2.730469 25.5 2.890625 25.757812 3.164062 C 26.070312 3.496094 26.21875 3.835938 26.289062 4.042969 C 25.816406 4.601562 25.246094 5.363281 24.695312 6.320312 C 24.460938 6.730469 23.792969 7.9375 23.277344 9.652344 C 22.78125 11.304688 22.59375 12.863281 22.570312 14.230469 "/></g></svg>