<svg xmlns="http://www.w3.org/2000/svg" xmlns:xlink="http://www.w3.org/1999/xlink" width="60" zoomAndPan="magnify" viewBox="0 0 45 44.999999" height="60" preserveAspectRatio="xMidYMid meet" version="1.2"><defs><clipPath id="41048a6a6b"><path d="M 10 8 L 34 8 L 34 40 L 10 40 Z M 10 8 "/></clipPath><clipPath id="99ddbf52f3"><path d="M 26.371094 0.375 L 39.640625 8.859375 L 17.410156 43.609375 L 4.144531 35.121094 Z M 26.371094 0.375 "/></clipPath><clipPath id="31bd82745d"><path d="M 26.371094 0.375 L 39.640625 8.859375 L 17.410156 43.609375 L 4.144531 35.121094 Z M 26.371094 0.375 "/></clipPath><clipPath id="ceed7510a2"><path d="M 26.371094 0.375 L 39.640625 8.859375 L 17.410156 43.609375 L 4.144531 35.121094 Z M 26.371094 0.375 "/></clipPath><clipPath id="8af2a97c1a"><path d="M 26.839844 -0.355469 L 40.105469 8.132812 L 17.414062 43.605469 L 4.144531 35.117188 Z M 26.839844 -0.355469 "/></clipPath><clipPath id="7b2955a71b"><path d="M 27 4 L 37 4 L 37 14 L 27 14 Z M 27 4 "/></clipPath><clipPath id="ad2d290a9f"><path d="M 26.371094 0.375 L 39.640625 8.859375 L 17.410156 43.609375 L 4.144531 35.121094 Z M 26.371094 0.375 "/></clipPath><clipPath id="f726875caa"><path d="M 26.371094 0.375 L 39.640625 8.859375 L 17.410156 43.609375 L 4.144531 35.121094 Z M 26.371094 0.375 "/></clipPath><clipPath id="51065c3345"><path d="M 26.371094 0.375 L 39.640625 8.859375 L 17.410156 43.609375 L 4.144531 35.121094 Z M 26.371094 0.375 "/></clipPath><clipPath id="e6f6bd7649"><path d="M 26.839844 -0.355469 L 40.105469 8.132812 L 17.414062 43.605469 L 4.144531 35.117188 Z M 26.839844 -0.355469 "/></clipPath><clipPath id="2ce932e52b"><path d="M 24 4 L 36 4 L 36 13 L 24 13 Z M 24 4 "/></clipPath><clipPath id="91a8af57b7"><path d="M 26.371094 0.375 L 39.640625 8.859375 L 17.410156 43.609375 L 4.144531 35.121094 Z M 26.371094 0.375 "/></clipPath><clipPath id="a39af03e81"><path d="M 26.371094 0.375 L 39.640625 8.859375 L 17.410156 43.609375 L 4.144531 35.121094 Z M 26.371094 0.375 "/></clipPath><clipPath id="551381b5f9"><path d="M 26.371094 0.375 L 39.640625 8.859375 L 17.410156 43.609375 L 4.144531 35.121094 Z M 26.371094 0.375 "/></clipPath><clipPath id="4ad8db0f17"><path d="M 26.839844 -0.355469 L 40.105469 8.132812 L 17.414062 43.605469 L 4.144531 35.117188 Z M 26.839844 -0.355469 "/></clipPath><clipPath id="fcbee419b7"><path d="M 18 13 L 22 13 L 22 18 L 18 18 Z M 18 13 "/></clipPath><clipPath id="c115f7104c"><path d="M 26.371094 0.375 L 39.640625 8.859375 L 17.410156 43.609375 L 4.144531 35.121094 Z M 26.371094 0.375 "/></clipPath><clipPath id="22261c0309"><path d="M 26.371094 0.375 L 39.640625 8.859375 L 17.410156 43.609375 L 4.144531 35.121094 Z M 26.371094 0.375 "/></clipPath><clipPath id="f311499f3c"><path d="M 26.371094 0.375 L 39.640625 8.859375 L 17.410156 43.609375 L 4.144531 35.121094 Z M 26.371094 0.375 "/></clipPath><clipPath id="deda9c8018"><path d="M 26.839844 -0.355469 L 40.105469 8.132812 L 17.414062 43.605469 L 4.144531 35.117188 Z M 26.839844 -0.355469 "/></clipPath><clipPath id="da395ee370"><path d="M 13 26 L 17 26 L 17 29 L 13 29 Z M 13 26 "/></clipPath><clipPath id="028529ed1e"><path d="M 26.371094 0.375 L 39.640625 8.859375 L 17.410156 43.609375 L 4.144531 35.121094 Z M 26.371094 0.375 "/></clipPath><clipPath id="75e6290c44"><path d="M 26.371094 0.375 L 39.640625 8.859375 L 17.410156 43.609375 L 4.144531 35.121094 Z M 26.371094 0.375 "/></clipPath><clipPath id="624e218410"><path d="M 26.371094 0.375 L 39.640625 8.859375 L 17.410156 43.609375 L 4.144531 35.121094 Z M 26.371094 0.375 "/></clipPath><clipPath id="e9feeb4ee4"><path d="M 26.839844 -0.355469 L 40.105469 8.132812 L 17.414062 43.605469 L 4.144531 35.117188 Z M 26.839844 -0.355469 "/></clipPath><clipPath id="3a0d4e0455"><path d="M 21 23 L 28 23 L 28 27 L 21 27 Z M 21 23 "/></clipPath><clipPath id="4d455af074"><path d="M 26.371094 0.375 L 39.640625 8.859375 L 17.410156 43.609375 L 4.144531 35.121094 Z M 26.371094 0.375 "/></clipPath><clipPath id="6a7b6d3de2"><path d="M 26.371094 0.375 L 39.640625 8.859375 L 17.410156 43.609375 L 4.144531 35.121094 Z M 26.371094 0.375 "/></clipPath><clipPath id="13fe74c0af"><path d="M 26.371094 0.375 L 39.640625 8.859375 L 17.410156 43.609375 L 4.144531 35.121094 Z M 26.371094 0.375 "/></clipPath><clipPath id="05f28afdae"><path d="M 26.839844 -0.355469 L 40.105469 8.132812 L 17.414062 43.605469 L 4.144531 35.117188 Z M 26.839844 -0.355469 "/></clipPath><clipPath id="026d485709"><path d="M 13 34 L 18 34 L 18 37 L 13 37 Z M 13 34 "/></clipPath><clipPath id="d73203fa4f"><path d="M 26.371094 0.375 L 39.640625 8.859375 L 17.410156 43.609375 L 4.144531 35.121094 Z M 26.371094 0.375 "/></clipPath><clipPath id="b47ebb3390"><path d="M 26.371094 0.375 L 39.640625 8.859375 L 17.410156 43.609375 L 4.144531 35.121094 Z M 26.371094 0.375 "/></clipPath><clipPath id="fc471e0922"><path d="M 26.371094 0.375 L 39.640625 8.859375 L 17.410156 43.609375 L 4.144531 35.121094 Z M 26.371094 0.375 "/></clipPath><clipPath id="ad23c4cfc1"><path d="M 26.839844 -0.355469 L 40.105469 8.132812 L 17.414062 43.605469 L 4.144531 35.117188 Z M 26.839844 -0.355469 "/></clipPath></defs><g id="86f9c70a70"><rect x="0" width="45" y="0" height="44.999999" style="fill:#ffffff;fill-opacity:1;stroke:none;"/><rect x="0" width="45" y="0" height="44.999999" style="fill:#ffffff;fill-opacity:1;stroke:none;"/><g clip-rule="nonzero" clip-path="url(#41048a6a6b)"><g clip-rule="nonzero" clip-path="url(#99ddbf52f3)"><g clip-rule="nonzero" clip-path="url(#31bd82745d)"><g clip-rule="nonzero" clip-path="url(#ceed7510a2)"><g clip-rule="nonzero" clip-path="url(#8af2a97c1a)"><path style=" stroke:none;fill-rule:evenodd;fill:#fd8c2b;fill-opacity:1;" d="M 17.550781 15.007812 C 12.808594 25.835938 7.976562 37.617188 11.210938 39.636719 C 14.445312 41.660156 27.785156 25.929688 30.234375 23.121094 C 32.683594 20.3125 36.808594 14.734375 28.59375 10.160156 C 20.378906 5.585938 18.070312 13.828125 17.550781 15.007812 Z M 17.550781 15.007812 "/></g></g></g></g></g><g clip-rule="nonzero" clip-path="url(#7b2955a71b)"><g clip-rule="nonzero" clip-path="url(#ad2d290a9f)"><g clip-rule="nonzero" clip-path="url(#f726875caa)"><g clip-rule="nonzero" clip-path="url(#51065c3345)"><g clip-rule="nonzero" clip-path="url(#e6f6bd7649)"><path style=" stroke:none;fill-rule:evenodd;fill:#539d06;fill-opacity:1;" d="M 28.335938 12.128906 C 28.335938 12.128906 26.898438 8.289062 27.625 5.570312 C 28.351562 2.851562 29.167969 6.609375 28.847656 9.140625 C 28.847656 9.140625 32.609375 4.527344 33.746094 6.792969 C 34.976562 9.234375 30.113281 10.875 30.113281 10.875 C 30.113281 10.875 36.535156 8.644531 36.898438 11.117188 C 37.265625 13.59375 31.78125 13.597656 28.335938 12.128906 Z M 28.335938 12.128906 "/></g></g></g></g></g><g clip-rule="nonzero" clip-path="url(#2ce932e52b)"><g clip-rule="nonzero" clip-path="url(#91a8af57b7)"><g clip-rule="nonzero" clip-path="url(#a39af03e81)"><g clip-rule="nonzero" clip-path="url(#551381b5f9)"><g clip-rule="nonzero" clip-path="url(#4ad8db0f17)"><path style=" stroke:none;fill-rule:evenodd;fill:#67bd0f;fill-opacity:1;" d="M 28.558594 12.128906 C 28.558594 12.128906 32.597656 11.464844 34.585938 9.476562 C 36.578125 7.488281 32.917969 8.652344 30.890625 10.195312 C 30.890625 10.195312 33.003906 4.625 30.476562 4.765625 C 27.75 4.917969 28.757812 9.960938 28.757812 9.960938 C 28.757812 9.960938 27.484375 3.265625 25.164062 4.183594 C 22.84375 5.101562 25.570312 9.863281 28.558594 12.128906 Z M 28.558594 12.128906 "/></g></g></g></g></g><g clip-rule="nonzero" clip-path="url(#fcbee419b7)"><g clip-rule="nonzero" clip-path="url(#c115f7104c)"><g clip-rule="nonzero" clip-path="url(#22261c0309)"><g clip-rule="nonzero" clip-path="url(#f311499f3c)"><g clip-rule="nonzero" clip-path="url(#deda9c8018)"><path style=" stroke:none;fill-rule:evenodd;fill:#d77928;fill-opacity:1;" d="M 18.300781 13.882812 C 18.300781 13.882812 19.816406 15.824219 21.890625 17.074219 C 21.890625 17.074219 19.84375 16.15625 18.265625 14.757812 C 18.265625 14.757812 18.042969 14.472656 18.300781 13.882812 Z M 18.300781 13.882812 "/></g></g></g></g></g><g clip-rule="nonzero" clip-path="url(#da395ee370)"><g clip-rule="nonzero" clip-path="url(#028529ed1e)"><g clip-rule="nonzero" clip-path="url(#75e6290c44)"><g clip-rule="nonzero" clip-path="url(#624e218410)"><g clip-rule="nonzero" clip-path="url(#e9feeb4ee4)"><path style=" stroke:none;fill-rule:evenodd;fill:#d77928;fill-opacity:1;" d="M 13.566406 26.222656 C 13.566406 26.222656 14.648438 27.605469 16.125 28.5 C 16.125 28.5 14.664062 27.84375 13.542969 26.847656 C 13.542969 26.847656 13.382812 26.644531 13.566406 26.222656 Z M 13.566406 26.222656 "/></g></g></g></g></g><g clip-rule="nonzero" clip-path="url(#3a0d4e0455)"><g clip-rule="nonzero" clip-path="url(#4d455af074)"><g clip-rule="nonzero" clip-path="url(#6a7b6d3de2)"><g clip-rule="nonzero" clip-path="url(#13fe74c0af)"><g clip-rule="nonzero" clip-path="url(#05f28afdae)"><path style=" stroke:none;fill-rule:evenodd;fill:#d77928;fill-opacity:1;" d="M 27.445312 25.851562 C 27.445312 25.851562 24.359375 24.847656 21.636719 23.035156 C 21.636719 23.035156 23.988281 24.929688 26.53125 26.164062 C 26.53125 26.164062 26.984375 26.3125 27.445312 25.851562 Z M 27.445312 25.851562 "/></g></g></g></g></g><g clip-rule="nonzero" clip-path="url(#026d485709)"><g clip-rule="nonzero" clip-path="url(#d73203fa4f)"><g clip-rule="nonzero" clip-path="url(#b47ebb3390)"><g clip-rule="nonzero" clip-path="url(#fc471e0922)"><g clip-rule="nonzero" clip-path="url(#ad23c4cfc1)"><path style=" stroke:none;fill-rule:evenodd;fill:#d77928;fill-opacity:1;" d="M 17.199219 36.300781 C 17.199219 36.300781 15.175781 35.644531 13.394531 34.457031 C 13.394531 34.457031 14.933594 35.695312 16.601562 36.507812 C 16.601562 36.507812 16.898438 36.605469 17.199219 36.300781 Z M 17.199219 36.300781 "/></g></g></g></g></g></g></svg>