<svg xmlns="http://www.w3.org/2000/svg" xmlns:xlink="http://www.w3.org/1999/xlink" width="60" zoomAndPan="magnify" viewBox="0 0 45 44.999999" height="60" preserveAspectRatio="xMidYMid meet" version="1.2"><defs><clipPath id="9dc3e903e9"><path d="M 20 1.355469 L 40 1.355469 L 40 18 L 20 18 Z M 20 1.355469 "/></clipPath></defs><g id="8de3627348"><rect x="0" width="45" y="0" height="44.999999" style="fill:#ffffff;fill-opacity:1;stroke:none;"/><rect x="0" width="45" y="0" height="44.999999" style="fill:#ffffff;fill-opacity:1;stroke:none;"/><path style=" stroke:none;fill-rule:nonzero;fill:#4ca042;fill-opacity:1;" d="M 27.144531 17.273438 C 27.796875 15.808594 28.171875 14.492188 28.289062 13.882812 C 28.40625 13.832031 28.546875 13.796875 28.703125 13.761719 C 29.640625 14.589844 29.777344 15.222656 29.757812 15.570312 L 29.734375 15.558594 C 28.90625 16.0625 28.039062 16.640625 27.144531 17.273438 Z M 31.4375 13.65625 C 31.320312 13.882812 31.230469 14.015625 31.230469 14.015625 C 30.554688 15.457031 30.457031 14.683594 30.457031 14.683594 C 30.359375 14.304688 30.453125 13.933594 30.597656 13.628906 C 30.890625 13.632812 31.179688 13.644531 31.4375 13.65625 Z M 35.5625 18.183594 C 35.792969 17.949219 35.0625 17.519531 35.0625 17.519531 C 34.851562 17.253906 35.230469 17.441406 35.230469 17.441406 C 36.015625 17.511719 34.964844 16.832031 34.964844 16.832031 C 35.753906 16.585938 34.164062 16.097656 34.164062 16.097656 C 35.011719 15.863281 33.707031 15.734375 33.707031 15.734375 C 32.75 15.554688 31.652344 15.664062 31.652344 15.664062 C 30.929688 15.78125 31.441406 15.488281 31.441406 15.488281 C 32.625 14.734375 33.875 14.953125 33.875 14.953125 C 34.78125 14.824219 33.691406 14.558594 33.691406 14.558594 C 33.976562 14.328125 34.476562 14.460938 34.476562 14.460938 C 35.355469 14.214844 34.597656 13.917969 34.597656 13.917969 C 35.875 13.417969 34.800781 13.316406 34.800781 13.316406 C 35.792969 12.808594 35.222656 12.671875 35.222656 12.671875 C 35.902344 12.191406 35.234375 12.207031 35.234375 12.207031 C 35.882812 11.492188 35.105469 11.644531 35.105469 11.644531 C 35.050781 11.15625 34.488281 12.035156 34.488281 12.035156 C 34.488281 12.035156 34.351562 12.472656 34.4375 11.9375 C 34.515625 11.457031 33.792969 11.753906 33.640625 11.824219 L 33.621094 11.804688 C 33.683594 11.574219 33.453125 11.621094 33.175781 11.738281 C 33.011719 11.75 32.871094 11.773438 32.871094 11.773438 C 32.535156 11.710938 32.945312 11.605469 32.945312 11.605469 C 33.578125 11.148438 32.339844 11.324219 32.339844 11.324219 C 32.765625 10.625 31.246094 11.296875 31.246094 11.296875 C 31.722656 10.5625 30.660156 11.320312 30.660156 11.320312 C 30.605469 11.351562 30.550781 11.386719 30.492188 11.421875 C 30.316406 10.800781 29.960938 11.519531 29.960938 11.519531 C 29.902344 11.292969 29.847656 11.121094 29.796875 10.992188 C 30.058594 10.75 30.261719 10.625 30.261719 10.625 C 30.855469 9.9375 29.855469 10.449219 29.855469 10.449219 C 29.917969 10.089844 30.378906 9.863281 30.378906 9.863281 C 30.878906 9.101562 30.109375 9.375 30.109375 9.375 C 30.730469 8.167969 29.859375 8.792969 29.859375 8.792969 C 30.261719 7.761719 29.742188 8.035156 29.742188 8.035156 C 29.929688 7.230469 29.4375 7.679688 29.4375 7.679688 C 29.449219 6.71875 28.964844 7.339844 28.964844 7.339844 C 28.601562 7.007812 28.765625 8.035156 28.765625 8.035156 C 28.765625 8.035156 28.957031 8.453125 28.660156 7.992188 C 28.367188 7.535156 27.972656 8.457031 27.972656 8.457031 C 27.742188 7.886719 27.292969 9.46875 27.292969 9.46875 C 26.660156 9.164062 26.765625 9.601562 26.765625 9.601562 C 27.496094 10.507812 27.648438 11.648438 27.648438 11.648438 C 28.109375 13.167969 27.519531 12.652344 27.519531 12.652344 C 26.726562 12.125 26.8125 10.90625 26.8125 10.90625 C 26.527344 10.339844 26.453125 10.96875 26.453125 10.96875 C 25.777344 9.707031 25.894531 10.648438 25.894531 10.648438 C 24.695312 9.425781 25.023438 10.601562 25.023438 10.601562 C 23.601562 9.644531 24.203125 10.726562 24.203125 10.726562 C 23.164062 10.445312 24.089844 11.195312 24.089844 11.195312 C 23.152344 10.988281 24.308594 11.800781 24.308594 11.800781 C 25.050781 12.101562 24.859375 12.320312 24.859375 12.320312 C 23.234375 11.859375 24.988281 12.800781 24.988281 12.800781 C 24.066406 12.941406 24.726562 13.148438 24.726562 13.148438 C 27.277344 12.890625 27.679688 13.875 27.722656 14.019531 C 27.417969 15.414062 26.632812 16.992188 26.019531 18.089844 C 18.941406 23.324219 10.910156 31.222656 10.910156 31.222656 L 9.582031 36.757812 C 14.90625 34.1875 20.917969 26.171875 20.917969 26.171875 C 24.585938 21.789062 29.277344 17.171875 30.324219 16.152344 C 31.515625 16.65625 33.511719 18.78125 33.511719 18.78125 C 34.03125 18.988281 33.765625 18.355469 33.765625 18.355469 C 34.4375 18.800781 34.273438 18.269531 34.273438 18.269531 C 35.074219 18.738281 35.117188 18.277344 35.117188 18.277344 C 35.726562 18.480469 35.5625 18.183594 35.5625 18.183594 "/><path style=" stroke:none;fill-rule:nonzero;fill:#53a046;fill-opacity:1;" d="M 20.847656 18.085938 C 20.847656 18.085938 20.046875 16.96875 17.285156 18.488281 C 17.285156 18.488281 16.492188 18.5625 17.398438 18.003906 C 17.398438 18.003906 15.121094 17.796875 17.042969 17.554688 C 17.042969 17.554688 17.144531 17.238281 16.226562 17.253906 C 16.226562 17.253906 14.640625 16.914062 15.722656 16.714844 C 15.722656 16.714844 14.40625 16.335938 15.625 16.171875 C 15.625 16.171875 14.496094 15.296875 16.429688 15.675781 C 16.429688 15.675781 15.546875 14.582031 17.371094 15.335938 C 17.371094 15.335938 16.816406 14.398438 18.101562 15.429688 C 18.101562 15.429688 17.894531 14.730469 18.453125 15.199219 C 18.453125 15.199219 18.921875 16.519531 19.992188 16.722656 C 19.992188 16.722656 20.851562 17.003906 19.671875 15.609375 C 19.671875 15.609375 18.992188 14.476562 17.804688 13.84375 C 17.804688 13.84375 17.492188 13.433594 18.300781 13.46875 C 18.300781 13.46875 18.050781 11.609375 18.558594 12.105469 C 18.558594 12.105469 18.546875 10.957031 19.066406 11.308594 C 19.585938 11.664062 19.195312 11.308594 19.195312 11.308594 C 19.195312 11.308594 18.550781 10.300781 19.085938 10.488281 C 19.085938 10.488281 19.3125 9.621094 19.742188 10.632812 C 19.742188 10.632812 20.054688 9.941406 20.222656 10.875 C 20.222656 10.875 20.644531 10.355469 20.695312 11.617188 C 20.695312 11.617188 21.324219 10.574219 21.222656 12.121094 C 21.222656 12.121094 21.90625 11.492188 21.730469 12.511719 C 21.730469 12.511719 21.347656 12.957031 21.445312 13.359375 C 21.445312 13.359375 22.265625 12.378906 21.953125 13.371094 C 21.953125 13.371094 21.105469 14.535156 21.316406 16.113281 C 21.316406 16.113281 21.375 16.78125 21.605469 15.984375 C 21.605469 15.984375 22.03125 14.808594 22.691406 13.921875 C 22.691406 13.921875 23.460938 12.652344 23.296875 13.632812 C 23.296875 13.632812 24.589844 12.253906 24.457031 13.179688 C 24.457031 13.179688 25.683594 12.4375 25.226562 13.203125 C 25.226562 13.203125 24.839844 13.5 25.222656 13.414062 C 25.222656 13.414062 26.03125 12.878906 26.167969 13.226562 C 26.167969 13.226562 26.558594 13.210938 26.050781 13.730469 C 26.050781 13.730469 26.507812 14 25.625 14.589844 C 25.625 14.589844 26.261719 14.679688 25.464844 15.148438 C 25.464844 15.148438 26.257812 15.1875 25.785156 15.617188 C 25.785156 15.617188 22.105469 16.757812 21.261719 17.78125 C 21.261719 17.78125 21.398438 18.550781 20.847656 18.085938 "/><path style=" stroke:none;fill-rule:nonzero;fill:#7dbd2a;fill-opacity:1;" d="M 30.90625 11.476562 C 30.90625 11.476562 31.789062 10.65625 33.886719 12.429688 C 33.886719 12.429688 34.550781 12.628906 33.875 11.996094 C 33.875 11.996094 35.859375 12.210938 34.257812 11.675781 C 34.257812 11.675781 34.226562 11.386719 35.011719 11.558594 C 35.011719 11.558594 36.425781 11.539062 35.535156 11.179688 C 35.535156 11.179688 36.730469 11.085938 35.714844 10.730469 C 35.714844 10.730469 36.835938 10.175781 35.113281 10.171875 C 35.113281 10.171875 36.0625 9.386719 34.367188 9.71875 C 34.367188 9.71875 35.007812 9.011719 33.726562 9.671875 C 33.726562 9.671875 34.027344 9.109375 33.464844 9.414062 C 33.464844 9.414062 32.832031 10.464844 31.878906 10.453125 C 31.878906 10.453125 31.09375 10.546875 32.347656 9.558594 C 32.347656 9.558594 33.132812 8.707031 34.257812 8.367188 C 34.257812 8.367188 34.597656 8.070312 33.898438 7.960938 C 33.898438 7.960938 34.441406 6.410156 33.921875 6.75 C 33.921875 6.75 34.132812 5.769531 33.625 5.980469 C 33.121094 6.195312 33.515625 5.957031 33.515625 5.957031 C 33.515625 5.957031 34.246094 5.207031 33.753906 5.273438 C 33.753906 5.273438 33.714844 4.492188 33.167969 5.285156 C 33.167969 5.285156 33.023438 4.640625 32.714844 5.410156 C 32.714844 5.410156 32.441406 4.894531 32.179688 5.964844 C 32.179688 5.964844 31.820312 4.960938 31.636719 6.304688 C 31.636719 6.304688 31.164062 5.648438 31.132812 6.554688 C 31.132812 6.554688 31.382812 7 31.226562 7.328125 C 31.226562 7.328125 30.699219 6.347656 30.792969 7.25 C 30.792969 7.25 31.308594 8.390625 30.851562 9.707031 C 30.851562 9.707031 30.683594 10.269531 30.628906 9.546875 C 30.628906 9.546875 30.472656 8.46875 30.0625 7.59375 C 30.0625 7.59375 29.625 6.375 29.59375 7.246094 C 29.59375 7.246094 28.734375 5.839844 28.683594 6.652344 C 28.683594 6.652344 27.761719 5.8125 28.019531 6.546875 C 28.019531 6.546875 28.296875 6.863281 27.984375 6.726562 C 27.984375 6.726562 27.386719 6.128906 27.210938 6.40625 C 27.210938 6.40625 26.878906 6.324219 27.222656 6.855469 C 27.222656 6.855469 26.78125 7.003906 27.433594 7.664062 C 27.433594 7.664062 26.871094 7.628906 27.472656 8.167969 C 27.472656 8.167969 26.785156 8.066406 27.117188 8.515625 C 27.117188 8.515625 30.066406 10.125 30.605469 11.144531 C 30.605469 11.144531 30.351562 11.777344 30.90625 11.476562 "/><path style=" stroke:none;fill-rule:nonzero;fill:#3c9840;fill-opacity:1;" d="M 33.289062 17.539062 C 33.289062 17.539062 34.078125 16.414062 31.683594 14.371094 C 31.683594 14.371094 31.339844 13.664062 32.179688 14.3125 C 32.179688 14.3125 31.597656 12.132812 32.488281 13.828125 C 32.488281 13.828125 32.820312 13.816406 32.492188 12.96875 C 32.492188 12.96875 32.269531 11.382812 32.835938 12.3125 C 32.835938 12.3125 32.742188 10.964844 33.316406 12.039062 C 33.316406 12.039062 33.761719 10.695312 34.066406 12.617188 C 34.066406 12.617188 34.804688 11.421875 34.710938 13.371094 C 34.710938 13.371094 35.414062 12.535156 34.875 14.078125 C 34.875 14.078125 35.46875 13.648438 35.210938 14.328125 C 35.210938 14.328125 34.117188 15.214844 34.289062 16.277344 C 34.289062 16.277344 34.316406 17.167969 35.242188 15.597656 C 35.242188 15.597656 36.085938 14.578125 36.28125 13.261719 C 36.28125 13.261719 36.5625 12.832031 36.808594 13.59375 C 36.808594 13.59375 38.492188 12.722656 38.191406 13.363281 C 38.191406 13.363281 39.28125 12.960938 39.125 13.5625 C 38.96875 14.164062 39.171875 13.683594 39.171875 13.683594 C 39.171875 13.683594 39.910156 12.738281 39.914062 13.300781 C 39.914062 13.300781 40.820312 13.210938 40 13.953125 C 40 13.953125 40.765625 14.007812 39.9375 14.484375 C 39.9375 14.484375 40.574219 14.695312 39.390625 15.175781 C 39.390625 15.175781 40.601562 15.402344 39.09375 15.835938 C 39.09375 15.835938 39.925781 16.257812 38.894531 16.445312 C 38.894531 16.445312 38.339844 16.242188 37.992188 16.472656 C 37.992188 16.472656 39.203125 16.894531 38.152344 16.945312 C 38.152344 16.945312 36.753906 16.558594 35.328125 17.296875 C 35.328125 17.296875 34.707031 17.582031 35.546875 17.519531 C 35.546875 17.519531 36.8125 17.511719 37.882812 17.820312 C 37.882812 17.820312 39.355469 18.097656 38.363281 18.28125 C 38.363281 18.28125 40.121094 19.003906 39.195312 19.199219 C 39.195312 19.199219 40.320312 20.082031 39.4375 19.921875 C 39.4375 19.921875 39.023438 19.667969 39.234375 19.992188 C 39.234375 19.992188 40.019531 20.558594 39.734375 20.800781 C 39.734375 20.800781 39.886719 21.15625 39.214844 20.867188 C 39.214844 20.867188 39.117188 21.382812 38.253906 20.765625 C 38.253906 20.765625 38.386719 21.390625 37.667969 20.808594 C 37.667969 20.808594 37.902344 21.558594 37.332031 21.269531 C 37.332031 21.269531 34.980469 18.25 33.71875 17.820312 C 33.71875 17.820312 33.035156 18.207031 33.289062 17.539062 "/><g clip-rule="nonzero" clip-path="url(#9dc3e903e9)"><path style=" stroke:none;fill-rule:nonzero;fill:#316636;fill-opacity:1;" d="M 25.332031 9.730469 C 26.492188 9.070312 30.339844 9.308594 30.339844 9.308594 C 30.9375 9.078125 30.214844 8.761719 30.214844 8.761719 C 31.128906 8.605469 30.566406 8.296875 30.566406 8.296875 C 31.605469 8.058594 31.273438 7.644531 31.273438 7.644531 C 31.9375 7.339844 31.566406 7.21875 31.566406 7.21875 C 31.566406 6.84375 30.617188 7.058594 30.617188 7.058594 C 30.230469 7 30.695312 6.859375 30.695312 6.859375 C 31.40625 6.308594 29.992188 6.5625 29.992188 6.5625 C 30.449219 5.746094 28.738281 6.578125 28.738281 6.578125 C 29.25 5.722656 28.070312 6.632812 28.070312 6.632812 C 27.132812 7.226562 26.304688 8.175781 26.304688 8.175781 C 25.800781 8.835938 25.992188 8.191406 25.992188 8.191406 C 26.367188 6.644531 27.582031 5.855469 27.582031 5.855469 C 28.230469 5.042969 27.113281 5.667969 27.113281 5.667969 C 27.167969 5.253906 27.6875 4.976562 27.6875 4.976562 C 28.222656 4.085938 27.351562 4.429688 27.351562 4.429688 C 28.015625 3.023438 27.042969 3.773438 27.042969 3.773438 C 27.460938 2.578125 26.875 2.914062 26.875 2.914062 C 27.054688 1.984375 26.511719 2.515625 26.511719 2.515625 C 26.484375 1.417969 25.957031 2.148438 25.957031 2.148438 C 25.523438 1.785156 25.757812 2.953125 25.757812 2.953125 C 25.757812 2.953125 25.992188 3.421875 25.636719 2.910156 C 25.28125 2.398438 24.871094 3.472656 24.871094 3.472656 C 24.578125 2.832031 24.136719 4.65625 24.136719 4.65625 C 23.398438 4.335938 23.539062 4.832031 23.539062 4.832031 C 24.414062 5.839844 24.640625 7.136719 24.640625 7.136719 C 25.230469 8.855469 24.53125 8.289062 24.53125 8.289062 C 23.605469 7.722656 23.648438 6.324219 23.648438 6.324219 C 23.296875 5.683594 23.238281 6.410156 23.238281 6.410156 C 22.414062 4.996094 22.589844 6.066406 22.589844 6.066406 C 21.160156 4.71875 21.585938 6.050781 21.585938 6.050781 C 19.921875 5.011719 20.65625 6.226562 20.65625 6.226562 C 19.457031 5.949219 20.546875 6.765625 20.546875 6.765625 C 19.464844 6.574219 20.824219 7.453125 20.824219 7.453125 C 21.6875 7.765625 21.476562 8.023438 21.476562 8.023438 C 19.597656 7.566406 21.644531 8.566406 21.644531 8.566406 C 20.597656 8.765625 21.359375 8.976562 21.359375 8.976562 C 24.496094 8.539062 24.835938 9.863281 24.835938 9.863281 C 25.179688 10.496094 25.332031 9.730469 25.332031 9.730469 Z M 32.675781 14.957031 C 32.675781 14.957031 33.1875 13.6875 30.394531 12.226562 C 30.394531 12.226562 29.898438 11.613281 30.863281 12.058594 C 30.863281 12.058594 29.800781 10.0625 31.054688 11.519531 C 31.054688 11.519531 31.378906 11.433594 30.863281 10.679688 C 30.863281 10.679688 30.289062 9.183594 31.050781 9.96875 C 31.050781 9.96875 30.648438 8.671875 31.457031 9.59375 C 31.457031 9.59375 31.585938 8.183594 32.316406 9.988281 C 32.316406 9.988281 32.765625 8.664062 33.117188 10.582031 C 33.117188 10.582031 33.613281 9.613281 33.4375 11.238281 C 33.4375 11.238281 33.917969 10.683594 33.824219 11.402344 C 33.824219 11.402344 32.957031 12.511719 33.367188 13.507812 C 33.367188 13.507812 33.597656 14.371094 34.140625 12.636719 C 34.140625 12.636719 34.730469 11.457031 34.621094 10.132812 C 34.621094 10.132812 34.800781 9.648438 35.210938 10.339844 C 35.210938 10.339844 36.65625 9.113281 36.507812 9.804688 C 36.507812 9.804688 37.480469 9.171875 37.464844 9.792969 C 37.445312 10.417969 37.535156 9.902344 37.535156 9.902344 C 37.535156 9.902344 38.039062 8.816406 38.175781 9.363281 C 38.175781 9.363281 39.035156 9.078125 38.40625 9.984375 C 38.40625 9.984375 39.160156 9.867188 38.464844 10.515625 C 38.464844 10.515625 39.136719 10.582031 38.085938 11.308594 C 38.085938 11.308594 39.320312 11.261719 37.949219 12.019531 C 37.949219 12.019531 38.855469 12.242188 37.890625 12.65625 C 37.890625 12.65625 37.308594 12.578125 37.015625 12.882812 C 37.015625 12.882812 38.296875 13.023438 37.285156 13.304688 C 37.285156 13.304688 35.832031 13.238281 34.609375 14.273438 C 34.609375 14.273438 34.070312 14.6875 34.871094 14.441406 C 34.871094 14.441406 36.105469 14.15625 37.21875 14.21875 C 37.21875 14.21875 38.714844 14.164062 37.792969 14.5625 C 37.792969 14.5625 39.667969 14.878906 38.8125 15.273438 C 38.8125 15.273438 40.109375 15.886719 39.207031 15.925781 C 39.207031 15.925781 38.75 15.765625 39.027344 16.035156 C 39.027344 16.035156 39.921875 16.414062 39.699219 16.714844 C 39.699219 16.714844 39.925781 17.03125 39.207031 16.890625 C 39.207031 16.890625 39.230469 17.417969 38.25 17.007812 C 38.25 17.007812 38.519531 17.585938 37.6875 17.179688 C 37.6875 17.179688 38.085938 17.859375 37.460938 17.699219 C 37.460938 17.699219 34.488281 15.277344 33.15625 15.140625 C 33.15625 15.140625 32.578125 15.667969 32.675781 14.957031 "/></g><path style=" stroke:none;fill-rule:nonzero;fill:#4f984a;fill-opacity:1;" d="M 34.691406 11.640625 C 34.691406 11.640625 35.3125 10.417969 32.648438 8.730469 C 32.648438 8.730469 32.210938 8.074219 33.132812 8.601562 C 33.132812 8.601562 32.25 6.523438 33.371094 8.082031 C 33.371094 8.082031 33.699219 8.019531 33.25 7.226562 C 33.25 7.226562 32.808594 5.6875 33.5 6.53125 C 33.5 6.53125 33.214844 5.210938 33.9375 6.195312 C 33.9375 6.195312 34.1875 4.800781 34.761719 6.660156 C 34.761719 6.660156 35.324219 5.375 35.503906 7.320312 C 35.503906 7.320312 36.082031 6.394531 35.769531 8 C 35.769531 8 36.292969 7.488281 36.136719 8.195312 C 36.136719 8.195312 35.179688 9.226562 35.503906 10.253906 C 35.503906 10.253906 35.65625 11.132812 36.347656 9.449219 C 36.347656 9.449219 37.039062 8.324219 37.042969 6.996094 C 37.042969 6.996094 37.265625 6.53125 37.613281 7.25 C 37.613281 7.25 39.160156 6.152344 38.953125 6.828125 C 38.953125 6.828125 39.972656 6.28125 39.90625 6.898438 C 39.835938 7.515625 39.96875 7.007812 39.96875 7.007812 C 39.96875 7.007812 40.5625 5.972656 40.652344 6.527344 C 40.652344 6.527344 41.53125 6.3125 40.828125 7.164062 C 40.828125 7.164062 41.589844 7.113281 40.839844 7.699219 C 40.839844 7.699219 41.503906 7.820312 40.398438 8.457031 C 40.398438 8.457031 41.628906 8.515625 40.195312 9.15625 C 40.195312 9.15625 41.082031 9.453125 40.085938 9.785156 C 40.085938 9.785156 39.507812 9.660156 39.195312 9.9375 C 39.195312 9.9375 40.457031 10.183594 39.425781 10.382812 C 39.425781 10.382812 37.984375 10.195312 36.675781 11.121094 C 36.675781 11.121094 36.101562 11.488281 36.921875 11.308594 C 36.921875 11.308594 38.175781 11.128906 39.28125 11.285156 C 39.28125 11.285156 40.777344 11.355469 39.820312 11.675781 C 39.820312 11.675781 41.664062 12.148438 40.777344 12.46875 C 40.777344 12.46875 42.015625 13.191406 41.113281 13.152344 C 41.113281 13.152344 40.671875 12.957031 40.925781 13.25 C 40.925781 13.25 41.789062 13.699219 41.535156 13.980469 C 41.535156 13.980469 41.738281 14.3125 41.03125 14.117188 C 41.03125 14.117188 41.007812 14.644531 40.066406 14.152344 C 40.066406 14.152344 40.285156 14.75 39.488281 14.277344 C 39.488281 14.277344 39.828125 14.984375 39.222656 14.777344 C 39.222656 14.777344 36.46875 12.109375 35.15625 11.859375 C 35.15625 11.859375 34.535156 12.339844 34.691406 11.640625 "/><path style=" stroke:none;fill-rule:nonzero;fill:#5fba58;fill-opacity:1;" d="M 41.277344 20.351562 C 41.574219 19.957031 40.554688 20.222656 40.554688 20.222656 C 40.554688 20.222656 40.152344 20.449219 40.585938 20.117188 C 41.023438 19.78125 40.050781 19.488281 40.050781 19.488281 C 40.601562 19.203125 38.964844 18.917969 38.964844 18.917969 C 39.210938 18.265625 38.78125 18.410156 38.78125 18.410156 C 37.9375 19.21875 36.800781 19.480469 36.800781 19.480469 C 35.3125 20.082031 35.777344 19.449219 35.777344 19.449219 C 36.230469 18.625 37.46875 18.585938 37.46875 18.585938 C 38.011719 18.25 37.367188 18.238281 37.367188 18.238281 C 38.574219 17.453125 37.636719 17.660156 37.636719 17.660156 C 38.753906 16.359375 37.597656 16.800781 37.597656 16.800781 C 38.425781 15.308594 37.394531 16.007812 37.394531 16.007812 C 37.574219 14.960938 36.910156 15.945312 36.910156 15.945312 C 37.023438 15.003906 36.320312 16.214844 36.320312 16.214844 C 36.089844 16.976562 35.851562 16.808594 35.851562 16.808594 C 36.152344 15.167969 35.378906 16.980469 35.378906 16.980469 C 35.144531 16.089844 35 16.757812 35 16.757812 C 35.34375 18.410156 35.035156 19.183594 34.746094 19.527344 L 34.730469 19.523438 C 34.578125 19.46875 32.308594 19.941406 29.65625 20.980469 C 30.882812 19.613281 31.644531 18.707031 31.644531 18.707031 L 30.527344 17.054688 C 28.757812 19.292969 23.300781 24.847656 23.300781 24.847656 C 16.648438 31.601562 14.039062 33.378906 14.039062 33.378906 C 11.59375 34.703125 8.515625 37.035156 8.515625 37.035156 L 7.902344 39.613281 C 12.066406 43.304688 20.652344 31.035156 20.652344 31.035156 C 21.761719 29.597656 24.03125 26.875 24.03125 26.875 C 25.730469 25.226562 27.335938 23.53125 28.628906 22.117188 C 30.175781 21.398438 32.429688 20.453125 34.261719 20.121094 C 34.363281 20.191406 34.546875 20.214844 34.546875 20.214844 C 35.191406 21.179688 35.183594 24.503906 35.183594 24.503906 C 35.421875 25.003906 35.664062 24.363281 35.664062 24.363281 C 35.851562 25.144531 36.09375 24.640625 36.09375 24.640625 C 36.359375 25.523438 36.707031 25.214844 36.707031 25.214844 C 37.011719 25.769531 37.097656 25.445312 37.097656 25.445312 C 37.429688 25.425781 37.191406 24.621094 37.191406 24.621094 C 37.21875 24.285156 37.367188 24.679688 37.367188 24.679688 C 37.890625 25.257812 37.59375 24.054688 37.59375 24.054688 C 38.339844 24.40625 37.511719 22.980469 37.511719 22.980469 C 38.296875 23.375 37.429688 22.40625 37.429688 22.40625 C 36.851562 21.632812 35.972656 20.972656 35.972656 20.972656 C 35.359375 20.570312 35.941406 20.699219 35.941406 20.699219 C 37.328125 20.941406 38.089844 21.945312 38.089844 21.945312 C 38.84375 22.460938 38.230469 21.53125 38.230469 21.53125 C 38.597656 21.558594 38.871094 21.988281 38.871094 21.988281 C 39.6875 22.402344 39.335938 21.671875 39.335938 21.671875 C 40.613281 22.167969 39.898438 21.371094 39.898438 21.371094 C 40.980469 21.664062 40.652344 21.179688 40.652344 21.179688 C 41.480469 21.289062 40.980469 20.847656 40.980469 20.847656 C 41.949219 20.761719 41.277344 20.351562 41.277344 20.351562 "/><path style=" stroke:none;fill-rule:nonzero;fill:#8ed134;fill-opacity:1;" d="M 29.84375 11.273438 C 30.503906 10.960938 30.132812 10.84375 30.132812 10.84375 C 30.128906 10.46875 29.179688 10.695312 29.179688 10.695312 C 28.792969 10.644531 29.257812 10.5 29.257812 10.5 C 29.957031 9.9375 28.546875 10.210938 28.546875 10.210938 C 28.992188 9.390625 27.296875 10.246094 27.296875 10.246094 C 27.796875 9.382812 26.628906 10.308594 26.628906 10.308594 C 25.699219 10.917969 24.886719 11.875 24.886719 11.875 C 24.390625 12.542969 24.570312 11.894531 24.570312 11.894531 C 24.925781 10.34375 26.128906 9.539062 26.128906 9.539062 C 26.765625 8.714844 25.65625 9.359375 25.65625 9.359375 C 25.703125 8.941406 26.21875 8.660156 26.21875 8.660156 C 26.742188 7.761719 25.878906 8.117188 25.878906 8.117188 C 26.515625 6.703125 25.558594 7.464844 25.558594 7.464844 C 25.957031 6.261719 25.378906 6.605469 25.378906 6.605469 C 25.546875 5.675781 25.011719 6.214844 25.011719 6.214844 C 24.964844 5.117188 24.449219 5.855469 24.449219 5.855469 C 24.007812 5.5 24.261719 6.664062 24.261719 6.664062 C 24.261719 6.664062 24.503906 7.128906 24.140625 6.621094 C 23.777344 6.113281 23.382812 7.195312 23.382812 7.195312 C 23.082031 6.554688 22.667969 8.386719 22.667969 8.386719 C 21.917969 8.078125 22.070312 8.570312 22.070312 8.570312 C 22.960938 9.566406 23.203125 10.859375 23.203125 10.859375 C 23.820312 12.570312 23.113281 12.015625 23.113281 12.015625 C 22.179688 11.460938 22.203125 10.0625 22.203125 10.0625 C 21.839844 9.429688 21.792969 10.15625 21.792969 10.15625 C 20.945312 8.753906 21.136719 9.820312 21.136719 9.820312 C 19.691406 8.492188 20.136719 9.820312 20.136719 9.820312 C 18.453125 8.804688 19.210938 10.007812 19.210938 10.007812 C 18.003906 9.75 19.109375 10.550781 19.109375 10.550781 C 18.023438 10.371094 19.390625 11.230469 19.390625 11.230469 C 20.261719 11.53125 20.054688 11.792969 20.054688 11.792969 C 18.167969 11.363281 20.230469 12.335938 20.230469 12.335938 C 19.183594 12.546875 19.953125 12.75 19.953125 12.75 C 22.902344 12.292969 23.390625 13.441406 23.4375 13.574219 C 23.132812 14.800781 22.660156 16.011719 22.332031 16.78125 C 14.398438 23.765625 10.089844 29.074219 10.089844 29.074219 C 4.515625 36.546875 6.6875 38.71875 6.6875 38.71875 C 7.621094 39.460938 8.832031 40.242188 8.832031 40.242188 C 15.148438 25.179688 26.539062 14.75 26.539062 14.75 L 25.910156 13.726562 C 25.035156 14.449219 24.195312 15.160156 23.386719 15.859375 C 23.683594 14.96875 23.890625 14.113281 24.027344 13.394531 C 25.277344 12.777344 28.9375 12.953125 28.9375 12.953125 C 29.53125 12.710938 28.800781 12.40625 28.800781 12.40625 C 29.714844 12.238281 29.144531 11.9375 29.144531 11.9375 C 30.183594 11.683594 29.84375 11.273438 29.84375 11.273438 "/></g></svg>