<svg xmlns="http://www.w3.org/2000/svg" xmlns:xlink="http://www.w3.org/1999/xlink" width="60" zoomAndPan="magnify" viewBox="0 0 45 44.999999" height="60" preserveAspectRatio="xMidYMid meet" version="1.2"><defs><clipPath id="66e4bd7c8d"><path d="M 4.5 8 L 42.75 8 L 42.75 44.023438 L 4.5 44.023438 Z M 4.5 8 "/></clipPath><clipPath id="521961a720"><path d="M 5 8 L 42.75 8 L 42.75 44.023438 L 5 44.023438 Z M 5 8 "/></clipPath><clipPath id="1928658548"><path d="M 29 1.273438 L 42 1.273438 L 42 15 L 29 15 Z M 29 1.273438 "/></clipPath><clipPath id="55b213e77d"><path d="M 4.5 39 L 7 39 L 7 43 L 4.5 43 Z M 4.5 39 "/></clipPath><clipPath id="4695cb6c27"><path d="M 29 1.273438 L 36 1.273438 L 36 4 L 29 4 Z M 29 1.273438 "/></clipPath></defs><g id="f34fe70deb"><g clip-rule="nonzero" clip-path="url(#66e4bd7c8d)"><path style=" stroke:none;fill-rule:nonzero;fill:#ffe082;fill-opacity:1;" d="M 35.296875 8.753906 C 36.359375 8.753906 42.726562 7.6875 42.726562 17.304688 C 42.726562 26.921875 28.929688 44.023438 9.832031 44.023438 C 7.707031 44.023438 5.585938 42.953125 5.585938 42.953125 L 4.523438 39.75 C 4.523438 39.75 5.585938 35.472656 11.953125 32.265625 C 18.320312 29.0625 22.84375 26.375 25.550781 23.648438 C 27.671875 21.511719 31.054688 17.304688 31.054688 14.097656 C 31.054688 12.003906 33.175781 9.824219 33.175781 9.824219 "/></g><g clip-rule="nonzero" clip-path="url(#521961a720)"><path style=" stroke:none;fill-rule:nonzero;fill:#ffca28;fill-opacity:1;" d="M 6.648438 40.816406 C 6.648438 40.816406 14.074219 38.679688 20.441406 35.472656 C 26.808594 32.265625 40.601562 22.648438 36.359375 8.753906 C 36.359375 8.753906 42.726562 7.6875 42.726562 17.304688 C 42.726562 26.921875 28.929688 44.023438 9.832031 44.023438 C 7.707031 44.023438 5.585938 42.953125 5.585938 42.953125 Z M 6.648438 40.816406 "/></g><g clip-rule="nonzero" clip-path="url(#1928658548)"><path style=" stroke:none;fill-rule:nonzero;fill:#c0ca33;fill-opacity:1;" d="M 41.730469 11.894531 C 39.742188 7.597656 35.296875 9.824219 35.296875 1.273438 C 32.113281 1.273438 29.992188 3.410156 29.992188 3.410156 C 29.992188 3.410156 33.175781 6.617188 33.175781 9.824219 C 35.296875 9.824219 37.007812 9.65625 37.199219 14.898438 C 38.632812 8.777344 41.730469 11.894531 41.730469 11.894531 Z M 41.730469 11.894531 "/></g><path style=" stroke:none;fill-rule:nonzero;fill:#c0ca33;fill-opacity:1;" d="M 31.054688 14.097656 C 31.054688 14.097656 30.984375 12.160156 33.175781 9.824219 C 35.363281 7.484375 37.453125 9.390625 37.453125 9.390625 L 37.199219 14.898438 C 37.199219 14.898438 36.269531 11.425781 34.808594 11.335938 C 31.734375 11.152344 31.054688 14.097656 31.054688 14.097656 Z M 31.054688 14.097656 "/><g clip-rule="nonzero" clip-path="url(#55b213e77d)"><path style=" stroke:none;fill-rule:nonzero;fill:#5d4037;fill-opacity:1;" d="M 4.523438 40.816406 L 5.585938 42.953125 L 6.648438 42.953125 L 6.648438 40.816406 L 4.523438 39.75 Z M 4.523438 40.816406 "/></g><g clip-rule="nonzero" clip-path="url(#4695cb6c27)"><path style=" stroke:none;fill-rule:nonzero;fill:#827717;fill-opacity:1;" d="M 35.296875 1.273438 C 32.113281 1.273438 29.992188 3.410156 29.992188 3.410156 L 33.175781 3.410156 Z M 35.296875 1.273438 "/></g></g></svg>