<svg xmlns="http://www.w3.org/2000/svg" xmlns:xlink="http://www.w3.org/1999/xlink" width="60" zoomAndPan="magnify" viewBox="0 0 45 44.999999" height="60" preserveAspectRatio="xMidYMid meet" version="1.2"><defs><clipPath id="0d141ffd96"><path d="M 3.894531 2.824219 L 41.332031 2.824219 L 41.332031 41.820312 L 3.894531 41.820312 Z M 3.894531 2.824219 "/></clipPath><clipPath id="ffa486dde7"><path d="M 4.164062 16.070312 L 41.332031 16.070312 L 41.332031 40.976562 L 4.164062 40.976562 Z M 4.164062 16.070312 "/></clipPath></defs><g id="cb5ad5fb46"><g clip-rule="nonzero" clip-path="url(#0d141ffd96)"><path style=" stroke:none;fill-rule:nonzero;fill:#f2b67a;fill-opacity:1;" d="M 40.992188 32.246094 C 40.96875 32.183594 40.945312 32.121094 40.925781 32.0625 C 40.960938 31.9375 40.996094 31.8125 41.027344 31.691406 C 41.226562 30.917969 41.339844 30.121094 41.332031 29.320312 C 41.332031 28.523438 41.210938 27.726562 40.96875 26.96875 C 40.773438 26.339844 40.492188 25.746094 40.144531 25.191406 C 40.089844 25.09375 40.03125 25 39.972656 24.910156 C 39.890625 24.785156 39.800781 24.671875 39.714844 24.554688 C 39.355469 24.097656 38.945312 23.675781 38.5 23.300781 C 38.054688 22.925781 37.570312 22.59375 37.066406 22.304688 C 36.800781 22.15625 36.53125 22.019531 36.253906 21.894531 C 37.273438 21.332031 38.1875 20.589844 38.925781 19.699219 C 39.476562 19.035156 39.953125 18.28125 40.378906 17.53125 C 40.746094 16.882812 41.054688 16.191406 41.207031 15.457031 C 41.625 13.453125 40.847656 11.46875 39.863281 9.722656 C 39.667969 9.050781 39.382812 8.410156 39.019531 7.816406 C 38.882812 7.539062 38.726562 7.269531 38.550781 7.015625 C 38.351562 6.734375 38.128906 6.472656 37.882812 6.234375 C 38.066406 6.429688 38.230469 6.640625 38.382812 6.859375 C 37.964844 6.292969 37.488281 5.769531 36.976562 5.292969 C 35.753906 4.144531 34.226562 3.121094 32.507812 2.910156 C 32.140625 2.863281 31.765625 2.863281 31.394531 2.839844 C 31.390625 2.839844 31.382812 2.839844 31.371094 2.835938 C 27.683594 2.625 23.972656 4.929688 22.230469 8.074219 C 21.722656 8.984375 21.351562 9.984375 21.175781 11.015625 C 21.191406 10.914062 21.210938 10.816406 21.234375 10.714844 C 21.140625 11.042969 21.089844 11.378906 21.078125 11.71875 C 21.054688 11.949219 21.035156 12.179688 21.027344 12.414062 C 21.019531 12.761719 21.03125 13.109375 21.070312 13.453125 C 21.105469 13.800781 21.164062 14.144531 21.25 14.484375 C 21.335938 14.824219 21.445312 15.15625 21.585938 15.480469 C 21.863281 16.125 22.253906 16.726562 22.71875 17.257812 C 22.835938 17.390625 22.957031 17.519531 23.082031 17.644531 C 23.207031 17.769531 23.339844 17.890625 23.476562 18.003906 C 23.492188 18.015625 23.507812 18.027344 23.523438 18.039062 C 24.117188 19.703125 25.265625 21.070312 26.847656 21.925781 C 26.613281 22.027344 26.378906 22.140625 26.152344 22.265625 C 25.890625 22.40625 25.640625 22.5625 25.402344 22.730469 C 25.261719 22.828125 25.128906 22.933594 25 23.039062 C 24.882812 22.890625 24.753906 22.753906 24.617188 22.621094 C 24.378906 22.332031 24.09375 22.082031 23.769531 21.890625 C 23.726562 21.832031 23.679688 21.769531 23.636719 21.710938 C 23.636719 21.625 23.636719 21.539062 23.636719 21.453125 C 23.636719 21.285156 23.636719 21.117188 23.632812 20.953125 C 23.632812 20.785156 23.617188 20.609375 23.585938 20.441406 C 23.519531 20.109375 23.402344 19.789062 23.261719 19.484375 C 22.980469 18.871094 22.605469 18.3125 22.191406 17.785156 C 21.925781 17.457031 21.640625 17.140625 21.332031 16.847656 C 21.289062 16.804688 21.246094 16.757812 21.199219 16.714844 C 20.972656 16.5 20.722656 16.308594 20.457031 16.144531 C 20.589844 16.234375 20.714844 16.332031 20.835938 16.4375 C 20.589844 16.25 20.332031 16.078125 20.0625 15.925781 C 18.40625 14.992188 16.40625 14.855469 14.5625 15.195312 C 14.054688 15.289062 13.5625 15.417969 13.074219 15.578125 C 13.050781 15.585938 13.03125 15.597656 13.019531 15.613281 C 9.894531 16.515625 7.117188 18.542969 5.371094 21.261719 C 4.390625 22.792969 3.703125 24.636719 3.941406 26.472656 C 3.984375 26.816406 4.066406 27.164062 4.175781 27.503906 C 4.175781 27.496094 4.171875 27.492188 4.171875 27.484375 C 4.207031 27.613281 4.253906 27.734375 4.308594 27.855469 C 4.417969 28.164062 4.566406 28.457031 4.734375 28.738281 C 4.902344 29.027344 5.097656 29.296875 5.304688 29.5625 C 5.664062 30.023438 6.066406 30.453125 6.515625 30.835938 C 7.007812 32.433594 8.1875 33.757812 9.632812 34.613281 C 11.371094 35.644531 13.363281 35.878906 15.34375 35.523438 C 17.566406 35.121094 19.625 34.054688 21.453125 32.769531 C 21.695312 32.601562 21.9375 32.421875 22.175781 32.238281 C 22.21875 32.398438 22.261719 32.554688 22.316406 32.710938 C 22.382812 32.898438 22.449219 33.085938 22.519531 33.273438 C 22.804688 34.019531 23.148438 34.746094 23.585938 35.425781 C 23.617188 35.480469 23.65625 35.53125 23.691406 35.585938 C 23.898438 36.746094 24.40625 37.855469 25.144531 38.792969 C 26.359375 40.335938 28.1875 41.332031 30.125 41.679688 C 34.066406 42.390625 38.464844 40.339844 40.484375 36.9375 C 41.019531 36.039062 41.34375 35.0625 41.308594 34.011719 C 41.289062 33.414062 41.183594 32.816406 40.992188 32.246094 "/></g><path style=" stroke:none;fill-rule:nonzero;fill:#4d2722;fill-opacity:1;" d="M 35.835938 19.671875 C 35.53125 19.875 35.203125 20.046875 34.859375 20.179688 C 34.515625 20.316406 34.15625 20.414062 33.792969 20.46875 C 33.425781 20.523438 33.054688 20.542969 32.691406 20.496094 C 33.046875 20.402344 33.390625 20.316406 33.730469 20.210938 C 34.070312 20.109375 34.40625 19.996094 34.734375 19.867188 C 35.0625 19.738281 35.382812 19.597656 35.699219 19.441406 C 36.019531 19.285156 36.332031 19.117188 36.65625 18.945312 C 36.421875 19.226562 36.140625 19.464844 35.835938 19.671875 Z M 32.617188 20.128906 C 31.199219 20.332031 29.757812 20.246094 28.367188 19.984375 C 27.929688 19.902344 27.492188 19.804688 27.0625 19.6875 C 27.953125 20.328125 28.992188 20.746094 30.078125 20.953125 C 30.15625 20.941406 30.238281 20.929688 30.320312 20.917969 C 30.902344 20.84375 31.492188 20.8125 32.078125 20.847656 C 32.5 20.875 32.925781 20.90625 33.347656 20.957031 C 33.757812 20.882812 34.164062 20.777344 34.554688 20.648438 C 37.136719 19.777344 39.257812 17.476562 40.03125 14.914062 C 40.269531 14.128906 40.359375 13.324219 40.316406 12.53125 C 40.296875 12.171875 40.246094 11.8125 40.175781 11.460938 C 40.21875 12.121094 40.179688 12.789062 40.054688 13.441406 C 39.921875 14.132812 39.691406 14.804688 39.367188 15.433594 C 38.730469 16.695312 37.738281 17.769531 36.566406 18.574219 C 35.394531 19.378906 34.03125 19.917969 32.617188 20.128906 "/><path style=" stroke:none;fill-rule:nonzero;fill:#4d2722;fill-opacity:1;" d="M 26.988281 27.675781 C 27.046875 27.59375 27.105469 27.507812 27.171875 27.425781 C 27.519531 26.980469 27.949219 26.582031 28.429688 26.246094 C 28.511719 26.1875 28.597656 26.132812 28.683594 26.078125 C 29.109375 25.808594 29.566406 25.582031 30.039062 25.410156 C 32.03125 24.6875 34.457031 25.394531 35.800781 27 C 35.90625 27.121094 36 27.25 36.085938 27.378906 C 36.121094 27.429688 36.15625 27.484375 36.1875 27.539062 C 37.066406 28.972656 37.070312 30.828125 36.042969 32.226562 C 35.433594 33.0625 34.496094 33.566406 33.511719 33.847656 C 32.429688 34.152344 31.25 34.273438 30.132812 34.117188 C 28.113281 33.828125 26.261719 32.421875 26.195312 30.289062 C 26.164062 29.308594 26.46875 28.425781 26.988281 27.675781 Z M 29.070312 34.1875 C 30.257812 34.566406 31.542969 34.546875 32.757812 34.332031 C 33.851562 34.132812 34.960938 33.742188 35.785156 32.976562 C 37.277344 31.589844 37.539062 29.28125 36.550781 27.542969 C 37.375 27.4375 37.925781 26.546875 37.4375 25.765625 C 36.925781 24.957031 35.410156 25.050781 35.121094 25.953125 C 33.667969 24.882812 31.671875 24.496094 29.957031 25.117188 C 29.449219 25.300781 28.957031 25.542969 28.503906 25.832031 C 28.261719 25.53125 27.972656 25.277344 27.585938 25.171875 C 27.136719 25.054688 26.675781 25.210938 26.375 25.558594 C 25.804688 26.210938 26.085938 27.074219 26.71875 27.523438 C 26.3125 28.117188 26.035156 28.792969 25.929688 29.542969 C 25.785156 30.578125 26.007812 31.648438 26.636719 32.5 C 27.234375 33.304688 28.113281 33.878906 29.070312 34.1875 "/><path style=" stroke:none;fill-rule:nonzero;fill:#4d2722;fill-opacity:1;" d="M 29.699219 30.15625 C 29.984375 29.75 30.441406 29.542969 30.910156 29.417969 C 31.976562 29.105469 33.222656 29.511719 33.605469 30.613281 C 33.976562 31.671875 33.242188 32.65625 32.207031 32.9375 C 31.125 33.230469 29.871094 32.710938 29.519531 31.621094 C 29.363281 31.132812 29.402344 30.582031 29.699219 30.15625 Z M 30.605469 33.140625 C 31.515625 33.492188 32.601562 33.324219 33.332031 32.671875 C 34.050781 32.03125 34.207031 31.027344 33.75 30.1875 C 33.191406 29.15625 31.917969 28.808594 30.824219 29.125 C 29.945312 29.359375 29.21875 29.925781 29.128906 30.871094 C 29.03125 31.863281 29.683594 32.78125 30.605469 33.140625 "/><path style=" stroke:none;fill-rule:nonzero;fill:#4d2722;fill-opacity:1;" d="M 34.867188 29.527344 C 35.167969 29.425781 35.324219 29.070312 35.226562 28.777344 C 35.121094 28.460938 34.738281 28.304688 34.429688 28.410156 C 34.421875 28.414062 34.417969 28.417969 34.414062 28.417969 C 34.40625 28.421875 34.398438 28.421875 34.390625 28.425781 C 34.121094 28.5625 34.003906 28.921875 34.113281 29.199219 C 34.226562 29.484375 34.578125 29.628906 34.867188 29.527344 "/><path style=" stroke:none;fill-rule:nonzero;fill:#4d2722;fill-opacity:1;" d="M 28.402344 29.652344 C 28.707031 29.613281 28.941406 29.328125 28.910156 29.023438 C 28.875 28.726562 28.636719 28.507812 28.332031 28.515625 C 28.011719 28.535156 27.734375 28.792969 27.753906 29.125 C 27.777344 29.4375 28.085938 29.691406 28.402344 29.652344 "/><path style=" stroke:none;fill-rule:nonzero;fill:#4d2722;fill-opacity:1;" d="M 30.761719 31.707031 C 30.582031 31.625 30.425781 31.886719 30.605469 31.96875 C 30.875 32.089844 31.171875 32.023438 31.367188 31.804688 C 31.414062 31.753906 31.449219 31.699219 31.480469 31.644531 C 31.519531 31.707031 31.5625 31.765625 31.621094 31.816406 C 31.820312 32.003906 32.109375 32.050781 32.351562 31.914062 C 32.523438 31.820312 32.371094 31.554688 32.195312 31.652344 C 32.042969 31.742188 31.871094 31.664062 31.773438 31.53125 C 31.738281 31.480469 31.710938 31.425781 31.695312 31.371094 C 31.722656 31.367188 31.75 31.363281 31.773438 31.359375 C 32.171875 31.296875 32.585938 30.984375 32.496094 30.539062 C 32.402344 30.082031 31.839844 30.015625 31.449219 30.019531 C 31.445312 30.019531 31.445312 30.019531 31.445312 30.019531 C 31.441406 30.019531 31.433594 30.019531 31.429688 30.019531 C 31.421875 30.019531 31.414062 30.023438 31.410156 30.023438 C 31.40625 30.023438 31.40625 30.023438 31.40625 30.023438 C 31.078125 30.109375 30.421875 30.402344 30.550781 30.84375 C 30.632812 31.125 30.949219 31.285156 31.265625 31.34375 C 31.1875 31.597656 31.035156 31.828125 30.761719 31.707031 "/><path style=" stroke:none;fill-rule:nonzero;fill:#4d2722;fill-opacity:1;" d="M 25.089844 13.070312 C 24.832031 12.097656 25.011719 11.113281 25.460938 10.246094 C 25.511719 10.15625 25.558594 10.066406 25.613281 9.980469 C 26.058594 9.242188 26.707031 8.609375 27.449219 8.179688 C 27.539062 8.128906 27.628906 8.078125 27.71875 8.03125 C 27.832031 7.976562 27.945312 7.925781 28.058594 7.878906 C 28.058594 7.878906 28.0625 7.875 28.0625 7.875 C 28.074219 7.871094 28.085938 7.867188 28.09375 7.863281 C 29.847656 6.921875 32.058594 6.84375 33.78125 7.882812 C 33.867188 7.933594 33.953125 7.988281 34.039062 8.046875 C 34.042969 8.050781 34.046875 8.054688 34.050781 8.058594 C 34.597656 8.433594 35.019531 8.933594 35.3125 9.496094 C 35.359375 9.589844 35.402344 9.683594 35.441406 9.777344 C 35.925781 10.914062 35.902344 12.253906 35.289062 13.378906 C 34.273438 15.234375 31.859375 16.121094 29.820312 16.101562 C 27.863281 16.082031 25.621094 15.089844 25.089844 13.070312 Z M 35.144531 14.140625 C 36.152344 12.882812 36.34375 11.125 35.742188 9.675781 C 36.578125 9.304688 37.066406 8.339844 36.523438 7.464844 C 36.210938 6.964844 35.617188 6.738281 35.035156 6.839844 C 34.554688 6.921875 34.179688 7.21875 33.929688 7.605469 C 32.152344 6.53125 29.761719 6.625 27.941406 7.601562 C 27.941406 7.601562 27.9375 7.601562 27.9375 7.601562 C 27.792969 7.660156 27.652344 7.726562 27.511719 7.796875 C 26.792969 7.085938 25.589844 6.980469 24.875 7.800781 C 24.234375 8.53125 24.429688 9.632812 25.207031 10.117188 C 24.871094 10.761719 24.664062 11.460938 24.667969 12.207031 C 24.683594 14.445312 26.667969 15.96875 28.769531 16.3125 C 31 16.675781 33.707031 15.941406 35.144531 14.140625 "/><path style=" stroke:none;fill-rule:nonzero;fill:#4d2722;fill-opacity:1;" d="M 29.351562 11.457031 C 29.359375 11.457031 29.363281 11.453125 29.371094 11.449219 C 29.375 11.449219 29.382812 11.445312 29.390625 11.441406 C 30.121094 11.113281 31.164062 11.105469 31.714844 11.769531 C 32.28125 12.457031 31.972656 13.378906 31.261719 13.816406 C 30.550781 14.253906 29.589844 14.21875 28.957031 13.652344 C 28.195312 12.972656 28.390625 11.84375 29.351562 11.457031 Z M 32.054688 13.480469 C 32.476562 12.851562 32.378906 11.984375 31.835938 11.453125 C 31.15625 10.785156 30.054688 10.8125 29.234375 11.179688 C 29.234375 11.179688 29.234375 11.183594 29.234375 11.183594 C 28.457031 11.507812 27.957031 12.28125 28.238281 13.117188 C 28.488281 13.859375 29.242188 14.351562 30.011719 14.414062 C 30.785156 14.480469 31.621094 14.125 32.054688 13.480469 "/><path style=" stroke:none;fill-rule:nonzero;fill:#4d2722;fill-opacity:1;" d="M 33.761719 11.625 C 34.074219 11.503906 34.285156 11.140625 34.183594 10.8125 C 34.082031 10.472656 33.675781 10.378906 33.359375 10.421875 C 33.351562 10.421875 33.347656 10.421875 33.339844 10.425781 C 33.332031 10.425781 33.328125 10.425781 33.320312 10.425781 C 32.9375 10.480469 32.703125 10.867188 32.824219 11.226562 C 32.953125 11.609375 33.394531 11.769531 33.761719 11.625 "/><path style=" stroke:none;fill-rule:nonzero;fill:#4d2722;fill-opacity:1;" d="M 26.894531 10.605469 C 26.546875 10.699219 26.335938 11.074219 26.472656 11.414062 C 26.609375 11.761719 27.011719 11.910156 27.359375 11.769531 C 27.699219 11.628906 27.886719 11.230469 27.734375 10.886719 C 27.601562 10.578125 27.195312 10.464844 26.894531 10.605469 "/><path style=" stroke:none;fill-rule:nonzero;fill:#4d2722;fill-opacity:1;" d="M 30.402344 13.175781 C 30.605469 13.335938 30.894531 13.375 31.113281 13.230469 C 31.277344 13.121094 31.125 12.859375 30.957031 12.964844 C 30.703125 13.132812 30.527344 12.90625 30.441406 12.675781 C 30.46875 12.667969 30.496094 12.65625 30.523438 12.644531 C 30.792969 12.53125 30.980469 12.226562 30.84375 11.945312 C 30.6875 11.625 30.300781 11.667969 30.015625 11.753906 C 30.015625 11.753906 30.011719 11.753906 30.011719 11.757812 C 30.011719 11.757812 30.007812 11.757812 30.007812 11.757812 C 30.003906 11.757812 30 11.761719 29.992188 11.761719 C 29.984375 11.765625 29.980469 11.769531 29.972656 11.773438 C 29.757812 11.898438 29.589844 12.171875 29.703125 12.414062 C 29.761719 12.542969 29.863281 12.625 29.984375 12.667969 C 29.957031 12.753906 29.921875 12.835938 29.851562 12.898438 C 29.675781 13.050781 29.414062 13.046875 29.195312 13.046875 C 28.996094 13.042969 28.996094 13.347656 29.195312 13.347656 C 29.472656 13.351562 29.761719 13.335938 29.992188 13.171875 C 30.078125 13.113281 30.148438 13.039062 30.203125 12.953125 C 30.203125 12.945312 30.207031 12.941406 30.210938 12.9375 C 30.257812 13.027344 30.316406 13.109375 30.402344 13.175781 "/><path style=" stroke:none;fill-rule:nonzero;fill:#4d2722;fill-opacity:1;" d="M 14.25 22.472656 C 14.671875 22.0625 15.355469 21.742188 15.960938 21.871094 C 16.800781 22.046875 16.5 22.875 16.070312 23.304688 C 15.621094 23.757812 14.859375 24.242188 14.183594 24.136719 C 13.164062 23.976562 13.863281 22.894531 14.25 22.472656 Z M 13.742188 24.300781 C 14.554688 24.792969 15.722656 24.089844 16.289062 23.519531 C 16.777344 23.027344 17.136719 22.140625 16.371094 21.703125 C 15.625 21.277344 14.582031 21.71875 14.03125 22.257812 C 13.5625 22.773438 12.894531 23.785156 13.742188 24.300781 "/><path style=" stroke:none;fill-rule:nonzero;fill:#4d2722;fill-opacity:1;" d="M 15.023438 23.136719 C 15.023438 23.136719 15.027344 23.132812 15.03125 23.128906 C 15.058594 23.152344 15.085938 23.179688 15.09375 23.210938 C 15.128906 23.3125 15.027344 23.40625 14.949219 23.449219 C 14.78125 23.550781 14.9375 23.8125 15.105469 23.710938 C 15.285156 23.605469 15.429688 23.417969 15.40625 23.199219 C 15.394531 23.121094 15.363281 23.050781 15.316406 22.992188 C 15.65625 22.957031 15.984375 22.757812 16.171875 22.484375 C 16.28125 22.324219 16.015625 22.171875 15.902344 22.332031 C 15.773438 22.523438 15.539062 22.660156 15.296875 22.6875 C 15.335938 22.550781 15.328125 22.414062 15.226562 22.3125 C 15.015625 22.09375 14.660156 22.3125 14.46875 22.453125 C 14.460938 22.460938 14.457031 22.464844 14.449219 22.472656 C 14.441406 22.476562 14.433594 22.480469 14.429688 22.484375 C 14.191406 22.667969 13.976562 23.023438 14.167969 23.3125 C 14.390625 23.652344 14.828125 23.339844 15.023438 23.136719 "/><path style=" stroke:none;fill-rule:nonzero;fill:#4d2722;fill-opacity:1;" d="M 15.332031 21.136719 C 15.695312 21.144531 16.046875 20.878906 16.191406 20.5625 C 16.34375 20.242188 16.148438 19.996094 15.796875 20.023438 C 15.453125 20.050781 15.105469 20.261719 14.984375 20.585938 C 14.929688 20.703125 14.898438 20.832031 14.964844 20.953125 C 15.035156 21.082031 15.191406 21.132812 15.332031 21.136719 "/><path style=" stroke:none;fill-rule:nonzero;fill:#4d2722;fill-opacity:1;" d="M 12.144531 25.152344 C 12.320312 24.980469 12.480469 24.675781 12.292969 24.457031 C 12.097656 24.226562 11.785156 24.367188 11.574219 24.527344 C 11.542969 24.53125 11.507812 24.542969 11.480469 24.574219 C 11.300781 24.761719 11.035156 25.101562 11.304688 25.332031 C 11.550781 25.542969 11.949219 25.335938 12.144531 25.152344 "/><path style=" stroke:none;fill-rule:nonzero;fill:#4d2722;fill-opacity:1;" d="M 9.46875 23.46875 C 9.503906 23.382812 9.542969 23.292969 9.582031 23.207031 C 9.941406 22.441406 10.476562 21.726562 10.921875 21.25 C 11.71875 20.488281 12.722656 19.882812 13.796875 19.511719 C 13.894531 19.480469 13.992188 19.445312 14.09375 19.417969 C 14.578125 19.273438 15.074219 19.175781 15.566406 19.136719 C 16.898438 19.027344 18.996094 19.511719 18.875 21.203125 C 18.808594 22.15625 18.152344 23.011719 17.519531 23.683594 C 16.875 24.367188 16.136719 24.980469 15.359375 25.507812 C 13.933594 26.472656 11.871094 27.339844 10.207031 26.421875 C 9.75 26.167969 9.46875 25.847656 9.320312 25.480469 C 9.277344 25.382812 9.25 25.28125 9.226562 25.175781 C 9.113281 24.644531 9.234375 24.046875 9.46875 23.46875 Z M 9.078125 25.660156 C 9.152344 25.8125 9.246094 25.964844 9.363281 26.113281 C 10.609375 27.667969 13.101562 27.117188 14.605469 26.320312 C 15.542969 25.820312 16.398438 25.160156 17.175781 24.449219 C 17.929688 23.757812 18.660156 22.945312 19.015625 21.976562 C 19.285156 21.242188 19.25 20.445312 18.726562 19.832031 C 18.265625 19.296875 17.566406 19.011719 16.875 18.890625 C 17.097656 18.542969 17.125 18.125 16.761719 17.828125 C 16.320312 17.472656 15.632812 17.457031 15.101562 17.558594 C 14.558594 17.660156 13.925781 17.953125 13.640625 18.445312 C 13.496094 18.691406 13.488281 18.996094 13.601562 19.246094 C 12.507812 19.644531 11.496094 20.28125 10.703125 21.035156 C 10.195312 21.578125 9.621094 22.328125 9.25 23.132812 C 8.171875 23.054688 6.765625 23.914062 6.832031 25.054688 C 6.898438 26.199219 8.292969 26.140625 9.078125 25.660156 "/><path style=" stroke:none;fill-rule:nonzero;fill:#4d2722;fill-opacity:1;" d="M 19.445312 30.007812 C 18.929688 30.410156 18.375 30.757812 17.792969 31.058594 C 17.210938 31.355469 16.597656 31.605469 15.972656 31.789062 C 15.34375 31.972656 14.699219 32.101562 14.046875 32.144531 C 14.671875 31.964844 15.285156 31.769531 15.882812 31.539062 C 16.484375 31.308594 17.066406 31.050781 17.636719 30.757812 C 18.203125 30.46875 18.753906 30.144531 19.289062 29.792969 C 19.820312 29.441406 20.335938 29.058594 20.847656 28.660156 C 20.4375 29.160156 19.960938 29.605469 19.445312 30.007812 Z M 19.425781 30.644531 C 19.324219 30.746094 19.207031 30.832031 19.078125 30.902344 C 18.949219 30.972656 18.8125 31.027344 18.671875 31.0625 C 18.527344 31.097656 18.378906 31.117188 18.222656 31.089844 C 18.335938 30.984375 18.449219 30.902344 18.5625 30.824219 C 18.675781 30.746094 18.792969 30.675781 18.910156 30.609375 C 19.027344 30.542969 19.144531 30.484375 19.269531 30.425781 C 19.398438 30.371094 19.527344 30.316406 19.679688 30.277344 C 19.621094 30.421875 19.53125 30.539062 19.425781 30.644531 Z M 23.769531 21.890625 C 23.726562 21.832031 23.679688 21.769531 23.636719 21.710938 C 23.625 22.292969 23.589844 22.878906 23.433594 23.453125 C 23.046875 24.757812 22.324219 25.933594 21.429688 26.945312 C 20.980469 27.453125 20.480469 27.917969 19.949219 28.335938 C 19.683594 28.546875 19.410156 28.746094 19.125 28.9375 C 18.84375 29.121094 18.558594 29.300781 18.265625 29.472656 C 17.683594 29.816406 17.085938 30.132812 16.472656 30.421875 C 15.859375 30.707031 15.234375 30.964844 14.589844 31.183594 C 13.949219 31.402344 13.292969 31.585938 12.628906 31.722656 C 11.964844 31.863281 11.285156 31.949219 10.605469 31.972656 C 9.921875 31.996094 9.238281 31.945312 8.570312 31.820312 C 8.402344 31.789062 8.238281 31.753906 8.070312 31.710938 C 7.941406 31.679688 7.8125 31.636719 7.683594 31.585938 C 8.65625 32.5 9.875 33.09375 11.21875 33.328125 C 12.753906 33.59375 14.339844 33.4375 15.84375 33.074219 C 18.105469 32.527344 20.199219 31.351562 21.808594 29.714844 C 21.796875 29.335938 21.816406 28.957031 21.855469 28.582031 C 21.890625 28.289062 21.9375 28 22 27.714844 C 22.0625 27.429688 22.136719 27.148438 22.234375 26.867188 C 22.433594 26.308594 22.710938 25.789062 23.023438 25.296875 C 23.433594 24.65625 23.910156 24.054688 24.457031 23.523438 C 24.363281 23.101562 24.214844 22.675781 24.007812 22.285156 C 23.933594 22.148438 23.855469 22.019531 23.769531 21.890625 "/><path style=" stroke:none;fill-rule:nonzero;fill:#4d2722;fill-opacity:1;" d="M 38.554688 35.695312 C 38.566406 35.683594 38.578125 35.671875 38.585938 35.660156 C 38.339844 35.914062 38.078125 36.152344 37.800781 36.375 C 38.066406 36.164062 38.320312 35.9375 38.554688 35.695312 "/><path style=" stroke:none;fill-rule:nonzero;fill:#4d2722;fill-opacity:1;" d="M 40.667969 32.835938 C 40.53125 33.207031 40.367188 33.578125 40.179688 33.933594 C 39.800781 34.644531 39.324219 35.304688 38.765625 35.890625 C 38.203125 36.476562 37.5625 36.984375 36.859375 37.398438 C 36.507812 37.605469 36.140625 37.785156 35.761719 37.9375 C 35.574219 38.011719 35.378906 38.085938 35.1875 38.144531 C 34.996094 38.210938 34.800781 38.269531 34.609375 38.324219 C 33.832031 38.554688 33.039062 38.730469 32.226562 38.832031 C 31.824219 38.882812 31.417969 38.910156 31.007812 38.910156 C 30.597656 38.914062 30.191406 38.890625 29.785156 38.84375 C 28.976562 38.75 28.175781 38.566406 27.40625 38.304688 C 27.023438 38.171875 26.644531 38.019531 26.277344 37.847656 C 26.183594 37.804688 26.09375 37.757812 26.003906 37.710938 C 27.71875 39.226562 30.117188 39.832031 32.464844 39.566406 C 35.691406 39.207031 38.496094 37.320312 39.996094 34.476562 C 40.300781 33.894531 40.546875 33.285156 40.730469 32.660156 C 40.710938 32.71875 40.6875 32.777344 40.667969 32.835938 "/><path style=" stroke:none;fill-rule:nonzero;fill:#894a2d;fill-opacity:1;" d="M 21.160156 12.746094 C 21.285156 13.421875 21.535156 14.070312 21.863281 14.675781 C 22.195312 15.28125 22.617188 15.835938 23.109375 16.328125 C 23.355469 16.574219 23.621094 16.800781 23.894531 17.011719 C 24.171875 17.222656 24.460938 17.421875 24.757812 17.601562 C 25.953125 18.320312 27.285156 18.800781 28.660156 19.050781 C 30.035156 19.292969 31.464844 19.28125 32.835938 18.980469 C 34.207031 18.683594 35.507812 18.066406 36.601562 17.199219 C 37.148438 16.765625 37.644531 16.265625 38.070312 15.71875 C 38.496094 15.167969 38.855469 14.566406 39.121094 13.925781 C 39.65625 12.648438 39.835938 11.234375 39.652344 9.871094 C 39.570312 9.308594 39.421875 8.757812 39.210938 8.234375 C 39.230469 8.277344 39.253906 8.324219 39.273438 8.371094 C 39.375 8.59375 39.46875 8.824219 39.550781 9.054688 C 39.585938 9.148438 39.617188 9.242188 39.644531 9.335938 C 39.644531 9.339844 39.648438 9.34375 39.648438 9.347656 C 39.851562 10.003906 39.972656 10.679688 40.003906 11.363281 C 40.070312 12.730469 39.777344 14.113281 39.132812 15.316406 C 38.488281 16.519531 37.527344 17.550781 36.382812 18.3125 C 35.246094 19.082031 33.929688 19.597656 32.566406 19.792969 C 31.199219 20 29.792969 19.917969 28.425781 19.671875 C 27.742188 19.550781 27.0625 19.390625 26.402344 19.179688 C 25.742188 18.96875 25.097656 18.710938 24.496094 18.375 C 24.195312 18.207031 23.90625 18.023438 23.640625 17.808594 C 23.503906 17.703125 23.378906 17.59375 23.253906 17.472656 C 23.128906 17.355469 23.007812 17.230469 22.890625 17.105469 C 22.429688 16.601562 22.035156 16.03125 21.746094 15.410156 C 21.714844 15.34375 21.6875 15.28125 21.660156 15.214844 C 21.578125 15.03125 21.507812 14.839844 21.445312 14.648438 C 21.316406 14.257812 21.222656 13.851562 21.164062 13.441406 C 21.113281 13.101562 21.085938 12.757812 21.082031 12.414062 C 21.082031 12.300781 21.082031 12.1875 21.082031 12.074219 C 21.09375 12.300781 21.121094 12.523438 21.160156 12.746094 Z M 21.25 14.484375 C 21.335938 14.824219 21.445312 15.15625 21.585938 15.480469 C 21.863281 16.125 22.253906 16.726562 22.71875 17.257812 C 22.835938 17.390625 22.957031 17.519531 23.082031 17.644531 C 23.207031 17.769531 23.339844 17.890625 23.476562 18.003906 C 23.492188 18.015625 23.507812 18.027344 23.523438 18.039062 C 23.785156 18.25 24.066406 18.4375 24.359375 18.609375 C 24.972656 18.96875 25.632812 19.242188 26.308594 19.464844 C 26.558594 19.542969 26.808594 19.621094 27.0625 19.6875 C 27.492188 19.804688 27.929688 19.902344 28.367188 19.984375 C 29.757812 20.246094 31.199219 20.332031 32.617188 20.128906 C 34.03125 19.917969 35.394531 19.378906 36.566406 18.574219 C 37.738281 17.769531 38.730469 16.695312 39.367188 15.433594 C 39.691406 14.804688 39.921875 14.132812 40.054688 13.441406 C 40.179688 12.789062 40.21875 12.121094 40.175781 11.460938 C 40.171875 11.421875 40.171875 11.386719 40.167969 11.351562 C 40.121094 10.796875 40.019531 10.25 39.863281 9.722656 C 39.667969 9.050781 39.382812 8.410156 39.019531 7.816406 C 38.882812 7.539062 38.726562 7.269531 38.550781 7.015625 C 38.351562 6.734375 38.128906 6.472656 37.882812 6.234375 C 38.066406 6.429688 38.230469 6.640625 38.382812 6.859375 C 38.425781 6.921875 38.464844 6.980469 38.507812 7.042969 C 38.691406 7.328125 38.847656 7.628906 38.984375 7.941406 C 39.25 8.5625 39.414062 9.222656 39.484375 9.894531 C 39.554688 10.5625 39.539062 11.238281 39.433594 11.898438 C 39.332031 12.5625 39.148438 13.210938 38.875 13.824219 C 38.332031 15.046875 37.464844 16.125 36.398438 16.949219 C 35.867188 17.363281 35.289062 17.71875 34.679688 18.007812 C 34.070312 18.292969 33.421875 18.507812 32.761719 18.652344 C 31.4375 18.949219 30.054688 18.960938 28.714844 18.734375 C 27.375 18.511719 26.074219 18.050781 24.894531 17.375 C 24.308594 17.035156 23.757812 16.636719 23.265625 16.171875 C 23.023438 15.941406 22.792969 15.691406 22.582031 15.429688 C 22.371094 15.167969 22.183594 14.886719 22.007812 14.597656 C 21.664062 14.015625 21.394531 13.386719 21.25 12.730469 C 21.125 12.167969 21.089844 11.585938 21.175781 11.015625 C 21.191406 10.914062 21.210938 10.816406 21.234375 10.714844 C 21.140625 11.042969 21.089844 11.378906 21.078125 11.71875 C 21.054688 11.949219 21.035156 12.179688 21.027344 12.414062 C 21.019531 12.761719 21.03125 13.109375 21.070312 13.453125 C 21.105469 13.800781 21.164062 14.144531 21.25 14.484375 "/><g clip-rule="nonzero" clip-path="url(#ffa486dde7)"><path style=" stroke:none;fill-rule:nonzero;fill:#894a2d;fill-opacity:1;" d="M 40.34375 34.824219 C 40.023438 35.722656 39.539062 36.558594 38.933594 37.289062 C 38.632812 37.65625 38.296875 37.996094 37.9375 38.308594 C 37.574219 38.617188 37.1875 38.898438 36.78125 39.144531 C 35.96875 39.644531 35.074219 40.011719 34.148438 40.257812 C 33.222656 40.503906 32.261719 40.621094 31.300781 40.609375 C 30.34375 40.601562 29.382812 40.457031 28.476562 40.152344 C 28.25 40.070312 28.023438 39.988281 27.808594 39.886719 C 27.699219 39.839844 27.59375 39.785156 27.484375 39.730469 C 27.378906 39.675781 27.277344 39.621094 27.175781 39.558594 C 26.765625 39.3125 26.390625 39.007812 26.046875 38.675781 C 25.703125 38.34375 25.394531 37.976562 25.121094 37.582031 C 24.925781 37.296875 24.75 36.996094 24.601562 36.683594 C 24.796875 36.875 25 37.054688 25.222656 37.21875 C 25.46875 37.402344 25.730469 37.566406 26.003906 37.710938 C 26.09375 37.757812 26.183594 37.804688 26.277344 37.847656 C 26.644531 38.019531 27.023438 38.171875 27.40625 38.304688 C 28.175781 38.566406 28.976562 38.75 29.785156 38.84375 C 30.191406 38.890625 30.597656 38.914062 31.007812 38.910156 C 31.417969 38.910156 31.824219 38.882812 32.226562 38.832031 C 33.039062 38.730469 33.832031 38.554688 34.609375 38.324219 C 34.800781 38.269531 34.996094 38.210938 35.1875 38.144531 C 35.378906 38.085938 35.574219 38.011719 35.761719 37.9375 C 36.140625 37.785156 36.507812 37.605469 36.859375 37.398438 C 37.5625 36.984375 38.203125 36.476562 38.765625 35.890625 C 39.324219 35.304688 39.800781 34.644531 40.179688 33.933594 C 40.367188 33.578125 40.53125 33.207031 40.667969 32.835938 C 40.6875 32.777344 40.710938 32.71875 40.730469 32.660156 C 40.753906 32.589844 40.777344 32.523438 40.800781 32.453125 C 40.777344 33.265625 40.621094 34.070312 40.34375 34.824219 Z M 22.734375 33.191406 C 22.660156 33.007812 22.589844 32.824219 22.519531 32.640625 C 22.472656 32.519531 22.433594 32.398438 22.398438 32.273438 C 22.847656 33.273438 23.523438 34.160156 24.316406 34.914062 C 25.164062 35.730469 26.167969 36.394531 27.257812 36.863281 C 28.347656 37.328125 29.519531 37.605469 30.707031 37.667969 C 31.894531 37.734375 33.089844 37.570312 34.21875 37.203125 C 35.34375 36.832031 36.402344 36.265625 37.324219 35.527344 C 37.78125 35.160156 38.210938 34.75 38.589844 34.304688 C 38.972656 33.855469 39.304688 33.371094 39.59375 32.859375 C 40.167969 31.839844 40.546875 30.71875 40.714844 29.566406 C 40.796875 28.988281 40.824219 28.40625 40.796875 27.824219 C 40.765625 27.246094 40.6875 26.667969 40.519531 26.105469 C 40.460938 25.910156 40.390625 25.714844 40.308594 25.527344 C 40.394531 25.691406 40.472656 25.859375 40.546875 26.027344 C 40.679688 26.339844 40.796875 26.660156 40.890625 26.988281 C 40.988281 27.328125 41.0625 27.671875 41.109375 28.019531 C 41.171875 28.453125 41.195312 28.886719 41.183594 29.320312 C 41.164062 30.105469 41.042969 30.882812 40.832031 31.640625 C 40.726562 32.015625 40.597656 32.390625 40.453125 32.753906 C 40.3125 33.121094 40.148438 33.476562 39.960938 33.820312 C 39.589844 34.492188 39.125 35.113281 38.585938 35.660156 C 38.578125 35.671875 38.566406 35.683594 38.554688 35.695312 C 38.320312 35.9375 38.066406 36.164062 37.800781 36.375 C 37.78125 36.390625 37.765625 36.40625 37.746094 36.421875 C 37.707031 36.453125 37.671875 36.480469 37.632812 36.507812 C 37.335938 36.734375 37.023438 36.945312 36.699219 37.128906 C 36.359375 37.324219 36.003906 37.492188 35.640625 37.640625 C 35.457031 37.710938 35.273438 37.777344 35.082031 37.835938 C 34.894531 37.898438 34.703125 37.957031 34.511719 38.011719 C 33.75 38.234375 32.972656 38.40625 32.1875 38.5 C 30.617188 38.699219 29.011719 38.507812 27.515625 38 C 27.140625 37.871094 26.773438 37.726562 26.414062 37.5625 C 26.054688 37.402344 25.71875 37.207031 25.40625 36.976562 C 24.773438 36.519531 24.25 35.929688 23.8125 35.28125 C 23.378906 34.628906 23.03125 33.921875 22.734375 33.191406 Z M 5.363281 29.515625 C 5.152344 29.257812 4.953125 28.992188 4.769531 28.714844 C 4.601562 28.460938 4.453125 28.191406 4.332031 27.910156 C 4.402344 28.050781 4.480469 28.191406 4.570312 28.320312 C 4.746094 28.578125 4.957031 28.8125 5.1875 29.027344 C 5.652344 29.449219 6.191406 29.792969 6.773438 30.039062 C 7.359375 30.285156 7.980469 30.433594 8.609375 30.519531 C 9.234375 30.605469 9.867188 30.625 10.5 30.617188 C 13.027344 30.5625 15.539062 29.800781 17.679688 28.464844 C 17.945312 28.300781 18.207031 28.121094 18.460938 27.9375 C 18.714844 27.75 18.964844 27.558594 19.207031 27.355469 C 19.328125 27.253906 19.445312 27.148438 19.5625 27.046875 C 19.679688 26.9375 19.796875 26.832031 19.910156 26.722656 C 20.136719 26.503906 20.355469 26.277344 20.5625 26.042969 C 20.976562 25.570312 21.355469 25.066406 21.683594 24.527344 C 21.84375 24.257812 21.996094 23.980469 22.128906 23.695312 C 22.261719 23.410156 22.378906 23.121094 22.476562 22.820312 C 22.671875 22.222656 22.800781 21.605469 22.824219 20.976562 C 22.835938 20.660156 22.820312 20.347656 22.785156 20.035156 C 22.746094 19.726562 22.6875 19.417969 22.601562 19.117188 C 22.4375 18.519531 22.175781 17.949219 21.820312 17.441406 C 21.929688 17.570312 22.03125 17.699219 22.128906 17.832031 C 22.523438 18.363281 22.878906 18.933594 23.132812 19.539062 C 23.261719 19.839844 23.363281 20.152344 23.417969 20.472656 C 23.441406 20.632812 23.453125 20.789062 23.449219 20.953125 C 23.449219 21.117188 23.445312 21.28125 23.4375 21.449219 C 23.429688 21.777344 23.410156 22.105469 23.375 22.433594 C 23.335938 22.757812 23.285156 23.078125 23.191406 23.386719 C 23.171875 23.464844 23.144531 23.539062 23.117188 23.617188 C 23.085938 23.695312 23.058594 23.769531 23.027344 23.847656 C 22.96875 23.996094 22.902344 24.148438 22.832031 24.296875 C 22.695312 24.59375 22.539062 24.882812 22.371094 25.164062 C 22.03125 25.722656 21.632812 26.25 21.191406 26.738281 C 20.746094 27.222656 20.261719 27.675781 19.742188 28.082031 C 19.480469 28.285156 19.214844 28.476562 18.9375 28.660156 C 18.660156 28.839844 18.375 29.015625 18.089844 29.183594 C 16.949219 29.867188 15.738281 30.441406 14.484375 30.886719 C 13.855469 31.109375 13.21875 31.296875 12.566406 31.441406 C 11.917969 31.585938 11.257812 31.691406 10.59375 31.722656 C 9.929688 31.757812 9.261719 31.730469 8.605469 31.625 C 8.441406 31.597656 8.277344 31.570312 8.113281 31.53125 C 7.953125 31.5 7.800781 31.453125 7.652344 31.386719 C 7.351562 31.257812 7.066406 31.082031 6.800781 30.886719 C 6.265625 30.496094 5.792969 30.023438 5.363281 29.515625 Z M 40.96875 26.96875 C 40.773438 26.339844 40.492188 25.746094 40.144531 25.191406 C 40.089844 25.09375 40.03125 25 39.972656 24.910156 C 39.890625 24.785156 39.800781 24.671875 39.714844 24.554688 C 39.355469 24.097656 38.945312 23.675781 38.5 23.300781 C 38.054688 22.925781 37.570312 22.59375 37.066406 22.304688 C 36.800781 22.15625 36.53125 22.019531 36.253906 21.894531 C 36 21.777344 35.742188 21.667969 35.480469 21.570312 C 35.734375 21.675781 35.984375 21.789062 36.230469 21.910156 C 36.976562 22.277344 37.679688 22.722656 38.3125 23.257812 C 38.355469 23.292969 38.398438 23.332031 38.441406 23.367188 C 38.871094 23.75 39.265625 24.171875 39.609375 24.632812 C 39.695312 24.75 39.78125 24.863281 39.855469 24.984375 C 39.929688 25.105469 40 25.226562 40.0625 25.355469 C 40.1875 25.609375 40.28125 25.878906 40.359375 26.148438 C 40.511719 26.695312 40.582031 27.265625 40.601562 27.835938 C 40.621094 28.402344 40.589844 28.972656 40.5 29.535156 C 40.324219 30.660156 39.9375 31.75 39.363281 32.734375 C 38.792969 33.71875 38.03125 34.589844 37.132812 35.296875 C 36.238281 36.007812 35.207031 36.546875 34.117188 36.898438 C 33.023438 37.246094 31.871094 37.40625 30.722656 37.339844 C 29.578125 37.277344 28.445312 37.007812 27.394531 36.554688 C 26.339844 36.105469 25.371094 35.46875 24.546875 34.679688 C 23.722656 33.894531 23.03125 32.964844 22.597656 31.925781 C 22.195312 30.96875 22.054688 29.917969 22.128906 28.882812 C 22.140625 28.78125 22.152344 28.683594 22.167969 28.582031 C 22.21875 28.191406 22.296875 27.804688 22.390625 27.421875 C 22.433594 27.230469 22.484375 27.039062 22.539062 26.851562 C 22.71875 26.355469 22.964844 25.882812 23.242188 25.429688 C 23.847656 24.464844 24.605469 23.578125 25.527344 22.902344 C 25.757812 22.734375 26 22.578125 26.25 22.4375 C 26.5 22.296875 26.757812 22.167969 27.023438 22.050781 C 27.285156 21.933594 27.554688 21.828125 27.828125 21.726562 C 28.097656 21.625 28.375 21.527344 28.648438 21.433594 C 29.199219 21.253906 29.765625 21.125 30.335938 21.035156 C 30.910156 20.949219 31.492188 20.910156 32.074219 20.933594 C 32.65625 20.957031 33.238281 20.988281 33.8125 21.074219 C 34.386719 21.160156 34.960938 21.296875 35.480469 21.570312 C 34.972656 21.285156 34.398438 21.128906 33.824219 21.027344 C 33.664062 21 33.507812 20.976562 33.347656 20.957031 C 32.925781 20.90625 32.5 20.875 32.078125 20.847656 C 31.492188 20.8125 30.902344 20.84375 30.320312 20.917969 C 30.238281 20.929688 30.15625 20.941406 30.078125 20.953125 C 29.578125 21.03125 29.082031 21.140625 28.601562 21.289062 C 28.039062 21.464844 27.488281 21.652344 26.945312 21.882812 C 26.914062 21.894531 26.882812 21.910156 26.847656 21.925781 C 26.613281 22.027344 26.378906 22.140625 26.152344 22.265625 C 25.890625 22.40625 25.640625 22.5625 25.402344 22.730469 C 25.261719 22.828125 25.128906 22.933594 25 23.039062 C 24.8125 23.191406 24.628906 23.355469 24.457031 23.523438 C 23.910156 24.054688 23.433594 24.65625 23.023438 25.296875 C 22.710938 25.789062 22.433594 26.308594 22.234375 26.867188 C 22.136719 27.148438 22.0625 27.429688 22 27.714844 C 21.9375 28 21.890625 28.289062 21.855469 28.582031 C 21.816406 28.957031 21.796875 29.335938 21.808594 29.714844 C 21.816406 29.921875 21.832031 30.128906 21.855469 30.335938 C 21.878906 30.503906 21.902344 30.667969 21.9375 30.828125 C 20.773438 31.613281 19.585938 32.359375 18.320312 32.945312 C 17.664062 33.246094 16.992188 33.519531 16.300781 33.722656 C 15.609375 33.9375 14.902344 34.085938 14.1875 34.167969 C 13.472656 34.25 12.75 34.253906 12.035156 34.171875 L 11.769531 34.140625 C 11.679688 34.125 11.59375 34.109375 11.503906 34.09375 C 11.328125 34.066406 11.152344 34.027344 10.980469 33.980469 C 10.632812 33.894531 10.289062 33.78125 9.957031 33.644531 C 9.296875 33.375 8.667969 33.007812 8.113281 32.550781 C 7.59375 32.128906 7.140625 31.621094 6.785156 31.050781 C 7.03125 31.238281 7.292969 31.410156 7.578125 31.542969 C 7.613281 31.558594 7.648438 31.574219 7.683594 31.585938 C 7.8125 31.636719 7.941406 31.679688 8.070312 31.710938 C 8.238281 31.753906 8.402344 31.789062 8.570312 31.820312 C 9.238281 31.945312 9.921875 31.996094 10.605469 31.972656 C 11.285156 31.949219 11.964844 31.863281 12.628906 31.722656 C 13.292969 31.585938 13.949219 31.402344 14.589844 31.183594 C 15.234375 30.964844 15.859375 30.707031 16.472656 30.421875 C 17.085938 30.132812 17.683594 29.816406 18.265625 29.472656 C 18.558594 29.300781 18.84375 29.121094 19.125 28.9375 C 19.410156 28.746094 19.683594 28.546875 19.949219 28.335938 C 20.480469 27.917969 20.980469 27.453125 21.429688 26.945312 C 22.324219 25.933594 23.046875 24.757812 23.433594 23.453125 C 23.589844 22.878906 23.625 22.292969 23.636719 21.710938 C 23.636719 21.625 23.636719 21.539062 23.636719 21.453125 C 23.636719 21.285156 23.636719 21.117188 23.632812 20.953125 C 23.632812 20.785156 23.617188 20.609375 23.585938 20.441406 C 23.519531 20.109375 23.402344 19.789062 23.261719 19.484375 C 22.980469 18.871094 22.605469 18.3125 22.191406 17.785156 C 21.925781 17.457031 21.640625 17.140625 21.332031 16.847656 C 21.289062 16.804688 21.246094 16.757812 21.199219 16.714844 C 20.972656 16.5 20.722656 16.308594 20.457031 16.144531 C 20.589844 16.234375 20.714844 16.332031 20.835938 16.4375 C 21.183594 16.742188 21.484375 17.09375 21.730469 17.476562 C 22.058594 17.992188 22.296875 18.566406 22.441406 19.15625 C 22.585938 19.75 22.636719 20.359375 22.597656 20.964844 C 22.558594 21.566406 22.425781 22.164062 22.222656 22.738281 C 21.816406 23.882812 21.136719 24.925781 20.316406 25.832031 C 19.90625 26.285156 19.464844 26.710938 18.988281 27.101562 C 18.753906 27.300781 18.507812 27.484375 18.261719 27.667969 C 18.011719 27.84375 17.757812 28.019531 17.496094 28.179688 C 16.972656 28.507812 16.429688 28.800781 15.867188 29.058594 C 15.308594 29.3125 14.730469 29.535156 14.140625 29.71875 C 12.960938 30.089844 11.730469 30.300781 10.492188 30.355469 C 9.871094 30.378906 9.25 30.367188 8.632812 30.304688 C 8.019531 30.238281 7.410156 30.109375 6.835938 29.890625 C 6.261719 29.675781 5.722656 29.355469 5.25 28.957031 C 5.015625 28.761719 4.796875 28.539062 4.609375 28.292969 C 4.429688 28.054688 4.277344 27.789062 4.175781 27.503906 C 4.175781 27.496094 4.171875 27.492188 4.171875 27.484375 C 4.207031 27.613281 4.253906 27.734375 4.308594 27.855469 C 4.417969 28.164062 4.566406 28.457031 4.734375 28.738281 C 4.902344 29.027344 5.097656 29.296875 5.304688 29.5625 C 5.664062 30.023438 6.066406 30.453125 6.515625 30.835938 C 6.582031 30.890625 6.648438 30.945312 6.714844 31 C 6.730469 31.007812 6.742188 31.019531 6.757812 31.03125 C 7.058594 31.644531 7.492188 32.203125 8.003906 32.675781 C 8.546875 33.171875 9.175781 33.582031 9.851562 33.886719 C 10.191406 34.039062 10.542969 34.167969 10.902344 34.265625 C 11.082031 34.3125 11.261719 34.359375 11.445312 34.394531 C 11.535156 34.410156 11.628906 34.429688 11.71875 34.445312 L 11.996094 34.488281 C 12.734375 34.585938 13.488281 34.582031 14.226562 34.5 C 14.964844 34.417969 15.691406 34.253906 16.398438 34.03125 C 16.75 33.917969 17.097656 33.789062 17.4375 33.644531 C 17.777344 33.503906 18.113281 33.351562 18.441406 33.183594 C 19.703125 32.546875 20.859375 31.734375 21.941406 30.847656 C 21.941406 30.859375 21.945312 30.867188 21.945312 30.878906 C 21.949219 30.902344 21.949219 30.925781 21.949219 30.949219 C 21.96875 31.148438 21.992188 31.347656 22.023438 31.542969 C 22.058594 31.742188 22.097656 31.9375 22.144531 32.132812 C 22.15625 32.167969 22.164062 32.203125 22.175781 32.238281 C 22.21875 32.398438 22.261719 32.554688 22.316406 32.710938 C 22.382812 32.898438 22.449219 33.085938 22.519531 33.273438 C 22.804688 34.019531 23.148438 34.746094 23.585938 35.425781 C 23.617188 35.480469 23.65625 35.53125 23.691406 35.585938 C 23.945312 35.960938 24.230469 36.316406 24.554688 36.640625 C 24.597656 36.757812 24.648438 36.875 24.699219 36.988281 C 24.800781 37.210938 24.917969 37.421875 25.042969 37.628906 C 25.296875 38.042969 25.597656 38.429688 25.933594 38.785156 C 26.269531 39.140625 26.644531 39.464844 27.058594 39.734375 C 27.160156 39.804688 27.269531 39.867188 27.375 39.929688 C 27.484375 39.988281 27.59375 40.046875 27.703125 40.101562 C 27.925781 40.210938 28.15625 40.304688 28.386719 40.390625 C 28.851562 40.5625 29.332031 40.695312 29.820312 40.78125 C 30.308594 40.863281 30.800781 40.914062 31.296875 40.925781 C 31.789062 40.9375 32.285156 40.914062 32.777344 40.855469 C 33.269531 40.796875 33.757812 40.707031 34.234375 40.582031 C 35.191406 40.328125 36.113281 39.9375 36.953125 39.414062 C 37.789062 38.886719 38.542969 38.230469 39.144531 37.457031 C 39.449219 37.070312 39.71875 36.65625 39.945312 36.226562 C 40.171875 35.792969 40.363281 35.34375 40.507812 34.878906 C 40.761719 34.066406 40.875 33.210938 40.828125 32.363281 C 40.863281 32.265625 40.894531 32.164062 40.925781 32.0625 C 40.960938 31.9375 40.996094 31.8125 41.027344 31.691406 C 41.226562 30.917969 41.339844 30.121094 41.332031 29.320312 C 41.332031 28.523438 41.210938 27.726562 40.96875 26.96875 "/></g><path style=" stroke:none;fill-rule:nonzero;fill:#ffffff;fill-opacity:1;" d="M 17.203125 34.070312 C 16.675781 34.273438 16.140625 34.449219 15.597656 34.601562 C 15.054688 34.757812 14.5 34.882812 13.9375 35.007812 C 14.515625 35.023438 15.09375 34.964844 15.660156 34.859375 C 16.230469 34.75 16.785156 34.589844 17.328125 34.382812 C 17.867188 34.175781 18.386719 33.921875 18.878906 33.621094 C 19.371094 33.324219 19.835938 32.980469 20.246094 32.582031 C 19.75 32.867188 19.253906 33.140625 18.75 33.390625 C 18.242188 33.640625 17.726562 33.867188 17.203125 34.070312 "/><path style=" stroke:none;fill-rule:nonzero;fill:#ffffff;fill-opacity:1;" d="M 37.867188 13.894531 C 38.226562 13.339844 38.484375 12.722656 38.625 12.078125 C 38.765625 11.433594 38.789062 10.765625 38.695312 10.117188 C 38.601562 9.464844 38.398438 8.835938 38.070312 8.273438 C 38.265625 8.890625 38.390625 9.515625 38.429688 10.140625 C 38.46875 10.769531 38.421875 11.398438 38.289062 12.007812 C 38.15625 12.617188 37.933594 13.207031 37.636719 13.761719 C 37.339844 14.316406 36.964844 14.835938 36.527344 15.316406 C 37.058594 14.941406 37.511719 14.449219 37.867188 13.894531 "/><path style=" stroke:none;fill-rule:nonzero;fill:#ffffff;fill-opacity:1;" d="M 37.722656 12.71875 C 37.84375 12.511719 37.929688 12.285156 37.980469 12.050781 C 38.035156 11.816406 38.050781 11.574219 38.023438 11.335938 C 38 11.097656 37.9375 10.863281 37.820312 10.65625 C 37.796875 10.890625 37.785156 11.113281 37.757812 11.335938 C 37.730469 11.554688 37.695312 11.765625 37.648438 11.980469 C 37.601562 12.191406 37.542969 12.398438 37.476562 12.609375 C 37.410156 12.820312 37.328125 13.027344 37.25 13.253906 C 37.445312 13.113281 37.597656 12.921875 37.722656 12.71875 "/><path style=" stroke:none;fill-rule:nonzero;fill:#ffffff;fill-opacity:1;" d="M 24.761719 16.34375 C 25.160156 16.640625 25.617188 16.867188 26.097656 17.003906 C 26.574219 17.140625 27.078125 17.195312 27.5625 17.140625 C 27.082031 17.054688 26.621094 16.933594 26.183594 16.753906 C 25.75 16.578125 25.339844 16.351562 24.964844 16.074219 C 24.59375 15.800781 24.253906 15.476562 23.960938 15.113281 C 23.664062 14.75 23.414062 14.347656 23.199219 13.917969 C 23.28125 14.394531 23.476562 14.851562 23.742188 15.265625 C 24.011719 15.679688 24.359375 16.046875 24.761719 16.34375 "/><path style=" stroke:none;fill-rule:nonzero;fill:#ffffff;fill-opacity:1;" d="M 25.519531 16.144531 C 25.714844 16.253906 25.925781 16.335938 26.148438 16.378906 C 26.367188 16.417969 26.59375 16.425781 26.8125 16.371094 C 26.605469 16.285156 26.414062 16.210938 26.226562 16.125 C 26.042969 16.039062 25.863281 15.949219 25.691406 15.851562 C 25.519531 15.753906 25.351562 15.644531 25.183594 15.527344 C 25.015625 15.410156 24.855469 15.285156 24.675781 15.148438 C 24.738281 15.363281 24.855469 15.554688 25.003906 15.722656 C 25.148438 15.890625 25.324219 16.03125 25.519531 16.144531 "/><path style=" stroke:none;fill-rule:nonzero;fill:#ffffff;fill-opacity:1;" d="M 36.144531 18.253906 C 36.46875 18.054688 36.765625 17.820312 37.035156 17.558594 C 37.300781 17.292969 37.535156 17 37.714844 16.671875 C 37.425781 16.910156 37.144531 17.144531 36.855469 17.359375 C 36.566406 17.574219 36.269531 17.777344 35.964844 17.964844 C 35.660156 18.15625 35.34375 18.328125 35.019531 18.488281 C 34.695312 18.648438 34.359375 18.792969 34.015625 18.945312 C 34.394531 18.929688 34.765625 18.851562 35.121094 18.730469 C 35.480469 18.613281 35.824219 18.449219 36.144531 18.253906 "/><path style=" stroke:none;fill-rule:nonzero;fill:#ffffff;fill-opacity:1;" d="M 37.757812 19.671875 C 38.117188 19.507812 38.441406 19.28125 38.738281 19.019531 C 39.03125 18.757812 39.292969 18.460938 39.511719 18.132812 C 39.734375 17.808594 39.917969 17.457031 40.050781 17.089844 C 40.183594 16.722656 40.269531 16.339844 40.285156 15.949219 C 40.132812 16.308594 39.976562 16.652344 39.804688 16.984375 C 39.628906 17.316406 39.4375 17.636719 39.230469 17.945312 C 39.019531 18.253906 38.789062 18.550781 38.542969 18.835938 C 38.296875 19.121094 38.035156 19.394531 37.757812 19.671875 "/><path style=" stroke:none;fill-rule:nonzero;fill:#ffffff;fill-opacity:1;" d="M 40.804688 14.035156 C 40.769531 13.914062 40.71875 13.796875 40.628906 13.695312 C 40.582031 13.820312 40.554688 13.933594 40.535156 14.046875 C 40.515625 14.160156 40.503906 14.269531 40.496094 14.378906 C 40.488281 14.488281 40.488281 14.597656 40.488281 14.710938 C 40.496094 14.828125 40.503906 14.945312 40.535156 15.078125 C 40.636719 14.988281 40.703125 14.878906 40.753906 14.761719 C 40.800781 14.648438 40.828125 14.523438 40.839844 14.402344 C 40.847656 14.277344 40.835938 14.15625 40.804688 14.035156 "/><path style=" stroke:none;fill-rule:nonzero;fill:#ffffff;fill-opacity:1;" d="M 35.699219 19.441406 C 35.382812 19.597656 35.0625 19.738281 34.734375 19.867188 C 34.40625 19.996094 34.070312 20.109375 33.730469 20.210938 C 33.390625 20.316406 33.046875 20.402344 32.691406 20.496094 C 33.054688 20.542969 33.425781 20.523438 33.792969 20.46875 C 34.15625 20.414062 34.515625 20.316406 34.859375 20.179688 C 35.203125 20.046875 35.53125 19.875 35.835938 19.671875 C 36.140625 19.464844 36.421875 19.226562 36.65625 18.945312 C 36.332031 19.117188 36.019531 19.285156 35.699219 19.441406 "/><path style=" stroke:none;fill-rule:nonzero;fill:#ffffff;fill-opacity:1;" d="M 39.679688 27.710938 C 39.664062 27.226562 39.566406 26.738281 39.394531 26.277344 C 39.222656 25.816406 38.980469 25.382812 38.671875 25 C 38.367188 24.617188 37.996094 24.285156 37.574219 24.046875 C 37.90625 24.394531 38.203125 24.757812 38.453125 25.152344 C 38.707031 25.546875 38.910156 25.960938 39.070312 26.394531 C 39.230469 26.828125 39.347656 27.273438 39.410156 27.734375 C 39.476562 28.195312 39.488281 28.664062 39.460938 29.140625 C 39.628906 28.691406 39.691406 28.199219 39.679688 27.710938 "/><path style=" stroke:none;fill-rule:nonzero;fill:#ffffff;fill-opacity:1;" d="M 37.335938 33.617188 C 37.613281 33.472656 37.859375 33.273438 38.078125 33.050781 C 38.300781 32.828125 38.488281 32.578125 38.648438 32.308594 C 38.808594 32.042969 38.933594 31.753906 39.023438 31.457031 C 39.113281 31.160156 39.164062 30.851562 39.15625 30.542969 C 39.027344 30.824219 38.90625 31.097656 38.773438 31.363281 C 38.644531 31.628906 38.503906 31.886719 38.351562 32.140625 C 38.203125 32.394531 38.042969 32.640625 37.871094 32.882812 C 37.703125 33.128906 37.519531 33.367188 37.335938 33.617188 "/><path style=" stroke:none;fill-rule:nonzero;fill:#ffffff;fill-opacity:1;" d="M 38.785156 29.617188 C 38.84375 29.300781 38.871094 28.976562 38.867188 28.65625 C 38.863281 28.332031 38.832031 28.011719 38.746094 27.699219 C 38.6875 28.015625 38.648438 28.328125 38.601562 28.636719 C 38.554688 28.949219 38.503906 29.253906 38.449219 29.558594 C 38.394531 29.867188 38.335938 30.171875 38.269531 30.476562 C 38.207031 30.785156 38.140625 31.089844 38.082031 31.410156 C 38.273438 31.144531 38.414062 30.851562 38.53125 30.550781 C 38.644531 30.25 38.730469 29.9375 38.785156 29.617188 "/><path style=" stroke:none;fill-rule:nonzero;fill:#ffffff;fill-opacity:1;" d="M 39.125 33.988281 C 38.894531 34.195312 38.6875 34.40625 38.476562 34.617188 C 38.265625 34.824219 38.054688 35.03125 37.84375 35.234375 C 37.632812 35.4375 37.417969 35.636719 37.199219 35.839844 C 36.980469 36.042969 36.761719 36.242188 36.542969 36.457031 C 36.835938 36.359375 37.109375 36.214844 37.363281 36.046875 C 37.621094 35.878906 37.859375 35.6875 38.082031 35.476562 C 38.304688 35.265625 38.503906 35.035156 38.683594 34.785156 C 38.859375 34.539062 39.011719 34.273438 39.125 33.988281 "/><path style=" stroke:none;fill-rule:nonzero;fill:#ffffff;fill-opacity:1;" d="M 39.640625 37.078125 C 39.476562 37.335938 39.308594 37.589844 39.136719 37.84375 C 38.960938 38.097656 38.785156 38.347656 38.613281 38.617188 C 38.886719 38.445312 39.125 38.238281 39.34375 38.007812 C 39.5625 37.777344 39.761719 37.527344 39.929688 37.257812 C 40.101562 36.992188 40.25 36.710938 40.367188 36.417969 C 40.480469 36.121094 40.570312 35.820312 40.609375 35.503906 C 40.4375 35.773438 40.28125 36.039062 40.125 36.300781 C 39.964844 36.5625 39.804688 36.824219 39.640625 37.078125 "/><path style=" stroke:none;fill-rule:nonzero;fill:#ffffff;fill-opacity:1;" d="M 24.425781 33.515625 C 23.984375 32.964844 23.632812 32.34375 23.382812 31.683594 C 23.128906 31.019531 22.980469 30.320312 22.925781 29.597656 C 22.835938 30.316406 22.914062 31.0625 23.128906 31.765625 C 23.339844 32.472656 23.691406 33.140625 24.15625 33.722656 C 24.625 34.304688 25.203125 34.796875 25.851562 35.164062 C 26.5 35.53125 27.21875 35.777344 27.949219 35.859375 C 27.25 35.640625 26.589844 35.332031 25.992188 34.9375 C 25.398438 34.542969 24.867188 34.066406 24.425781 33.515625 "/><path style=" stroke:none;fill-rule:nonzero;fill:#ffffff;fill-opacity:1;" d="M 25.1875 33.054688 C 25.023438 32.890625 24.871094 32.710938 24.734375 32.515625 C 24.597656 32.320312 24.480469 32.109375 24.367188 31.878906 C 24.34375 32.136719 24.394531 32.398438 24.5 32.640625 C 24.601562 32.882812 24.757812 33.105469 24.949219 33.292969 C 25.136719 33.480469 25.363281 33.632812 25.609375 33.734375 C 25.855469 33.835938 26.125 33.886719 26.386719 33.859375 C 26.152344 33.75 25.9375 33.632812 25.738281 33.5 C 25.539062 33.367188 25.355469 33.21875 25.1875 33.054688 "/><path style=" stroke:none;fill-rule:nonzero;fill:#ffffff;fill-opacity:1;" d="M 23.117188 21.519531 C 23.023438 21.828125 22.941406 22.128906 22.851562 22.421875 C 22.757812 22.71875 22.660156 23.007812 22.546875 23.292969 C 22.4375 23.578125 22.316406 23.859375 22.1875 24.140625 C 22.058594 24.421875 21.917969 24.699219 21.78125 24.992188 C 22.03125 24.785156 22.242188 24.535156 22.421875 24.269531 C 22.605469 24 22.753906 23.710938 22.867188 23.410156 C 22.984375 23.109375 23.066406 22.796875 23.113281 22.480469 C 23.15625 22.160156 23.167969 21.839844 23.117188 21.519531 "/><path style=" stroke:none;fill-rule:nonzero;fill:#ffffff;fill-opacity:1;" d="M 21.992188 20.171875 C 21.960938 19.640625 21.816406 19.117188 21.578125 18.648438 C 21.335938 18.175781 21 17.753906 20.585938 17.441406 C 20.898438 17.851562 21.152344 18.289062 21.332031 18.753906 C 21.515625 19.21875 21.625 19.703125 21.652344 20.191406 C 21.679688 20.683594 21.625 21.175781 21.5 21.65625 C 21.371094 22.136719 21.171875 22.601562 20.90625 23.046875 C 21.285156 22.6875 21.570312 22.230469 21.753906 21.734375 C 21.941406 21.242188 22.023438 20.707031 21.992188 20.171875 "/><path style=" stroke:none;fill-rule:nonzero;fill:#ffffff;fill-opacity:1;" d="M 21.242188 21.335938 C 21.324219 21.203125 21.378906 21.046875 21.398438 20.886719 C 21.421875 20.726562 21.40625 20.5625 21.359375 20.410156 C 21.308594 20.261719 21.226562 20.117188 21.101562 20.015625 C 21.097656 20.175781 21.101562 20.3125 21.09375 20.449219 C 21.089844 20.585938 21.078125 20.714844 21.058594 20.84375 C 21.042969 20.972656 21.023438 21.101562 20.992188 21.234375 C 20.964844 21.367188 20.929688 21.503906 20.890625 21.660156 C 21.039062 21.589844 21.15625 21.472656 21.242188 21.335938 "/><path style=" stroke:none;fill-rule:nonzero;fill:#ffffff;fill-opacity:1;" d="M 15.644531 28.425781 C 15.132812 28.597656 14.632812 28.765625 14.125 28.914062 C 13.617188 29.066406 13.105469 29.195312 12.589844 29.308594 C 12.070312 29.417969 11.550781 29.511719 11.027344 29.582031 C 10.503906 29.660156 9.972656 29.710938 9.4375 29.765625 C 9.96875 29.851562 10.511719 29.871094 11.050781 29.847656 C 11.59375 29.824219 12.132812 29.75 12.660156 29.636719 C 13.191406 29.523438 13.710938 29.367188 14.210938 29.164062 C 14.714844 28.964844 15.199219 28.722656 15.644531 28.425781 "/><path style=" stroke:none;fill-rule:nonzero;fill:#ffffff;fill-opacity:1;" d="M 17.570312 29.191406 C 17.789062 29.09375 17.996094 28.976562 18.195312 28.839844 C 18.394531 28.703125 18.582031 28.554688 18.742188 28.367188 C 18.503906 28.433594 18.285156 28.519531 18.066406 28.609375 C 17.851562 28.699219 17.636719 28.789062 17.425781 28.886719 C 17.214844 28.984375 17.003906 29.082031 16.792969 29.1875 C 16.585938 29.292969 16.375 29.402344 16.167969 29.539062 C 16.417969 29.535156 16.65625 29.496094 16.890625 29.433594 C 17.121094 29.375 17.351562 29.292969 17.570312 29.191406 "/><path style=" stroke:none;fill-rule:nonzero;fill:#ffffff;fill-opacity:1;" d="M 17.636719 30.757812 C 17.066406 31.050781 16.484375 31.308594 15.882812 31.539062 C 15.285156 31.769531 14.671875 31.964844 14.046875 32.144531 C 14.699219 32.101562 15.34375 31.972656 15.972656 31.789062 C 16.597656 31.605469 17.210938 31.355469 17.792969 31.058594 C 18.375 30.757812 18.929688 30.410156 19.445312 30.007812 C 19.960938 29.605469 20.4375 29.160156 20.847656 28.660156 C 20.335938 29.058594 19.820312 29.441406 19.289062 29.792969 C 18.753906 30.144531 18.203125 30.46875 17.636719 30.757812 "/><path style=" stroke:none;fill-rule:nonzero;fill:#ffffff;fill-opacity:1;" d="M 19.078125 30.902344 C 19.207031 30.832031 19.324219 30.746094 19.425781 30.644531 C 19.53125 30.539062 19.621094 30.421875 19.679688 30.277344 C 19.527344 30.316406 19.398438 30.371094 19.269531 30.425781 C 19.144531 30.484375 19.027344 30.542969 18.910156 30.609375 C 18.792969 30.675781 18.675781 30.746094 18.5625 30.824219 C 18.449219 30.902344 18.335938 30.984375 18.222656 31.089844 C 18.378906 31.117188 18.527344 31.097656 18.671875 31.0625 C 18.8125 31.027344 18.949219 30.972656 19.078125 30.902344 "/></g></svg>