<svg xmlns="http://www.w3.org/2000/svg" xmlns:xlink="http://www.w3.org/1999/xlink" width="60" zoomAndPan="magnify" viewBox="0 0 45 44.999999" height="60" preserveAspectRatio="xMidYMid meet" version="1.2"><defs><clipPath id="ed6aba8666"><path d="M 10 8 L 34 8 L 34 40 L 10 40 Z M 10 8 "/></clipPath><clipPath id="13d2a6be03"><path d="M 26.371094 0.375 L 39.640625 8.859375 L 17.410156 43.609375 L 4.144531 35.121094 Z M 26.371094 0.375 "/></clipPath><clipPath id="19fcf9beb1"><path d="M 26.371094 0.375 L 39.640625 8.859375 L 17.410156 43.609375 L 4.144531 35.121094 Z M 26.371094 0.375 "/></clipPath><clipPath id="94c7a797c7"><path d="M 26.371094 0.375 L 39.640625 8.859375 L 17.410156 43.609375 L 4.144531 35.121094 Z M 26.371094 0.375 "/></clipPath><clipPath id="7f3b953d6a"><path d="M 26.839844 -0.355469 L 40.105469 8.132812 L 17.414062 43.605469 L 4.144531 35.117188 Z M 26.839844 -0.355469 "/></clipPath><clipPath id="352d28356f"><path d="M 27 4 L 37 4 L 37 14 L 27 14 Z M 27 4 "/></clipPath><clipPath id="a3b88c86e4"><path d="M 26.371094 0.375 L 39.640625 8.859375 L 17.410156 43.609375 L 4.144531 35.121094 Z M 26.371094 0.375 "/></clipPath><clipPath id="cb34f95287"><path d="M 26.371094 0.375 L 39.640625 8.859375 L 17.410156 43.609375 L 4.144531 35.121094 Z M 26.371094 0.375 "/></clipPath><clipPath id="e27c7c2a11"><path d="M 26.371094 0.375 L 39.640625 8.859375 L 17.410156 43.609375 L 4.144531 35.121094 Z M 26.371094 0.375 "/></clipPath><clipPath id="8e43753b75"><path d="M 26.839844 -0.355469 L 40.105469 8.132812 L 17.414062 43.605469 L 4.144531 35.117188 Z M 26.839844 -0.355469 "/></clipPath><clipPath id="a68765d867"><path d="M 24 4 L 36 4 L 36 13 L 24 13 Z M 24 4 "/></clipPath><clipPath id="9690b97207"><path d="M 26.371094 0.375 L 39.640625 8.859375 L 17.410156 43.609375 L 4.144531 35.121094 Z M 26.371094 0.375 "/></clipPath><clipPath id="cafc731bf9"><path d="M 26.371094 0.375 L 39.640625 8.859375 L 17.410156 43.609375 L 4.144531 35.121094 Z M 26.371094 0.375 "/></clipPath><clipPath id="8d1fe63f39"><path d="M 26.371094 0.375 L 39.640625 8.859375 L 17.410156 43.609375 L 4.144531 35.121094 Z M 26.371094 0.375 "/></clipPath><clipPath id="eadf37fbfb"><path d="M 26.839844 -0.355469 L 40.105469 8.132812 L 17.414062 43.605469 L 4.144531 35.117188 Z M 26.839844 -0.355469 "/></clipPath><clipPath id="7b773d71b3"><path d="M 18 13 L 22 13 L 22 18 L 18 18 Z M 18 13 "/></clipPath><clipPath id="1360b983a9"><path d="M 26.371094 0.375 L 39.640625 8.859375 L 17.410156 43.609375 L 4.144531 35.121094 Z M 26.371094 0.375 "/></clipPath><clipPath id="e915476b1b"><path d="M 26.371094 0.375 L 39.640625 8.859375 L 17.410156 43.609375 L 4.144531 35.121094 Z M 26.371094 0.375 "/></clipPath><clipPath id="8ac01f383e"><path d="M 26.371094 0.375 L 39.640625 8.859375 L 17.410156 43.609375 L 4.144531 35.121094 Z M 26.371094 0.375 "/></clipPath><clipPath id="2fb5ce4473"><path d="M 26.839844 -0.355469 L 40.105469 8.132812 L 17.414062 43.605469 L 4.144531 35.117188 Z M 26.839844 -0.355469 "/></clipPath><clipPath id="695a33642b"><path d="M 13 26 L 17 26 L 17 29 L 13 29 Z M 13 26 "/></clipPath><clipPath id="0a1451c75d"><path d="M 26.371094 0.375 L 39.640625 8.859375 L 17.410156 43.609375 L 4.144531 35.121094 Z M 26.371094 0.375 "/></clipPath><clipPath id="659bf1505e"><path d="M 26.371094 0.375 L 39.640625 8.859375 L 17.410156 43.609375 L 4.144531 35.121094 Z M 26.371094 0.375 "/></clipPath><clipPath id="c0c08735cb"><path d="M 26.371094 0.375 L 39.640625 8.859375 L 17.410156 43.609375 L 4.144531 35.121094 Z M 26.371094 0.375 "/></clipPath><clipPath id="74b6623c2e"><path d="M 26.839844 -0.355469 L 40.105469 8.132812 L 17.414062 43.605469 L 4.144531 35.117188 Z M 26.839844 -0.355469 "/></clipPath><clipPath id="6fd7118039"><path d="M 21 23 L 28 23 L 28 27 L 21 27 Z M 21 23 "/></clipPath><clipPath id="475d778c9b"><path d="M 26.371094 0.375 L 39.640625 8.859375 L 17.410156 43.609375 L 4.144531 35.121094 Z M 26.371094 0.375 "/></clipPath><clipPath id="c7d910fd59"><path d="M 26.371094 0.375 L 39.640625 8.859375 L 17.410156 43.609375 L 4.144531 35.121094 Z M 26.371094 0.375 "/></clipPath><clipPath id="a71379f24c"><path d="M 26.371094 0.375 L 39.640625 8.859375 L 17.410156 43.609375 L 4.144531 35.121094 Z M 26.371094 0.375 "/></clipPath><clipPath id="6ea6bb904e"><path d="M 26.839844 -0.355469 L 40.105469 8.132812 L 17.414062 43.605469 L 4.144531 35.117188 Z M 26.839844 -0.355469 "/></clipPath><clipPath id="a809ad231b"><path d="M 13 34 L 18 34 L 18 37 L 13 37 Z M 13 34 "/></clipPath><clipPath id="62052d1715"><path d="M 26.371094 0.375 L 39.640625 8.859375 L 17.410156 43.609375 L 4.144531 35.121094 Z M 26.371094 0.375 "/></clipPath><clipPath id="802cee6d2a"><path d="M 26.371094 0.375 L 39.640625 8.859375 L 17.410156 43.609375 L 4.144531 35.121094 Z M 26.371094 0.375 "/></clipPath><clipPath id="4267c3306e"><path d="M 26.371094 0.375 L 39.640625 8.859375 L 17.410156 43.609375 L 4.144531 35.121094 Z M 26.371094 0.375 "/></clipPath><clipPath id="01d65c4746"><path d="M 26.839844 -0.355469 L 40.105469 8.132812 L 17.414062 43.605469 L 4.144531 35.117188 Z M 26.839844 -0.355469 "/></clipPath></defs><g id="6cb9bd9156"><g clip-rule="nonzero" clip-path="url(#ed6aba8666)"><g clip-rule="nonzero" clip-path="url(#13d2a6be03)"><g clip-rule="nonzero" clip-path="url(#19fcf9beb1)"><g clip-rule="nonzero" clip-path="url(#94c7a797c7)"><g clip-rule="nonzero" clip-path="url(#7f3b953d6a)"><path style=" stroke:none;fill-rule:evenodd;fill:#fd8c2b;fill-opacity:1;" d="M 17.550781 15.007812 C 12.808594 25.835938 7.976562 37.617188 11.210938 39.636719 C 14.445312 41.660156 27.785156 25.929688 30.234375 23.121094 C 32.683594 20.3125 36.808594 14.734375 28.59375 10.160156 C 20.378906 5.585938 18.070312 13.828125 17.550781 15.007812 Z M 17.550781 15.007812 "/></g></g></g></g></g><g clip-rule="nonzero" clip-path="url(#352d28356f)"><g clip-rule="nonzero" clip-path="url(#a3b88c86e4)"><g clip-rule="nonzero" clip-path="url(#cb34f95287)"><g clip-rule="nonzero" clip-path="url(#e27c7c2a11)"><g clip-rule="nonzero" clip-path="url(#8e43753b75)"><path style=" stroke:none;fill-rule:evenodd;fill:#539d06;fill-opacity:1;" d="M 28.335938 12.128906 C 28.335938 12.128906 26.898438 8.289062 27.625 5.570312 C 28.351562 2.851562 29.167969 6.609375 28.847656 9.140625 C 28.847656 9.140625 32.609375 4.527344 33.746094 6.792969 C 34.976562 9.234375 30.113281 10.875 30.113281 10.875 C 30.113281 10.875 36.535156 8.644531 36.898438 11.117188 C 37.265625 13.59375 31.78125 13.597656 28.335938 12.128906 Z M 28.335938 12.128906 "/></g></g></g></g></g><g clip-rule="nonzero" clip-path="url(#a68765d867)"><g clip-rule="nonzero" clip-path="url(#9690b97207)"><g clip-rule="nonzero" clip-path="url(#cafc731bf9)"><g clip-rule="nonzero" clip-path="url(#8d1fe63f39)"><g clip-rule="nonzero" clip-path="url(#eadf37fbfb)"><path style=" stroke:none;fill-rule:evenodd;fill:#67bd0f;fill-opacity:1;" d="M 28.558594 12.128906 C 28.558594 12.128906 32.597656 11.464844 34.585938 9.476562 C 36.578125 7.488281 32.917969 8.652344 30.890625 10.195312 C 30.890625 10.195312 33.003906 4.625 30.476562 4.765625 C 27.75 4.917969 28.757812 9.960938 28.757812 9.960938 C 28.757812 9.960938 27.484375 3.265625 25.164062 4.183594 C 22.84375 5.101562 25.570312 9.863281 28.558594 12.128906 Z M 28.558594 12.128906 "/></g></g></g></g></g><g clip-rule="nonzero" clip-path="url(#7b773d71b3)"><g clip-rule="nonzero" clip-path="url(#1360b983a9)"><g clip-rule="nonzero" clip-path="url(#e915476b1b)"><g clip-rule="nonzero" clip-path="url(#8ac01f383e)"><g clip-rule="nonzero" clip-path="url(#2fb5ce4473)"><path style=" stroke:none;fill-rule:evenodd;fill:#d77928;fill-opacity:1;" d="M 18.300781 13.882812 C 18.300781 13.882812 19.816406 15.824219 21.890625 17.074219 C 21.890625 17.074219 19.84375 16.15625 18.265625 14.757812 C 18.265625 14.757812 18.042969 14.472656 18.300781 13.882812 Z M 18.300781 13.882812 "/></g></g></g></g></g><g clip-rule="nonzero" clip-path="url(#695a33642b)"><g clip-rule="nonzero" clip-path="url(#0a1451c75d)"><g clip-rule="nonzero" clip-path="url(#659bf1505e)"><g clip-rule="nonzero" clip-path="url(#c0c08735cb)"><g clip-rule="nonzero" clip-path="url(#74b6623c2e)"><path style=" stroke:none;fill-rule:evenodd;fill:#d77928;fill-opacity:1;" d="M 13.566406 26.222656 C 13.566406 26.222656 14.648438 27.605469 16.125 28.5 C 16.125 28.5 14.664062 27.84375 13.542969 26.847656 C 13.542969 26.847656 13.382812 26.644531 13.566406 26.222656 Z M 13.566406 26.222656 "/></g></g></g></g></g><g clip-rule="nonzero" clip-path="url(#6fd7118039)"><g clip-rule="nonzero" clip-path="url(#475d778c9b)"><g clip-rule="nonzero" clip-path="url(#c7d910fd59)"><g clip-rule="nonzero" clip-path="url(#a71379f24c)"><g clip-rule="nonzero" clip-path="url(#6ea6bb904e)"><path style=" stroke:none;fill-rule:evenodd;fill:#d77928;fill-opacity:1;" d="M 27.445312 25.851562 C 27.445312 25.851562 24.359375 24.847656 21.636719 23.035156 C 21.636719 23.035156 23.988281 24.929688 26.53125 26.164062 C 26.53125 26.164062 26.984375 26.3125 27.445312 25.851562 Z M 27.445312 25.851562 "/></g></g></g></g></g><g clip-rule="nonzero" clip-path="url(#a809ad231b)"><g clip-rule="nonzero" clip-path="url(#62052d1715)"><g clip-rule="nonzero" clip-path="url(#802cee6d2a)"><g clip-rule="nonzero" clip-path="url(#4267c3306e)"><g clip-rule="nonzero" clip-path="url(#01d65c4746)"><path style=" stroke:none;fill-rule:evenodd;fill:#d77928;fill-opacity:1;" d="M 17.199219 36.300781 C 17.199219 36.300781 15.175781 35.644531 13.394531 34.457031 C 13.394531 34.457031 14.933594 35.695312 16.601562 36.507812 C 16.601562 36.507812 16.898438 36.605469 17.199219 36.300781 Z M 17.199219 36.300781 "/></g></g></g></g></g></g></svg>