<svg xmlns="http://www.w3.org/2000/svg" xmlns:xlink="http://www.w3.org/1999/xlink" width="60" zoomAndPan="magnify" viewBox="0 0 45 44.999999" height="60" preserveAspectRatio="xMidYMid meet" version="1.2"><defs><clipPath id="6b21a2d641"><path d="M 7.222656 6.75 L 32 6.75 L 32 25 L 7.222656 25 Z M 7.222656 6.75 "/></clipPath><clipPath id="a1a26e912f"><path d="M 7.222656 13 L 34 13 L 34 38 L 7.222656 38 Z M 7.222656 13 "/></clipPath><clipPath id="a5fc357f8a"><path d="M 7.222656 31 L 13 31 L 13 38 L 7.222656 38 Z M 7.222656 31 "/></clipPath><clipPath id="69a5ef9b68"><path d="M 19.890625 15.601562 L 37.96875 15.601562 L 37.96875 37.910156 L 19.890625 37.910156 Z M 19.890625 15.601562 "/></clipPath><clipPath id="b9a96f7e3d"><path d="M 19 32 L 25 32 L 25 38.25 L 19 38.25 Z M 19 32 "/></clipPath><clipPath id="256eb61493"><path d="M 7.222656 18 L 12 18 L 12 25 L 7.222656 25 Z M 7.222656 18 "/></clipPath></defs><g id="842d7b7775"><rect x="0" width="45" y="0" height="44.999999" style="fill:#ffffff;fill-opacity:1;stroke:none;"/><rect x="0" width="45" y="0" height="44.999999" style="fill:#ffffff;fill-opacity:1;stroke:none;"/><g clip-rule="nonzero" clip-path="url(#6b21a2d641)"><path style=" stroke:none;fill-rule:nonzero;fill:#f4e64f;fill-opacity:1;" d="M 7.679688 18.644531 C 8.734375 20.355469 9.3125 22.519531 10.332031 24.257812 C 10.339844 24.257812 10.425781 24.449219 10.433594 24.445312 C 13.34375 23.609375 16.164062 21.707031 30.328125 13.855469 C 30.8125 12.949219 31.109375 12.007812 31.109375 11.082031 C 31.109375 8.695312 29.269531 7.433594 27.941406 6.75 C 18.898438 11.464844 10.828125 16.707031 7.679688 18.644531 "/></g><path style=" stroke:none;fill-rule:nonzero;fill:#f3d84f;fill-opacity:1;" d="M 19.226562 20.070312 C 21.882812 18.578125 25.425781 16.570312 30.328125 13.855469 C 30.4375 13.648438 30.539062 13.441406 30.628906 13.230469 C 30.226562 12.902344 29.78125 12.621094 29.289062 12.402344 C 25.347656 15.195312 22.019531 17.769531 19.226562 20.070312 "/><g clip-rule="nonzero" clip-path="url(#a1a26e912f)"><path style=" stroke:none;fill-rule:nonzero;fill:#f3a90e;fill-opacity:1;" d="M 12.445312 37.304688 C 37.089844 14.417969 28.902344 22.203125 33.074219 17.648438 C 32.390625 15.710938 31.179688 13.96875 29.289062 13.121094 C 17.070312 21.78125 10.757812 28.296875 7.929688 31.363281 C 10.234375 32.085938 11.574219 35.023438 12.445312 37.304688 "/></g><path style=" stroke:none;fill-rule:nonzero;fill:#f29910;fill-opacity:1;" d="M 22.640625 27.847656 C 34.59375 16.773438 29.636719 21.402344 33.074219 17.648438 C 32.9375 17.261719 32.78125 16.878906 32.601562 16.515625 C 29.1875 19.917969 25.578125 24.089844 22.640625 27.847656 "/><g clip-rule="nonzero" clip-path="url(#a5fc357f8a)"><path style=" stroke:none;fill-rule:nonzero;fill:#e98a11;fill-opacity:1;" d="M 7.429688 32.429688 C 7.429688 34.027344 10.074219 37.496094 11.78125 37.496094 C 12.472656 37.496094 12.914062 37.015625 12.914062 36.253906 C 12.914062 35.230469 11.894531 33.507812 11.097656 32.753906 C 7.636719 29.480469 7.429688 32.363281 7.429688 32.429688 "/></g><g clip-rule="nonzero" clip-path="url(#69a5ef9b68)"><path style=" stroke:none;fill-rule:nonzero;fill:#f4e64f;fill-opacity:1;" d="M 23.894531 37.90625 C 26.574219 34.636719 34.882812 24.320312 34.894531 24.308594 C 35.957031 22.929688 36.9375 21.488281 37.96875 20.085938 C 37.585938 18.113281 36.65625 16.375 34.683594 15.609375 C 29.453125 20.542969 23.394531 27.8125 19.898438 32.867188 C 22.570312 33.398438 23.089844 35.621094 23.894531 37.90625 "/></g><g clip-rule="nonzero" clip-path="url(#b9a96f7e3d)"><path style=" stroke:none;fill-rule:nonzero;fill:#ecc14c;fill-opacity:1;" d="M 19.507812 34.304688 C 19.507812 36.09375 21.164062 38.25 22.90625 38.25 C 23.820312 38.25 24.246094 37.734375 24.246094 36.828125 C 24.246094 36.496094 24.1875 36.152344 24.105469 35.851562 C 23.296875 32.851562 19.507812 30.859375 19.507812 34.304688 "/></g><g clip-rule="nonzero" clip-path="url(#256eb61493)"><path style=" stroke:none;fill-rule:nonzero;fill:#ecc14c;fill-opacity:1;" d="M 7.679688 18.644531 C 7.363281 18.949219 7.226562 19.433594 7.226562 19.992188 C 7.226562 21.824219 8.695312 24.492188 10.09375 24.492188 C 10.671875 24.492188 11.367188 24.074219 11.367188 23.234375 C 11.367188 21.574219 9.054688 18.238281 7.679688 18.644531 "/></g><path style=" stroke:none;fill-rule:nonzero;fill:#fbf4b7;fill-opacity:1;" d="M 8.984375 18.308594 C 12.050781 16.007812 16.089844 13.28125 19.714844 11.945312 C 16.421875 14.089844 12.410156 16.050781 10.207031 19.347656 C 9.839844 18.976562 9.425781 18.652344 8.984375 18.308594 "/><path style=" stroke:none;fill-rule:nonzero;fill:#fad992;fill-opacity:1;" d="M 10.6875 31.679688 C 12.691406 28.445312 15.304688 25.5 17.738281 22.53125 C 14.726562 25.125 11.742188 27.734375 9.304688 30.882812 C 9.859375 31.082031 10.292969 31.335938 10.6875 31.679688 "/><path style=" stroke:none;fill-rule:nonzero;fill:#fbf4b7;fill-opacity:1;" d="M 21.1875 32.109375 C 23.199219 29.105469 25.59375 26.140625 28.144531 23.535156 C 26.171875 26.441406 24.183594 29.867188 22.792969 32.980469 C 22.371094 32.503906 21.859375 32.164062 21.1875 32.109375 "/></g></svg>