<svg xmlns="http://www.w3.org/2000/svg" xmlns:xlink="http://www.w3.org/1999/xlink" width="60" zoomAndPan="magnify" viewBox="0 0 45 44.999999" height="60" preserveAspectRatio="xMidYMid meet" version="1.2"><defs><clipPath id="d2672c7028"><path d="M 9 2.25 L 35.503906 2.25 L 35.503906 42.496094 L 9 42.496094 Z M 9 2.25 "/></clipPath><clipPath id="8d0fe379bc"><path d="M 9.621094 6 L 13 6 L 13 10 L 9.621094 10 Z M 9.621094 6 "/></clipPath><clipPath id="1d78290712"><path d="M 27 19 L 31.1875 19 L 31.1875 23.558594 L 27 23.558594 Z M 27 19 "/></clipPath><clipPath id="af5f2cd675"><path d="M 23 2.929688 L 28 2.929688 L 28 7 L 23 7 Z M 23 2.929688 "/></clipPath><clipPath id="555e301e2a"><path d="M 10.175781 7 L 12 7 L 12 10 L 10.175781 10 Z M 10.175781 7 "/></clipPath><clipPath id="41902c0c05"><path d="M 24 3.816406 L 27 3.816406 L 27 7 L 24 7 Z M 24 3.816406 "/></clipPath><clipPath id="afd840a93d"><path d="M 28 20 L 30.371094 20 L 30.371094 23.152344 L 28 23.152344 Z M 28 20 "/></clipPath><clipPath id="1d1852a981"><path d="M 10.597656 15.445312 L 35.804688 15.445312 L 35.804688 42.695312 L 10.597656 42.695312 Z M 10.597656 15.445312 "/></clipPath><clipPath id="7f37107ea2"><path d="M 10.238281 14.339844 L 34 14.339844 L 34 26 L 10.238281 26 Z M 10.238281 14.339844 "/></clipPath><clipPath id="e460e0e9f6"><path d="M 16 36 L 35.460938 36 L 35.460938 42.75 L 16 42.75 Z M 16 36 "/></clipPath><clipPath id="f213f4cd2d"><path d="M 14.488281 25 L 15 25 L 15 28 L 14.488281 28 Z M 14.488281 25 "/></clipPath><clipPath id="3d4ad6d15d"><path d="M 14.488281 25 L 16 25 L 16 27 L 14.488281 27 Z M 14.488281 25 "/></clipPath><clipPath id="b3a4b585df"><path d="M 18 24.441406 L 20 24.441406 L 20 27 L 18 27 Z M 18 24.441406 "/></clipPath><clipPath id="2906a1ba57"><path d="M 19 24.441406 L 20 24.441406 L 20 26 L 19 26 Z M 19 24.441406 "/></clipPath><clipPath id="cf2c87ffdd"><path d="M 19 24.441406 L 21 24.441406 L 21 26 L 19 26 Z M 19 24.441406 "/></clipPath><clipPath id="d9c26a3a58"><path d="M 16 31 L 29 31 L 29 37.257812 L 16 37.257812 Z M 16 31 "/></clipPath><clipPath id="b00ddc9132"><path d="M 27 30 L 33.414062 30 L 33.414062 35 L 27 35 Z M 27 30 "/></clipPath><clipPath id="e40115b7d8"><path d="M 16 28 L 18 28 L 18 33.410156 L 16 33.410156 Z M 16 28 "/></clipPath><clipPath id="ec1e4e2ff8"><path d="M 16 32 L 18 32 L 18 33.410156 L 16 33.410156 Z M 16 32 "/></clipPath><clipPath id="07a1b66240"><path d="M 15.738281 27 L 18 27 L 18 29 L 15.738281 29 Z M 15.738281 27 "/></clipPath><clipPath id="d1fdf12629"><path d="M 27 27 L 30.882812 27 L 30.882812 31 L 27 31 Z M 27 27 "/></clipPath><clipPath id="0dfe9fd4b7"><path d="M 29 29 L 30.882812 29 L 30.882812 31 L 29 31 Z M 29 29 "/></clipPath><clipPath id="6377d54166"><path d="M 12.359375 19 L 15 19 L 15 22.445312 L 12.359375 22.445312 Z M 12.359375 19 "/></clipPath><clipPath id="db50eb0212"><path d="M 14 19 L 17.253906 19 L 17.253906 21 L 14 21 Z M 14 19 "/></clipPath><clipPath id="d0eab46850"><path d="M 13.082031 20.039062 L 16 20.039062 L 16 25.273438 L 13.082031 25.273438 Z M 13.082031 20.039062 "/></clipPath><clipPath id="f512146adb"><path d="M 14 20.039062 L 18.324219 20.039062 L 18.324219 24 L 14 24 Z M 14 20.039062 "/></clipPath><clipPath id="e779074756"><path d="M 13 25 L 14 25 L 14 25.265625 L 13 25.265625 Z M 13 25 "/></clipPath><clipPath id="0ce87a9bbd"><path d="M 12.40625 19 L 14 19 L 14 23 L 12.40625 23 Z M 12.40625 19 "/></clipPath><clipPath id="a99d3c3b86"><path d="M 13 18.519531 L 18.289062 18.519531 L 18.289062 25.265625 L 13 25.265625 Z M 13 18.519531 "/></clipPath></defs><g id="5fa32a0d80"><g clip-rule="nonzero" clip-path="url(#d2672c7028)"><path style=" stroke:none;fill-rule:nonzero;fill:#592418;fill-opacity:1;" d="M 34.972656 35.667969 C 35.078125 36.324219 35.480469 37.5625 35.105469 38.128906 C 34.742188 38.589844 33.691406 38.785156 33.125 38.984375 C 31.84375 39.351562 30.546875 39.675781 29.253906 40.003906 C 27.292969 40.480469 25.320312 40.953125 23.367188 41.441406 C 22.175781 41.761719 20.972656 42.023438 19.757812 42.222656 C 19 42.421875 18.234375 42.453125 17.460938 42.304688 C 17.039062 42.171875 16.683594 41.9375 16.394531 41.605469 C 16.101562 41.269531 15.917969 40.882812 15.839844 40.445312 C 15.65625 39.800781 15.523438 39.148438 15.382812 38.496094 C 14.308594 33.613281 13.558594 28.664062 12.507812 23.773438 C 11.636719 19.082031 10.105469 14.535156 9.351562 9.824219 C 9.136719 8.96875 8.941406 8.054688 9.15625 7.269531 C 9.519531 6.296875 10.652344 6.105469 11.523438 5.839844 C 12.824219 5.5 14.148438 5.261719 15.476562 5 C 17.898438 4.507812 20.300781 3.914062 22.6875 3.273438 L 22.796875 3.25 C 23.492188 3.019531 24.195312 2.828125 24.910156 2.671875 C 25.847656 2.484375 27.21875 2.246094 27.761719 3.265625 C 28.289062 4.574219 28.519531 5.980469 28.890625 7.339844 C 29.460938 9.648438 30.089844 11.941406 30.660156 14.25 C 32.203125 20.9375 33.574219 27.671875 34.730469 34.460938 C 34.8125 34.851562 34.894531 35.257812 34.972656 35.667969 Z M 34.972656 35.667969 "/></g><g clip-rule="nonzero" clip-path="url(#8d0fe379bc)"><path style=" stroke:none;fill-rule:nonzero;fill:#8c4e2a;fill-opacity:1;" d="M 12.5625 8.699219 C 12.664062 9.164062 12.632812 9.402344 12.148438 9.558594 C 11.84375 9.664062 11.527344 9.710938 11.214844 9.789062 C 10.933594 9.886719 10.644531 9.9375 10.347656 9.941406 C 9.917969 9.820312 9.917969 9.207031 9.832031 8.839844 C 9.746094 8.449219 9.6875 8.058594 9.648438 7.664062 C 9.648438 7.257812 10.136719 7.140625 10.449219 7.082031 C 10.859375 6.957031 11.269531 6.816406 11.683594 6.714844 C 11.964844 6.683594 12.121094 6.976562 12.207031 7.203125 C 12.367188 7.691406 12.488281 8.191406 12.5625 8.699219 Z M 12.5625 8.699219 "/></g><path style=" stroke:none;fill-rule:nonzero;fill:#8c4e2a;fill-opacity:1;" d="M 13.554688 12.644531 C 13.589844 12.742188 13.597656 12.839844 13.585938 12.941406 C 13.570312 13.046875 13.535156 13.140625 13.480469 13.226562 C 13.425781 13.3125 13.351562 13.378906 13.265625 13.433594 C 13.175781 13.484375 13.082031 13.515625 12.980469 13.523438 C 12.492188 13.679688 11.996094 13.789062 11.488281 13.855469 C 11.027344 13.808594 11 13.21875 10.914062 12.863281 C 10.8125 12.417969 10.679688 11.984375 10.546875 11.539062 C 10.355469 10.890625 10.617188 10.804688 11.171875 10.597656 C 11.632812 10.410156 12.109375 10.296875 12.601562 10.253906 C 13.199219 10.289062 13.273438 11.011719 13.378906 11.472656 C 13.464844 11.859375 13.523438 12.25 13.554688 12.644531 Z M 13.554688 12.644531 "/><path style=" stroke:none;fill-rule:nonzero;fill:#8c4e2a;fill-opacity:1;" d="M 14.359375 15.84375 C 14.414062 16.210938 14.671875 16.679688 14.417969 16.992188 C 14.226562 17.121094 14.015625 17.207031 13.785156 17.25 C 13.394531 17.398438 12.996094 17.417969 12.589844 17.308594 C 12.375 17.1875 12.230469 17.007812 12.15625 16.769531 C 12.09375 16.769531 12.054688 16.734375 12.035156 16.675781 C 11.992188 16.5625 11.949219 16.445312 11.910156 16.308594 C 11.796875 15.941406 11.691406 15.574219 11.566406 15.203125 C 11.304688 14.589844 11.519531 14.519531 12.078125 14.347656 C 12.554688 14.25 13.011719 14.042969 13.496094 13.980469 C 13.726562 13.964844 13.882812 14.066406 13.953125 14.292969 C 14.125 14.800781 14.257812 15.316406 14.359375 15.84375 Z M 14.359375 15.84375 "/><path style=" stroke:none;fill-rule:nonzero;fill:#8c4e2a;fill-opacity:1;" d="M 15.839844 6.242188 C 16 6.816406 16.472656 7.867188 16.15625 8.40625 C 15.925781 8.625 15.652344 8.753906 15.339844 8.792969 C 14.953125 8.875 14.574219 8.972656 14.195312 9.074219 C 13.984375 9.148438 13.765625 9.167969 13.546875 9.136719 C 13.261719 8.996094 13.222656 8.546875 13.132812 8.269531 C 13.046875 7.996094 12.972656 7.617188 12.898438 7.285156 C 12.75 6.65625 12.605469 6.414062 13.339844 6.207031 C 13.917969 6.007812 14.507812 5.855469 15.113281 5.753906 C 15.277344 5.722656 15.433594 5.753906 15.574219 5.847656 C 15.714844 5.941406 15.804688 6.074219 15.839844 6.242188 Z M 15.839844 6.242188 "/><path style=" stroke:none;fill-rule:nonzero;fill:#8c4e2a;fill-opacity:1;" d="M 17.113281 11.917969 C 17.21875 12.582031 16.601562 12.71875 16.09375 12.824219 C 15.730469 12.898438 15.34375 13.007812 14.960938 13.0625 C 14.808594 13.101562 14.660156 13.082031 14.519531 13.007812 C 14.324219 12.828125 14.320312 12.523438 14.25 12.273438 C 14.164062 11.90625 14.085938 11.535156 13.980469 11.167969 C 13.878906 10.800781 13.617188 10.25 14.007812 10.015625 C 14.417969 9.835938 14.835938 9.695312 15.273438 9.597656 C 15.503906 9.519531 15.742188 9.460938 15.980469 9.425781 C 16.5 9.332031 16.65625 9.640625 16.757812 10.09375 C 16.910156 10.695312 17.03125 11.304688 17.113281 11.917969 Z M 17.113281 11.917969 "/><path style=" stroke:none;fill-rule:nonzero;fill:#8c4e2a;fill-opacity:1;" d="M 17.996094 16.152344 C 18.09375 16.886719 17.734375 17.011719 17.117188 17.15625 C 16.632812 17.234375 16.027344 17.523438 15.59375 17.15625 C 15.34375 16.800781 15.175781 16.414062 15.089844 15.988281 C 14.9375 15.460938 14.816406 14.925781 14.726562 14.386719 C 14.632812 13.882812 15.050781 13.832031 15.414062 13.695312 C 15.878906 13.546875 16.355469 13.441406 16.839844 13.390625 C 17.257812 13.347656 17.460938 13.578125 17.535156 13.96875 C 17.660156 14.71875 17.929688 15.414062 17.996094 16.152344 Z M 17.996094 16.152344 "/><path style=" stroke:none;fill-rule:nonzero;fill:#8c4e2a;fill-opacity:1;" d="M 19.863281 6.476562 C 19.914062 6.824219 20.058594 7.210938 19.863281 7.546875 C 19.8125 7.621094 19.742188 7.675781 19.652344 7.703125 C 19.390625 7.796875 19.125 7.871094 18.851562 7.925781 L 17.796875 8.191406 C 17.617188 8.261719 17.429688 8.277344 17.242188 8.246094 C 16.878906 8.125 16.6875 6.628906 16.566406 6.226562 C 16.449219 5.753906 16.363281 5.492188 16.933594 5.34375 C 17.5 5.15625 18.074219 5.007812 18.660156 4.894531 C 18.964844 4.820312 19.386719 4.800781 19.527344 5.15625 C 19.667969 5.589844 19.78125 6.03125 19.863281 6.476562 Z M 19.863281 6.476562 "/><path style=" stroke:none;fill-rule:nonzero;fill:#8c4e2a;fill-opacity:1;" d="M 20.65625 10.621094 C 20.761719 11.265625 20.710938 11.671875 19.992188 11.792969 C 19.652344 11.871094 19.3125 11.933594 18.980469 12.015625 C 18.726562 12.09375 18.46875 12.136719 18.207031 12.148438 C 17.84375 12.148438 17.78125 11.933594 17.714844 11.621094 C 17.566406 10.96875 17.445312 10.304688 17.351562 9.648438 C 17.257812 8.988281 17.582031 8.914062 18.105469 8.769531 C 18.628906 8.625 19.09375 8.503906 19.601562 8.429688 C 20.214844 8.335938 20.332031 8.707031 20.421875 9.222656 C 20.511719 9.734375 20.574219 10.15625 20.65625 10.621094 Z M 20.65625 10.621094 "/><path style=" stroke:none;fill-rule:nonzero;fill:#8c4e2a;fill-opacity:1;" d="M 21.570312 15.164062 C 21.679688 15.644531 21.625 15.847656 21.128906 15.988281 C 20.453125 16.234375 19.757812 16.386719 19.042969 16.449219 C 18.933594 16.441406 18.839844 16.398438 18.761719 16.320312 C 18.683594 16.242188 18.640625 16.148438 18.628906 16.039062 C 18.488281 15.554688 18.378906 15.066406 18.300781 14.570312 C 18.222656 14.042969 17.9375 13.347656 18.453125 12.957031 C 18.824219 12.769531 19.214844 12.648438 19.625 12.589844 C 19.863281 12.527344 20.105469 12.484375 20.351562 12.460938 C 21.019531 12.363281 21.035156 12.949219 21.160156 13.441406 Z M 21.570312 15.164062 "/><path style=" stroke:none;fill-rule:nonzero;fill:#8c4e2a;fill-opacity:1;" d="M 22.433594 18.855469 C 22.554688 19.25 22.574219 19.652344 22.484375 20.054688 C 22.324219 20.421875 21.890625 20.476562 21.550781 20.566406 C 21.160156 20.683594 20.765625 20.75 20.359375 20.757812 C 20.203125 20.757812 20.0625 20.707031 19.941406 20.609375 C 19.816406 20.511719 19.738281 20.386719 19.699219 20.234375 C 19.429688 19.519531 19.234375 18.78125 19.117188 18.027344 C 19.078125 17.628906 19.1875 17.5 19.558594 17.375 C 20.042969 17.207031 20.535156 17.085938 21.039062 17.007812 C 21.671875 16.90625 22.027344 17.035156 22.164062 17.707031 C 22.261719 18.089844 22.351562 18.472656 22.433594 18.855469 Z M 22.433594 18.855469 "/><path style=" stroke:none;fill-rule:nonzero;fill:#8c4e2a;fill-opacity:1;" d="M 23.433594 5.558594 C 23.621094 6.25 23.726562 6.746094 22.890625 6.949219 C 22.566406 7.050781 22.207031 7.125 21.890625 7.199219 C 21.570312 7.277344 21.160156 7.480469 20.796875 7.324219 C 20.550781 7.175781 20.546875 6.835938 20.476562 6.589844 C 20.378906 6.222656 20.285156 5.820312 20.183594 5.433594 C 20.082031 5.046875 19.902344 4.613281 20.386719 4.464844 C 21.007812 4.25 21.660156 4.121094 22.292969 3.933594 C 22.585938 3.859375 23.023438 3.832031 23.113281 4.191406 C 23.277344 4.628906 23.324219 5.109375 23.433594 5.558594 Z M 20.386719 4.960938 C 20.386719 4.953125 20.386719 4.941406 20.386719 4.929688 C 20.386719 4.941406 20.386719 4.953125 20.386719 4.960938 Z M 20.386719 4.960938 "/><path style=" stroke:none;fill-rule:nonzero;fill:#8c4e2a;fill-opacity:1;" d="M 24.246094 9.492188 C 24.335938 9.820312 24.351562 10.152344 24.296875 10.488281 C 24.121094 10.855469 23.542969 10.890625 23.203125 11 C 22.863281 11.109375 22.511719 11.175781 22.160156 11.230469 C 22.003906 11.277344 21.847656 11.277344 21.691406 11.230469 C 21.300781 11.09375 21.078125 9.351562 20.964844 8.902344 C 20.828125 8.335938 21.0625 8.144531 21.582031 8.03125 C 22.105469 7.917969 22.625 7.726562 23.160156 7.625 C 23.324219 7.582031 23.480469 7.601562 23.628906 7.683594 C 23.777344 7.769531 23.875 7.894531 23.921875 8.058594 C 24.046875 8.527344 24.136719 9.011719 24.246094 9.492188 Z M 24.246094 9.492188 "/><path style=" stroke:none;fill-rule:nonzero;fill:#8c4e2a;fill-opacity:1;" d="M 25.011719 12.742188 C 25.101562 13.351562 25.457031 14.328125 25.203125 14.894531 C 25 15.167969 24.621094 15.199219 24.320312 15.296875 C 23.8125 15.402344 23.328125 15.664062 22.804688 15.664062 C 22.570312 15.671875 22.425781 15.5625 22.363281 15.335938 C 22.132812 14.683594 21.957031 14.019531 21.839844 13.335938 C 21.714844 12.84375 21.527344 12.148438 22.175781 11.972656 C 22.785156 11.789062 23.40625 11.648438 24.039062 11.554688 C 24.882812 11.464844 24.851562 12.121094 25.011719 12.742188 Z M 25.011719 12.742188 "/><path style=" stroke:none;fill-rule:nonzero;fill:#8c4e2a;fill-opacity:1;" d="M 26.105469 17.628906 C 26.179688 18.179688 26.46875 19.125 26.144531 19.597656 C 25.929688 19.769531 25.6875 19.871094 25.414062 19.898438 C 24.894531 19.988281 24.386719 20.265625 23.851562 20.210938 C 23.316406 20.15625 23.34375 19.605469 23.230469 19.21875 C 23.113281 18.757812 23.015625 18.296875 22.917969 17.828125 C 22.761719 17.273438 22.703125 16.847656 23.347656 16.652344 C 23.925781 16.4375 24.515625 16.296875 25.125 16.226562 C 25.433594 16.191406 25.65625 16.316406 25.792969 16.59375 C 25.933594 16.929688 26.039062 17.273438 26.105469 17.628906 Z M 26.105469 17.628906 "/><path style=" stroke:none;fill-rule:nonzero;fill:#8c4e2a;fill-opacity:1;" d="M 26.832031 21.59375 C 26.921875 21.894531 26.878906 22.175781 26.707031 22.4375 C 26.484375 22.609375 26.230469 22.710938 25.949219 22.738281 C 25.6875 22.816406 25.417969 22.859375 25.140625 22.859375 C 24.496094 22.859375 24.316406 22.191406 24.191406 21.671875 C 24.148438 21.65625 24.125 21.625 24.109375 21.582031 C 24.070312 21.449219 24.042969 21.3125 24.023438 21.171875 C 23.960938 20.699219 24.582031 20.730469 24.882812 20.601562 C 25.265625 20.523438 26.390625 20.085938 26.59375 20.539062 C 26.710938 20.882812 26.789062 21.234375 26.832031 21.59375 Z M 26.832031 21.59375 "/><g clip-rule="nonzero" clip-path="url(#1d78290712)"><path style=" stroke:none;fill-rule:nonzero;fill:#8c4e2a;fill-opacity:1;" d="M 31.023438 22.109375 C 31.046875 22.5 31.164062 23.113281 30.660156 23.238281 C 30.023438 23.476562 29.378906 23.519531 28.71875 23.367188 C 28.117188 23.191406 27.988281 22.488281 27.800781 21.976562 C 27.765625 21.957031 27.742188 21.929688 27.726562 21.890625 C 27.621094 21.523438 27.519531 21.15625 27.421875 20.789062 C 27.390625 20.726562 27.375 20.664062 27.375 20.59375 C 27.375 20.523438 27.390625 20.460938 27.421875 20.398438 C 27.453125 20.339844 27.496094 20.289062 27.550781 20.25 C 27.605469 20.210938 27.667969 20.1875 27.734375 20.175781 C 28.199219 20.023438 28.671875 19.898438 29.152344 19.808594 C 29.5 19.722656 29.851562 19.695312 30.207031 19.734375 C 30.328125 19.753906 30.425781 19.808594 30.503906 19.902344 C 30.585938 19.992188 30.625 20.097656 30.628906 20.222656 C 30.773438 20.828125 30.925781 21.46875 31.023438 22.109375 Z M 31.023438 22.109375 "/></g><path style=" stroke:none;fill-rule:nonzero;fill:#8c4e2a;fill-opacity:1;" d="M 30.066406 17.507812 C 30.097656 17.941406 30.277344 18.554688 29.859375 18.847656 C 29.453125 19.015625 29.035156 19.136719 28.605469 19.214844 C 28.242188 19.269531 27.875 19.394531 27.511719 19.414062 C 27.148438 19.429688 27.074219 19.144531 27.023438 18.867188 C 26.851562 18.242188 26.699219 17.609375 26.558594 16.976562 C 26.472656 16.738281 26.4375 16.492188 26.460938 16.242188 C 26.585938 15.875 26.988281 15.761719 27.320312 15.675781 C 27.90625 15.488281 28.503906 15.359375 29.109375 15.277344 C 29.617188 15.253906 29.738281 15.578125 29.8125 16.011719 C 29.902344 16.5 29.992188 17.003906 30.066406 17.507812 Z M 30.066406 17.507812 "/><path style=" stroke:none;fill-rule:nonzero;fill:#8c4e2a;fill-opacity:1;" d="M 28.921875 12.113281 C 28.992188 12.75 29.195312 13.410156 29.039062 14.050781 C 28.945312 14.332031 28.621094 14.417969 28.363281 14.480469 C 27.734375 14.65625 27.097656 14.78125 26.449219 14.847656 C 25.964844 14.847656 25.921875 14.246094 25.855469 13.875 C 25.691406 13.269531 25.570312 12.65625 25.492188 12.035156 C 25.371094 11.324219 25.722656 11.210938 26.320312 11.050781 C 26.792969 10.945312 27.261719 10.816406 27.734375 10.710938 C 28.675781 10.480469 28.832031 11.386719 28.921875 12.113281 Z M 28.921875 12.113281 "/><path style=" stroke:none;fill-rule:nonzero;fill:#8c4e2a;fill-opacity:1;" d="M 27.917969 7.191406 C 28.09375 7.917969 28.1875 8.652344 28.203125 9.398438 C 28.175781 9.941406 27.535156 9.941406 27.128906 10.03125 C 26.726562 10.117188 26.402344 10.179688 26.039062 10.257812 C 25.789062 10.296875 25.5 10.433594 25.269531 10.28125 C 25.109375 10.128906 25.105469 9.882812 25.042969 9.683594 C 24.917969 9.140625 24.757812 8.609375 24.679688 8.058594 C 24.597656 7.503906 24.679688 7.210938 25.277344 7.0625 C 25.875 6.910156 26.488281 6.691406 27.117188 6.589844 C 27.570312 6.503906 27.828125 6.773438 27.917969 7.191406 Z M 27.917969 7.191406 "/><g clip-rule="nonzero" clip-path="url(#af5f2cd675)"><path style=" stroke:none;fill-rule:nonzero;fill:#8c4e2a;fill-opacity:1;" d="M 27.296875 5.164062 C 27.425781 5.867188 27.296875 6.070312 26.597656 6.230469 C 26.234375 6.328125 25.871094 6.40625 25.503906 6.484375 C 25.195312 6.59375 24.878906 6.625 24.550781 6.585938 C 24.308594 6.523438 24.269531 6.253906 24.1875 6.046875 C 24.046875 5.546875 23.945312 5.03125 23.824219 4.523438 C 23.777344 4.214844 23.550781 3.757812 23.929688 3.582031 C 24.632812 3.289062 25.359375 3.09375 26.113281 2.992188 C 26.433594 2.941406 26.859375 2.992188 26.957031 3.359375 C 27.128906 3.957031 27.183594 4.574219 27.296875 5.164062 Z M 27.296875 5.164062 "/></g><g clip-rule="nonzero" clip-path="url(#555e301e2a)"><path style=" stroke:none;fill-rule:nonzero;fill:#592418;fill-opacity:1;" d="M 11.902344 8.757812 C 11.929688 8.839844 11.902344 8.898438 11.824219 8.925781 C 11.488281 9.054688 11.140625 9.132812 10.785156 9.167969 C 10.554688 9.167969 10.460938 8.917969 10.421875 8.722656 C 10.378906 8.527344 10.308594 8.28125 10.246094 8.058594 C 10.226562 7.972656 10.261719 7.921875 10.347656 7.902344 C 10.433594 7.882812 10.484375 7.914062 10.503906 8 C 10.558594 8.222656 10.613281 8.441406 10.675781 8.660156 C 10.722656 8.804688 10.738281 8.949219 10.929688 8.898438 C 11.148438 8.851562 11.367188 8.796875 11.578125 8.730469 C 11.675781 8.703125 11.832031 8.609375 11.902344 8.757812 Z M 11.902344 8.757812 "/></g><path style=" stroke:none;fill-rule:nonzero;fill:#592418;fill-opacity:1;" d="M 12.84375 12.761719 C 12.875 12.84375 12.851562 12.902344 12.765625 12.933594 C 12.441406 13.09375 12.097656 13.160156 11.738281 13.144531 C 11.335938 13.011719 11.347656 12.460938 11.238281 12.113281 C 11.238281 11.972656 11.125 11.792969 11.199219 11.660156 C 11.253906 11.59375 11.316406 11.585938 11.386719 11.644531 C 11.414062 11.667969 11.429688 11.699219 11.429688 11.734375 C 11.488281 12.039062 11.558594 12.34375 11.640625 12.644531 C 11.695312 12.855469 11.796875 12.9375 12.003906 12.886719 C 12.230469 12.835938 12.449219 12.769531 12.664062 12.683594 C 12.75 12.648438 12.808594 12.671875 12.84375 12.761719 Z M 12.84375 12.761719 "/><path style=" stroke:none;fill-rule:nonzero;fill:#592418;fill-opacity:1;" d="M 13.65625 16.265625 C 13.730469 16.25 13.78125 16.277344 13.808594 16.347656 C 13.835938 16.421875 13.816406 16.476562 13.746094 16.511719 C 13.425781 16.625 13.042969 16.878906 12.710938 16.683594 C 12.425781 16.394531 12.371094 15.945312 12.238281 15.578125 L 12.152344 15.289062 C 12.128906 15.203125 12.085938 15.109375 12.152344 15.03125 C 12.1875 14.988281 12.234375 14.976562 12.289062 14.992188 C 12.347656 15.011719 12.375 15.050781 12.378906 15.109375 C 12.488281 15.578125 12.648438 16.027344 12.867188 16.457031 C 13.109375 16.558594 13.40625 16.34375 13.65625 16.265625 Z M 13.65625 16.265625 "/><path style=" stroke:none;fill-rule:nonzero;fill:#592418;fill-opacity:1;" d="M 16.238281 11.980469 C 16.265625 12.0625 16.238281 12.121094 16.160156 12.15625 C 15.820312 12.292969 15.464844 12.367188 15.097656 12.378906 C 14.878906 12.34375 14.78125 12.128906 14.734375 11.9375 C 14.683594 11.746094 14.609375 11.527344 14.554688 11.320312 C 14.5 11.113281 14.445312 10.933594 14.398438 10.738281 C 14.378906 10.652344 14.410156 10.601562 14.496094 10.582031 C 14.578125 10.566406 14.632812 10.597656 14.652344 10.679688 C 14.691406 10.851562 14.738281 11.015625 14.789062 11.179688 C 15.117188 12.320312 14.910156 12.242188 16.070312 11.914062 C 16.144531 11.886719 16.199219 11.910156 16.238281 11.980469 Z M 16.238281 11.980469 "/><path style=" stroke:none;fill-rule:nonzero;fill:#592418;fill-opacity:1;" d="M 15.367188 8.042969 C 15.449219 8.011719 15.507812 8.035156 15.539062 8.121094 C 15.570312 8.203125 15.542969 8.261719 15.460938 8.292969 C 14.964844 8.476562 14.460938 8.613281 13.9375 8.703125 C 13.414062 8.703125 13.375 7.660156 13.242188 7.261719 L 13.167969 6.949219 C 13.144531 6.898438 13.144531 6.84375 13.167969 6.792969 C 13.199219 6.746094 13.246094 6.726562 13.300781 6.738281 C 13.355469 6.746094 13.390625 6.78125 13.40625 6.835938 C 13.535156 7.320312 13.605469 7.824219 13.769531 8.304688 C 13.882812 8.601562 14.257812 8.367188 14.472656 8.332031 C 14.78125 8.234375 15.074219 8.136719 15.367188 8.042969 Z M 15.367188 8.042969 "/><path style=" stroke:none;fill-rule:nonzero;fill:#592418;fill-opacity:1;" d="M 17.210938 16.070312 C 17.222656 16.152344 17.1875 16.207031 17.105469 16.226562 C 16.820312 16.332031 16.527344 16.402344 16.226562 16.4375 C 16.042969 16.445312 15.921875 16.363281 15.863281 16.1875 C 15.71875 15.839844 15.605469 15.484375 15.523438 15.121094 C 15.480469 14.949219 15.4375 14.773438 15.40625 14.597656 C 15.386719 14.542969 15.386719 14.484375 15.40625 14.429688 C 15.453125 14.355469 15.511719 14.339844 15.585938 14.390625 C 15.628906 14.414062 15.648438 14.453125 15.648438 14.507812 C 15.742188 15.0625 15.898438 15.601562 16.113281 16.125 C 16.21875 16.277344 16.839844 16 17.027344 15.96875 C 17.066406 15.953125 17.105469 15.953125 17.140625 15.972656 C 17.179688 15.996094 17.203125 16.027344 17.210938 16.070312 Z M 17.210938 16.070312 "/><path style=" stroke:none;fill-rule:nonzero;fill:#592418;fill-opacity:1;" d="M 19.386719 7.214844 C 19.414062 7.296875 19.386719 7.351562 19.3125 7.382812 C 18.945312 7.511719 18.582031 7.628906 18.21875 7.726562 C 18.03125 7.785156 17.839844 7.804688 17.640625 7.785156 C 17.183594 7.710938 17.160156 6.847656 17.046875 6.472656 C 17.007812 6.308594 16.96875 6.144531 16.921875 5.984375 C 16.878906 5.882812 16.878906 5.75 17.011719 5.730469 C 17.089844 5.726562 17.132812 5.761719 17.152344 5.835938 C 17.324219 6.367188 17.363281 6.941406 17.582031 7.453125 C 17.753906 7.667969 18.398438 7.375 18.648438 7.332031 C 18.839844 7.273438 19.035156 7.203125 19.222656 7.136719 C 19.300781 7.113281 19.355469 7.140625 19.386719 7.214844 Z M 19.386719 7.214844 "/><path style=" stroke:none;fill-rule:nonzero;fill:#592418;fill-opacity:1;" d="M 19.609375 11.101562 C 19.632812 11.191406 19.597656 11.242188 19.511719 11.261719 L 19.148438 11.359375 C 18.902344 11.414062 18.613281 11.542969 18.394531 11.359375 C 18.179688 11.175781 18.222656 10.933594 18.164062 10.722656 C 18.09375 10.355469 17.992188 9.984375 17.929688 9.617188 C 17.933594 9.542969 17.976562 9.5 18.050781 9.496094 C 18.125 9.488281 18.171875 9.523438 18.1875 9.597656 C 18.261719 9.964844 18.347656 10.300781 18.417969 10.65625 C 18.445312 10.820312 18.488281 10.984375 18.554688 11.140625 C 18.601562 11.199219 18.683594 11.171875 18.75 11.167969 C 18.992188 11.121094 19.230469 11.046875 19.476562 10.988281 C 19.554688 10.988281 19.597656 11.027344 19.609375 11.101562 Z M 19.609375 11.101562 "/><path style=" stroke:none;fill-rule:nonzero;fill:#592418;fill-opacity:1;" d="M 20.523438 15.152344 C 20.601562 15.144531 20.648438 15.179688 20.664062 15.257812 C 20.679688 15.335938 20.652344 15.386719 20.578125 15.410156 C 20.265625 15.515625 19.949219 15.585938 19.625 15.628906 C 19.160156 15.628906 19.121094 15.066406 19.039062 14.714844 C 18.976562 14.4375 18.914062 14.152344 18.875 13.871094 C 18.84375 13.769531 18.875 13.628906 18.996094 13.632812 C 19.121094 13.636719 19.125 13.773438 19.136719 13.867188 C 19.167969 14.070312 19.207031 14.269531 19.253906 14.464844 C 19.480469 15.660156 19.480469 15.402344 20.523438 15.152344 Z M 20.523438 15.152344 "/><path style=" stroke:none;fill-rule:nonzero;fill:#592418;fill-opacity:1;" d="M 21.894531 19.570312 C 21.933594 19.777344 21.5625 19.769531 21.425781 19.828125 C 21.027344 19.898438 20.480469 20.148438 20.164062 19.761719 C 20.066406 19.503906 19.996094 19.242188 19.953125 18.972656 C 19.886719 18.667969 19.796875 18.367188 19.734375 18.058594 C 19.726562 17.96875 19.769531 17.921875 19.851562 17.914062 C 19.9375 17.910156 19.984375 17.949219 19.996094 18.035156 C 20.019531 18.148438 20.050781 18.261719 20.078125 18.375 C 20.144531 18.640625 20.207031 18.90625 20.269531 19.175781 C 20.289062 19.335938 20.332031 19.488281 20.398438 19.636719 C 20.679688 19.828125 21.40625 19.542969 21.734375 19.472656 C 21.820312 19.453125 21.875 19.484375 21.894531 19.570312 Z M 21.894531 19.570312 "/><path style=" stroke:none;fill-rule:nonzero;fill:#592418;fill-opacity:1;" d="M 23 6.421875 C 23.019531 6.507812 22.984375 6.558594 22.902344 6.578125 L 22.394531 6.726562 C 22.039062 6.839844 21.675781 6.914062 21.300781 6.941406 C 20.9375 6.878906 20.9375 6.382812 20.832031 6.101562 C 20.75 5.761719 20.675781 5.421875 20.589844 5.082031 C 20.566406 5.011719 20.5625 4.941406 20.574219 4.871094 C 20.589844 4.804688 20.632812 4.769531 20.703125 4.769531 C 20.769531 4.769531 20.8125 4.804688 20.828125 4.871094 C 20.957031 5.363281 21.054688 5.863281 21.195312 6.339844 C 21.300781 6.75 21.378906 6.679688 21.734375 6.585938 C 21.992188 6.515625 22.28125 6.453125 22.527344 6.382812 C 22.671875 6.394531 22.929688 6.207031 23 6.421875 Z M 20.816406 4.925781 Z M 20.816406 4.925781 "/><path style=" stroke:none;fill-rule:nonzero;fill:#592418;fill-opacity:1;" d="M 23.488281 10.023438 C 23.570312 9.992188 23.625 10.019531 23.65625 10.101562 C 23.6875 10.183594 23.660156 10.242188 23.578125 10.273438 L 23.214844 10.382812 C 22.824219 10.496094 22.351562 10.75 21.984375 10.445312 C 21.554688 10.078125 21.648438 9.40625 21.488281 8.894531 C 21.386719 8.679688 21.671875 8.554688 21.730469 8.785156 C 21.898438 9.210938 21.789062 10.328125 22.402344 10.320312 C 22.773438 10.253906 23.136719 10.15625 23.488281 10.023438 Z M 23.488281 10.023438 "/><path style=" stroke:none;fill-rule:nonzero;fill:#592418;fill-opacity:1;" d="M 24.277344 14.453125 C 24.308594 14.53125 24.28125 14.589844 24.203125 14.621094 C 23.886719 14.765625 23.558594 14.839844 23.214844 14.84375 C 22.792969 14.765625 22.679688 13.417969 22.566406 13.007812 C 22.535156 12.90625 22.539062 12.765625 22.667969 12.75 C 22.753906 12.746094 22.800781 12.789062 22.808594 12.875 C 22.894531 13.320312 22.976562 13.769531 23.09375 14.207031 C 23.125 14.335938 23.175781 14.457031 23.242188 14.574219 C 23.285156 14.609375 23.347656 14.574219 23.402344 14.574219 C 23.648438 14.523438 23.890625 14.453125 24.128906 14.363281 C 24.207031 14.347656 24.253906 14.375 24.277344 14.453125 Z M 24.277344 14.453125 "/><g clip-rule="nonzero" clip-path="url(#41902c0c05)"><path style=" stroke:none;fill-rule:nonzero;fill:#592418;fill-opacity:1;" d="M 26.402344 5.597656 C 26.480469 5.585938 26.53125 5.621094 26.550781 5.699219 C 26.566406 5.777344 26.539062 5.832031 26.460938 5.855469 C 26.199219 5.914062 25.949219 5.976562 25.699219 6.054688 C 25.472656 6.148438 25.242188 6.175781 25.003906 6.132812 C 24.746094 6.046875 24.691406 5.746094 24.640625 5.511719 C 24.542969 5.113281 24.476562 4.703125 24.382812 4.304688 C 24.382812 4.160156 24.21875 3.9375 24.417969 3.855469 C 24.503906 3.832031 24.554688 3.867188 24.574219 3.957031 C 25.164062 6.300781 24.582031 6.039062 26.402344 5.597656 Z M 26.402344 5.597656 "/></g><path style=" stroke:none;fill-rule:nonzero;fill:#592418;fill-opacity:1;" d="M 27.652344 9.3125 C 27.734375 9.300781 27.785156 9.335938 27.800781 9.414062 C 27.820312 9.496094 27.789062 9.546875 27.710938 9.570312 C 27.121094 9.660156 26.539062 9.9375 25.9375 9.867188 C 25.339844 9.796875 25.421875 9 25.308594 8.558594 C 25.253906 8.28125 25.199219 7.996094 25.136719 7.722656 C 25.117188 7.679688 25.117188 7.636719 25.136719 7.59375 C 25.171875 7.546875 25.214844 7.527344 25.269531 7.535156 C 25.328125 7.546875 25.363281 7.578125 25.378906 7.632812 C 25.929688 9.890625 25.308594 9.855469 27.652344 9.3125 Z M 27.652344 9.3125 "/><path style=" stroke:none;fill-rule:nonzero;fill:#592418;fill-opacity:1;" d="M 28.222656 13.535156 C 28.308594 13.511719 28.363281 13.542969 28.382812 13.628906 C 28.40625 13.714844 28.375 13.769531 28.292969 13.792969 C 28.039062 13.878906 27.785156 13.957031 27.527344 14.015625 C 27.304688 14.089844 27.074219 14.105469 26.84375 14.066406 C 26.59375 13.96875 26.53125 13.699219 26.476562 13.445312 C 26.386719 13.078125 26.328125 12.710938 26.257812 12.34375 C 26.238281 12.210938 26.195312 12.085938 26.175781 11.953125 C 26.175781 11.863281 26.21875 11.820312 26.308594 11.820312 C 26.394531 11.820312 26.4375 11.863281 26.4375 11.953125 C 26.578125 12.511719 26.632812 13.085938 26.800781 13.632812 C 26.863281 13.914062 27.097656 13.847656 27.304688 13.8125 C 27.617188 13.738281 27.921875 13.648438 28.222656 13.535156 Z M 28.222656 13.535156 "/><path style=" stroke:none;fill-rule:nonzero;fill:#592418;fill-opacity:1;" d="M 25.582031 19.046875 C 25.664062 19.03125 25.710938 19.066406 25.730469 19.148438 C 25.746094 19.226562 25.71875 19.277344 25.640625 19.300781 C 25.386719 19.371094 25.128906 19.433594 24.890625 19.507812 C 24.65625 19.597656 24.410156 19.652344 24.160156 19.671875 C 23.882812 19.671875 23.746094 19.398438 23.703125 19.152344 C 23.625 18.828125 23.574219 18.496094 23.507812 18.171875 C 23.464844 17.976562 23.417969 17.78125 23.378906 17.582031 C 23.347656 17.519531 23.347656 17.457031 23.378906 17.394531 C 23.433594 17.328125 23.492188 17.324219 23.5625 17.375 C 23.59375 17.40625 23.609375 17.445312 23.613281 17.492188 C 23.691406 17.890625 23.78125 18.292969 23.859375 18.691406 C 23.890625 18.871094 23.929688 19.046875 23.976562 19.222656 C 23.988281 19.289062 24.023438 19.34375 24.074219 19.386719 C 24.25 19.417969 24.417969 19.398438 24.582031 19.324219 C 24.910156 19.222656 25.246094 19.128906 25.582031 19.046875 Z M 25.582031 19.046875 "/><path style=" stroke:none;fill-rule:nonzero;fill:#592418;fill-opacity:1;" d="M 26.617188 22.105469 C 26.644531 22.1875 26.617188 22.246094 26.535156 22.277344 C 26.214844 22.402344 25.878906 22.460938 25.535156 22.460938 C 25.085938 22.460938 24.945312 22.070312 24.855469 21.703125 C 24.8125 21.558594 24.78125 21.414062 24.738281 21.269531 C 24.714844 21.21875 24.714844 21.171875 24.738281 21.121094 C 24.757812 21.082031 24.785156 21.058594 24.828125 21.050781 C 24.871094 21.042969 24.910156 21.050781 24.941406 21.082031 C 24.96875 21.101562 24.980469 21.128906 24.984375 21.164062 C 25.042969 21.363281 25.097656 21.574219 25.152344 21.777344 C 25.207031 22.050781 25.332031 22.238281 25.632812 22.214844 C 25.917969 22.199219 26.191406 22.140625 26.457031 22.039062 C 26.527344 22.015625 26.582031 22.039062 26.617188 22.105469 Z M 26.617188 22.105469 "/><path style=" stroke:none;fill-rule:nonzero;fill:#592418;fill-opacity:1;" d="M 29.285156 18.027344 C 29.355469 18.242188 28.96875 18.246094 28.835938 18.316406 C 28.5 18.46875 28.148438 18.539062 27.78125 18.53125 C 27.496094 18.488281 27.449219 18.164062 27.417969 17.933594 C 27.339844 17.539062 27.242188 17.148438 27.15625 16.757812 C 27.15625 16.683594 27.105469 16.597656 27.15625 16.523438 C 27.191406 16.472656 27.238281 16.453125 27.296875 16.46875 C 27.359375 16.484375 27.390625 16.523438 27.394531 16.585938 C 27.472656 16.953125 27.574219 17.320312 27.648438 17.710938 C 27.671875 17.878906 27.710938 18.039062 27.761719 18.199219 C 27.78125 18.25 27.816406 18.277344 27.867188 18.277344 C 28.183594 18.257812 28.488281 18.1875 28.78125 18.0625 C 28.90625 18.027344 29.203125 17.824219 29.285156 18.027344 Z M 27.378906 16.59375 C 27.378906 16.59375 27.378906 16.59375 27.378906 16.621094 C 27.378906 16.644531 27.378906 16.601562 27.378906 16.59375 Z M 27.378906 16.59375 "/><g clip-rule="nonzero" clip-path="url(#afd840a93d)"><path style=" stroke:none;fill-rule:nonzero;fill:#592418;fill-opacity:1;" d="M 30.328125 22.652344 C 30.351562 22.730469 30.324219 22.789062 30.246094 22.820312 C 29.832031 23 29.398438 23.078125 28.945312 23.058594 C 28.566406 22.976562 28.464844 22.554688 28.378906 22.226562 C 28.292969 21.902344 28.246094 21.675781 28.1875 21.402344 C 28.148438 21.25 28.117188 21.101562 28.082031 20.949219 C 28.042969 20.859375 28.046875 20.730469 28.160156 20.710938 C 28.246094 20.691406 28.300781 20.726562 28.316406 20.8125 C 28.433594 21.4375 28.59375 22.050781 28.792969 22.652344 C 28.988281 22.972656 29.441406 22.777344 29.726562 22.71875 C 29.871094 22.679688 30.015625 22.632812 30.160156 22.585938 C 30.238281 22.554688 30.292969 22.574219 30.328125 22.652344 Z M 30.328125 22.652344 "/></g><g clip-rule="nonzero" clip-path="url(#1d1852a981)"><path style=" stroke:none;fill-rule:nonzero;fill:#f2c879;fill-opacity:1;" d="M 35.242188 35.796875 C 35.386719 36.761719 35.78125 38.191406 34.660156 38.695312 C 32.238281 39.628906 29.699219 40.210938 27.203125 40.902344 C 24.210938 41.664062 21.21875 42.609375 18.097656 42.683594 L 17.902344 42.683594 L 17.660156 42.652344 C 17.570312 42.652344 17.480469 42.621094 17.390625 42.597656 C 17.300781 42.574219 17.214844 42.546875 17.128906 42.515625 C 17.023438 42.46875 16.914062 42.417969 16.8125 42.363281 C 16.765625 42.339844 16.71875 42.308594 16.671875 42.277344 C 16.640625 42.25 16.609375 42.222656 16.578125 42.195312 C 16.511719 42.128906 16.453125 42.0625 16.394531 41.988281 C 16.347656 41.914062 16.296875 41.847656 16.257812 41.769531 L 16.160156 41.597656 L 16.070312 41.421875 C 15.976562 41.242188 15.890625 41.054688 15.8125 40.871094 C 15.773438 40.777344 15.734375 40.679688 15.699219 40.582031 C 15.660156 40.484375 15.628906 40.394531 15.597656 40.296875 C 15.523438 40.085938 15.453125 39.871094 15.390625 39.660156 C 15.328125 39.445312 15.273438 39.222656 15.21875 39 C 15.113281 38.578125 15.019531 38.15625 14.929688 37.730469 C 14.789062 37.066406 14.648438 36.402344 14.511719 35.738281 C 14.488281 35.628906 14.464844 35.515625 14.441406 35.410156 C 14.210938 34.109375 13.980469 32.804688 13.730469 31.507812 C 13.421875 29.753906 13.066406 28.007812 12.691406 26.269531 C 12.589844 25.707031 12.492188 25.144531 12.394531 24.582031 C 12.296875 24.023438 12.199219 23.480469 12.085938 22.957031 C 11.847656 21.828125 11.597656 20.707031 11.355469 19.578125 C 11.242188 19.046875 11.136719 18.507812 11.035156 17.972656 C 10.984375 17.710938 10.933594 17.453125 10.886719 17.191406 C 10.863281 17.082031 10.847656 16.972656 10.824219 16.859375 C 10.828125 16.847656 10.828125 16.835938 10.824219 16.824219 L 10.824219 16.792969 C 10.796875 16.652344 10.769531 16.507812 10.746094 16.371094 L 10.746094 16.308594 L 10.988281 16.472656 L 11.054688 16.515625 L 11.105469 16.515625 C 11.113281 16.519531 11.125 16.519531 11.132812 16.515625 C 11.160156 16.496094 11.160156 16.476562 11.132812 16.453125 L 11.113281 16.453125 L 11.0625 16.421875 L 10.816406 16.253906 L 10.742188 16.191406 C 10.742188 16.183594 10.742188 16.175781 10.742188 16.167969 C 10.75 16.148438 10.75 16.132812 10.742188 16.113281 C 10.742188 16.113281 10.742188 16.082031 10.742188 16.066406 L 10.707031 15.972656 L 10.707031 15.949219 C 10.695312 15.890625 10.683594 15.828125 10.664062 15.765625 L 10.621094 15.601562 C 10.671875 15.503906 10.75 15.457031 10.859375 15.453125 C 11.035156 15.453125 11.136719 15.539062 11.171875 15.710938 C 11.195312 15.917969 11.230469 16.128906 11.261719 16.332031 C 11.429688 16.300781 11.542969 16.363281 11.597656 16.527344 C 11.691406 16.671875 11.796875 16.804688 11.917969 16.929688 C 13.113281 18.113281 15.003906 17.417969 16.394531 18.132812 C 17.722656 18.917969 18.730469 20.339844 20.335938 20.582031 C 20.632812 20.613281 20.925781 20.601562 21.21875 20.554688 C 21.566406 20.492188 21.910156 20.492188 22.257812 20.554688 C 24.339844 21.289062 23.648438 22.96875 26.703125 22.964844 C 26.972656 22.964844 27.242188 22.964844 27.515625 22.964844 C 28.109375 22.933594 28.695312 22.992188 29.269531 23.144531 C 30.179688 23.421875 30.933594 24.03125 31.75 24.496094 C 31.976562 24.625 32.210938 24.742188 32.449219 24.839844 C 32.464844 24.835938 32.476562 24.835938 32.492188 24.839844 C 32.523438 24.808594 32.558594 24.785156 32.605469 24.769531 C 33.113281 24.632812 33.117188 25.597656 33.253906 25.917969 C 33.621094 27.515625 33.933594 29.125 34.261719 30.730469 C 34.597656 32.449219 34.953125 34.117188 35.242188 35.796875 Z M 35.242188 35.796875 "/></g><g clip-rule="nonzero" clip-path="url(#7f37107ea2)"><path style=" stroke:none;fill-rule:nonzero;fill:#bf5b04;fill-opacity:1;" d="M 32.808594 25.238281 L 32.714844 25.238281 L 32.59375 25.199219 C 31.972656 25.097656 31.378906 24.914062 30.808594 24.644531 C 30.28125 24.386719 29.804688 24.023438 29.300781 23.726562 C 28.800781 23.457031 28.269531 23.335938 27.703125 23.359375 C 26.484375 23.421875 25.261719 23.578125 24.210938 22.800781 C 23.621094 22.390625 23.265625 21.746094 22.777344 21.234375 C 22.078125 20.574219 21.472656 20.707031 20.839844 20.839844 C 20.207031 20.972656 19.453125 21.117188 18.539062 20.296875 C 17.722656 19.679688 17.058594 18.828125 16.105469 18.410156 C 15.40625 18.085938 14.628906 18.207031 13.886719 18.152344 C 12.820312 18.078125 12.066406 17.46875 11.339844 16.816406 L 11.019531 16.535156 L 10.933594 16.460938 L 10.800781 16.34375 L 10.742188 16.292969 L 10.59375 15.691406 L 10.476562 15.203125 C 10.4375 15.070312 10.40625 14.9375 10.375 14.804688 C 10.339844 14.65625 10.304688 14.511719 10.265625 14.363281 L 10.742188 14.363281 C 11.050781 14.449219 11.332031 14.59375 11.585938 14.792969 C 12.199219 15.285156 12.5625 16.050781 13.207031 16.457031 C 13.679688 16.65625 14.164062 16.703125 14.664062 16.597656 C 15.511719 16.507812 16.535156 16.421875 18.226562 17.730469 C 18.691406 18.152344 19.175781 18.546875 19.683594 18.917969 C 20.21875 19.15625 20.773438 19.207031 21.347656 19.070312 C 22.007812 18.988281 22.703125 18.90625 23.476562 19.394531 C 24.25 19.882812 24.609375 20.863281 25.339844 21.429688 C 25.875 21.835938 26.433594 21.796875 27.085938 21.726562 C 27.933594 21.59375 28.746094 21.714844 29.519531 22.097656 C 30.523438 22.597656 31.296875 23.523438 32.355469 23.910156 L 32.429688 23.9375 L 32.484375 23.957031 C 32.558594 23.980469 32.636719 24 32.714844 24.019531 L 32.824219 24.042969 C 32.855469 24.203125 32.886719 24.359375 32.917969 24.519531 C 32.917969 24.613281 32.953125 24.707031 32.976562 24.800781 C 32.972656 24.835938 32.972656 24.871094 32.976562 24.902344 C 32.996094 25.023438 33.023438 25.140625 33.042969 25.269531 Z M 32.808594 25.238281 "/></g><path style=" stroke:none;fill-rule:nonzero;fill:#bf5b04;fill-opacity:1;" d="M 17.089844 38.851562 C 17.070312 38.71875 17.125 38.632812 17.253906 38.601562 C 17.671875 38.421875 18.097656 38.257812 18.523438 38.09375 C 19.847656 37.574219 21.175781 37.136719 22.527344 36.769531 C 25.867188 35.847656 29.1875 34.613281 32.675781 34.464844 C 32.820312 34.46875 32.894531 34.539062 32.894531 34.6875 C 32.894531 34.832031 32.820312 34.90625 32.675781 34.90625 C 30.34375 34.972656 28.078125 35.640625 25.839844 36.257812 C 22.976562 37.078125 20.066406 37.882812 17.328125 39.042969 L 17.296875 39.042969 C 17.175781 39.035156 17.109375 38.96875 17.089844 38.851562 Z M 17.089844 38.851562 "/><path style=" stroke:none;fill-rule:nonzero;fill:#bf5b04;fill-opacity:1;" d="M 17.59375 40.242188 C 17.558594 40.242188 17.523438 40.234375 17.492188 40.21875 C 16.898438 39.789062 18.757812 39.210938 19.035156 39.117188 C 20.171875 38.695312 21.328125 38.324219 22.488281 37.980469 C 24.308594 37.417969 26.128906 36.878906 27.976562 36.402344 C 29.605469 35.914062 31.273438 35.648438 32.976562 35.597656 C 33.121094 35.597656 33.195312 35.671875 33.195312 35.820312 C 33.195312 35.964844 33.121094 36.039062 32.976562 36.039062 C 30.613281 36.035156 28.316406 36.769531 26.039062 37.371094 C 24.203125 37.894531 22.382812 38.449219 20.574219 39.03125 C 19.714844 39.300781 18.875 39.617188 18.054688 39.984375 C 17.964844 40.042969 17.867188 40.101562 17.78125 40.164062 C 17.738281 40.21875 17.679688 40.246094 17.609375 40.242188 Z M 17.59375 40.242188 "/><g clip-rule="nonzero" clip-path="url(#e460e0e9f6)"><path style=" stroke:none;fill-rule:nonzero;fill:#bf5b04;fill-opacity:1;" d="M 17.886719 42.707031 C 17.527344 42.675781 17.183594 42.582031 16.859375 42.417969 L 16.78125 42.363281 L 16.703125 42.304688 L 16.585938 42.199219 C 16.539062 42.148438 16.492188 42.09375 16.453125 42.035156 L 16.375 41.933594 C 16.351562 41.898438 16.328125 41.863281 16.308594 41.824219 L 16.554688 41.746094 C 17.203125 41.539062 17.851562 41.347656 18.5 41.140625 C 21.195312 40.269531 23.867188 39.300781 26.613281 38.589844 C 29.507812 37.855469 32.441406 37.253906 35.375 36.640625 C 35.375 36.742188 35.402344 36.839844 35.410156 36.941406 C 35.421875 37.039062 35.410156 37.148438 35.433594 37.253906 C 35.457031 37.363281 35.433594 37.355469 35.433594 37.402344 L 35.433594 37.5625 C 35.429688 37.625 35.421875 37.691406 35.410156 37.753906 L 35.390625 37.867188 L 35.390625 37.894531 L 35.355469 37.980469 C 35.335938 38.03125 35.3125 38.082031 35.289062 38.132812 C 35.273438 38.171875 35.253906 38.207031 35.234375 38.242188 C 35.234375 38.25 35.234375 38.261719 35.234375 38.273438 L 35.195312 38.328125 C 34.53125 39.011719 33.445312 39.3125 32.539062 39.601562 C 29.074219 40.722656 25.550781 41.621094 21.976562 42.300781 C 20.84375 42.542969 19.699219 42.6875 18.542969 42.730469 C 18.308594 42.730469 18.097656 42.722656 17.886719 42.707031 Z M 17.886719 42.707031 "/></g><path style=" stroke:none;fill-rule:nonzero;fill:#bf5b04;fill-opacity:1;" d="M 14.148438 27.191406 C 14.058594 26.824219 13.980469 26.496094 13.898438 26.140625 C 13.871094 26.007812 13.839844 25.871094 13.820312 25.734375 C 13.808594 25.691406 13.820312 25.660156 13.859375 25.636719 C 13.871094 25.636719 13.878906 25.636719 13.890625 25.636719 L 14.621094 25.46875 L 15.6875 25.226562 L 16.757812 24.984375 L 17.851562 24.738281 L 18.960938 24.484375 L 20.054688 24.238281 L 21.144531 23.988281 L 21.265625 23.960938 C 21.285156 23.953125 21.304688 23.953125 21.324219 23.960938 C 21.355469 23.972656 21.375 23.992188 21.382812 24.023438 L 21.570312 24.761719 C 21.652344 25.089844 21.734375 25.421875 21.816406 25.757812 C 21.828125 25.8125 21.808594 25.847656 21.75 25.859375 L 21.734375 25.859375 C 20.402344 26.300781 19.042969 26.628906 17.660156 26.847656 C 16.933594 27 16.226562 27.171875 15.511719 27.34375 C 15.171875 27.460938 14.824219 27.539062 14.464844 27.582031 L 14.441406 27.582031 C 14.238281 27.582031 14.183594 27.359375 14.148438 27.191406 Z M 14.148438 27.191406 "/><g clip-rule="nonzero" clip-path="url(#f213f4cd2d)"><path style=" stroke:none;fill-rule:nonzero;fill:#592418;fill-opacity:1;" d="M 14.886719 27.003906 C 14.84375 27 14.816406 26.976562 14.808594 26.9375 C 14.738281 26.601562 14.652344 26.269531 14.613281 25.929688 C 14.601562 25.859375 14.628906 25.824219 14.699219 25.824219 C 14.808594 25.824219 14.785156 25.972656 14.804688 26.050781 C 14.851562 26.332031 14.921875 26.613281 14.980469 26.894531 C 15 26.972656 14.972656 27.007812 14.894531 27.003906 Z M 14.886719 27.003906 "/></g><g clip-rule="nonzero" clip-path="url(#3d4ad6d15d)"><path style=" stroke:none;fill-rule:nonzero;fill:#592418;fill-opacity:1;" d="M 14.789062 26.539062 C 14.75 26.535156 14.71875 26.515625 14.707031 26.472656 C 14.695312 26.414062 14.714844 26.378906 14.773438 26.367188 C 14.847656 26.347656 14.917969 26.3125 14.976562 26.261719 C 15.148438 26.132812 15.113281 25.894531 14.867188 25.949219 C 14.8125 25.957031 14.757812 25.976562 14.707031 26.007812 C 14.671875 26.027344 14.636719 26.070312 14.585938 26.0625 C 14.53125 26.050781 14.507812 26.015625 14.519531 25.957031 C 14.539062 25.875 14.640625 25.839844 14.714844 25.808594 C 15.203125 25.605469 15.476562 26.132812 15.046875 26.433594 C 14.972656 26.484375 14.890625 26.519531 14.800781 26.539062 Z M 14.789062 26.539062 "/></g><path style=" stroke:none;fill-rule:nonzero;fill:#592418;fill-opacity:1;" d="M 15.578125 26.875 C 15.527344 26.871094 15.5 26.84375 15.492188 26.792969 C 15.472656 26.53125 15.40625 26.292969 15.367188 26.058594 C 15.367188 25.96875 15.296875 25.808594 15.433594 25.800781 C 15.484375 25.804688 15.511719 25.832031 15.519531 25.882812 C 15.542969 26.082031 15.582031 26.25 15.617188 26.453125 C 15.617188 26.570312 15.75 26.863281 15.589844 26.890625 Z M 15.578125 26.875 "/><path style=" stroke:none;fill-rule:nonzero;fill:#592418;fill-opacity:1;" d="M 15.570312 26.363281 C 15.539062 26.363281 15.511719 26.347656 15.496094 26.320312 C 15.445312 26.191406 15.632812 26.152344 15.699219 26.078125 C 15.761719 26.007812 15.875 25.914062 15.800781 25.832031 C 15.679688 25.789062 15.585938 25.816406 15.511719 25.921875 C 15.488281 25.960938 15.453125 25.972656 15.410156 25.957031 C 15.363281 25.941406 15.347656 25.910156 15.351562 25.863281 C 15.460938 25.570312 16.0625 25.539062 15.996094 25.941406 C 15.929688 26.125 15.804688 26.261719 15.632812 26.351562 C 15.617188 26.355469 15.605469 26.355469 15.59375 26.351562 Z M 15.570312 26.363281 "/><path style=" stroke:none;fill-rule:nonzero;fill:#592418;fill-opacity:1;" d="M 16.179688 26.714844 L 16.144531 26.714844 C 15.964844 26.621094 15.78125 26.511719 15.597656 26.414062 C 15.542969 26.390625 15.488281 26.34375 15.515625 26.277344 C 15.542969 26.210938 15.636719 26.226562 15.691406 26.277344 C 15.746094 26.328125 15.878906 26.386719 15.976562 26.441406 C 16.078125 26.492188 16.3125 26.550781 16.261719 26.6875 C 16.246094 26.71875 16.21875 26.734375 16.183594 26.738281 Z M 16.179688 26.714844 "/><path style=" stroke:none;fill-rule:nonzero;fill:#592418;fill-opacity:1;" d="M 16.421875 26.628906 L 16.351562 26.628906 C 16.320312 26.609375 16.304688 26.578125 16.300781 26.539062 C 16.257812 26.257812 16.199219 25.984375 16.125 25.710938 C 16.101562 25.632812 16.128906 25.59375 16.210938 25.597656 C 16.261719 25.597656 16.285156 25.621094 16.292969 25.671875 C 16.351562 25.9375 16.433594 26.195312 16.46875 26.464844 L 16.808594 26.394531 C 16.867188 26.378906 16.902344 26.402344 16.914062 26.460938 C 16.929688 26.519531 16.90625 26.554688 16.847656 26.566406 C 16.722656 26.566406 16.574219 26.640625 16.445312 26.644531 Z M 16.421875 26.628906 "/><path style=" stroke:none;fill-rule:nonzero;fill:#592418;fill-opacity:1;" d="M 16.34375 25.9375 L 16.6875 25.859375 C 16.746094 25.84375 16.78125 25.867188 16.792969 25.925781 C 16.804688 25.980469 16.78125 26.015625 16.726562 26.03125 C 16.597656 26.066406 16.46875 26.089844 16.335938 26.109375 C 16.289062 26.097656 16.265625 26.066406 16.269531 26.019531 C 16.269531 25.972656 16.296875 25.945312 16.34375 25.9375 Z M 16.34375 25.9375 "/><path style=" stroke:none;fill-rule:nonzero;fill:#592418;fill-opacity:1;" d="M 16.226562 25.746094 C 16.203125 25.746094 16.179688 25.738281 16.164062 25.71875 C 16.027344 25.523438 16.527344 25.511719 16.621094 25.457031 C 16.675781 25.445312 16.710938 25.46875 16.726562 25.523438 C 16.738281 25.582031 16.714844 25.617188 16.660156 25.632812 C 16.515625 25.671875 16.375 25.699219 16.238281 25.746094 Z M 16.226562 25.746094 "/><path style=" stroke:none;fill-rule:nonzero;fill:#592418;fill-opacity:1;" d="M 17.101562 26.519531 C 17.046875 26.519531 17.023438 26.496094 17.019531 26.445312 C 16.980469 26.183594 16.949219 25.925781 16.890625 25.667969 C 16.890625 25.582031 16.824219 25.488281 16.871094 25.40625 C 16.914062 25.359375 16.957031 25.359375 17 25.40625 C 17.035156 25.496094 17.058594 25.585938 17.074219 25.679688 C 17.128906 25.929688 17.15625 26.183594 17.195312 26.414062 C 17.203125 26.480469 17.175781 26.511719 17.105469 26.507812 Z M 17.101562 26.519531 "/><path style=" stroke:none;fill-rule:nonzero;fill:#592418;fill-opacity:1;" d="M 17.921875 26.367188 C 17.882812 26.363281 17.855469 26.339844 17.847656 26.300781 L 17.738281 25.855469 C 17.71875 25.785156 17.699219 25.710938 17.6875 25.640625 C 17.613281 25.851562 17.539062 26.550781 17.28125 26.042969 C 17.160156 25.84375 16.996094 25.675781 16.878906 25.472656 C 16.863281 25.421875 16.882812 25.390625 16.929688 25.371094 C 16.976562 25.351562 17.011719 25.363281 17.039062 25.40625 C 17.167969 25.582031 17.304688 25.773438 17.425781 25.941406 C 17.488281 25.710938 17.546875 25.480469 17.601562 25.253906 C 17.609375 25.21875 17.632812 25.195312 17.667969 25.1875 C 17.816406 25.1875 17.792969 25.386719 17.832031 25.484375 C 17.886719 25.746094 17.953125 26.003906 18.019531 26.257812 C 18.039062 26.335938 18.007812 26.371094 17.929688 26.367188 Z M 17.921875 26.367188 "/><path style=" stroke:none;fill-rule:nonzero;fill:#592418;fill-opacity:1;" d="M 18.261719 26.269531 C 18.214844 26.265625 18.1875 26.238281 18.179688 26.191406 C 18.136719 25.878906 18.074219 25.570312 17.992188 25.265625 C 17.929688 25.128906 18.125 25.046875 18.15625 25.203125 C 18.242188 25.523438 18.308594 25.847656 18.355469 26.175781 C 18.355469 26.230469 18.332031 26.261719 18.277344 26.269531 Z M 18.261719 26.269531 "/><g clip-rule="nonzero" clip-path="url(#b3a4b585df)"><path style=" stroke:none;fill-rule:nonzero;fill:#592418;fill-opacity:1;" d="M 18.773438 26.074219 C 18.40625 26.019531 18.464844 25.527344 18.378906 25.25 C 18.367188 25.203125 18.355469 25.160156 18.351562 25.113281 C 18.351562 25.054688 18.382812 25.023438 18.441406 25.023438 C 18.5 25.023438 18.527344 25.054688 18.527344 25.113281 C 18.582031 25.324219 18.601562 25.539062 18.65625 25.75 C 18.675781 25.851562 18.753906 25.945312 18.863281 25.886719 C 19.144531 25.738281 19.089844 25.226562 19.109375 24.949219 C 19.09375 24.878906 19.148438 24.796875 19.21875 24.824219 C 19.277344 24.84375 19.296875 24.886719 19.285156 24.945312 C 19.324219 25.257812 19.414062 25.558594 19.457031 25.867188 C 19.457031 25.921875 19.429688 25.957031 19.375 25.964844 C 19.238281 25.964844 19.269531 25.710938 19.230469 25.597656 C 19.222656 25.722656 19.179688 25.828125 19.097656 25.917969 C 19.011719 26.007812 18.910156 26.0625 18.789062 26.074219 Z M 18.773438 26.074219 "/></g><g clip-rule="nonzero" clip-path="url(#2906a1ba57)"><path style=" stroke:none;fill-rule:nonzero;fill:#592418;fill-opacity:1;" d="M 19.746094 25.890625 C 19.695312 25.890625 19.667969 25.867188 19.667969 25.816406 C 19.625 25.492188 19.5625 25.171875 19.480469 24.855469 C 19.445312 24.777344 19.464844 24.734375 19.550781 24.722656 C 19.605469 24.714844 19.640625 24.738281 19.644531 24.796875 C 19.726562 25.125 19.789062 25.460938 19.828125 25.796875 C 19.832031 25.859375 19.804688 25.890625 19.742188 25.890625 Z M 19.746094 25.890625 "/></g><g clip-rule="nonzero" clip-path="url(#cf2c87ffdd)"><path style=" stroke:none;fill-rule:nonzero;fill:#592418;fill-opacity:1;" d="M 20.640625 25.746094 C 20.597656 25.742188 20.574219 25.71875 20.5625 25.679688 C 20.539062 25.582031 20.515625 25.488281 20.496094 25.394531 C 20.472656 25.304688 20.425781 25.125 20.386719 24.988281 C 20.339844 25.175781 20.300781 25.355469 20.257812 25.550781 C 20.257812 25.667969 20.128906 25.769531 20.054688 25.636719 C 19.890625 25.359375 19.710938 25.089844 19.519531 24.828125 C 19.5 24.773438 19.519531 24.734375 19.574219 24.71875 C 19.628906 24.699219 19.667969 24.71875 19.6875 24.773438 C 19.828125 24.976562 19.988281 25.171875 20.117188 25.386719 C 20.167969 25.140625 20.238281 24.898438 20.285156 24.652344 C 20.285156 24.578125 20.34375 24.480469 20.433594 24.53125 C 20.519531 24.582031 20.476562 24.597656 20.484375 24.640625 C 20.546875 24.929688 20.632812 25.210938 20.699219 25.503906 C 20.699219 25.546875 20.722656 25.59375 20.734375 25.640625 C 20.75 25.714844 20.722656 25.75 20.648438 25.75 Z M 20.640625 25.746094 "/></g><g clip-rule="nonzero" clip-path="url(#d9c26a3a58)"><path style=" stroke:none;fill-rule:nonzero;fill:#592418;fill-opacity:1;" d="M 25.625 33.773438 C 25.777344 33.742188 25.898438 33.660156 25.988281 33.53125 C 25.976562 33.488281 25.953125 33.457031 25.914062 33.433594 C 25.785156 33.382812 25.671875 33.40625 25.570312 33.5 C 25.492188 33.5625 25.414062 33.648438 25.519531 33.730469 C 25.550781 33.761719 25.585938 33.773438 25.625 33.773438 Z M 21.949219 34.566406 C 22.019531 34.554688 22.082031 34.527344 22.136719 34.484375 C 22.136719 34.359375 22.058594 34.203125 21.914062 34.246094 C 21.84375 34.3125 21.816406 34.390625 21.839844 34.488281 C 21.859375 34.539062 21.894531 34.566406 21.949219 34.566406 Z M 25.472656 34.832031 C 25.835938 34.785156 25.992188 34.394531 26.039062 34.066406 C 25.910156 34.167969 25.765625 34.214844 25.601562 34.199219 C 25.4375 34.1875 25.300781 34.117188 25.1875 33.996094 C 25.144531 34.285156 25.132812 34.769531 25.472656 34.84375 Z M 21.933594 35.496094 C 22.101562 35.394531 22.113281 35.128906 22.152344 34.96875 C 22.015625 35.019531 21.878906 35.019531 21.742188 34.96875 C 21.738281 35.171875 21.800781 35.351562 21.933594 35.507812 Z M 17.261719 37.238281 C 17.1875 37.234375 17.117188 37.226562 17.046875 37.210938 C 16.808594 37.171875 16.613281 37.058594 16.453125 36.875 C 16.296875 36.691406 16.210938 36.480469 16.203125 36.238281 C 16.152344 35.730469 16.300781 34.792969 16.933594 34.71875 C 17.347656 34.746094 17.503906 35.222656 17.597656 35.566406 C 17.621094 35.628906 17.664062 35.683594 17.644531 35.761719 C 17.621094 35.902344 17.539062 35.964844 17.394531 35.941406 C 17.292969 35.917969 17.226562 35.851562 17.203125 35.75 C 17.160156 35.53125 17.070312 35.339844 16.933594 35.167969 C 16.625 35.535156 16.539062 35.945312 16.679688 36.402344 C 16.742188 36.5625 16.851562 36.675781 17.003906 36.75 C 17.160156 36.820312 17.316406 36.828125 17.476562 36.769531 C 17.949219 36.535156 18.234375 36.160156 18.339844 35.636719 C 18.433594 35.304688 18.496094 34.964844 18.515625 34.617188 C 18.515625 34.394531 18.476562 34.171875 18.484375 33.949219 C 18.472656 33.847656 18.511719 33.773438 18.597656 33.722656 C 18.683594 33.671875 18.765625 33.675781 18.847656 33.730469 C 19.027344 33.917969 18.9375 34.21875 18.957031 34.464844 C 18.953125 34.703125 18.96875 34.941406 19 35.179688 C 19.046875 34.980469 19.128906 34.800781 19.25 34.636719 C 19.332031 34.527344 19.445312 34.472656 19.582031 34.472656 C 19.722656 34.472656 19.832031 34.527344 19.917969 34.636719 C 20.136719 34.820312 20.320312 35.867188 20.667969 35.699219 C 21.035156 35.328125 21.152344 34.789062 21.285156 34.304688 C 21.308594 34.125 21.355469 33.90625 21.585938 33.9375 C 21.65625 33.875 21.738281 33.832031 21.828125 33.808594 C 21.917969 33.785156 22.007812 33.785156 22.097656 33.808594 C 22.191406 33.832031 22.269531 33.871094 22.339844 33.933594 C 22.410156 33.996094 22.464844 34.070312 22.496094 34.15625 C 22.765625 33.894531 23.003906 33.421875 23.453125 33.570312 C 23.589844 33.609375 23.671875 33.699219 23.707031 33.835938 C 23.714844 33.945312 23.671875 34.023438 23.570312 34.066406 C 23.472656 34.113281 23.386719 34.09375 23.3125 34.011719 C 23.21875 34.179688 23.191406 34.355469 23.230469 34.546875 C 23.269531 34.734375 23.363281 34.886719 23.511719 35.007812 C 24.171875 35.140625 24.574219 34.316406 24.777344 33.796875 C 24.855469 33.5625 24.910156 32.96875 25.277344 33.164062 C 25.410156 33.03125 25.570312 32.964844 25.757812 32.957031 C 25.941406 32.949219 26.109375 33.003906 26.253906 33.125 C 26.421875 32.808594 26.5625 32.484375 26.675781 32.144531 C 26.707031 31.972656 26.71875 31.71875 26.921875 31.660156 C 27.042969 31.628906 27.128906 31.675781 27.175781 31.789062 C 27.207031 31.917969 27.191406 32.039062 27.132812 32.160156 C 27.078125 32.402344 27.058594 32.644531 27.078125 32.894531 C 27.109375 33.085938 27.097656 34.085938 27.359375 33.996094 C 27.496094 33.960938 27.617188 33.898438 27.722656 33.808594 C 27.84375 33.722656 27.949219 33.738281 28.035156 33.863281 C 28.121094 33.984375 28.101562 34.089844 27.980469 34.175781 C 27.675781 34.457031 27.09375 34.613281 26.863281 34.175781 C 26.753906 33.886719 26.691406 33.589844 26.683594 33.28125 C 26.660156 33.328125 26.632812 33.371094 26.609375 33.414062 C 26.570312 33.484375 26.527344 33.546875 26.480469 33.609375 C 26.589844 34.191406 26.425781 34.679688 25.996094 35.078125 C 25.902344 35.160156 25.796875 35.214844 25.675781 35.242188 C 25.554688 35.269531 25.433594 35.265625 25.316406 35.230469 C 25.195312 35.195312 25.09375 35.132812 25.003906 35.046875 C 24.917969 34.957031 24.855469 34.855469 24.820312 34.734375 C 24.222656 35.6875 22.933594 35.835938 22.804688 34.5 L 22.757812 34.566406 C 22.710938 34.617188 22.660156 34.660156 22.609375 34.707031 C 22.652344 35.136719 22.53125 35.511719 22.246094 35.832031 C 21.882812 36.148438 21.492188 35.832031 21.378906 35.445312 C 21.148438 35.988281 20.617188 36.507812 20.105469 35.9375 C 19.84375 35.648438 19.796875 35.234375 19.570312 34.925781 C 19.398438 35.304688 19.285156 35.703125 19.230469 36.117188 C 19.21875 36.265625 19.1875 36.410156 19.144531 36.554688 C 19.097656 36.625 19.035156 36.660156 18.953125 36.660156 C 18.867188 36.660156 18.804688 36.625 18.761719 36.554688 C 18.714844 36.382812 18.683594 36.210938 18.671875 36.035156 C 18.460938 36.628906 17.945312 37.234375 17.304688 37.253906 Z M 17.261719 37.238281 "/></g><g clip-rule="nonzero" clip-path="url(#b00ddc9132)"><path style=" stroke:none;fill-rule:nonzero;fill:#592418;fill-opacity:1;" d="M 31.5 32.640625 C 31.640625 32.40625 31.84375 32.074219 31.695312 31.800781 L 31.621094 31.800781 L 31.644531 31.800781 C 31.511719 31.898438 31.429688 32.027344 31.402344 32.191406 C 31.375 32.355469 31.40625 32.503906 31.5 32.640625 Z M 28.253906 33.996094 C 28.351562 33.996094 28.382812 33.863281 28.433594 33.792969 C 28.609375 33.410156 28.722656 33.007812 28.769531 32.585938 C 28.515625 32.71875 28.339844 32.917969 28.242188 33.191406 C 28.144531 33.460938 28.152344 33.730469 28.265625 33.996094 Z M 28.234375 34.433594 L 28.191406 34.433594 C 27.566406 34.28125 27.683594 33.296875 27.914062 32.855469 C 28.140625 32.414062 28.78125 31.84375 29.214844 32.34375 C 29.285156 32.421875 29.3125 32.515625 29.300781 32.617188 C 29.34375 32.902344 29.4375 33.171875 29.582031 33.421875 C 29.65625 33.300781 29.707031 33.171875 29.730469 33.027344 C 29.832031 32.542969 29.890625 32.054688 29.910156 31.558594 C 29.949219 31.332031 29.84375 30.75 30.121094 30.683594 C 30.203125 30.667969 30.273438 30.6875 30.332031 30.75 C 30.390625 30.8125 30.410156 30.882812 30.390625 30.96875 C 30.324219 31.433594 30.300781 33.636719 31.191406 32.960938 C 30.789062 32.464844 30.917969 31.488281 31.609375 31.359375 C 31.953125 31.289062 32.195312 31.640625 32.179688 31.953125 C 32.179688 32.3125 32.074219 32.632812 31.863281 32.921875 C 32.339844 33.089844 32.679688 32.597656 32.894531 32.242188 C 32.957031 32.109375 33.054688 32.070312 33.1875 32.132812 C 33.320312 32.195312 33.355469 32.292969 33.296875 32.425781 C 32.957031 33.070312 32.296875 33.683594 31.550781 33.261719 C 31.460938 33.367188 31.347656 33.445312 31.21875 33.492188 C 31.085938 33.539062 30.953125 33.550781 30.816406 33.527344 C 30.679688 33.507812 30.554688 33.449219 30.445312 33.363281 C 30.335938 33.277344 30.257812 33.167969 30.203125 33.035156 C 30.164062 33.246094 30.097656 33.441406 30 33.628906 C 29.929688 33.757812 29.824219 33.835938 29.679688 33.859375 C 29.535156 33.882812 29.410156 33.839844 29.304688 33.738281 C 29.210938 33.628906 29.140625 33.503906 29.089844 33.371094 C 28.957031 33.773438 28.785156 34.410156 28.285156 34.425781 Z M 28.234375 34.433594 "/></g><path style=" stroke:none;fill-rule:nonzero;fill:#592418;fill-opacity:1;" d="M 28.585938 31.625 C 29.347656 31.476562 30.09375 31.257812 30.855469 31.109375 C 30.992188 31.078125 31.082031 31.128906 31.117188 31.269531 C 31.152344 31.410156 31.097656 31.5 30.957031 31.539062 C 30.546875 31.621094 30.136719 31.71875 29.726562 31.816406 C 29.339844 31.921875 28.953125 32.007812 28.558594 32.066406 C 28.4375 32.035156 28.378906 31.960938 28.386719 31.832031 C 28.394531 31.707031 28.460938 31.636719 28.585938 31.625 Z M 28.585938 31.625 "/><path style=" stroke:none;fill-rule:nonzero;fill:#8c4e2a;fill-opacity:1;" d="M 22.246094 31.992188 C 22.097656 31.992188 22.011719 31.917969 21.980469 31.773438 C 21.660156 30.328125 21.300781 28.894531 21.003906 27.445312 C 20.992188 27.363281 21.011719 27.292969 21.058594 27.226562 C 21.109375 27.160156 21.175781 27.121094 21.253906 27.109375 C 21.335938 27.097656 21.410156 27.117188 21.476562 27.164062 C 21.539062 27.214844 21.578125 27.28125 21.589844 27.363281 C 21.886719 28.789062 22.238281 30.203125 22.554688 31.625 C 22.578125 31.71875 22.5625 31.804688 22.503906 31.882812 C 22.441406 31.957031 22.363281 31.996094 22.269531 31.992188 Z M 22.246094 31.992188 "/><path style=" stroke:none;fill-rule:nonzero;fill:#8c4e2a;fill-opacity:1;" d="M 20.9375 27.621094 C 20.832031 27.613281 20.753906 27.5625 20.695312 27.46875 C 20.640625 27.378906 20.636719 27.285156 20.679688 27.1875 C 20.742188 27.058594 20.84375 27.003906 20.980469 27.011719 C 21.167969 27.011719 21.347656 26.847656 21.542969 26.929688 C 21.660156 26.988281 21.714844 27.082031 21.710938 27.214844 C 21.703125 27.34375 21.640625 27.433594 21.519531 27.484375 C 21.335938 27.554688 21.148438 27.597656 20.953125 27.621094 Z M 20.9375 27.621094 "/><path style=" stroke:none;fill-rule:nonzero;fill:#8c4e2a;fill-opacity:1;" d="M 22.117188 32.242188 C 22.027344 32.238281 21.953125 32.207031 21.886719 32.148438 C 21.800781 32.050781 21.78125 31.945312 21.832031 31.824219 C 21.882812 31.707031 21.972656 31.648438 22.101562 31.644531 C 22.3125 31.621094 22.523438 31.460938 22.730469 31.539062 C 22.847656 31.597656 22.902344 31.695312 22.898438 31.824219 C 22.894531 31.953125 22.832031 32.046875 22.710938 32.097656 C 22.527344 32.160156 22.339844 32.210938 22.148438 32.242188 Z M 22.117188 32.242188 "/><g clip-rule="nonzero" clip-path="url(#e40115b7d8)"><path style=" stroke:none;fill-rule:nonzero;fill:#8c4e2a;fill-opacity:1;" d="M 17.339844 33.207031 C 17.183594 33.199219 17.09375 33.117188 17.066406 32.964844 C 16.863281 31.492188 16.574219 30.074219 16.339844 28.625 C 16.277344 28.464844 16.304688 28.320312 16.417969 28.191406 C 16.515625 28.109375 16.621094 28.09375 16.738281 28.148438 C 16.851562 28.203125 16.910156 28.292969 16.910156 28.421875 C 16.996094 29.011719 17.105469 29.597656 17.210938 30.183594 C 17.367188 31.070312 17.523438 31.960938 17.644531 32.851562 C 17.667969 32.949219 17.648438 33.035156 17.585938 33.113281 C 17.523438 33.191406 17.441406 33.226562 17.34375 33.21875 Z M 17.339844 33.207031 "/></g><path style=" stroke:none;fill-rule:nonzero;fill:#8c4e2a;fill-opacity:1;" d="M 20.515625 32.511719 C 20.359375 32.507812 20.265625 32.429688 20.238281 32.273438 C 20.101562 31.660156 19.976562 31.042969 19.824219 30.433594 C 19.730469 30.066406 19.632812 29.699219 19.542969 29.332031 C 19.425781 29.859375 19.207031 31.539062 18.863281 31.820312 C 18.765625 31.878906 18.660156 31.886719 18.554688 31.847656 C 18.449219 31.808594 18.375 31.734375 18.339844 31.625 C 18.21875 31.40625 18.097656 31.179688 17.972656 30.960938 C 17.578125 30.257812 17.09375 29.613281 16.632812 28.949219 C 16.519531 28.769531 16.300781 28.582031 16.378906 28.351562 C 16.414062 28.242188 16.492188 28.175781 16.605469 28.15625 C 16.757812 28.132812 16.867188 28.191406 16.933594 28.335938 C 17.082031 28.5625 17.246094 28.78125 17.398438 29.003906 C 17.84375 29.609375 18.25 30.238281 18.617188 30.890625 C 18.816406 30.082031 18.964844 29.261719 19.09375 28.4375 C 19.160156 28.175781 19.09375 27.84375 19.289062 27.628906 C 19.605469 27.402344 19.820312 27.730469 19.859375 28.03125 C 20.070312 29.007812 20.324219 29.980469 20.558594 30.949219 C 20.652344 31.351562 20.734375 31.757812 20.824219 32.160156 C 20.851562 32.253906 20.832031 32.339844 20.769531 32.417969 C 20.707031 32.496094 20.625 32.53125 20.527344 32.527344 Z M 20.515625 32.511719 "/><g clip-rule="nonzero" clip-path="url(#ec1e4e2ff8)"><path style=" stroke:none;fill-rule:nonzero;fill:#8c4e2a;fill-opacity:1;" d="M 16.6875 33.066406 C 16.703125 32.910156 16.785156 32.820312 16.941406 32.792969 C 16.921875 32.792969 16.90625 32.792969 16.890625 32.792969 C 17.113281 32.730469 17.386719 32.695312 17.617188 32.632812 C 17.796875 32.585938 17.917969 32.648438 17.980469 32.824219 C 18.0625 33.191406 17.75 33.21875 17.484375 33.277344 C 17.3125 33.308594 17.121094 33.359375 16.957031 33.378906 C 16.878906 33.371094 16.8125 33.335938 16.761719 33.277344 C 16.710938 33.214844 16.683594 33.144531 16.6875 33.066406 Z M 16.6875 33.066406 "/></g><path style=" stroke:none;fill-rule:nonzero;fill:#8c4e2a;fill-opacity:1;" d="M 20.171875 32.753906 C 20.144531 32.757812 20.117188 32.757812 20.085938 32.753906 C 19.964844 32.707031 19.902344 32.617188 19.894531 32.484375 C 19.886719 32.355469 19.941406 32.257812 20.058594 32.199219 C 20.152344 32.164062 20.25 32.136719 20.351562 32.113281 C 20.625 32.058594 21 31.855469 21.109375 32.253906 C 21.128906 32.335938 21.113281 32.414062 21.070312 32.488281 C 21.023438 32.558594 20.957031 32.605469 20.871094 32.621094 C 20.667969 32.671875 20.492188 32.710938 20.308594 32.761719 C 20.269531 32.777344 20.226562 32.785156 20.183594 32.785156 Z M 20.171875 32.753906 "/><g clip-rule="nonzero" clip-path="url(#07a1b66240)"><path style=" stroke:none;fill-rule:nonzero;fill:#8c4e2a;fill-opacity:1;" d="M 16.105469 28.160156 C 16.398438 28.113281 16.867188 27.792969 17.027344 28.191406 C 17.046875 28.269531 17.039062 28.34375 17.003906 28.417969 C 16.964844 28.488281 16.90625 28.535156 16.832031 28.558594 C 16.59375 28.644531 16.351562 28.707031 16.101562 28.746094 C 15.945312 28.710938 15.871094 28.613281 15.871094 28.453125 C 15.871094 28.292969 15.949219 28.195312 16.105469 28.160156 Z M 16.105469 28.160156 "/></g><path style=" stroke:none;fill-rule:nonzero;fill:#8c4e2a;fill-opacity:1;" d="M 19.015625 27.511719 C 19.152344 27.46875 19.292969 27.4375 19.433594 27.421875 C 19.683594 27.375 19.953125 27.300781 20.03125 27.625 C 20.042969 27.703125 20.027344 27.777344 19.980469 27.84375 C 19.929688 27.914062 19.867188 27.953125 19.789062 27.96875 C 19.574219 28.011719 19.359375 28.046875 19.144531 28.066406 C 19.003906 28.054688 18.914062 27.976562 18.882812 27.835938 C 18.851562 27.695312 18.894531 27.589844 19.015625 27.511719 Z M 19.015625 27.511719 "/><path style=" stroke:none;fill-rule:nonzero;fill:#8c4e2a;fill-opacity:1;" d="M 27.183594 30.769531 C 27.039062 30.765625 26.953125 30.691406 26.921875 30.546875 C 26.664062 29.113281 26.46875 27.742188 26.117188 26.339844 C 26.0625 26.261719 26.046875 26.179688 26.070312 26.085938 C 26.09375 25.992188 26.152344 25.929688 26.238281 25.890625 C 26.328125 25.851562 26.410156 25.855469 26.496094 25.902344 C 26.578125 25.949219 26.628906 26.019531 26.644531 26.113281 C 26.683594 26.242188 26.707031 26.375 26.738281 26.503906 C 27.0625 27.796875 27.238281 29.113281 27.46875 30.417969 C 27.496094 30.515625 27.480469 30.601562 27.417969 30.679688 C 27.359375 30.757812 27.277344 30.792969 27.179688 30.789062 Z M 27.183594 30.769531 "/><path style=" stroke:none;fill-rule:nonzero;fill:#8c4e2a;fill-opacity:1;" d="M 26.988281 28.898438 C 26.925781 28.898438 26.867188 28.875 26.816406 28.835938 C 26.496094 28.539062 26.988281 28.191406 27.125 27.929688 C 27.441406 27.480469 27.726562 27.015625 27.984375 26.53125 C 28.179688 26.164062 28.351562 25.796875 28.542969 25.429688 C 28.566406 25.378906 28.597656 25.339844 28.640625 25.308594 C 28.683594 25.277344 28.730469 25.257812 28.785156 25.253906 C 28.835938 25.25 28.886719 25.257812 28.9375 25.28125 C 28.984375 25.300781 29.023438 25.335938 29.054688 25.378906 C 29.136719 25.523438 29.125 25.660156 29.023438 25.789062 C 28.753906 26.296875 28.503906 26.847656 28.222656 27.339844 C 27.941406 27.832031 27.601562 28.289062 27.273438 28.75 C 27.21875 28.851562 27.132812 28.902344 27.019531 28.898438 Z M 26.988281 28.898438 "/><g clip-rule="nonzero" clip-path="url(#d1fdf12629)"><path style=" stroke:none;fill-rule:nonzero;fill:#8c4e2a;fill-opacity:1;" d="M 30.003906 30.15625 C 29.9375 30.152344 29.882812 30.132812 29.832031 30.089844 C 29.25 29.582031 28.710938 29.03125 28.152344 28.5 C 28.011719 28.371094 27.867188 28.253906 27.71875 28.132812 C 27.621094 28.070312 27.554688 27.984375 27.511719 27.875 C 27.492188 27.792969 27.5 27.714844 27.542969 27.644531 C 27.585938 27.570312 27.644531 27.523438 27.726562 27.503906 C 27.855469 27.476562 27.957031 27.515625 28.03125 27.621094 C 28.15625 27.730469 28.289062 27.828125 28.398438 27.9375 C 29.003906 28.488281 29.5625 29.085938 30.183594 29.621094 C 30.296875 29.703125 30.332031 29.8125 30.289062 29.949219 C 30.25 30.082031 30.15625 30.152344 30.019531 30.15625 Z M 30.003906 30.15625 "/></g><path style=" stroke:none;fill-rule:nonzero;fill:#8c4e2a;fill-opacity:1;" d="M 26.039062 26.410156 L 26.019531 26.410156 C 25.847656 26.386719 25.761719 26.285156 25.769531 26.109375 C 25.773438 25.933594 25.863281 25.839844 26.039062 25.824219 L 26.09375 25.824219 C 26.199219 25.796875 26.308594 25.761719 26.414062 25.726562 C 26.488281 25.703125 26.5625 25.710938 26.632812 25.746094 C 26.699219 25.78125 26.75 25.832031 26.773438 25.90625 C 26.800781 25.980469 26.800781 26.050781 26.769531 26.125 C 26.738281 26.195312 26.6875 26.246094 26.617188 26.277344 C 26.433594 26.351562 26.246094 26.398438 26.050781 26.425781 Z M 26.039062 26.410156 "/><path style=" stroke:none;fill-rule:nonzero;fill:#8c4e2a;fill-opacity:1;" d="M 27.039062 30.992188 C 26.960938 30.996094 26.894531 30.972656 26.839844 30.917969 C 26.78125 30.867188 26.75 30.800781 26.746094 30.726562 C 26.746094 30.511719 26.914062 30.414062 27.113281 30.382812 C 27.308594 30.355469 27.601562 30.21875 27.707031 30.5 C 27.816406 30.785156 27.492188 30.890625 27.257812 30.945312 C 27.191406 30.972656 27.121094 30.988281 27.046875 30.992188 Z M 27.039062 30.992188 "/><path style=" stroke:none;fill-rule:nonzero;fill:#8c4e2a;fill-opacity:1;" d="M 29.082031 25.78125 C 29.035156 25.78125 28.992188 25.769531 28.949219 25.746094 C 28.804688 25.679688 28.695312 25.632812 28.585938 25.585938 C 28.5 25.566406 28.433594 25.515625 28.390625 25.4375 C 28.351562 25.359375 28.34375 25.277344 28.375 25.191406 C 28.410156 25.105469 28.464844 25.050781 28.550781 25.019531 C 28.632812 24.988281 28.714844 24.992188 28.792969 25.035156 C 28.9375 25.089844 29.074219 25.152344 29.214844 25.214844 C 29.351562 25.28125 29.402344 25.390625 29.371094 25.542969 C 29.339844 25.695312 29.246094 25.769531 29.09375 25.773438 Z M 29.082031 25.78125 "/><g clip-rule="nonzero" clip-path="url(#0dfe9fd4b7)"><path style=" stroke:none;fill-rule:nonzero;fill:#8c4e2a;fill-opacity:1;" d="M 29.929688 30.445312 C 29.839844 30.441406 29.765625 30.402344 29.707031 30.328125 C 29.652344 30.242188 29.640625 30.148438 29.671875 30.050781 C 29.703125 29.953125 29.765625 29.886719 29.859375 29.847656 C 30.023438 29.707031 30.101562 29.570312 30.257812 29.453125 C 30.328125 29.414062 30.398438 29.40625 30.472656 29.425781 C 30.550781 29.445312 30.605469 29.488281 30.648438 29.554688 C 30.6875 29.621094 30.703125 29.695312 30.683594 29.769531 C 30.667969 29.847656 30.628906 29.910156 30.5625 29.953125 C 30.5625 29.953125 30.597656 29.921875 30.5625 29.953125 C 30.425781 30.117188 30.273438 30.261719 30.105469 30.394531 C 30.054688 30.433594 29.996094 30.453125 29.933594 30.453125 Z M 29.929688 30.445312 "/></g><path style=" stroke:none;fill-rule:nonzero;fill:#8c4e2a;fill-opacity:1;" d="M 23.933594 31.746094 C 23.859375 31.746094 23.796875 31.726562 23.734375 31.6875 C 23.613281 31.585938 23.550781 31.453125 23.546875 31.292969 C 23.5 31.011719 23.457031 30.730469 23.40625 30.445312 C 23.203125 29.304688 22.917969 28.183594 22.726562 27.046875 C 22.570312 26.570312 23.183594 26.367188 23.292969 26.816406 C 23.519531 28.25 23.910156 29.652344 24.113281 31.09375 C 24.65625 30.929688 25.207031 30.804688 25.757812 30.667969 C 25.917969 30.671875 26.015625 30.757812 26.046875 30.917969 C 26.074219 31.078125 26.015625 31.191406 25.867188 31.257812 C 25.324219 31.398438 24.773438 31.527344 24.238281 31.679688 C 24.140625 31.710938 24.039062 31.734375 23.9375 31.738281 Z M 23.933594 31.746094 "/><path style=" stroke:none;fill-rule:nonzero;fill:#8c4e2a;fill-opacity:1;" d="M 22.644531 27.113281 C 22.585938 27.109375 22.535156 27.09375 22.488281 27.0625 C 22.417969 27.011719 22.375 26.945312 22.355469 26.863281 C 22.339844 26.78125 22.351562 26.703125 22.394531 26.628906 C 22.472656 26.503906 22.625 26.5 22.757812 26.460938 C 22.984375 26.390625 23.289062 26.265625 23.398438 26.574219 C 23.507812 26.882812 23.195312 26.988281 22.945312 27.050781 C 22.851562 27.085938 22.757812 27.105469 22.65625 27.113281 Z M 22.644531 27.113281 "/><path style=" stroke:none;fill-rule:nonzero;fill:#8c4e2a;fill-opacity:1;" d="M 25.992188 31.359375 C 25.835938 31.355469 25.746094 31.273438 25.714844 31.117188 C 25.664062 30.835938 25.425781 30.40625 25.828125 30.292969 C 26.140625 30.234375 26.195312 30.554688 26.25 30.792969 C 26.265625 30.859375 26.285156 30.925781 26.300781 30.996094 C 26.324219 31.09375 26.304688 31.179688 26.242188 31.253906 C 26.179688 31.332031 26.101562 31.367188 26.003906 31.363281 Z M 25.992188 31.359375 "/><g clip-rule="nonzero" clip-path="url(#6377d54166)"><path style=" stroke:none;fill-rule:nonzero;fill:#4e7317;fill-opacity:1;" d="M 14.019531 19.6875 C 14.09375 20.277344 13.953125 20.804688 13.589844 21.269531 C 13.351562 21.546875 13.09375 21.800781 12.816406 22.035156 C 12.699219 22.144531 12.589844 22.257812 12.488281 22.382812 C 12.457031 22.429688 12.429688 22.429688 12.398438 22.382812 C 12.386719 22.355469 12.386719 22.328125 12.398438 22.300781 C 12.421875 22.210938 12.4375 22.117188 12.457031 22.027344 C 12.53125 21.523438 12.6875 21.046875 12.925781 20.601562 C 13.070312 20.234375 13.308594 19.941406 13.636719 19.730469 C 13.6875 19.703125 14.050781 19.496094 14.019531 19.6875 Z M 14.019531 19.6875 "/></g><g clip-rule="nonzero" clip-path="url(#db50eb0212)"><path style=" stroke:none;fill-rule:nonzero;fill:#4e7317;fill-opacity:1;" d="M 17.1875 20.132812 C 17.222656 20.148438 17.230469 20.175781 17.210938 20.207031 C 16.773438 20.308594 16.335938 20.339844 15.890625 20.304688 C 15.292969 20.238281 14.773438 20.003906 14.328125 19.597656 C 14.15625 19.597656 14.375 19.371094 14.445312 19.351562 C 15.28125 18.984375 16.144531 19.503906 16.839844 19.945312 C 16.953125 20.011719 17.070312 20.070312 17.1875 20.132812 Z M 17.1875 20.132812 "/></g><g clip-rule="nonzero" clip-path="url(#d0eab46850)"><path style=" stroke:none;fill-rule:nonzero;fill:#8c4e2a;fill-opacity:1;" d="M 14.1875 20.757812 C 14.589844 21.085938 14.863281 21.503906 15.007812 22.003906 C 15.152344 22.507812 15.144531 23.007812 14.984375 23.503906 C 14.746094 24.078125 14.433594 24.605469 14.046875 25.089844 C 14 25.152344 13.964844 25.253906 13.875 25.246094 C 13.824219 25.238281 13.792969 25.210938 13.777344 25.160156 C 13.714844 24.960938 13.648438 24.738281 13.578125 24.546875 C 13.222656 23.78125 13.125 22.980469 13.285156 22.152344 C 13.378906 21.65625 13.589844 21.226562 13.925781 20.855469 C 13.996094 20.800781 14.09375 20.691406 14.1875 20.757812 Z M 14.1875 20.757812 "/></g><g clip-rule="nonzero" clip-path="url(#f512146adb)"><path style=" stroke:none;fill-rule:nonzero;fill:#8c4e2a;fill-opacity:1;" d="M 18.164062 22.949219 C 18.195312 23.042969 18.300781 23.140625 18.253906 23.246094 C 18.207031 23.351562 18.125 23.296875 18.058594 23.285156 C 17.390625 23.25 16.761719 23.082031 16.164062 22.78125 C 15.984375 22.691406 15.8125 22.582031 15.652344 22.460938 C 15.058594 21.898438 14.78125 21.207031 14.828125 20.386719 C 14.828125 20.292969 14.945312 20.292969 15.007812 20.261719 C 15.863281 20.058594 16.671875 20.648438 17.195312 21.273438 C 17.585938 21.789062 17.910156 22.347656 18.164062 22.949219 Z M 18.164062 22.949219 "/></g><g clip-rule="nonzero" clip-path="url(#e779074756)"><path style=" stroke:none;fill-rule:nonzero;fill:#592418;fill-opacity:1;" d="M 13.859375 25.246094 L 13.859375 25.242188 L 13.863281 25.246094 Z M 13.859375 25.246094 "/></g><g clip-rule="nonzero" clip-path="url(#0ce87a9bbd)"><path style=" stroke:none;fill-rule:nonzero;fill:#592418;fill-opacity:1;" d="M 13.847656 19.835938 C 13.847656 19.796875 13.90625 19.800781 13.894531 19.835938 C 13.832031 20.019531 13.757812 20.199219 13.671875 20.371094 C 13.746094 20.480469 13.804688 20.996094 13.714844 20.863281 C 13.714844 20.71875 13.695312 20.574219 13.65625 20.429688 C 13.605469 20.539062 13.550781 20.636719 13.496094 20.738281 C 13.425781 20.859375 13.351562 20.980469 13.28125 21.105469 C 13.292969 21.132812 13.300781 21.160156 13.300781 21.1875 C 13.320312 21.320312 13.308594 21.453125 13.273438 21.582031 C 13.269531 21.597656 13.261719 21.601562 13.246094 21.601562 C 13.222656 21.601562 13.222656 21.574219 13.230469 21.554688 C 13.265625 21.425781 13.273438 21.292969 13.246094 21.164062 C 13.085938 21.414062 12.917969 21.660156 12.75 21.898438 C 12.742188 21.988281 12.71875 22.074219 12.679688 22.15625 C 12.679688 22.15625 12.679688 22.15625 12.644531 22.15625 C 12.636719 22.144531 12.636719 22.132812 12.644531 22.121094 C 12.667969 22.074219 12.6875 22.027344 12.695312 21.976562 L 12.472656 22.308594 C 12.472656 22.308594 12.472656 22.308594 12.472656 22.277344 C 12.613281 22.015625 12.773438 21.773438 12.957031 21.539062 C 12.832031 21.585938 12.722656 21.65625 12.628906 21.75 C 12.617188 21.761719 12.601562 21.761719 12.589844 21.75 C 12.53125 21.703125 12.90625 21.464844 12.992188 21.480469 C 13.160156 21.246094 13.3125 21 13.449219 20.746094 C 13.3125 20.789062 13.183594 20.847656 13.066406 20.925781 C 12.964844 20.988281 12.875 21.058594 12.792969 21.144531 C 12.777344 21.148438 12.769531 21.144531 12.761719 21.136719 C 12.753906 21.125 12.753906 21.113281 12.761719 21.101562 C 12.960938 20.910156 13.191406 20.773438 13.453125 20.695312 L 13.484375 20.695312 C 13.59375 20.484375 13.695312 20.273438 13.789062 20.054688 C 13.621094 20.097656 13.464844 20.164062 13.324219 20.261719 C 13.230469 20.328125 13.15625 20.417969 13.066406 20.484375 C 13.058594 20.496094 13.046875 20.496094 13.035156 20.484375 C 13.027344 20.476562 13.027344 20.464844 13.035156 20.453125 C 13.242188 20.226562 13.496094 20.078125 13.796875 20.011719 C 13.800781 19.957031 13.824219 19.894531 13.847656 19.835938 Z M 13.847656 19.835938 "/></g><g clip-rule="nonzero" clip-path="url(#a99d3c3b86)"><path style=" stroke:none;fill-rule:nonzero;fill:#592418;fill-opacity:1;" d="M 18.261719 23.171875 C 18.261719 23.179688 18.261719 23.1875 18.261719 23.195312 C 18.261719 23.195312 18.261719 23.195312 18.261719 23.214844 C 18.261719 23.214844 18.261719 23.214844 18.261719 23.234375 L 18.226562 23.234375 C 18.03125 23.175781 17.828125 23.148438 17.625 23.152344 C 17.082031 23.101562 16.894531 22.476562 16.46875 22.222656 C 16.222656 22.125 15.988281 22.003906 15.765625 21.855469 C 15.589844 21.695312 15.472656 21.488281 15.289062 21.324219 C 15.179688 21.242188 15.058594 21.183594 14.925781 21.148438 L 14.898438 21.042969 L 14.898438 21.019531 C 15.082031 21.085938 15.253906 21.179688 15.40625 21.300781 C 15.597656 21.488281 15.730469 21.75 15.96875 21.890625 C 16.203125 22.03125 16.363281 22.042969 16.542969 22.167969 C 16.769531 22.351562 16.96875 22.558594 17.148438 22.789062 C 17.257812 22.933594 17.402344 23.023438 17.578125 23.058594 C 17.667969 23.089844 17.941406 23.058594 18.113281 23.101562 C 17.855469 22.925781 17.582031 22.773438 17.296875 22.648438 C 16.984375 22.394531 16.804688 22.003906 16.484375 21.757812 C 16.285156 21.636719 16.082031 21.53125 15.867188 21.441406 C 15.5 21.234375 15.449219 20.757812 15.136719 20.519531 L 15.078125 20.492188 C 15.054688 20.519531 15.023438 20.539062 14.992188 20.554688 C 14.960938 20.554688 14.917969 20.59375 14.894531 20.554688 C 14.867188 20.515625 14.875 20.488281 14.925781 20.480469 C 14.585938 20.226562 14.308594 19.917969 14.09375 19.550781 C 14.09375 19.59375 14.09375 19.632812 14.09375 19.671875 C 14.164062 20.160156 14.183594 20.652344 14.148438 21.144531 C 14.1875 21.132812 14.21875 21.109375 14.246094 21.078125 C 14.253906 21.039062 14.277344 21.027344 14.3125 21.039062 C 14.375 21.070312 14.3125 21.140625 14.292969 21.171875 C 14.246094 21.210938 14.195312 21.238281 14.140625 21.25 C 14.144531 21.296875 14.144531 21.347656 14.140625 21.394531 C 14.121094 21.621094 14.121094 21.84375 14.144531 22.070312 C 14.191406 22.265625 14.21875 22.46875 14.230469 22.667969 C 14.203125 23.09375 13.949219 23.476562 13.945312 23.902344 C 14.003906 24.257812 14.027344 24.613281 14.019531 24.972656 C 14.3125 24.527344 14.445312 24.039062 14.410156 23.503906 C 14.472656 23.191406 14.554688 22.882812 14.652344 22.582031 C 14.65625 22.367188 14.636719 22.15625 14.585938 21.949219 C 14.585938 21.828125 14.585938 21.703125 14.566406 21.582031 C 14.542969 21.371094 14.4375 21.1875 14.402344 20.980469 C 14.402344 20.96875 14.402344 20.957031 14.402344 20.941406 C 14.425781 20.964844 14.449219 20.988281 14.46875 21.011719 L 14.527344 21.074219 C 14.566406 21.207031 14.625 21.335938 14.648438 21.476562 C 14.671875 21.628906 14.683594 21.78125 14.683594 21.9375 C 14.730469 22.132812 14.75 22.328125 14.746094 22.527344 C 14.707031 22.777344 14.636719 23.023438 14.535156 23.261719 C 14.5 23.441406 14.488281 23.625 14.503906 23.808594 C 14.496094 24.011719 14.460938 24.207031 14.394531 24.398438 C 14.308594 24.664062 14.1875 24.90625 14.03125 25.136719 C 14.015625 25.164062 13.992188 25.1875 13.96875 25.207031 L 13.878906 25.207031 L 13.820312 25.144531 C 13.820312 25.144531 13.820312 25.144531 13.820312 25.125 C 13.8125 25.105469 13.808594 25.085938 13.804688 25.066406 L 13.726562 25.011719 L 13.726562 24.992188 C 13.726562 24.960938 13.726562 24.9375 13.703125 24.90625 C 13.699219 24.890625 13.699219 24.871094 13.703125 24.851562 L 13.65625 24.738281 L 13.632812 24.664062 L 13.609375 24.601562 C 13.613281 24.59375 13.613281 24.585938 13.609375 24.582031 C 13.671875 24.214844 13.695312 23.847656 13.679688 23.476562 C 13.59375 23.257812 13.523438 23.035156 13.464844 22.804688 C 13.5 22.550781 13.566406 22.304688 13.664062 22.070312 C 13.671875 21.863281 13.644531 21.660156 13.589844 21.460938 C 13.582031 21.394531 13.582031 21.328125 13.589844 21.261719 C 13.589844 21.238281 13.605469 21.222656 13.613281 21.203125 L 13.652344 21.136719 L 13.695312 21.074219 L 13.738281 21.019531 C 13.6875 21.175781 13.664062 21.332031 13.671875 21.496094 C 13.71875 21.652344 13.746094 21.8125 13.753906 21.972656 C 13.753906 22.253906 13.550781 22.492188 13.542969 22.769531 C 13.574219 22.953125 13.628906 23.128906 13.707031 23.296875 C 13.921875 23.871094 13.421875 24.601562 13.855469 25.09375 C 13.890625 24.960938 13.910156 24.828125 13.910156 24.691406 C 13.855469 24.339844 13.839844 23.988281 13.851562 23.636719 C 13.921875 23.25 14.144531 22.902344 14.109375 22.484375 C 14.019531 22.082031 14 21.675781 14.054688 21.265625 C 14.054688 21.253906 14.054688 21.242188 14.054688 21.230469 C 14.011719 21.230469 13.972656 21.21875 13.933594 21.195312 C 13.902344 21.167969 13.851562 21.152344 13.847656 21.101562 C 13.847656 21.078125 13.859375 21.0625 13.882812 21.058594 C 13.90625 21.050781 13.921875 21.058594 13.933594 21.078125 L 13.96875 21.101562 C 13.96875 21.003906 13.988281 20.871094 13.96875 20.800781 C 13.984375 20.375 13.957031 19.949219 13.878906 19.527344 C 13.867188 19.425781 13.847656 19.324219 13.820312 19.226562 C 13.699219 19.292969 13.574219 19.355469 13.453125 19.414062 C 13.335938 19.472656 13.265625 19.492188 13.230469 19.386719 C 13.210938 19.324219 13.234375 19.285156 13.292969 19.265625 C 13.699219 19.125 14.0625 18.910156 14.382812 18.625 C 14.429688 18.585938 14.476562 18.589844 14.519531 18.636719 C 14.558594 18.6875 14.554688 18.730469 14.507812 18.773438 C 14.375 18.902344 14.230469 19.015625 14.078125 19.117188 C 14.269531 19.457031 14.492188 19.777344 14.746094 20.070312 C 14.835938 20.160156 14.933594 20.242188 15.039062 20.3125 C 15.039062 20.28125 15.054688 20.265625 15.085938 20.265625 C 15.117188 20.265625 15.132812 20.28125 15.132812 20.3125 C 15.144531 20.351562 15.144531 20.390625 15.132812 20.425781 L 15.167969 20.445312 C 15.492188 20.652344 15.546875 21.105469 15.855469 21.335938 C 16.160156 21.5625 16.4375 21.550781 16.652344 21.792969 C 16.878906 22.082031 17.121094 22.355469 17.378906 22.617188 C 17.648438 22.742188 17.898438 22.898438 18.128906 23.089844 L 18.085938 22.976562 C 18.007812 22.761719 17.878906 22.582031 17.703125 22.4375 C 17.539062 22.332031 17.382812 22.210938 17.242188 22.070312 C 17.117188 21.914062 17.042969 21.730469 16.925781 21.574219 C 16.746094 21.285156 16.402344 21.1875 16.175781 20.964844 C 16.058594 20.824219 16.015625 20.640625 15.914062 20.496094 C 15.835938 20.398438 15.75 20.3125 15.648438 20.238281 L 15.734375 20.238281 L 15.859375 20.273438 L 15.945312 20.359375 C 16.085938 20.523438 16.128906 20.746094 16.265625 20.910156 C 16.476562 21.035156 16.675781 21.179688 16.867188 21.339844 C 17.023438 21.523438 17.15625 21.722656 17.269531 21.933594 C 17.382812 22.074219 17.519531 22.1875 17.675781 22.277344 C 17.796875 22.359375 17.902344 22.457031 17.992188 22.574219 L 18.035156 22.660156 L 18.140625 22.890625 L 18.183594 22.972656 L 18.234375 23.078125 Z M 18.261719 23.171875 "/></g><path style=" stroke:none;fill-rule:nonzero;fill:#592418;fill-opacity:1;" d="M 17.15625 20.152344 C 17.175781 20.152344 17.183594 20.160156 17.183594 20.175781 C 17.183594 20.226562 17.097656 20.175781 17.054688 20.199219 C 16.644531 20.160156 16.238281 20.089844 15.839844 19.984375 C 15.90625 20.042969 15.972656 20.097656 16.046875 20.144531 C 16.09375 20.183594 16.167969 20.195312 16.203125 20.242188 C 16.207031 20.253906 16.203125 20.265625 16.191406 20.269531 C 16.183594 20.277344 16.171875 20.277344 16.164062 20.269531 C 16.011719 20.191406 15.878906 20.09375 15.757812 19.976562 C 15.453125 19.898438 15.160156 19.800781 14.863281 19.703125 C 14.917969 19.773438 14.976562 19.835938 15.039062 19.898438 C 15.105469 19.964844 15.183594 20.019531 15.253906 20.078125 C 15.324219 20.136719 15.253906 20.136719 15.222656 20.117188 C 15.058594 19.996094 14.914062 19.847656 14.789062 19.679688 L 14.617188 19.617188 L 14.460938 19.554688 C 14.449219 19.542969 14.449219 19.53125 14.460938 19.519531 C 14.46875 19.511719 14.480469 19.511719 14.492188 19.519531 L 14.570312 19.550781 C 14.683594 19.441406 15.21875 19.226562 15.101562 19.355469 C 14.933594 19.40625 14.773438 19.476562 14.625 19.566406 C 14.859375 19.65625 15.105469 19.738281 15.351562 19.816406 C 15.433594 19.71875 15.964844 19.515625 15.855469 19.648438 C 15.695312 19.679688 15.542969 19.742188 15.40625 19.832031 C 15.691406 19.921875 15.984375 19.996094 16.277344 20.054688 C 16.359375 19.980469 16.964844 19.925781 16.800781 20.019531 C 16.652344 20.015625 16.503906 20.035156 16.355469 20.074219 C 16.621094 20.117188 16.890625 20.144531 17.15625 20.152344 Z M 17.15625 20.152344 "/></g></svg>