<svg xmlns="http://www.w3.org/2000/svg" xmlns:xlink="http://www.w3.org/1999/xlink" width="60" zoomAndPan="magnify" viewBox="0 0 45 44.999999" height="60" preserveAspectRatio="xMidYMid meet" version="1.2"><defs><clipPath id="14b86aabfb"><path d="M 2.101562 3.472656 L 44 3.472656 L 44 42.472656 L 2.101562 42.472656 Z M 2.101562 3.472656 "/></clipPath><clipPath id="a4e9760769"><path d="M 2.101562 4 L 44 4 L 44 42.472656 L 2.101562 42.472656 Z M 2.101562 4 "/></clipPath><clipPath id="a48d06f13f"><path d="M 2.101562 24 L 19 24 L 19 32 L 2.101562 32 Z M 2.101562 24 "/></clipPath><clipPath id="33ad999bbb"><path d="M 11 35 L 18 35 L 18 42.472656 L 11 42.472656 Z M 11 35 "/></clipPath></defs><g id="807666ec00"><g clip-rule="nonzero" clip-path="url(#14b86aabfb)"><path style=" stroke:none;fill-rule:evenodd;fill:#f8a137;fill-opacity:1;" d="M 17.484375 40.652344 C 17.90625 40.378906 19.367188 40.191406 19.644531 39.640625 C 19.917969 39.09375 20.339844 37.445312 19.367188 36.476562 C 18.398438 35.511719 17.398438 34.875 17.398438 34.875 C 17.398438 34.875 17.761719 32.808594 17.71875 32.128906 C 17.675781 31.4375 18.414062 31.625 19.238281 30.671875 C 20.0625 29.703125 19.601562 29.761719 20.757812 29.210938 C 21.902344 28.664062 25.117188 27.105469 26.40625 26.050781 C 27.691406 24.996094 28.054688 24.128906 28.332031 23.621094 C 28.605469 23.117188 30.617188 21.976562 30.847656 21.511719 C 31.082031 21.050781 31.355469 21.324219 32.371094 21.832031 C 33.382812 22.335938 34.613281 22.65625 34.613281 22.65625 C 34.613281 22.65625 35.078125 24.574219 35.628906 25.542969 C 36.175781 26.511719 36.816406 27.96875 38.191406 27.148438 C 39.566406 26.324219 43.328125 23.476562 43.605469 21.007812 C 43.878906 18.539062 42.417969 13.136719 40.203125 11.574219 C 38 10.015625 36.800781 9.378906 36.800781 9.378906 C 36.800781 9.378906 37.160156 7.648438 36.523438 7.648438 C 35.886719 7.648438 34.789062 7.285156 34.789062 7.285156 C 34.789062 7.285156 32.585938 4.816406 30.285156 4.179688 C 27.996094 3.542969 23.683594 4.179688 22.394531 4.917969 C 21.105469 5.652344 20.003906 5.828125 20.003906 5.828125 C 20.003906 5.828125 16.429688 3.820312 15.140625 4.640625 C 13.851562 5.464844 10.277344 6.5625 8.988281 8.757812 C 7.699219 10.953125 5.136719 11.878906 5.035156 13.886719 C 4.949219 15.894531 5.496094 16.542969 5.035156 17.453125 C 4.570312 18.363281 3.472656 19.1875 3.472656 20.660156 C 3.472656 22.121094 2.457031 23.492188 3.28125 26.613281 C 4.109375 29.734375 3.558594 31.929688 5.296875 35.308594 C 7.03125 38.703125 8.421875 41.171875 10.523438 41.808594 C 12.636719 42.445312 15.75 42.542969 17.457031 40.667969 Z M 17.484375 40.652344 "/></g><path style=" stroke:none;fill-rule:evenodd;fill:#f8a137;fill-opacity:1;" d="M 34.597656 22.667969 C 34.597656 22.667969 34.730469 23.1875 34.917969 23.808594 C 37.003906 23.59375 41.359375 23.101562 43.054688 22.523438 C 43.34375 22.019531 43.53125 21.511719 43.589844 21.007812 C 43.605469 20.90625 43.605469 20.804688 43.621094 20.691406 C 42.9375 20.617188 41.402344 20.503906 40.144531 20.734375 C 38.480469 21.050781 35.367188 21.890625 34.597656 22.65625 Z M 34.597656 22.667969 "/><path style=" stroke:none;fill-rule:evenodd;fill:#dd7828;fill-opacity:1;" d="M 31.574219 21.441406 C 31.6875 21.5 31.820312 21.570312 31.964844 21.644531 C 32.660156 20.746094 34.46875 18.40625 34.902344 17.613281 C 35.453125 16.617188 36.886719 14.710938 37.0625 13.640625 C 37.175781 12.933594 37.742188 11.257812 38.117188 10.1875 C 37.261719 9.640625 36.816406 9.394531 36.816406 9.394531 C 36.816406 9.394531 36.597656 13.425781 35.960938 14.390625 C 35.335938 15.359375 34.800781 17.308594 33.890625 18.453125 C 32.992188 19.605469 31.574219 21.441406 31.574219 21.441406 Z M 31.574219 21.441406 "/><path style=" stroke:none;fill-rule:evenodd;fill:#dd7828;fill-opacity:1;" d="M 22.757812 28.214844 C 22.988281 28.101562 23.234375 27.96875 23.480469 27.839844 C 23.4375 27.4375 23.363281 26.972656 23.203125 26.640625 C 22.855469 25.917969 20.46875 23.636719 18.660156 22.078125 C 16.847656 20.515625 13.980469 18.164062 11.722656 16.300781 C 10.21875 15.042969 7.394531 13.308594 5.699219 12.3125 C 5.453125 12.617188 5.265625 12.933594 5.164062 13.292969 C 6.4375 13.539062 8.785156 15.101562 9.609375 15.648438 C 10.433594 16.199219 14.183594 19.882812 15.472656 20.734375 C 16.761719 21.585938 20.46875 24.921875 21.367188 26.035156 C 21.972656 26.769531 22.480469 27.652344 22.757812 28.230469 Z M 22.757812 28.214844 "/><path style=" stroke:none;fill-rule:evenodd;fill:#dd7828;fill-opacity:1;" d="M 21.003906 29.082031 C 21.132812 29.011719 21.292969 28.9375 21.453125 28.867188 C 20.933594 27.957031 19.730469 26.003906 18.542969 24.894531 C 16.949219 23.40625 12.375 18.625 11.230469 17.800781 C 10.085938 16.976562 8.21875 15 6.582031 15.171875 C 6.019531 15.230469 5.511719 15.257812 5.078125 15.273438 C 5.105469 15.605469 5.148438 15.878906 5.179688 16.140625 C 5.511719 16.15625 5.875 16.210938 6.265625 16.355469 C 7.335938 16.734375 10.085938 17.945312 11.261719 19.1875 C 12.433594 20.429688 16.878906 24.140625 18.066406 25.6875 C 18.890625 26.785156 20.265625 28.273438 21.003906 29.082031 Z M 21.003906 29.082031 "/><path style=" stroke:none;fill-rule:evenodd;fill:#dd7828;fill-opacity:1;" d="M 17.675781 32.96875 C 17.703125 32.679688 17.71875 32.417969 17.71875 32.230469 C 17.3125 32.171875 16.691406 32.117188 15.75 32.101562 C 13.78125 32.074219 7.699219 31.207031 6.726562 30.859375 C 6.222656 30.671875 4.933594 30.152344 3.832031 29.703125 C 3.875 30.121094 3.917969 30.527344 3.976562 30.929688 C 4.960938 31.335938 6.28125 31.828125 7.480469 32.375 C 9.246094 33.171875 15.503906 33.039062 17.660156 32.953125 Z M 17.675781 32.96875 "/><g clip-rule="nonzero" clip-path="url(#a4e9760769)"><path style=" stroke:none;fill-rule:evenodd;fill:#f98b36;fill-opacity:1;" d="M 17.875 35.222656 C 17.585938 35.003906 17.382812 34.890625 17.382812 34.890625 C 17.382812 34.890625 17.414062 34.746094 17.441406 34.511719 C 16.414062 35.234375 14.371094 36.234375 13.34375 36.941406 C 12.5625 37.476562 10.03125 39.0625 8.261719 40.175781 C 8.945312 40.96875 9.683594 41.535156 10.535156 41.792969 C 10.984375 41.9375 11.492188 42.039062 12.011719 42.113281 C 12.621094 41.402344 13.199219 40.523438 13.707031 39.539062 C 14.617188 37.75 17.050781 35.65625 17.050781 35.65625 L 17.863281 35.207031 Z M 17.71875 32.363281 C 17.71875 32.273438 17.71875 32.203125 17.71875 32.128906 C 17.703125 31.929688 17.761719 31.8125 17.863281 31.710938 C 17.5 31.625 17.023438 31.507812 16.445312 31.40625 C 14.242188 30.988281 9.378906 29.210938 5.25 27.292969 C 4.441406 26.914062 3.773438 26.597656 3.253906 26.339844 C 3.269531 26.425781 3.296875 26.511719 3.324219 26.597656 C 3.671875 27.914062 3.773438 29.054688 3.90625 30.195312 C 4.949219 30.773438 6.207031 31.40625 7.496094 31.898438 C 10.160156 32.910156 16.050781 32.492188 17.730469 32.347656 Z M 18.398438 31.363281 C 18.644531 31.21875 18.933594 31.019531 19.222656 30.671875 C 19.628906 30.210938 19.730469 29.976562 19.847656 29.804688 C 19.195312 29.199219 16.285156 28.070312 13.765625 26.972656 C 11.246094 25.875 8.117188 23.535156 6.554688 22.855469 C 5.832031 22.539062 4.511719 22.121094 3.339844 21.757812 C 3.179688 22.539062 2.933594 23.40625 2.976562 24.589844 C 3.382812 24.75 3.804688 24.90625 4.265625 25.050781 C 6.785156 25.875 9.320312 27.160156 12.027344 28.535156 C 13.925781 29.5 16.820312 30.730469 18.398438 31.378906 Z M 21.570312 28.808594 C 21.816406 28.679688 22.105469 28.546875 22.394531 28.402344 C 22.003906 27.550781 21.378906 26.367188 20.699219 25.730469 C 19.554688 24.675781 18.457031 23.722656 17.355469 22.753906 C 16.253906 21.789062 14.097656 19.738281 12.636719 18.496094 C 11.171875 17.253906 7.496094 14.507812 6.4375 14.148438 C 6.035156 14.003906 5.542969 13.816406 5.09375 13.625 C 5.078125 13.714844 5.078125 13.785156 5.0625 13.871094 C 5.035156 14.550781 5.078125 15.070312 5.121094 15.503906 C 5.945312 15.589844 7.121094 15.722656 8.175781 16.167969 C 10.015625 16.949219 13.171875 20.054688 16.488281 23.21875 C 19.136719 25.746094 20.960938 28.011719 21.582031 28.824219 Z M 23.203125 27.984375 C 23.523438 27.8125 23.855469 27.636719 24.1875 27.464844 C 23.886719 26.726562 23.378906 25.746094 22.496094 24.589844 C 20.46875 21.902344 20.0625 21.800781 17.675781 18.957031 C 15.285156 16.125 10.523438 12.371094 9.550781 11.359375 C 9.234375 11.027344 8.710938 10.476562 8.160156 9.871094 C 7.164062 10.984375 5.933594 11.761719 5.367188 12.804688 C 6.105469 13.121094 7.019531 13.597656 8.03125 14.246094 C 10.578125 15.894531 11.753906 16.863281 14.125 19.230469 C 16.515625 21.613281 19.585938 23.21875 20.875 24.589844 C 21.742188 25.515625 22.683594 27.074219 23.191406 27.984375 Z M 28.332031 23.621094 C 28.417969 23.464844 28.675781 23.246094 28.996094 23 C 28.054688 22.003906 26.316406 19.925781 25.765625 17.773438 C 24.984375 14.753906 22.003906 9.710938 21.222656 7.9375 C 20.902344 7.199219 20.613281 6.433594 20.351562 5.753906 C 20.148438 5.8125 20.035156 5.828125 20.035156 5.828125 C 20.035156 5.828125 17.023438 4.136719 15.53125 4.484375 C 15.605469 4.699219 15.675781 4.859375 15.761719 4.960938 C 16.226562 5.464844 20.308594 11.921875 21.769531 14.160156 C 23.234375 16.398438 25.304688 20.15625 26.824219 21.902344 C 27.300781 22.453125 27.722656 22.945312 28.085938 23.347656 L 28.34375 23.636719 Z M 30.820312 21.570312 C 30.835938 21.558594 30.847656 21.542969 30.847656 21.511719 C 31.007812 21.210938 31.183594 21.226562 31.585938 21.425781 C 32.28125 20.515625 33.222656 19.289062 33.6875 18.710938 C 34.46875 17.742188 35.105469 16.242188 35.800781 14.769531 C 36.496094 13.308594 36.625 10.234375 36.816406 9.367188 C 36.84375 9.222656 37.148438 7.632812 36.539062 7.632812 C 35.902344 7.632812 34.800781 7.269531 34.800781 7.269531 C 34.800781 7.269531 32.601562 4.800781 30.300781 4.164062 C 30.167969 4.121094 30.039062 4.09375 29.894531 4.066406 C 30.199219 5.207031 30.601562 7.011719 30.894531 9.148438 C 31.398438 12.859375 30.9375 18.8125 30.9375 19.261719 C 30.9375 19.535156 30.863281 20.703125 30.820312 21.558594 Z M 34.105469 22.523438 C 34.410156 22.625 34.613281 22.667969 34.613281 22.667969 C 34.613281 22.667969 34.628906 22.710938 34.644531 22.800781 C 35.046875 22.597656 35.539062 22.378906 35.988281 22.308594 C 37.046875 22.121094 39.203125 21.484375 41.085938 21.339844 C 42.011719 21.269531 42.882812 21.3125 43.546875 21.355469 C 43.574219 21.238281 43.589844 21.136719 43.605469 21.023438 C 43.707031 20.082031 43.5625 18.695312 43.214844 17.28125 C 41.839844 17.628906 40.40625 18.105469 39.609375 18.683594 C 37.726562 20.054688 35.335938 21.425781 34.746094 21.800781 C 34.496094 21.945312 34.28125 22.234375 34.105469 22.523438 Z M 34.105469 22.523438 "/></g><path style=" stroke:none;fill-rule:evenodd;fill:#dd7828;fill-opacity:1;" d="M 43.621094 20.691406 C 42.9375 20.617188 41.402344 20.503906 40.144531 20.734375 C 38.480469 21.050781 35.367188 21.890625 34.597656 22.65625 C 34.597656 22.65625 34.613281 22.699219 34.628906 22.785156 C 35.035156 22.582031 35.527344 22.367188 35.976562 22.292969 C 37.03125 22.105469 39.1875 21.46875 41.070312 21.324219 C 41.996094 21.253906 42.867188 21.296875 43.53125 21.339844 C 43.5625 21.226562 43.574219 21.125 43.589844 21.007812 C 43.605469 20.90625 43.605469 20.804688 43.621094 20.691406 Z M 43.621094 20.691406 "/><path style=" stroke:none;fill-rule:evenodd;fill:#f98b36;fill-opacity:1;" d="M 35.945312 14.390625 C 35.496094 15.070312 35.105469 16.242188 34.597656 17.265625 C 35.003906 16.5 35.382812 15.632812 35.785156 14.796875 C 35.84375 14.679688 35.902344 14.535156 35.945312 14.390625 Z M 33.875 18.453125 C 33.746094 18.609375 33.601562 18.796875 33.457031 18.984375 C 33.527344 18.882812 33.601562 18.796875 33.660156 18.726562 C 33.730469 18.640625 33.804688 18.550781 33.859375 18.453125 Z M 33.875 18.453125 "/><path style=" stroke:none;fill-rule:evenodd;fill:#dd7828;fill-opacity:1;" d="M 19.46875 5.539062 C 19.847656 6.503906 21.191406 9.84375 22.191406 11.761719 C 23.363281 14.015625 24.234375 14.941406 24.796875 16.675781 C 25.347656 18.40625 25.621094 19.503906 26.460938 20.546875 C 27.097656 21.339844 28.085938 22.742188 28.53125 23.375 C 28.648438 23.261719 28.808594 23.132812 28.980469 23 C 28.039062 22.003906 26.304688 19.925781 25.753906 17.773438 C 24.972656 14.753906 21.988281 9.710938 21.207031 7.9375 C 20.886719 7.199219 20.597656 6.433594 20.339844 5.753906 C 20.136719 5.8125 20.019531 5.828125 20.019531 5.828125 C 20.019531 5.828125 19.816406 5.710938 19.484375 5.550781 Z M 19.46875 5.539062 "/><g clip-rule="nonzero" clip-path="url(#a48d06f13f)"><path style=" stroke:none;fill-rule:evenodd;fill:#dd7828;fill-opacity:1;" d="M 2.976562 24.316406 C 3.730469 24.488281 4.804688 24.75 5.816406 25.082031 C 7.625 25.671875 16.804688 29.921875 18.066406 30.6875 C 18.355469 30.859375 18.558594 31.019531 18.703125 31.164062 C 18.585938 31.25 18.484375 31.308594 18.382812 31.363281 C 16.804688 30.714844 13.910156 29.488281 12.011719 28.519531 C 9.304688 27.148438 6.785156 25.863281 4.253906 25.039062 C 3.804688 24.894531 3.371094 24.734375 2.964844 24.574219 C 2.964844 24.488281 2.964844 24.402344 2.964844 24.316406 Z M 2.976562 24.316406 "/></g><g clip-rule="nonzero" clip-path="url(#33ad999bbb)"><path style=" stroke:none;fill-rule:evenodd;fill:#dd7828;fill-opacity:1;" d="M 11.070312 41.9375 C 11.695312 41.085938 12.648438 39.785156 13.289062 38.917969 C 14.285156 37.53125 17.136719 35.4375 17.644531 35.046875 C 17.71875 35.089844 17.789062 35.148438 17.890625 35.222656 L 17.082031 35.667969 C 17.082031 35.667969 14.648438 37.777344 13.734375 39.554688 C 13.242188 40.523438 12.648438 41.417969 12.042969 42.125 C 11.707031 42.082031 11.390625 42.011719 11.085938 41.9375 Z M 11.070312 41.9375 "/></g><path style=" stroke:none;fill-rule:evenodd;fill:#fab250;fill-opacity:1;" d="M 40.171875 22.003906 C 40.695312 21.933594 42.460938 21.800781 42.460938 21.800781 C 42.460938 21.800781 41.910156 22.742188 41.347656 23.433594 C 40.796875 24.128906 39.1875 25.472656 39.1875 25.472656 C 39.1875 25.472656 40.476562 22.871094 40.160156 22.003906 Z M 5.035156 32.042969 C 5.035156 32.042969 5.207031 34.253906 6.035156 35.191406 C 6.859375 36.132812 8.667969 38.863281 8.667969 38.863281 L 10.363281 37.894531 C 10.363281 37.894531 7.871094 35.164062 8.105469 34.125 C 8.351562 33.082031 5.019531 32.042969 5.019531 32.042969 Z M 6.25 17.265625 C 6.25 17.265625 6.453125 17.886719 5.902344 18.753906 C 5.351562 19.621094 4.730469 20.9375 4.730469 20.9375 L 6.539062 22.046875 L 7.929688 22.566406 C 7.929688 22.566406 7.65625 20.804688 8.207031 20.589844 C 8.753906 20.386719 9.492188 18.929688 9.246094 18.683594 C 9 18.4375 6.265625 17.265625 6.265625 17.265625 Z M 17.355469 5.507812 C 17.355469 5.507812 14.996094 5.164062 13.476562 6.679688 C 11.957031 8.195312 9.726562 10.203125 9.726562 10.203125 L 12.433594 12.007812 C 12.433594 12.007812 13.808594 8.355469 16.039062 8.542969 C 18.269531 8.746094 19.714844 7.921875 19.714844 7.921875 L 17.355469 5.496094 Z M 21.480469 6.40625 C 21.480469 6.40625 26.058594 4.597656 27.648438 4.917969 C 29.242188 5.234375 30.355469 5.40625 32.050781 6.40625 C 33.746094 7.402344 34.265625 7.746094 34.65625 7.890625 C 35.035156 8.035156 35.25 8.238281 35.25 8.238281 L 35.28125 10.320312 C 35.28125 10.320312 28.171875 7.34375 26.476562 8.382812 C 24.78125 9.421875 24.390625 9.84375 24.390625 9.84375 L 21.480469 6.417969 Z M 42.113281 16.542969 C 42.113281 16.542969 41.796875 14.566406 40.695312 13.367188 C 39.578125 12.152344 38.480469 11.359375 38.480469 11.359375 C 38.480469 11.359375 38.40625 11.808594 38.132812 12.816406 C 37.855469 13.816406 37.464844 14.507812 37.464844 14.507812 C 37.464844 14.507812 37.464844 14.261719 38.132812 14.609375 C 38.796875 14.957031 39.769531 14.710938 40.070312 15.476562 C 40.390625 16.242188 40.59375 16.644531 40.59375 16.644531 Z M 42.113281 16.542969 "/></g></svg>