<svg xmlns="http://www.w3.org/2000/svg" xmlns:xlink="http://www.w3.org/1999/xlink" width="60" zoomAndPan="magnify" viewBox="0 0 45 44.999999" height="60" preserveAspectRatio="xMidYMid meet" version="1.2"><defs><clipPath id="2de3f9be21"><path d="M 10.070312 6.1875 L 34.820312 6.1875 L 34.820312 39.1875 L 10.070312 39.1875 Z M 10.070312 6.1875 "/></clipPath><clipPath id="d2f2421b2f"><path d="M 10.070312 14 L 34.820312 14 L 34.820312 39.1875 L 10.070312 39.1875 Z M 10.070312 14 "/></clipPath></defs><g id="9223127bab"><g clip-rule="nonzero" clip-path="url(#2de3f9be21)"><path style=" stroke:none;fill-rule:nonzero;fill:#f4aa7e;fill-opacity:1;" d="M 34.78125 25.425781 C 34.78125 33.289062 29.257812 39.1875 22.445312 39.1875 C 15.636719 39.1875 10.113281 33.289062 10.113281 25.425781 C 10.113281 17.5625 15.636719 6.1875 22.445312 6.1875 C 29.257812 6.1875 34.78125 17.5625 34.78125 25.425781 "/></g><g clip-rule="nonzero" clip-path="url(#d2f2421b2f)"><path style=" stroke:none;fill-rule:nonzero;fill:#f29266;fill-opacity:1;" d="M 32.035156 14.480469 C 32.507812 16.492188 32.730469 18.5625 32.847656 20.625 C 32.90625 21.667969 32.925781 22.707031 32.835938 23.753906 C 32.742188 24.808594 32.5625 25.859375 32.28125 26.878906 C 31.730469 28.910156 30.804688 30.84375 29.480469 32.472656 C 28.132812 34.125 26.375 35.40625 24.378906 36.128906 C 22.570312 36.789062 20.589844 37.078125 18.683594 36.710938 C 17.066406 36.398438 15.578125 35.597656 14.359375 34.476562 C 13.101562 33.316406 12.136719 31.851562 11.417969 30.292969 C 10.867188 29.101562 10.453125 27.84375 10.15625 26.558594 C 10.65625 33.847656 15.964844 39.1875 22.445312 39.1875 C 29.257812 39.1875 34.78125 33.289062 34.78125 25.425781 C 34.78125 22.03125 33.75 17.984375 32.035156 14.480469 "/></g><path style=" stroke:none;fill-rule:nonzero;fill:#f9cbac;fill-opacity:1;" d="M 16.457031 12.066406 C 15.660156 12.898438 15.117188 13.972656 14.601562 15.035156 C 14.15625 15.957031 13.71875 16.917969 13.652344 17.949219 C 13.585938 19.605469 14.382812 20.710938 15.839844 20.792969 C 16.246094 20.847656 16.691406 20.957031 17.054688 20.734375 C 18.796875 19.675781 19.769531 14.835938 19.871094 13.726562 C 20.144531 10.785156 18.371094 10.074219 16.457031 12.066406 "/></g></svg>