<svg xmlns="http://www.w3.org/2000/svg" xmlns:xlink="http://www.w3.org/1999/xlink" width="60" zoomAndPan="magnify" viewBox="0 0 45 44.999999" height="60" preserveAspectRatio="xMidYMid meet" version="1.2"><defs><filter x="0%" y="0%" width="100%" filterUnits="objectBoundingBox" id="8f1ec8e74d" height="100%"><feColorMatrix values="0 0 0 0 1 0 0 0 0 1 0 0 0 0 1 0 0 0 1 0" type="matrix" in="SourceGraphic"/></filter><clipPath id="bb200d555f"><path d="M 0.71875 0.480469 L 5.519531 0.480469 L 5.519531 7 L 0.71875 7 Z M 0.71875 0.480469 "/></clipPath><clipPath id="e2bfa9481d"><path d="M 0.71875 5 L 4 5 L 4 7.199219 L 0.71875 7.199219 Z M 0.71875 5 "/></clipPath><clipPath id="63e163ba4a"><rect x="0" width="6" y="0" height="8"/></clipPath></defs><g id="b7a05dd5d3"><path style=" stroke:none;fill-rule:nonzero;fill:#8f6161;fill-opacity:1;" d="M 40.277344 22.523438 C 40.277344 23.105469 40.246094 23.683594 40.191406 24.261719 C 40.132812 24.839844 40.046875 25.414062 39.933594 25.984375 C 39.820312 26.550781 39.675781 27.113281 39.507812 27.671875 C 39.335938 28.226562 39.140625 28.773438 38.917969 29.308594 C 38.691406 29.84375 38.441406 30.371094 38.167969 30.882812 C 37.890625 31.394531 37.589844 31.890625 37.265625 32.375 C 36.941406 32.855469 36.59375 33.324219 36.222656 33.769531 C 35.851562 34.21875 35.457031 34.648438 35.042969 35.058594 C 34.628906 35.472656 34.199219 35.859375 33.746094 36.230469 C 33.292969 36.597656 32.824219 36.941406 32.335938 37.265625 C 31.851562 37.585938 31.347656 37.886719 30.832031 38.160156 C 30.316406 38.433594 29.789062 38.679688 29.25 38.902344 C 28.707031 39.125 28.15625 39.320312 27.597656 39.488281 C 27.039062 39.660156 26.472656 39.800781 25.898438 39.914062 C 25.324219 40.027344 24.746094 40.109375 24.164062 40.167969 C 23.582031 40.226562 22.996094 40.253906 22.414062 40.253906 C 21.828125 40.253906 21.242188 40.226562 20.660156 40.167969 C 20.078125 40.109375 19.5 40.027344 18.925781 39.914062 C 18.355469 39.800781 17.785156 39.660156 17.226562 39.488281 C 16.667969 39.320312 16.117188 39.125 15.578125 38.902344 C 15.035156 38.679688 14.507812 38.433594 13.992188 38.160156 C 13.476562 37.886719 12.976562 37.585938 12.488281 37.265625 C 12 36.941406 11.53125 36.597656 11.082031 36.230469 C 10.628906 35.859375 10.195312 35.472656 9.78125 35.058594 C 9.367188 34.648438 8.976562 34.21875 8.605469 33.769531 C 8.234375 33.324219 7.886719 32.855469 7.558594 32.375 C 7.234375 31.890625 6.933594 31.394531 6.660156 30.882812 C 6.382812 30.371094 6.132812 29.84375 5.910156 29.308594 C 5.683594 28.773438 5.488281 28.226562 5.320312 27.671875 C 5.148438 27.113281 5.007812 26.550781 4.890625 25.984375 C 4.777344 25.414062 4.691406 24.839844 4.636719 24.261719 C 4.578125 23.683594 4.550781 23.105469 4.550781 22.523438 C 4.550781 21.941406 4.578125 21.363281 4.636719 20.785156 C 4.691406 20.207031 4.777344 19.632812 4.890625 19.066406 C 5.007812 18.496094 5.148438 17.933594 5.320312 17.378906 C 5.488281 16.820312 5.683594 16.273438 5.910156 15.738281 C 6.132812 15.203125 6.382812 14.679688 6.660156 14.164062 C 6.933594 13.652344 7.234375 13.15625 7.558594 12.671875 C 7.886719 12.191406 8.234375 11.726562 8.605469 11.277344 C 8.976562 10.828125 9.367188 10.398438 9.78125 9.988281 C 10.195312 9.578125 10.628906 9.1875 11.082031 8.820312 C 11.53125 8.449219 12 8.105469 12.488281 7.78125 C 12.976562 7.460938 13.476562 7.160156 13.992188 6.886719 C 14.507812 6.613281 15.035156 6.367188 15.578125 6.144531 C 16.117188 5.921875 16.667969 5.726562 17.226562 5.558594 C 17.785156 5.390625 18.355469 5.246094 18.925781 5.132812 C 19.5 5.019531 20.078125 4.9375 20.660156 4.878906 C 21.242188 4.824219 21.828125 4.792969 22.414062 4.792969 C 22.996094 4.792969 23.582031 4.824219 24.164062 4.878906 C 24.746094 4.9375 25.324219 5.019531 25.898438 5.132812 C 26.472656 5.246094 27.039062 5.390625 27.597656 5.558594 C 28.15625 5.726562 28.707031 5.921875 29.25 6.144531 C 29.789062 6.367188 30.316406 6.613281 30.832031 6.886719 C 31.347656 7.160156 31.851562 7.460938 32.335938 7.78125 C 32.824219 8.105469 33.292969 8.449219 33.746094 8.820312 C 34.199219 9.1875 34.628906 9.578125 35.042969 9.988281 C 35.457031 10.398438 35.851562 10.828125 36.222656 11.277344 C 36.59375 11.726562 36.941406 12.191406 37.265625 12.671875 C 37.589844 13.15625 37.890625 13.652344 38.167969 14.164062 C 38.441406 14.679688 38.691406 15.203125 38.917969 15.738281 C 39.140625 16.273438 39.335938 16.820312 39.507812 17.378906 C 39.675781 17.933594 39.820312 18.496094 39.933594 19.066406 C 40.046875 19.632812 40.132812 20.207031 40.191406 20.785156 C 40.246094 21.363281 40.277344 21.941406 40.277344 22.523438 Z M 40.277344 22.523438 "/><path style=" stroke:none;fill-rule:nonzero;fill:#452f2f;fill-opacity:0.2;" d="M 22.980469 39.585938 C 13.113281 39.585938 5.117188 31.648438 5.117188 21.855469 C 5.117188 17.691406 6.574219 13.871094 8.996094 10.84375 C 6.234375 13.964844 4.550781 18.042969 4.550781 22.523438 C 4.550781 32.316406 12.546875 40.253906 22.414062 40.253906 C 28.082031 40.253906 33.125 37.625 36.398438 33.535156 C 33.121094 37.238281 28.332031 39.585938 22.980469 39.585938 Z M 22.980469 39.585938 "/><path style=" stroke:none;fill-rule:nonzero;fill:#ffadad;fill-opacity:0.3;" d="M 22.414062 5.292969 C 32.191406 5.292969 40.128906 13.097656 40.261719 22.773438 C 40.265625 22.691406 40.277344 22.609375 40.277344 22.523438 C 40.277344 12.730469 32.277344 4.792969 22.414062 4.792969 C 12.546875 4.792969 4.550781 12.730469 4.550781 22.523438 C 4.550781 22.609375 4.5625 22.691406 4.5625 22.773438 C 4.699219 13.097656 12.632812 5.292969 22.414062 5.292969 Z M 22.414062 5.292969 "/><path style=" stroke:none;fill-rule:nonzero;fill:#211717;fill-opacity:0.1;" d="M 33.875 11.050781 C 34.605469 11.777344 35.257812 12.566406 35.832031 13.417969 C 36.40625 14.273438 36.894531 15.171875 37.289062 16.121094 C 37.683594 17.066406 37.980469 18.042969 38.183594 19.050781 C 38.386719 20.054688 38.484375 21.070312 38.484375 22.097656 C 38.484375 23.125 38.386719 24.140625 38.183594 25.144531 C 37.980469 26.152344 37.683594 27.128906 37.289062 28.074219 C 36.894531 29.023438 36.40625 29.921875 35.835938 30.777344 C 35.261719 31.628906 34.609375 32.417969 33.875 33.144531 C 33.144531 33.867188 32.351562 34.515625 31.492188 35.085938 C 30.632812 35.65625 29.726562 36.136719 28.769531 36.527344 C 27.816406 36.921875 26.832031 37.21875 25.820312 37.417969 C 24.804688 37.617188 23.78125 37.71875 22.75 37.71875 C 21.714844 37.71875 20.691406 37.617188 19.679688 37.417969 C 18.664062 37.21875 17.679688 36.921875 16.726562 36.527344 C 15.769531 36.136719 14.863281 35.65625 14.003906 35.085938 C 13.144531 34.515625 12.351562 33.867188 11.621094 33.144531 C 10.890625 32.417969 10.238281 31.628906 9.664062 30.777344 C 9.089844 29.921875 8.605469 29.023438 8.207031 28.074219 C 7.8125 27.128906 7.515625 26.152344 7.3125 25.144531 C 7.109375 24.140625 7.011719 23.125 7.011719 22.097656 C 7.011719 21.074219 7.109375 20.058594 7.3125 19.050781 C 7.515625 18.042969 7.8125 17.066406 8.207031 16.121094 C 8.601562 15.171875 9.089844 14.273438 9.664062 13.421875 C 10.238281 12.566406 10.890625 11.777344 11.621094 11.054688 C 12.351562 10.328125 13.144531 9.679688 14.003906 9.109375 C 14.863281 8.539062 15.769531 8.058594 16.726562 7.667969 C 17.679688 7.273438 18.664062 6.976562 19.675781 6.777344 C 20.691406 6.578125 21.714844 6.476562 22.746094 6.476562 C 23.78125 6.476562 24.804688 6.578125 25.816406 6.777344 C 26.832031 6.976562 27.816406 7.273438 28.769531 7.667969 C 29.726562 8.058594 30.632812 8.539062 31.492188 9.109375 C 32.351562 9.679688 33.144531 10.328125 33.875 11.050781 Z M 33.875 11.050781 "/><path style=" stroke:none;fill-rule:nonzero;fill:#ffadad;fill-opacity:0.1;" d="M 33.386719 11.851562 C 34.117188 12.578125 34.769531 13.367188 35.34375 14.21875 C 35.917969 15.074219 36.402344 15.972656 36.796875 16.921875 C 37.195312 17.867188 37.492188 18.84375 37.695312 19.851562 C 37.894531 20.855469 37.996094 21.871094 37.996094 22.898438 C 37.996094 23.925781 37.894531 24.941406 37.695312 25.945312 C 37.492188 26.953125 37.195312 27.929688 36.796875 28.875 C 36.402344 29.824219 35.917969 30.722656 35.34375 31.578125 C 34.769531 32.429688 34.117188 33.21875 33.386719 33.945312 C 32.65625 34.667969 31.863281 35.316406 31.003906 35.886719 C 30.144531 36.457031 29.234375 36.9375 28.28125 37.328125 C 27.328125 37.722656 26.34375 38.019531 25.328125 38.21875 C 24.316406 38.417969 23.292969 38.519531 22.257812 38.519531 C 21.226562 38.519531 20.203125 38.417969 19.1875 38.21875 C 18.175781 38.019531 17.191406 37.722656 16.234375 37.328125 C 15.28125 36.9375 14.375 36.457031 13.515625 35.886719 C 12.65625 35.316406 11.859375 34.667969 11.128906 33.945312 C 10.398438 33.21875 9.746094 32.429688 9.171875 31.578125 C 8.597656 30.722656 8.113281 29.824219 7.71875 28.875 C 7.324219 27.929688 7.023438 26.953125 6.824219 25.945312 C 6.621094 24.941406 6.519531 23.925781 6.519531 22.898438 C 6.519531 21.875 6.621094 20.859375 6.824219 19.851562 C 7.023438 18.84375 7.324219 17.867188 7.71875 16.921875 C 8.113281 15.972656 8.597656 15.074219 9.171875 14.222656 C 9.746094 13.367188 10.398438 12.578125 11.128906 11.855469 C 11.859375 11.128906 12.65625 10.480469 13.515625 9.910156 C 14.375 9.339844 15.28125 8.859375 16.234375 8.46875 C 17.191406 8.074219 18.175781 7.777344 19.1875 7.578125 C 20.203125 7.378906 21.226562 7.277344 22.257812 7.277344 C 23.292969 7.277344 24.316406 7.378906 25.328125 7.578125 C 26.34375 7.777344 27.324219 8.074219 28.28125 8.46875 C 29.234375 8.859375 30.140625 9.339844 31 9.910156 C 31.859375 10.480469 32.65625 11.128906 33.386719 11.851562 Z M 33.386719 11.851562 "/><path style=" stroke:none;fill-rule:nonzero;fill:#7d5555;fill-opacity:1;" d="M 33.539062 11.476562 C 34.269531 12.203125 34.921875 12.992188 35.496094 13.84375 C 36.070312 14.699219 36.558594 15.597656 36.953125 16.546875 C 37.347656 17.492188 37.644531 18.46875 37.847656 19.476562 C 38.050781 20.480469 38.148438 21.496094 38.148438 22.523438 C 38.148438 23.550781 38.050781 24.566406 37.847656 25.570312 C 37.644531 26.578125 37.347656 27.554688 36.953125 28.5 C 36.558594 29.449219 36.070312 30.347656 35.5 31.203125 C 34.925781 32.054688 34.273438 32.84375 33.539062 33.570312 C 32.808594 34.292969 32.015625 34.941406 31.15625 35.511719 C 30.296875 36.082031 29.390625 36.5625 28.433594 36.953125 C 27.480469 37.347656 26.496094 37.644531 25.484375 37.84375 C 24.46875 38.042969 23.445312 38.144531 22.414062 38.144531 C 21.378906 38.144531 20.355469 38.042969 19.34375 37.84375 C 18.328125 37.644531 17.34375 37.347656 16.390625 36.953125 C 15.433594 36.5625 14.527344 36.082031 13.667969 35.511719 C 12.808594 34.941406 12.015625 34.292969 11.285156 33.570312 C 10.554688 32.84375 9.902344 32.054688 9.328125 31.203125 C 8.753906 30.347656 8.269531 29.449219 7.871094 28.5 C 7.476562 27.554688 7.179688 26.578125 6.976562 25.570312 C 6.773438 24.566406 6.675781 23.550781 6.675781 22.523438 C 6.675781 21.5 6.773438 20.484375 6.976562 19.476562 C 7.179688 18.46875 7.476562 17.492188 7.871094 16.546875 C 8.269531 15.597656 8.753906 14.699219 9.328125 13.847656 C 9.902344 12.992188 10.554688 12.203125 11.285156 11.480469 C 12.015625 10.753906 12.808594 10.105469 13.667969 9.535156 C 14.527344 8.964844 15.433594 8.484375 16.390625 8.09375 C 17.34375 7.699219 18.328125 7.402344 19.34375 7.203125 C 20.355469 7.003906 21.378906 6.902344 22.414062 6.902344 C 23.445312 6.902344 24.46875 7.003906 25.484375 7.203125 C 26.496094 7.402344 27.480469 7.699219 28.433594 8.09375 C 29.390625 8.484375 30.296875 8.964844 31.15625 9.535156 C 32.015625 10.105469 32.808594 10.753906 33.539062 11.476562 Z M 33.539062 11.476562 "/><path style=" stroke:none;fill-rule:nonzero;fill:#211717;fill-opacity:0.2;" d="M 20.808594 9.902344 C 29.5 9.902344 36.546875 16.894531 36.546875 25.523438 C 36.546875 27.574219 36.136719 29.53125 35.410156 31.324219 C 37.136719 28.820312 38.152344 25.789062 38.152344 22.523438 C 38.152344 13.898438 31.105469 6.902344 22.414062 6.902344 C 15.789062 6.902344 10.132812 10.96875 7.808594 16.722656 C 10.644531 12.605469 15.40625 9.902344 20.808594 9.902344 Z M 20.808594 9.902344 "/><path style=" stroke:none;fill-rule:nonzero;fill:#400303;fill-opacity:0.2;" d="M 32.25 13.3125 C 32.90625 13.964844 33.492188 14.671875 34.007812 15.4375 C 34.523438 16.203125 34.960938 17.011719 35.316406 17.863281 C 35.671875 18.714844 35.9375 19.59375 36.121094 20.496094 C 36.300781 21.398438 36.390625 22.3125 36.390625 23.230469 C 36.390625 24.152344 36.300781 25.066406 36.121094 25.96875 C 35.9375 26.871094 35.671875 27.75 35.316406 28.597656 C 34.960938 29.449219 34.523438 30.257812 34.007812 31.023438 C 33.492188 31.789062 32.90625 32.5 32.253906 33.148438 C 31.597656 33.800781 30.882812 34.382812 30.109375 34.894531 C 29.339844 35.40625 28.523438 35.839844 27.667969 36.191406 C 26.808594 36.542969 25.925781 36.808594 25.015625 36.988281 C 24.105469 37.167969 23.1875 37.257812 22.257812 37.257812 C 21.332031 37.257812 20.410156 37.167969 19.5 36.988281 C 18.589844 36.808594 17.707031 36.542969 16.851562 36.191406 C 15.992188 35.839844 15.179688 35.40625 14.40625 34.894531 C 13.636719 34.382812 12.921875 33.800781 12.265625 33.152344 C 11.609375 32.5 11.023438 31.789062 10.507812 31.023438 C 9.992188 30.257812 9.558594 29.449219 9.203125 28.601562 C 8.847656 27.75 8.578125 26.871094 8.398438 25.96875 C 8.214844 25.066406 8.125 24.152344 8.125 23.230469 C 8.125 22.3125 8.214844 21.398438 8.398438 20.496094 C 8.578125 19.59375 8.847656 18.714844 9.203125 17.863281 C 9.554688 17.011719 9.992188 16.203125 10.507812 15.4375 C 11.023438 14.671875 11.609375 13.964844 12.265625 13.3125 C 12.921875 12.664062 13.636719 12.082031 14.40625 11.570312 C 15.179688 11.058594 15.992188 10.625 16.851562 10.273438 C 17.707031 9.921875 18.589844 9.65625 19.5 9.476562 C 20.410156 9.296875 21.332031 9.207031 22.257812 9.207031 C 23.1875 9.203125 24.105469 9.292969 25.015625 9.472656 C 25.925781 9.652344 26.808594 9.921875 27.667969 10.273438 C 28.523438 10.625 29.339844 11.058594 30.109375 11.570312 C 30.882812 12.082031 31.59375 12.660156 32.25 13.3125 Z M 32.25 13.3125 "/><path style=" stroke:none;fill-rule:nonzero;fill:#ffd777;fill-opacity:1;" d="M 36.546875 22.523438 C 36.546875 23.445312 36.453125 24.355469 36.273438 25.261719 C 36.09375 26.164062 35.824219 27.039062 35.46875 27.890625 C 35.113281 28.742188 34.679688 29.550781 34.164062 30.316406 C 33.648438 31.082031 33.0625 31.789062 32.40625 32.441406 C 31.75 33.09375 31.035156 33.675781 30.265625 34.1875 C 29.492188 34.699219 28.679688 35.128906 27.820312 35.484375 C 26.964844 35.835938 26.078125 36.101562 25.167969 36.28125 C 24.257812 36.460938 23.339844 36.550781 22.414062 36.550781 C 21.484375 36.550781 20.566406 36.460938 19.65625 36.28125 C 18.746094 36.101562 17.863281 35.835938 17.003906 35.484375 C 16.148438 35.128906 15.332031 34.699219 14.5625 34.1875 C 13.789062 33.675781 13.074219 33.09375 12.417969 32.441406 C 11.761719 31.789062 11.175781 31.082031 10.660156 30.316406 C 10.144531 29.550781 9.710938 28.742188 9.355469 27.890625 C 9 27.039062 8.734375 26.164062 8.550781 25.261719 C 8.371094 24.355469 8.28125 23.445312 8.28125 22.523438 C 8.28125 21.601562 8.371094 20.691406 8.550781 19.789062 C 8.734375 18.882812 9 18.007812 9.355469 17.15625 C 9.710938 16.304688 10.144531 15.496094 10.660156 14.730469 C 11.175781 13.964844 11.761719 13.257812 12.417969 12.605469 C 13.074219 11.953125 13.789062 11.371094 14.5625 10.859375 C 15.332031 10.347656 16.148438 9.917969 17.003906 9.566406 C 17.863281 9.210938 18.746094 8.945312 19.65625 8.765625 C 20.566406 8.585938 21.484375 8.496094 22.414062 8.496094 C 23.339844 8.496094 24.257812 8.585938 25.167969 8.765625 C 26.078125 8.945312 26.964844 9.210938 27.820312 9.566406 C 28.679688 9.917969 29.492188 10.347656 30.265625 10.859375 C 31.035156 11.371094 31.75 11.953125 32.40625 12.605469 C 33.0625 13.257812 33.648438 13.964844 34.164062 14.730469 C 34.679688 15.496094 35.113281 16.304688 35.46875 17.15625 C 35.824219 18.007812 36.09375 18.882812 36.273438 19.789062 C 36.453125 20.691406 36.546875 21.601562 36.546875 22.523438 Z M 36.546875 22.523438 "/><path style=" stroke:none;fill-rule:nonzero;fill:#800606;fill-opacity:0.1;" d="M 21.941406 9.203125 C 29.746094 9.203125 36.074219 15.484375 36.074219 23.230469 C 36.074219 25.949219 35.28125 28.480469 33.933594 30.628906 C 35.574219 28.339844 36.546875 25.546875 36.546875 22.523438 C 36.546875 14.777344 30.21875 8.496094 22.414062 8.496094 C 17.347656 8.496094 12.914062 11.152344 10.421875 15.125 C 12.980469 11.546875 17.183594 9.203125 21.941406 9.203125 Z M 21.941406 9.203125 "/><path style=" stroke:none;fill-rule:nonzero;fill:#ffadad;fill-opacity:0.2;" d="M 22.496094 40.144531 C 12.632812 40.144531 4.632812 32.207031 4.632812 22.414062 C 4.632812 18.175781 6.136719 14.285156 8.636719 11.238281 C 6.082031 14.300781 4.550781 18.234375 4.550781 22.523438 C 4.550781 32.316406 12.546875 40.253906 22.414062 40.253906 C 28.007812 40.253906 32.996094 37.695312 36.273438 33.699219 C 32.996094 37.636719 28.042969 40.144531 22.496094 40.144531 Z M 22.496094 40.144531 "/><path style=" stroke:none;fill-rule:nonzero;fill:#d9a264;fill-opacity:0.1;" d="M 31.867188 13.785156 C 30.3125 10.964844 25.972656 9.050781 19.78125 9.828125 C 13.585938 10.605469 11.34375 14.214844 10.117188 20.417969 C 8.894531 26.625 11.273438 33.859375 21.460938 35.117188 C 31.644531 36.378906 35.746094 26.996094 35.488281 22.523438 C 35.226562 18.050781 32.800781 15.976562 33.0625 19.234375 C 33.324219 22.492188 34.292969 23.269531 33.210938 26.75 C 32.128906 30.230469 26.53125 34.371094 19.890625 33.046875 C 13.253906 31.71875 11.011719 21.828125 12.355469 17.640625 C 13.699219 13.457031 18.585938 10.496094 24.480469 11.605469 C 30.375 12.71875 31.121094 13.792969 31.867188 15.085938 C 32.613281 16.382812 32.5 14.933594 31.867188 13.785156 Z M 31.867188 13.785156 "/><path style=" stroke:none;fill-rule:nonzero;fill:#d9a264;fill-opacity:0.1;" d="M 29.40625 14.695312 C 24.445312 12.734375 18.988281 12.25 15.15625 15.066406 C 11.320312 17.882812 14.445312 25.359375 16.050781 28.210938 C 17.652344 31.0625 25.601562 32.507812 29.59375 30.136719 C 33.582031 27.765625 33.359375 23.101562 32.726562 21.359375 C 32.089844 19.621094 31.644531 21.507812 31.457031 24.621094 C 31.269531 27.730469 28.699219 30.246094 23.046875 29.542969 C 17.394531 28.839844 14.992188 22.417969 15.304688 18.582031 C 15.613281 14.75 19.296875 14.4375 22.765625 14.992188 C 26.234375 15.546875 29.40625 14.695312 29.40625 14.695312 Z M 29.40625 14.695312 "/><path style=" stroke:none;fill-rule:nonzero;fill:#d9a264;fill-opacity:0.1;" d="M 20.191406 15.777344 C 26.496094 15.125 32.835938 19.851562 31.085938 24.253906 C 29.332031 28.660156 24.007812 29.472656 21.796875 28.070312 C 19.582031 26.664062 19.257812 21.921875 20.5625 24.144531 C 21.871094 26.367188 23.816406 28.519531 27.203125 26.882812 C 30.59375 25.25 30.261719 21.183594 27.949219 19.40625 C 25.636719 17.628906 26.160156 16.886719 23.734375 16.515625 C 21.308594 16.148438 20.191406 15.777344 20.191406 15.777344 Z M 20.191406 15.777344 "/><path style=" stroke:none;fill-rule:nonzero;fill:#d9a264;fill-opacity:0.1;" d="M 20.410156 16.789062 C 15.117188 16.902344 17.019531 21.34375 20.675781 23.046875 C 24.332031 24.75 27.503906 25.863281 27.765625 24.566406 C 28.023438 23.269531 25.46875 23.011719 22.980469 22.011719 C 20.488281 21.011719 17.765625 19.53125 19.371094 18.828125 C 20.972656 18.125 20.410156 16.789062 20.410156 16.789062 Z M 20.410156 16.789062 "/><path style=" stroke:none;fill-rule:nonzero;fill:#d9a264;fill-opacity:0.1;" d="M 23.203125 17.382812 C 20.296875 18.082031 20.078125 19.9375 24.332031 21.121094 C 28.585938 22.308594 28.847656 23.417969 28.847656 23.605469 C 28.847656 23.789062 29.890625 22.464844 28.398438 20.960938 C 26.90625 19.457031 25.972656 19.011719 24.480469 18.863281 C 22.988281 18.714844 23.203125 17.382812 23.203125 17.382812 Z M 23.203125 17.382812 "/><path style=" stroke:none;fill-rule:nonzero;fill:#bd0909;fill-opacity:0.1;" d="M 36.546875 22.523438 C 36.546875 22.492188 36.539062 22.464844 36.539062 22.433594 C 34.761719 26.308594 31.527344 29.1875 27.78125 30.453125 C 22.035156 32.398438 18.027344 31.898438 15.902344 29.398438 C 13.773438 26.898438 12.429688 26.066406 11.480469 22.445312 C 10.589844 19.058594 9.558594 17.246094 15.566406 10.253906 C 11.222656 12.648438 8.28125 17.242188 8.28125 22.523438 C 8.28125 30.269531 14.605469 36.550781 22.414062 36.550781 C 30.21875 36.550781 36.546875 30.269531 36.546875 22.523438 Z M 36.546875 22.523438 "/><path style=" stroke:none;fill-rule:nonzero;fill:#800606;fill-opacity:0.1;" d="M 20.359375 19.046875 C 19.386719 19.050781 19.367188 20.292969 20.75 20.269531 C 22.132812 20.25 21.015625 19.046875 20.359375 19.046875 Z M 20.359375 19.046875 "/><path style=" stroke:none;fill-rule:nonzero;fill:#800606;fill-opacity:0.1;" d="M 21 11.988281 C 20.109375 12.378906 20.59375 13.523438 21.851562 12.953125 C 23.113281 12.378906 21.597656 11.726562 21 11.988281 Z M 21 11.988281 "/><path style=" stroke:none;fill-rule:nonzero;fill:#800606;fill-opacity:0.1;" d="M 18.6875 25.742188 C 17.851562 25.246094 17.191406 26.300781 18.390625 26.988281 C 19.585938 27.675781 19.25 26.074219 18.6875 25.742188 Z M 18.6875 25.742188 "/><path style=" stroke:none;fill-rule:nonzero;fill:#800606;fill-opacity:0.1;" d="M 30.34375 17.476562 C 29.382812 17.308594 29.144531 18.527344 30.511719 18.746094 C 31.878906 18.964844 30.988281 17.585938 30.34375 17.476562 Z M 30.34375 17.476562 "/><path style=" stroke:none;fill-rule:nonzero;fill:#800606;fill-opacity:0.1;" d="M 12.316406 22.578125 C 12.863281 23.378906 13.910156 22.703125 13.121094 21.574219 C 12.332031 20.445312 11.949219 22.039062 12.316406 22.578125 Z M 12.316406 22.578125 "/><path style=" stroke:none;fill-rule:nonzero;fill:#fcffcc;fill-opacity:0.2;" d="M 18.140625 15.308594 C 14.296875 16.53125 16.199219 22.046875 16.722656 22.898438 C 17.242188 23.75 16.234375 18.566406 17.878906 17.308594 C 19.519531 16.050781 20.394531 16.261719 19.667969 15.570312 C 18.9375 14.878906 18.140625 15.308594 18.140625 15.308594 Z M 18.140625 15.308594 "/><path style=" stroke:none;fill-rule:nonzero;fill:#fcffcc;fill-opacity:0.1;" d="M 29.554688 15.308594 C 24.480469 15.164062 22.875 15.457031 24.890625 15.863281 C 26.90625 16.273438 28.667969 17.53125 29.203125 18.308594 C 29.734375 19.085938 28.996094 17.382812 30.152344 17.199219 C 31.308594 17.011719 31.71875 17.566406 32.390625 17.085938 C 33.0625 16.605469 29.554688 15.308594 29.554688 15.308594 Z M 29.554688 15.308594 "/><path style=" stroke:none;fill-rule:nonzero;fill:#fcffcc;fill-opacity:0.1;" d="M 25.136719 11.929688 C 22.316406 11.644531 21.089844 12.648438 25.136719 13.109375 C 29.179688 13.570312 30.261719 15.175781 30.261719 15.175781 C 30.261719 15.175781 30.113281 14.015625 27.988281 13.089844 C 25.863281 12.164062 25.136719 11.929688 25.136719 11.929688 Z M 25.136719 11.929688 "/><path style=" stroke:none;fill-rule:nonzero;fill:#d9a264;fill-opacity:0.1;" d="M 20.824219 10.253906 C 15.132812 11.496094 16.25 11.902344 20.574219 10.859375 C 24.898438 9.820312 29.363281 12.609375 30.390625 12.71875 C 31.421875 12.828125 30.597656 11.75 27.539062 10.84375 C 24.480469 9.941406 24.054688 9.550781 20.824219 10.253906 Z M 20.824219 10.253906 "/><path style=" stroke:none;fill-rule:nonzero;fill:#d9a264;fill-opacity:0.1;" d="M 18.46875 20.273438 C 18.921875 22.308594 25.191406 24.417969 26.570312 24.417969 C 27.949219 24.417969 25.433594 23.628906 22.980469 22.523438 C 20.527344 21.417969 18.46875 20.273438 18.46875 20.273438 Z M 18.46875 20.273438 "/><path style=" stroke:none;fill-rule:nonzero;fill:#800606;fill-opacity:0.1;" d="M 14.894531 24.011719 C 15.703125 27.765625 16.753906 28.359375 18.75 29.3125 C 20.75 30.269531 25.863281 30.628906 25.863281 30.628906 C 25.863281 30.628906 22.316406 29.675781 20.378906 28.898438 C 18.4375 28.121094 17.167969 27.011719 16.570312 25.898438 C 15.976562 24.789062 13.847656 19.160156 14.894531 24.011719 Z M 14.894531 24.011719 "/><path style=" stroke:none;fill-rule:nonzero;fill:#990707;fill-opacity:0.1;" d="M 10.753906 27.34375 C 11.398438 31.921875 15.21875 34.417969 19.140625 35.304688 C 23.0625 36.195312 26.941406 34.898438 27.203125 34.675781 C 27.464844 34.453125 26.960938 34.898438 23.109375 34.527344 C 19.257812 34.160156 14.402344 32.234375 12.949219 30.269531 C 11.5 28.308594 10.597656 26.246094 10.753906 27.34375 Z M 10.753906 27.34375 "/><path style=" stroke:none;fill-rule:nonzero;fill:#800606;fill-opacity:0.1;" d="M 21.410156 24.078125 C 21.449219 26.300781 24.546875 27.523438 26.410156 26.820312 C 28.277344 26.117188 28.386719 26.339844 25.683594 25.746094 C 22.976562 25.152344 21.410156 24.078125 21.410156 24.078125 Z M 21.410156 24.078125 "/><path style=" stroke:none;fill-rule:nonzero;fill:#800606;fill-opacity:0.1;" d="M 35.074219 26.023438 C 33.65625 29.320312 29.40625 31.605469 28.769531 32.050781 C 28.136719 32.496094 30.039062 32.648438 32.875 30.332031 C 35.710938 28.015625 36.382812 22.996094 35.074219 26.023438 Z M 35.074219 26.023438 "/><path style=" stroke:none;fill-rule:nonzero;fill:#fcffcc;fill-opacity:0.2;" d="M 16.683594 12.902344 C 12.929688 14.789062 11.636719 18.972656 13.917969 16.53125 C 16.199219 14.085938 18.207031 13.390625 19.667969 13.246094 C 21.125 13.101562 19.40625 11.53125 16.683594 12.902344 Z M 16.683594 12.902344 "/><path style=" stroke:none;fill-rule:nonzero;fill:#fcffcc;fill-opacity:0.2;" d="M 23.875 16.789062 C 20.910156 17.339844 23.601562 17.050781 23.875 17.789062 C 24.144531 18.53125 23.351562 18.765625 25.652344 19.085938 C 27.949219 19.40625 29.554688 20.960938 29.554688 20.960938 C 29.554688 20.960938 28.324219 19.15625 26.402344 18.511719 C 24.480469 17.863281 25.015625 16.578125 23.875 16.789062 Z M 23.875 16.789062 "/><path style=" stroke:none;fill-rule:nonzero;fill:#fcffcc;fill-opacity:0.2;" d="M 22.257812 21.179688 C 22.167969 21.902344 23.152344 21.234375 25.589844 22.34375 C 28.023438 23.457031 28.488281 24.269531 28.648438 24.566406 C 28.808594 24.863281 29.089844 23.710938 27.78125 22.773438 C 26.476562 21.835938 25.746094 21.085938 24.589844 20.960938 C 23.433594 20.839844 22.257812 21.179688 22.257812 21.179688 Z M 22.257812 21.179688 "/><path style=" stroke:none;fill-rule:nonzero;fill:#fcffcc;fill-opacity:0.2;" d="M 17.355469 22.445312 C 16.535156 23.640625 17.75 24.296875 18.46875 25.078125 C 19.183594 25.863281 19.660156 26.527344 19.796875 26.601562 C 19.929688 26.675781 19.550781 26.140625 19.199219 24.613281 C 18.847656 23.085938 18.25 22.179688 18.140625 22.207031 C 18.027344 22.234375 17.355469 22.445312 17.355469 22.445312 Z M 17.355469 22.445312 "/><path style=" stroke:none;fill-rule:nonzero;fill:#fcffcc;fill-opacity:0.1;" d="M 14.136719 23.816406 C 14.097656 23.90625 14.058594 23.992188 14.019531 24.078125 C 13.371094 25.640625 13.804688 26.996094 15.789062 28.378906 C 17.878906 29.839844 19.441406 30.640625 17.855469 29.34375 C 16.273438 28.046875 15.453125 26.40625 15.117188 25.746094 C 14.78125 25.085938 14.136719 23.816406 14.136719 23.816406 Z M 14.136719 23.816406 "/><path style=" stroke:none;fill-rule:nonzero;fill:#d9a264;fill-opacity:0.2;" d="M 22.542969 13.941406 C 20.636719 13.941406 19.6875 14.570312 23.484375 14.496094 C 27.277344 14.421875 28.101562 14.644531 28.101562 14.644531 C 28.101562 14.644531 29.183594 14.457031 26.402344 13.941406 C 23.621094 13.421875 22.542969 13.941406 22.542969 13.941406 Z M 22.542969 13.941406 "/><path style=" stroke:none;fill-rule:nonzero;fill:#d9a264;fill-opacity:0.1;" d="M 23.203125 18.769531 C 22.054688 19.085938 23.0625 19.53125 24.742188 19.902344 C 26.421875 20.269531 28.648438 22.207031 28.648438 22.207031 C 28.648438 22.207031 27.765625 20.136719 26.402344 19.5625 C 25.039062 18.988281 24.542969 18.960938 23.875 18.863281 C 23.203125 18.769531 23.203125 18.769531 23.203125 18.769531 Z M 23.203125 18.769531 "/><path style=" stroke:none;fill-rule:nonzero;fill:#fcffcc;fill-opacity:0.3;" d="M 23.464844 23.074219 C 23.464844 23.375 23.210938 23.621094 22.902344 23.621094 C 22.589844 23.621094 22.339844 23.375 22.339844 23.074219 C 22.339844 22.769531 22.589844 22.523438 22.902344 22.523438 C 23.210938 22.523438 23.464844 22.769531 23.464844 23.074219 Z M 23.464844 23.074219 "/><path style=" stroke:none;fill-rule:nonzero;fill:#fcffcc;fill-opacity:0.3;" d="M 26.585938 29.996094 C 26.585938 30.296875 26.335938 30.542969 26.023438 30.542969 C 25.714844 30.542969 25.460938 30.296875 25.460938 29.996094 C 25.460938 29.691406 25.714844 29.445312 26.023438 29.445312 C 26.335938 29.445312 26.585938 29.691406 26.585938 29.996094 Z M 26.585938 29.996094 "/><path style=" stroke:none;fill-rule:nonzero;fill:#fcffcc;fill-opacity:0.5;" d="M 29.554688 13.109375 C 29.554688 13.414062 29.304688 13.65625 28.992188 13.65625 C 28.679688 13.65625 28.429688 13.414062 28.429688 13.109375 C 28.429688 12.804688 28.679688 12.5625 28.992188 12.5625 C 29.304688 12.5625 29.554688 12.804688 29.554688 13.109375 Z M 29.554688 13.109375 "/><path style=" stroke:none;fill-rule:nonzero;fill:#fcffcc;fill-opacity:0.3;" d="M 16.121094 31.324219 C 16.121094 31.476562 16.066406 31.605469 15.957031 31.714844 C 15.847656 31.820312 15.714844 31.875 15.558594 31.875 C 15.40625 31.875 15.273438 31.820312 15.160156 31.714844 C 15.050781 31.605469 14.996094 31.476562 14.996094 31.324219 C 14.996094 31.175781 15.050781 31.046875 15.160156 30.9375 C 15.273438 30.832031 15.40625 30.777344 15.558594 30.777344 C 15.714844 30.777344 15.847656 30.832031 15.957031 30.9375 C 16.066406 31.046875 16.121094 31.175781 16.121094 31.324219 Z M 16.121094 31.324219 "/><path style=" stroke:none;fill-rule:nonzero;fill:#fcffcc;fill-opacity:0.3;" d="M 31.375 27.160156 C 31.375 27.308594 31.320312 27.4375 31.210938 27.546875 C 31.101562 27.652344 30.96875 27.707031 30.8125 27.707031 C 30.65625 27.707031 30.523438 27.652344 30.414062 27.546875 C 30.304688 27.4375 30.25 27.308594 30.25 27.160156 C 30.25 27.007812 30.304688 26.878906 30.414062 26.769531 C 30.523438 26.664062 30.65625 26.609375 30.8125 26.609375 C 30.96875 26.609375 31.101562 26.664062 31.210938 26.769531 C 31.320312 26.878906 31.375 27.007812 31.375 27.160156 Z M 31.375 27.160156 "/><path style=" stroke:none;fill-rule:nonzero;fill:#fcffcc;fill-opacity:0.1;" d="M 32.183594 31.769531 C 32.183594 32.070312 31.929688 32.316406 31.621094 32.316406 C 31.308594 32.316406 31.058594 32.070312 31.058594 31.769531 C 31.058594 31.464844 31.308594 31.21875 31.621094 31.21875 C 31.929688 31.21875 32.183594 31.464844 32.183594 31.769531 Z M 32.183594 31.769531 "/><path style=" stroke:none;fill-rule:nonzero;fill:#fcffcc;fill-opacity:0.3;" d="M 26.585938 15.972656 C 26.585938 16.273438 26.335938 16.519531 26.023438 16.519531 C 25.714844 16.519531 25.460938 16.273438 25.460938 15.972656 C 25.460938 15.667969 25.714844 15.421875 26.023438 15.421875 C 26.335938 15.421875 26.585938 15.667969 26.585938 15.972656 Z M 26.585938 15.972656 "/><path style=" stroke:none;fill-rule:nonzero;fill:#fcffcc;fill-opacity:0.3;" d="M 17.246094 28.898438 C 17.246094 29.199219 16.996094 29.445312 16.683594 29.445312 C 16.375 29.445312 16.121094 29.199219 16.121094 28.898438 C 16.121094 28.59375 16.375 28.347656 16.683594 28.347656 C 16.996094 28.347656 17.246094 28.59375 17.246094 28.898438 Z M 17.246094 28.898438 "/><path style=" stroke:none;fill-rule:nonzero;fill:#fcffcc;fill-opacity:0.3;" d="M 15.851562 15.796875 C 15.984375 15.878906 16.070312 15.996094 16.105469 16.144531 C 16.140625 16.292969 16.117188 16.429688 16.039062 16.558594 C 15.957031 16.6875 15.839844 16.769531 15.691406 16.800781 C 15.539062 16.835938 15.398438 16.8125 15.265625 16.730469 C 15.136719 16.648438 15.050781 16.53125 15.015625 16.382812 C 14.980469 16.234375 15 16.097656 15.082031 15.96875 C 15.164062 15.839844 15.277344 15.757812 15.429688 15.726562 C 15.578125 15.691406 15.722656 15.71875 15.851562 15.796875 Z M 15.851562 15.796875 "/><path style=" stroke:none;fill-rule:nonzero;fill:#211717;fill-opacity:0.2;" d="M 22.339844 7.542969 C 31.03125 7.542969 38.078125 14.535156 38.078125 23.164062 C 38.078125 23.621094 38.046875 24.070312 38.007812 24.515625 C 38.09375 23.863281 38.152344 23.199219 38.152344 22.523438 C 38.152344 13.898438 31.105469 6.902344 22.414062 6.902344 C 14.179688 6.902344 7.4375 13.179688 6.742188 21.171875 C 7.730469 13.488281 14.328125 7.542969 22.339844 7.542969 Z M 22.339844 7.542969 "/><g mask="url(#400d13987a)" transform="matrix(1,0,0,1,18,18)"><g clip-path="url(#63e163ba4a)"><g clip-rule="nonzero" clip-path="url(#bb200d555f)"><path style=" stroke:none;fill-rule:nonzero;fill:#800606;fill-opacity:1;" d="M 3.757812 1.097656 C 2.210938 0.171875 0.351562 1.148438 0.867188 1.410156 C 1.386719 1.675781 1.617188 2.289062 1.886719 3.375 C 2.144531 4.40625 2.859375 5.097656 4.25 4.800781 C 4.339844 5.304688 4.246094 5.820312 4.152344 5.996094 C 4.007812 6.261719 4.578125 6.3125 4.675781 5.996094 C 4.726562 5.835938 4.640625 5.328125 4.445312 4.757812 C 4.457031 4.757812 4.46875 4.757812 4.480469 4.753906 C 6.078125 4.300781 5.300781 2.023438 3.757812 1.097656 Z M 3.757812 1.097656 "/></g><g clip-rule="nonzero" clip-path="url(#e2bfa9481d)"><path style=" stroke:none;fill-rule:nonzero;fill:#800606;fill-opacity:1;" d="M 0.921875 5.46875 C 0.921875 5.46875 1.59375 5.628906 2.078125 6.648438 C 2.5625 7.667969 4.148438 6.675781 3.941406 5.777344 C 3.664062 4.5625 0.921875 5.46875 0.921875 5.46875 Z M 0.921875 5.46875 "/></g></g><mask id="400d13987a"><g filter="url(#8f1ec8e74d)"><rect x="0" width="45" y="0" height="44.999999" style="fill:#000000;fill-opacity:0.2;stroke:none;"/></g></mask></g><path style=" stroke:none;fill-rule:nonzero;fill:#b6d45f;fill-opacity:1;" d="M 21.617188 20.816406 C 20.890625 20.007812 21.953125 21.699219 21.953125 21.699219 C 22.445312 22.296875 22.292969 23.335938 22.152344 23.601562 C 22.007812 23.867188 22.578125 23.914062 22.675781 23.601562 C 22.777344 23.285156 22.34375 21.621094 21.617188 20.816406 Z M 21.617188 20.816406 "/><path style=" stroke:none;fill-rule:nonzero;fill:#b6d45f;fill-opacity:1;" d="M 22.480469 22.355469 C 20.933594 22.792969 20.15625 22.066406 19.886719 20.980469 C 19.617188 19.890625 19.386719 19.28125 18.867188 19.015625 C 18.351562 18.75 20.210938 17.773438 21.757812 18.699219 C 23.300781 19.628906 24.078125 21.90625 22.480469 22.355469 Z M 22.480469 22.355469 "/><path style=" stroke:none;fill-rule:nonzero;fill:#b6d45f;fill-opacity:1;" d="M 21.941406 23.378906 C 21.664062 22.164062 18.921875 23.074219 18.921875 23.074219 C 18.921875 23.074219 19.59375 23.234375 20.078125 24.25 C 20.5625 25.269531 22.148438 24.28125 21.941406 23.378906 Z M 21.941406 23.378906 "/><path style=" stroke:none;fill-rule:nonzero;fill:#79a300;fill-opacity:0.1;" d="M 21.738281 20.394531 C 20.855469 18.714844 19.261719 18.78125 18.796875 18.84375 C 18.769531 18.910156 18.785156 18.972656 18.867188 19.015625 C 19.386719 19.28125 19.617188 19.890625 19.886719 20.980469 C 20.152344 22.042969 20.90625 22.753906 22.394531 22.371094 C 22.328125 21.851562 22.152344 21.1875 21.738281 20.394531 Z M 21.738281 20.394531 "/><path style=" stroke:none;fill-rule:nonzero;fill:#79a300;fill-opacity:0.2;" d="M 20.078125 24.25 C 20.433594 24.996094 21.367188 24.664062 21.769531 24.082031 C 20.765625 22.988281 18.921875 23.074219 18.921875 23.074219 C 18.921875 23.074219 19.59375 23.234375 20.078125 24.25 Z M 20.078125 24.25 "/></g></svg>