<svg xmlns="http://www.w3.org/2000/svg" xmlns:xlink="http://www.w3.org/1999/xlink" width="60" zoomAndPan="magnify" viewBox="0 0 45 44.999999" height="60" preserveAspectRatio="xMidYMid meet" version="1.2"><defs><clipPath id="130548273a"><path d="M 10.089844 11 L 28 11 L 28 42.613281 L 10.089844 42.613281 Z M 10.089844 11 "/></clipPath><clipPath id="96b8fd13b0"><path d="M 26 12 L 34.839844 12 L 34.839844 42.613281 L 26 42.613281 Z M 26 12 "/></clipPath><clipPath id="84f18393c5"><path d="M 26 12 L 34.839844 12 L 34.839844 21 L 26 21 Z M 26 12 "/></clipPath><clipPath id="a1738bf37a"><path d="M 10.089844 8 L 34.839844 8 L 34.839844 17 L 10.089844 17 Z M 10.089844 8 "/></clipPath><clipPath id="cf8c8e0579"><path d="M 28 2.113281 L 32 2.113281 L 32 14 L 28 14 Z M 28 2.113281 "/></clipPath></defs><g id="78e9264ed9"><rect x="0" width="45" y="0" height="44.999999" style="fill:#ffffff;fill-opacity:1;stroke:none;"/><rect x="0" width="45" y="0" height="44.999999" style="fill:#ffffff;fill-opacity:1;stroke:none;"/><g clip-rule="nonzero" clip-path="url(#130548273a)"><path style=" stroke:none;fill-rule:evenodd;fill:#ffb84b;fill-opacity:1;" d="M 26.992188 42.578125 C 26.953125 42.578125 26.914062 42.574219 26.878906 42.5625 L 10.460938 38.492188 C 10.25 38.441406 10.101562 38.25 10.101562 38.035156 L 10.101562 12.316406 C 10.101562 12.171875 10.167969 12.035156 10.28125 11.945312 C 10.394531 11.855469 10.542969 11.824219 10.683594 11.859375 L 27.101562 15.734375 C 27.316406 15.785156 27.464844 15.976562 27.464844 16.195312 L 27.464844 42.105469 C 27.464844 42.25 27.398438 42.386719 27.285156 42.476562 C 27.199219 42.542969 27.097656 42.578125 26.992188 42.578125 Z M 26.992188 42.578125 "/></g><g clip-rule="nonzero" clip-path="url(#96b8fd13b0)"><path style=" stroke:none;fill-rule:evenodd;fill:#ffa721;fill-opacity:1;" d="M 26.992188 42.578125 C 26.898438 42.578125 26.808594 42.550781 26.730469 42.5 C 26.597656 42.410156 26.519531 42.265625 26.519531 42.105469 L 26.519531 16.195312 C 26.519531 16.011719 26.621094 15.847656 26.785156 15.769531 L 34.113281 12.214844 C 34.257812 12.144531 34.429688 12.15625 34.570312 12.242188 C 34.707031 12.328125 34.792969 12.476562 34.792969 12.640625 L 34.832031 38.972656 C 34.832031 39.160156 34.71875 39.332031 34.542969 39.40625 L 27.175781 42.539062 C 27.117188 42.566406 27.054688 42.578125 26.992188 42.578125 Z M 26.992188 42.578125 "/></g><g clip-rule="nonzero" clip-path="url(#84f18393c5)"><path style=" stroke:none;fill-rule:evenodd;fill:#e4e8eb;fill-opacity:1;" d="M 26.519531 16.429688 L 26.519531 16.195312 C 26.519531 16.011719 26.621094 15.847656 26.785156 15.769531 L 27.058594 15.636719 L 33.964844 12.289062 L 34.113281 12.214844 C 34.257812 12.144531 34.429688 12.15625 34.570312 12.242188 C 34.707031 12.328125 34.792969 12.476562 34.792969 12.640625 L 34.792969 12.746094 L 30.875 19.875 C 30.804688 20.003906 30.675781 20.09375 30.527344 20.113281 C 30.503906 20.117188 30.480469 20.117188 30.460938 20.117188 C 30.335938 20.117188 30.214844 20.070312 30.125 19.980469 Z M 26.519531 16.429688 "/></g><g clip-rule="nonzero" clip-path="url(#a1738bf37a)"><path style=" stroke:none;fill-rule:evenodd;fill:#fd9921;fill-opacity:1;" d="M 26.992188 16.664062 C 26.957031 16.664062 26.917969 16.660156 26.882812 16.652344 L 10.464844 12.773438 C 10.265625 12.726562 10.117188 12.558594 10.101562 12.355469 C 10.085938 12.152344 10.203125 11.960938 10.390625 11.882812 L 18.007812 8.714844 C 18.09375 8.679688 18.195312 8.671875 18.289062 8.691406 L 30.773438 11.53125 C 30.875 11.464844 31 11.441406 31.125 11.46875 L 34.417969 12.179688 C 34.617188 12.222656 34.765625 12.382812 34.789062 12.585938 C 34.8125 12.785156 34.707031 12.976562 34.527344 13.066406 L 27.199219 16.617188 C 27.132812 16.648438 27.0625 16.664062 26.992188 16.664062 Z M 26.992188 16.664062 "/></g><path style=" stroke:none;fill-rule:evenodd;fill:#e4e8eb;fill-opacity:1;" d="M 13.835938 10.449219 L 15.253906 9.859375 L 30.574219 14.054688 C 30.613281 14.0625 30.648438 14.078125 30.683594 14.09375 L 30.691406 14.101562 L 30.695312 14.101562 L 30.703125 14.105469 L 30.707031 14.109375 L 30.714844 14.113281 L 30.726562 14.121094 L 30.730469 14.125 L 30.734375 14.125 L 30.742188 14.132812 L 30.761719 14.148438 L 30.769531 14.152344 L 30.769531 14.15625 L 30.777344 14.160156 L 30.777344 14.164062 L 30.785156 14.167969 L 30.792969 14.175781 L 30.800781 14.1875 L 30.832031 14.21875 L 30.839844 14.230469 L 30.847656 14.238281 L 30.871094 14.277344 L 30.878906 14.296875 L 30.886719 14.304688 L 30.886719 14.308594 L 30.890625 14.316406 L 30.890625 14.320312 L 30.894531 14.328125 C 30.902344 14.335938 30.902344 14.347656 30.90625 14.359375 L 30.910156 14.359375 L 30.910156 14.371094 L 30.914062 14.378906 L 30.914062 14.382812 L 30.917969 14.390625 L 30.917969 14.394531 L 30.921875 14.40625 L 30.921875 14.414062 L 30.925781 14.417969 L 30.925781 14.429688 C 30.929688 14.460938 30.933594 14.488281 30.933594 14.519531 L 30.933594 14.808594 L 29.988281 15.265625 L 29.988281 14.871094 Z M 13.835938 10.449219 "/><g clip-rule="nonzero" clip-path="url(#cf8c8e0579)"><path style=" stroke:none;fill-rule:evenodd;fill:#f27056;fill-opacity:1;" d="M 29.890625 13.207031 C 29.070312 13.207031 28.417969 12.902344 28.386719 12.886719 C 28.222656 12.808594 28.117188 12.644531 28.117188 12.460938 L 28.117188 3.523438 C 28.097656 3.066406 28.691406 2.65625 29.109375 2.488281 C 29.972656 2.144531 30.820312 2.414062 31.390625 3.207031 C 31.441406 3.269531 31.476562 3.347656 31.492188 3.429688 L 31.492188 3.441406 L 31.496094 3.449219 L 31.496094 3.476562 L 31.5 3.484375 L 31.5 12.460938 C 31.5 12.636719 31.40625 12.792969 31.25 12.875 C 30.847656 13.09375 30.390625 13.207031 29.890625 13.207031 Z M 29.890625 13.207031 "/></g><path style=" stroke:none;fill-rule:evenodd;fill:#6ce79a;fill-opacity:1;" d="M 18.558594 22.78125 C 16.320312 22.78125 15.253906 21.3125 15.003906 20.535156 C 14.960938 20.410156 14.976562 20.269531 15.042969 20.15625 C 15.109375 20.039062 15.222656 19.957031 15.351562 19.929688 C 15.375 19.925781 15.574219 19.882812 15.871094 19.882812 C 16.527344 19.882812 18.167969 20.097656 19.203125 22.089844 C 19.277344 22.230469 19.273438 22.402344 19.191406 22.542969 C 19.113281 22.679688 18.964844 22.769531 18.804688 22.777344 C 18.722656 22.78125 18.636719 22.78125 18.558594 22.78125 Z M 18.558594 22.78125 "/><path style=" stroke:none;fill-rule:evenodd;fill:#4ed586;fill-opacity:1;" d="M 18.785156 24.949219 C 18.519531 24.949219 18.308594 24.738281 18.308594 24.480469 L 18.308594 22.304688 C 18.308594 22.179688 18.359375 22.058594 18.449219 21.972656 L 19.597656 20.828125 C 19.78125 20.644531 20.082031 20.644531 20.265625 20.828125 C 20.449219 21.011719 20.449219 21.3125 20.265625 21.496094 L 19.257812 22.5 L 19.257812 24.480469 C 19.257812 24.738281 19.046875 24.949219 18.785156 24.949219 Z M 18.785156 24.949219 "/><path style=" stroke:none;fill-rule:evenodd;fill:#ef4b3f;fill-opacity:1;" d="M 20.070312 33.769531 C 19.625 33.769531 19.300781 33.703125 19.074219 33.554688 L 18.488281 33.554688 C 18.261719 33.703125 17.941406 33.769531 17.496094 33.769531 C 17.003906 33.769531 16.507812 33.679688 16.449219 33.671875 C 14.457031 33.324219 13.289062 30.253906 13.195312 30.003906 C 12.160156 27.527344 12.523438 25.902344 13.011719 24.972656 C 13.5625 23.929688 14.390625 23.507812 14.425781 23.492188 C 14.960938 23.230469 15.53125 23.101562 16.128906 23.101562 C 17.316406 23.101562 18.3125 23.617188 18.785156 23.910156 C 19.253906 23.617188 20.25 23.101562 21.4375 23.101562 C 22.03125 23.101562 22.605469 23.230469 23.132812 23.488281 C 23.175781 23.507812 24 23.929688 24.550781 24.972656 C 25.039062 25.902344 25.40625 27.527344 24.371094 30.003906 C 24.277344 30.253906 23.109375 33.324219 21.117188 33.671875 C 21.0625 33.679688 20.5625 33.769531 20.070312 33.769531 Z M 20.070312 33.769531 "/></g></svg>