<svg xmlns="http://www.w3.org/2000/svg" xmlns:xlink="http://www.w3.org/1999/xlink" width="60" zoomAndPan="magnify" viewBox="0 0 45 44.999999" height="60" preserveAspectRatio="xMidYMid meet" version="1.2"><defs><clipPath id="2ceeaed1e4"><path d="M 10.40625 1.140625 L 34.40625 1.140625 L 34.40625 43.890625 L 10.40625 43.890625 Z M 10.40625 1.140625 "/></clipPath><clipPath id="228e70d65e"><path d="M 10.40625 8 L 34 8 L 34 11 L 10.40625 11 Z M 10.40625 8 "/></clipPath></defs><g id="017d2e222c"><g clip-rule="nonzero" clip-path="url(#2ceeaed1e4)"><path style=" stroke:none;fill-rule:nonzero;fill:#abd0d6;fill-opacity:1;" d="M 30.597656 2.148438 C 30.597656 2.148438 17.566406 1.140625 13.578125 2.578125 C 13.511719 3.476562 13.5 4.375 13.542969 5.273438 L 10.40625 8.792969 L 10.40625 37.835938 C 10.40625 38.15625 10.515625 38.433594 10.730469 38.671875 L 14.929688 43.328125 C 15.285156 43.722656 15.726562 43.890625 16.253906 43.835938 L 33.648438 41.988281 C 33.863281 41.964844 34.042969 41.875 34.1875 41.710938 C 34.332031 41.546875 34.402344 41.355469 34.398438 41.136719 L 33.980469 9.152344 L 30.632812 4.699219 Z M 30.597656 2.148438 "/></g><path style=" stroke:none;fill-rule:nonzero;fill:#77b1b7;fill-opacity:1;" d="M 15.285156 4.136719 L 15.285156 5.007812 C 15.285156 5.15625 15.3125 5.296875 15.371094 5.429688 L 17.121094 9.6875 C 17.179688 9.832031 17.207031 9.980469 17.203125 10.136719 L 17.09375 14.699219 C 17.089844 14.847656 17.117188 14.996094 17.171875 15.136719 C 17.230469 15.277344 17.3125 15.402344 17.417969 15.507812 C 17.527344 15.613281 17.648438 15.695312 17.789062 15.75 C 17.929688 15.804688 18.074219 15.828125 18.226562 15.824219 L 31.421875 15.332031 C 31.566406 15.328125 31.707031 15.292969 31.839844 15.234375 C 31.96875 15.171875 32.085938 15.085938 32.183594 14.976562 C 32.28125 14.871094 32.355469 14.746094 32.40625 14.609375 C 32.457031 14.472656 32.476562 14.328125 32.472656 14.183594 L 32.253906 9.402344 C 32.242188 9.160156 32.160156 8.949219 32.011719 8.761719 L 29.410156 5.523438 C 29.253906 5.332031 29.171875 5.113281 29.164062 4.863281 L 29.136719 3.914062 C 29.128906 3.621094 29.019531 3.371094 28.8125 3.164062 C 28.601562 2.960938 28.355469 2.855469 28.0625 2.851562 C 25.625 2.816406 19.511719 2.761719 16.285156 3.042969 C 16.003906 3.066406 15.765625 3.183594 15.574219 3.394531 C 15.382812 3.605469 15.285156 3.851562 15.285156 4.136719 Z M 15.285156 4.136719 "/><path style=" stroke:none;fill-rule:nonzero;fill:#ffffff;fill-opacity:1;" d="M 13.898438 5.414062 C 13.816406 5.40625 13.773438 5.359375 13.769531 5.273438 C 13.769531 5.191406 13.8125 5.140625 13.894531 5.128906 L 30.273438 4.625 L 30.277344 4.625 C 30.359375 4.636719 30.398438 4.683594 30.402344 4.765625 C 30.402344 4.851562 30.363281 4.898438 30.28125 4.914062 L 13.902344 5.414062 Z M 13.898438 5.414062 "/><path style=" stroke:none;fill-rule:nonzero;fill:#ffffff;fill-opacity:1;" d="M 15.476562 42.832031 C 15.382812 42.832031 15.335938 42.785156 15.335938 42.6875 L 15.355469 10.289062 L 13.777344 6.25 C 13.761719 6.167969 13.789062 6.109375 13.867188 6.082031 C 13.941406 6.050781 14.003906 6.070312 14.042969 6.144531 L 15.632812 10.210938 C 15.640625 10.230469 15.644531 10.246094 15.640625 10.265625 L 15.621094 42.691406 C 15.617188 42.785156 15.570312 42.832031 15.476562 42.832031 Z M 15.476562 42.832031 "/><g clip-rule="nonzero" clip-path="url(#228e70d65e)"><path style=" stroke:none;fill-rule:nonzero;fill:#ffffff;fill-opacity:1;" d="M 15.5 10.40625 C 15.488281 10.40625 15.472656 10.40625 15.460938 10.402344 L 10.832031 9.039062 C 10.753906 9.003906 10.726562 8.945312 10.75 8.863281 C 10.773438 8.785156 10.828125 8.75 10.910156 8.761719 L 15.515625 10.121094 L 33.65625 9.1875 C 33.765625 9.164062 33.820312 9.210938 33.828125 9.320312 C 33.832031 9.433594 33.78125 9.484375 33.667969 9.472656 L 15.507812 10.40625 Z M 15.5 10.40625 "/></g><path style=" stroke:none;fill-rule:nonzero;fill:#ffffff;fill-opacity:1;" d="M 21.015625 4.507812 L 20.925781 6.722656 C 20.90625 7.144531 21.082031 7.453125 21.453125 7.648438 C 22.378906 8.125 24.410156 8.839844 27.132812 7.855469 C 27.320312 7.785156 27.472656 7.671875 27.589844 7.507812 C 27.710938 7.34375 27.769531 7.160156 27.777344 6.960938 L 27.871094 4.757812 C 27.886719 4.359375 27.726562 4.058594 27.390625 3.855469 C 26.46875 3.3125 24.351562 2.433594 21.601562 3.636719 C 21.226562 3.804688 21.03125 4.097656 21.015625 4.507812 Z M 21.015625 4.507812 "/><path style=" stroke:none;fill-rule:nonzero;fill:#77b1b7;fill-opacity:1;" d="M 21.5625 4.1875 C 21.796875 4.292969 22.03125 4.386719 22.269531 4.464844 C 22.507812 4.550781 22.75 4.621094 22.992188 4.679688 C 23.476562 4.804688 23.96875 4.878906 24.46875 4.902344 C 24.96875 4.925781 25.460938 4.898438 25.953125 4.820312 C 26.449219 4.734375 26.9375 4.613281 27.414062 4.457031 C 26.980469 4.730469 26.511719 4.933594 26.015625 5.058594 C 25.503906 5.1875 24.984375 5.238281 24.457031 5.210938 C 24.195312 5.195312 23.933594 5.164062 23.675781 5.113281 C 23.417969 5.0625 23.164062 4.996094 22.917969 4.910156 C 22.671875 4.824219 22.433594 4.722656 22.207031 4.601562 C 21.976562 4.484375 21.761719 4.347656 21.5625 4.1875 Z M 21.5625 4.1875 "/><path style=" stroke:none;fill-rule:nonzero;fill:#77b1b7;fill-opacity:1;" d="M 21.609375 4.992188 C 21.660156 5.140625 21.675781 5.292969 21.652344 5.449219 C 21.640625 5.523438 21.609375 5.597656 21.601562 5.671875 C 21.59375 5.75 21.597656 5.824219 21.613281 5.902344 C 21.636719 6.050781 21.644531 6.203125 21.636719 6.359375 C 21.628906 6.511719 21.597656 6.664062 21.542969 6.808594 L 21.527344 6.808594 C 21.460938 6.582031 21.445312 6.355469 21.480469 6.125 C 21.492188 5.972656 21.558594 5.824219 21.550781 5.671875 C 21.53125 5.519531 21.492188 5.367188 21.527344 5.214844 C 21.539062 5.136719 21.5625 5.0625 21.59375 4.992188 Z M 21.609375 4.992188 "/><path style=" stroke:none;fill-rule:nonzero;fill:#77b1b7;fill-opacity:1;" d="M 22.222656 5.242188 C 22.269531 5.390625 22.285156 5.542969 22.265625 5.699219 C 22.25 5.773438 22.222656 5.847656 22.214844 5.921875 C 22.207031 6 22.210938 6.074219 22.222656 6.152344 C 22.25 6.300781 22.257812 6.453125 22.25 6.609375 C 22.242188 6.761719 22.207031 6.914062 22.15625 7.058594 L 22.136719 7.058594 C 22.074219 6.832031 22.058594 6.605469 22.09375 6.375 C 22.105469 6.222656 22.167969 6.074219 22.160156 5.921875 C 22.144531 5.769531 22.105469 5.617188 22.140625 5.464844 C 22.152344 5.386719 22.171875 5.3125 22.203125 5.242188 Z M 22.222656 5.242188 "/><path style=" stroke:none;fill-rule:nonzero;fill:#77b1b7;fill-opacity:1;" d="M 22.96875 5.496094 C 23.019531 5.644531 23.035156 5.796875 23.015625 5.953125 C 23 6.027344 22.972656 6.101562 22.964844 6.175781 C 22.957031 6.253906 22.960938 6.328125 22.972656 6.40625 C 23 6.554688 23.007812 6.707031 23 6.863281 C 22.988281 7.015625 22.957031 7.167969 22.902344 7.3125 L 22.886719 7.3125 C 22.820312 7.085938 22.808594 6.859375 22.84375 6.628906 C 22.855469 6.476562 22.917969 6.328125 22.910156 6.175781 C 22.894531 6.023438 22.855469 5.871094 22.890625 5.71875 C 22.902344 5.640625 22.925781 5.566406 22.957031 5.496094 Z M 22.96875 5.496094 "/><path style=" stroke:none;fill-rule:nonzero;fill:#77b1b7;fill-opacity:1;" d="M 23.722656 5.640625 C 23.773438 5.789062 23.789062 5.941406 23.769531 6.097656 C 23.753906 6.171875 23.726562 6.246094 23.71875 6.324219 C 23.710938 6.398438 23.714844 6.476562 23.726562 6.550781 C 23.753906 6.703125 23.761719 6.855469 23.753906 7.007812 C 23.742188 7.160156 23.710938 7.3125 23.65625 7.457031 L 23.640625 7.457031 C 23.574219 7.234375 23.5625 7.003906 23.597656 6.773438 C 23.609375 6.621094 23.671875 6.472656 23.664062 6.320312 C 23.648438 6.167969 23.609375 6.019531 23.644531 5.863281 C 23.65625 5.789062 23.679688 5.710938 23.710938 5.640625 L 23.726562 5.640625 Z M 23.722656 5.640625 "/><path style=" stroke:none;fill-rule:nonzero;fill:#77b1b7;fill-opacity:1;" d="M 24.414062 5.671875 C 24.464844 5.820312 24.476562 5.972656 24.457031 6.128906 C 24.445312 6.203125 24.414062 6.277344 24.40625 6.355469 C 24.398438 6.429688 24.402344 6.507812 24.417969 6.582031 C 24.441406 6.734375 24.449219 6.886719 24.441406 7.039062 C 24.433594 7.195312 24.402344 7.34375 24.347656 7.488281 L 24.332031 7.488281 C 24.265625 7.265625 24.25 7.035156 24.285156 6.804688 C 24.296875 6.652344 24.363281 6.503906 24.355469 6.351562 C 24.335938 6.203125 24.296875 6.050781 24.332031 5.898438 C 24.34375 5.820312 24.367188 5.746094 24.398438 5.671875 Z M 24.414062 5.671875 "/><path style=" stroke:none;fill-rule:nonzero;fill:#77b1b7;fill-opacity:1;" d="M 27.328125 5.199219 C 27.378906 5.347656 27.394531 5.5 27.375 5.65625 C 27.359375 5.730469 27.332031 5.808594 27.324219 5.882812 C 27.316406 5.957031 27.320312 6.035156 27.332031 6.109375 C 27.359375 6.261719 27.367188 6.414062 27.359375 6.566406 C 27.347656 6.722656 27.316406 6.871094 27.261719 7.015625 L 27.246094 7.015625 C 27.179688 6.792969 27.167969 6.5625 27.203125 6.332031 C 27.214844 6.179688 27.277344 6.03125 27.269531 5.878906 C 27.253906 5.726562 27.210938 5.578125 27.25 5.425781 C 27.261719 5.347656 27.28125 5.269531 27.3125 5.199219 Z M 27.328125 5.199219 "/><path style=" stroke:none;fill-rule:nonzero;fill:#77b1b7;fill-opacity:1;" d="M 26.703125 5.390625 C 26.75 5.539062 26.765625 5.691406 26.746094 5.847656 C 26.730469 5.925781 26.703125 6 26.695312 6.074219 C 26.6875 6.148438 26.691406 6.226562 26.703125 6.300781 C 26.730469 6.453125 26.738281 6.605469 26.730469 6.757812 C 26.722656 6.914062 26.6875 7.0625 26.636719 7.207031 L 26.617188 7.207031 C 26.554688 6.984375 26.539062 6.753906 26.574219 6.523438 C 26.585938 6.371094 26.652344 6.222656 26.644531 6.070312 C 26.625 5.921875 26.585938 5.769531 26.621094 5.617188 C 26.632812 5.539062 26.65625 5.464844 26.6875 5.390625 Z M 26.703125 5.390625 "/><path style=" stroke:none;fill-rule:nonzero;fill:#77b1b7;fill-opacity:1;" d="M 25.933594 5.578125 C 25.984375 5.726562 26 5.878906 25.980469 6.035156 C 25.964844 6.109375 25.9375 6.183594 25.929688 6.257812 C 25.921875 6.335938 25.925781 6.410156 25.9375 6.488281 C 25.964844 6.636719 25.972656 6.789062 25.964844 6.945312 C 25.953125 7.097656 25.921875 7.25 25.867188 7.394531 L 25.851562 7.394531 C 25.785156 7.167969 25.773438 6.941406 25.808594 6.710938 C 25.820312 6.558594 25.882812 6.410156 25.875 6.257812 C 25.859375 6.105469 25.820312 5.953125 25.855469 5.800781 C 25.867188 5.722656 25.886719 5.648438 25.917969 5.578125 L 25.9375 5.578125 Z M 25.933594 5.578125 "/><path style=" stroke:none;fill-rule:nonzero;fill:#77b1b7;fill-opacity:1;" d="M 25.171875 5.652344 C 25.222656 5.800781 25.238281 5.953125 25.21875 6.109375 C 25.203125 6.183594 25.175781 6.257812 25.167969 6.335938 C 25.160156 6.410156 25.164062 6.488281 25.175781 6.5625 C 25.203125 6.714844 25.210938 6.867188 25.203125 7.019531 C 25.191406 7.171875 25.160156 7.324219 25.105469 7.46875 L 25.089844 7.46875 C 25.027344 7.246094 25.011719 7.015625 25.046875 6.785156 C 25.058594 6.632812 25.121094 6.484375 25.113281 6.332031 C 25.097656 6.179688 25.058594 6.027344 25.09375 5.875 C 25.105469 5.796875 25.125 5.722656 25.15625 5.652344 Z M 25.171875 5.652344 "/><path style=" stroke:none;fill-rule:nonzero;fill:#ffffff;fill-opacity:1;" d="M 11.203125 32.800781 L 11.203125 36.550781 C 11.203125 36.667969 11.246094 36.765625 11.335938 36.847656 L 13.984375 39.324219 C 14.070312 39.421875 14.175781 39.449219 14.296875 39.402344 C 14.421875 39.355469 14.480469 39.265625 14.480469 39.132812 L 14.480469 34.585938 C 14.480469 34.480469 14.4375 34.398438 14.351562 34.34375 L 11.644531 32.5625 C 11.546875 32.5 11.453125 32.496094 11.351562 32.550781 C 11.253906 32.601562 11.207031 32.6875 11.203125 32.800781 Z M 11.203125 32.800781 "/><path style=" stroke:none;fill-rule:nonzero;fill:#ffffff;fill-opacity:1;" d="M 12.464844 30.09375 C 12.457031 30.207031 12.394531 30.28125 12.328125 30.265625 C 12.074219 30.210938 11.5 29.996094 11.253906 29.183594 C 11.054688 28.523438 11.164062 27.921875 11.578125 27.371094 L 11.328125 27.078125 C 11.296875 27.039062 11.304688 26.960938 11.34375 26.957031 L 12.0625 26.835938 C 12.125 26.824219 12.183594 26.894531 12.195312 26.996094 L 12.34375 28.035156 C 12.355469 28.113281 12.304688 28.171875 12.261719 28.125 L 12.011719 27.863281 C 11.984375 27.839844 11.953125 27.847656 11.9375 27.882812 C 11.867188 28.042969 11.703125 28.449219 11.804688 28.53125 C 11.894531 28.605469 12.246094 28.714844 12.4375 28.773438 C 12.503906 28.792969 12.554688 28.902344 12.546875 29.015625 Z M 12.464844 30.09375 "/><path style=" stroke:none;fill-rule:nonzero;fill:#77b1b7;fill-opacity:1;" d="M 12.464844 30.09375 L 12.542969 29.011719 C 12.554688 28.902344 12.503906 28.792969 12.433594 28.769531 C 12.242188 28.714844 11.894531 28.601562 11.800781 28.527344 C 11.785156 28.511719 11.777344 28.496094 11.773438 28.472656 C 11.65625 28.707031 11.496094 29.1875 11.644531 29.875 C 11.832031 30.074219 12.0625 30.203125 12.328125 30.261719 C 12.394531 30.28125 12.457031 30.207031 12.464844 30.09375 Z M 12.464844 30.09375 "/><path style=" stroke:none;fill-rule:nonzero;fill:#ffffff;fill-opacity:1;" d="M 12.058594 26.515625 C 11.988281 26.433594 11.96875 26.335938 11.996094 26.230469 C 12.09375 25.859375 12.367188 25.050781 12.894531 25.011719 C 13.582031 24.957031 13.847656 26.273438 13.847656 26.273438 L 14.082031 26.007812 C 14.113281 25.976562 14.15625 26.023438 14.148438 26.082031 L 14.03125 27.25 C 14.019531 27.347656 13.964844 27.410156 13.902344 27.390625 L 13.273438 27.1875 C 13.226562 27.167969 13.203125 27.066406 13.242188 27.019531 L 13.453125 26.742188 C 13.480469 26.699219 13.480469 26.660156 13.464844 26.617188 C 13.390625 26.441406 13.199219 26.015625 13.128906 26.140625 C 13.0625 26.25 12.90625 26.75 12.824219 27.023438 C 12.796875 27.121094 12.722656 27.152344 12.660156 27.09375 Z M 12.058594 26.515625 "/><path style=" stroke:none;fill-rule:nonzero;fill:#77b1b7;fill-opacity:1;" d="M 12.058594 26.515625 L 12.660156 27.09375 C 12.722656 27.152344 12.796875 27.121094 12.824219 27.023438 C 12.90625 26.75 13.0625 26.25 13.128906 26.140625 C 13.136719 26.121094 13.148438 26.113281 13.167969 26.117188 C 13.0625 25.835938 12.828125 25.386719 12.398438 25.328125 C 12.1875 25.605469 12.058594 26 12 26.230469 C 11.96875 26.335938 11.988281 26.433594 12.058594 26.515625 Z M 12.058594 26.515625 "/><path style=" stroke:none;fill-rule:nonzero;fill:#ffffff;fill-opacity:1;" d="M 14.085938 27.617188 C 14.144531 27.570312 14.222656 27.609375 14.261719 27.710938 C 14.398438 28.078125 14.675781 28.960938 14.4375 29.710938 C 14.128906 30.6875 13.335938 30.226562 13.335938 30.226562 L 13.355469 30.710938 C 13.359375 30.773438 13.3125 30.804688 13.285156 30.757812 L 12.753906 29.863281 C 12.703125 29.777344 12.703125 29.6875 12.742188 29.597656 L 13.15625 28.863281 C 13.1875 28.804688 13.25 28.84375 13.253906 28.925781 L 13.292969 29.390625 C 13.296875 29.441406 13.320312 29.480469 13.351562 29.480469 C 13.476562 29.492188 13.78125 29.5 13.753906 29.320312 C 13.730469 29.160156 13.554688 28.632812 13.457031 28.351562 C 13.421875 28.25 13.441406 28.125 13.5 28.078125 Z M 14.085938 27.617188 "/><path style=" stroke:none;fill-rule:nonzero;fill:#77b1b7;fill-opacity:1;" d="M 14.085938 27.617188 L 13.503906 28.078125 C 13.441406 28.125 13.421875 28.246094 13.457031 28.351562 C 13.554688 28.632812 13.730469 29.160156 13.753906 29.316406 C 13.757812 29.339844 13.757812 29.363281 13.746094 29.386719 C 13.9375 29.417969 14.28125 29.378906 14.519531 28.828125 C 14.484375 28.441406 14.398438 28.070312 14.261719 27.710938 C 14.222656 27.613281 14.144531 27.570312 14.085938 27.617188 Z M 14.085938 27.617188 "/><path style=" stroke:none;fill-rule:nonzero;fill:#77b1b7;fill-opacity:1;" d="M 14.410156 24.191406 C 14.394531 24.191406 14.382812 24.1875 14.367188 24.183594 L 11.164062 22.816406 C 11.121094 22.800781 11.097656 22.765625 11.097656 22.71875 L 11.097656 11.222656 C 11.097656 11.191406 11.113281 11.164062 11.136719 11.140625 C 11.164062 11.117188 11.195312 11.113281 11.226562 11.121094 L 14.433594 11.835938 C 14.488281 11.851562 14.515625 11.886719 14.515625 11.941406 L 14.515625 24.082031 C 14.515625 24.121094 14.5 24.152344 14.46875 24.171875 C 14.449219 24.183594 14.429688 24.191406 14.410156 24.191406 Z M 11.3125 22.648438 L 14.304688 23.921875 L 14.304688 12.027344 L 11.3125 11.359375 Z M 11.3125 22.648438 "/><path style=" stroke:none;fill-rule:nonzero;fill:#77b1b7;fill-opacity:1;" d="M 14.410156 13.574219 C 14.398438 13.574219 14.390625 13.570312 14.378906 13.570312 L 11.207031 12.585938 C 11.144531 12.5625 11.125 12.515625 11.144531 12.453125 C 11.164062 12.386719 11.207031 12.363281 11.269531 12.378906 L 14.441406 13.363281 C 14.5 13.378906 14.527344 13.421875 14.515625 13.480469 C 14.507812 13.542969 14.472656 13.574219 14.410156 13.574219 Z M 14.410156 13.574219 "/><path style=" stroke:none;fill-rule:nonzero;fill:#77b1b7;fill-opacity:1;" d="M 14.273438 14.703125 L 11.175781 13.71875 L 11.164062 12.824219 L 14.476562 13.808594 Z M 14.273438 14.703125 "/><path style=" stroke:none;fill-rule:nonzero;fill:#77b1b7;fill-opacity:1;" d="M 12.257812 23.304688 C 12.1875 23.304688 12.152344 23.269531 12.152344 23.195312 L 12.152344 11.476562 C 12.15625 11.410156 12.191406 11.375 12.257812 11.375 C 12.324219 11.375 12.359375 11.410156 12.367188 11.476562 L 12.367188 23.195312 C 12.367188 23.269531 12.332031 23.304688 12.257812 23.304688 Z M 12.257812 23.304688 "/><path style=" stroke:none;fill-rule:nonzero;fill:#77b1b7;fill-opacity:1;" d="M 13.398438 23.734375 C 13.328125 23.734375 13.292969 23.699219 13.292969 23.628906 L 13.292969 11.765625 C 13.285156 11.6875 13.320312 11.648438 13.398438 11.648438 C 13.472656 11.648438 13.511719 11.6875 13.503906 11.765625 L 13.503906 23.628906 C 13.503906 23.699219 13.46875 23.734375 13.398438 23.734375 Z M 13.398438 23.734375 "/><path style=" stroke:none;fill-rule:nonzero;fill:#ffffff;fill-opacity:1;" d="M 14.242188 41.320312 C 14.191406 41.320312 14.152344 41.304688 14.117188 41.269531 L 11.109375 38.097656 C 11.078125 38.066406 11.0625 38.027344 11.0625 37.980469 L 11.0625 37.589844 C 11.0625 37.515625 11.09375 37.464844 11.160156 37.433594 C 11.226562 37.402344 11.285156 37.414062 11.339844 37.460938 L 13.085938 39.171875 C 13.144531 39.226562 13.203125 39.285156 13.265625 39.339844 C 13.5625 39.605469 14.277344 40.238281 14.398438 40.421875 C 14.40625 40.433594 14.410156 40.449219 14.410156 40.460938 L 14.410156 41.152344 C 14.410156 41.230469 14.375 41.28125 14.304688 41.3125 C 14.28125 41.316406 14.261719 41.320312 14.242188 41.320312 Z M 11.234375 37.5625 C 11.230469 37.5625 11.222656 37.5625 11.21875 37.566406 C 11.210938 37.570312 11.203125 37.578125 11.203125 37.589844 L 11.203125 37.980469 C 11.203125 37.988281 11.207031 37.992188 11.210938 38 L 14.222656 41.167969 C 14.230469 41.179688 14.238281 41.183594 14.253906 41.179688 C 14.265625 41.175781 14.273438 41.164062 14.269531 41.148438 L 14.269531 40.484375 C 14.167969 40.351562 13.761719 39.96875 13.171875 39.445312 C 13.109375 39.390625 13.046875 39.332031 12.988281 39.273438 L 11.246094 37.566406 C 11.242188 37.5625 11.238281 37.5625 11.234375 37.5625 Z M 11.234375 37.5625 "/><path style=" stroke:none;fill-rule:nonzero;fill:#ffffff;fill-opacity:1;" d="M 24.367188 25.261719 C 24.332031 25.523438 24.195312 25.707031 23.957031 25.8125 C 23.855469 25.855469 23.753906 25.863281 23.644531 25.835938 C 23.523438 25.796875 23.4375 25.722656 23.378906 25.613281 C 23.320312 25.515625 23.285156 25.414062 23.277344 25.300781 C 23.265625 25.191406 23.257812 25.078125 23.246094 24.960938 C 23.230469 24.835938 23.21875 24.71875 23.203125 24.625 C 23.191406 24.527344 23.171875 24.414062 23.15625 24.285156 C 23.101562 23.933594 23.042969 23.585938 22.980469 23.242188 C 22.914062 22.898438 22.839844 22.550781 22.757812 22.203125 C 22.636719 22.496094 22.523438 22.792969 22.417969 23.082031 C 22.3125 23.371094 22.207031 23.667969 22.097656 23.957031 C 22.015625 24.175781 21.933594 24.394531 21.851562 24.613281 C 21.773438 24.832031 21.679688 25.046875 21.570312 25.253906 C 21.53125 25.328125 21.46875 25.386719 21.394531 25.425781 C 21.308594 25.46875 21.21875 25.496094 21.125 25.5 C 21.035156 25.507812 20.945312 25.496094 20.859375 25.464844 C 20.777344 25.433594 20.714844 25.382812 20.671875 25.304688 C 20.414062 24.832031 20.164062 24.382812 19.914062 23.957031 C 19.664062 23.535156 19.414062 23.128906 19.164062 22.730469 C 19.136719 22.996094 19.109375 23.257812 19.082031 23.523438 C 19.058594 23.785156 19.027344 24.054688 19.003906 24.316406 C 18.996094 24.398438 18.992188 24.503906 18.984375 24.625 C 18.980469 24.746094 18.96875 24.871094 18.953125 25 C 18.941406 25.125 18.921875 25.25 18.902344 25.371094 C 18.886719 25.472656 18.851562 25.566406 18.800781 25.652344 C 18.734375 25.761719 18.640625 25.835938 18.519531 25.875 C 18.40625 25.910156 18.292969 25.914062 18.179688 25.882812 C 18.066406 25.855469 17.976562 25.796875 17.902344 25.707031 C 17.824219 25.609375 17.789062 25.496094 17.800781 25.371094 C 17.8125 25.144531 17.832031 24.929688 17.863281 24.71875 C 17.894531 24.511719 17.921875 24.304688 17.941406 24.097656 C 17.992188 23.652344 18.039062 23.222656 18.089844 22.785156 C 18.140625 22.347656 18.191406 21.898438 18.238281 21.417969 C 18.25 21.28125 18.28125 21.148438 18.332031 21.019531 C 18.382812 20.894531 18.492188 20.800781 18.660156 20.726562 C 18.722656 20.699219 18.792969 20.679688 18.863281 20.675781 C 18.929688 20.671875 18.996094 20.679688 19.058594 20.703125 C 19.191406 20.761719 19.292969 20.851562 19.367188 20.976562 L 19.578125 21.320312 C 19.691406 21.496094 19.800781 21.675781 19.90625 21.851562 C 20.011719 22.03125 20.125 22.210938 20.226562 22.390625 C 20.359375 22.617188 20.492188 22.851562 20.625 23.082031 C 20.757812 23.3125 20.894531 23.550781 21.039062 23.792969 C 21.074219 23.707031 21.109375 23.621094 21.140625 23.535156 C 21.171875 23.449219 21.207031 23.359375 21.242188 23.273438 C 21.308594 23.121094 21.367188 22.96875 21.425781 22.8125 C 21.484375 22.65625 21.539062 22.5 21.601562 22.347656 C 21.679688 22.144531 21.761719 21.941406 21.835938 21.742188 C 21.910156 21.542969 21.980469 21.335938 22.054688 21.136719 C 22.109375 20.984375 22.171875 20.820312 22.222656 20.644531 C 22.273438 20.472656 22.359375 20.324219 22.484375 20.191406 C 22.554688 20.105469 22.644531 20.050781 22.753906 20.027344 C 22.847656 20.007812 22.9375 20.015625 23.027344 20.050781 C 23.117188 20.085938 23.195312 20.140625 23.257812 20.214844 C 23.328125 20.292969 23.378906 20.378906 23.40625 20.480469 C 23.441406 20.613281 23.484375 20.769531 23.53125 20.9375 C 23.578125 21.109375 23.621094 21.261719 23.65625 21.398438 C 23.71875 21.640625 23.777344 21.882812 23.832031 22.117188 C 23.886719 22.355469 23.9375 22.59375 23.984375 22.835938 C 24.066406 23.234375 24.140625 23.628906 24.203125 24.015625 C 24.265625 24.40625 24.320312 24.800781 24.367188 25.203125 Z M 24.367188 25.261719 "/><path style=" stroke:none;fill-rule:nonzero;fill:#ffffff;fill-opacity:1;" d="M 24.621094 20.28125 C 24.644531 20.066406 24.71875 19.902344 24.847656 19.800781 C 24.964844 19.699219 25.097656 19.648438 25.25 19.648438 C 25.40625 19.652344 25.539062 19.707031 25.652344 19.8125 C 25.773438 19.917969 25.832031 20.070312 25.84375 20.257812 C 25.851562 20.445312 25.800781 20.605469 25.6875 20.714844 C 25.574219 20.820312 25.441406 20.882812 25.289062 20.898438 C 25.136719 20.917969 24.996094 20.878906 24.871094 20.789062 C 24.742188 20.695312 24.660156 20.546875 24.632812 20.34375 C 24.625 20.320312 24.625 20.304688 24.621094 20.28125 Z M 25.796875 25.132812 C 25.785156 25.25 25.742188 25.355469 25.671875 25.453125 C 25.609375 25.542969 25.527344 25.617188 25.429688 25.671875 C 25.332031 25.71875 25.234375 25.738281 25.128906 25.722656 C 25.011719 25.703125 24.917969 25.648438 24.84375 25.550781 C 24.796875 25.496094 24.761719 25.433594 24.742188 25.363281 C 24.71875 25.289062 24.707031 25.214844 24.703125 25.136719 C 24.695312 25.058594 24.695312 24.980469 24.695312 24.902344 C 24.699219 24.824219 24.703125 24.75 24.703125 24.6875 C 24.699219 24.347656 24.695312 24.007812 24.695312 23.671875 C 24.699219 23.335938 24.695312 22.996094 24.691406 22.660156 C 24.691406 22.519531 24.683594 22.382812 24.664062 22.242188 C 24.648438 22.101562 24.65625 21.960938 24.691406 21.824219 C 24.753906 21.609375 24.886719 21.464844 25.097656 21.390625 C 25.191406 21.359375 25.285156 21.355469 25.382812 21.378906 C 25.488281 21.40625 25.574219 21.464844 25.636719 21.550781 C 25.726562 21.664062 25.78125 21.773438 25.78125 21.882812 L 25.78125 22.863281 C 25.78125 23.054688 25.785156 23.242188 25.789062 23.429688 C 25.796875 23.699219 25.800781 23.972656 25.800781 24.246094 L 25.800781 25.132812 Z M 25.796875 25.132812 "/><path style=" stroke:none;fill-rule:nonzero;fill:#ffffff;fill-opacity:1;" d="M 27.816406 24.746094 C 27.886719 24.804688 27.941406 24.878906 27.980469 24.960938 C 28.023438 25.042969 28.046875 25.132812 28.050781 25.226562 C 28.054688 25.316406 28.035156 25.402344 27.988281 25.480469 C 27.933594 25.574219 27.855469 25.632812 27.753906 25.664062 C 27.65625 25.695312 27.558594 25.703125 27.460938 25.683594 C 27.347656 25.667969 27.242188 25.636719 27.144531 25.589844 C 27.042969 25.542969 26.949219 25.484375 26.867188 25.410156 C 26.789062 25.347656 26.730469 25.273438 26.691406 25.183594 C 26.679688 25.152344 26.671875 25.117188 26.664062 25.085938 C 26.660156 25.054688 26.65625 25.019531 26.65625 24.988281 L 26.65625 20.308594 C 26.65625 20.171875 26.707031 20.058594 26.8125 19.96875 C 26.910156 19.878906 27.023438 19.824219 27.15625 19.804688 C 27.222656 19.796875 27.285156 19.804688 27.347656 19.828125 C 27.417969 19.851562 27.480469 19.886719 27.539062 19.929688 C 27.597656 19.972656 27.648438 20.023438 27.6875 20.082031 C 27.726562 20.136719 27.746094 20.199219 27.746094 20.265625 L 27.746094 20.855469 C 27.746094 21.097656 27.746094 21.359375 27.75 21.644531 C 27.753906 21.925781 27.753906 22.214844 27.753906 22.515625 C 27.753906 22.8125 27.753906 23.101562 27.75 23.375 C 27.746094 23.652344 27.746094 23.910156 27.746094 24.136719 C 27.746094 24.367188 27.742188 24.558594 27.734375 24.699219 Z M 27.816406 24.746094 "/><path style=" stroke:none;fill-rule:nonzero;fill:#ffffff;fill-opacity:1;" d="M 29.761719 25.253906 C 29.65625 25.347656 29.535156 25.402344 29.394531 25.414062 C 29.261719 25.425781 29.148438 25.386719 29.054688 25.300781 C 28.957031 25.214844 28.90625 25.085938 28.90625 24.921875 L 28.90625 20.214844 C 28.90625 20.128906 28.933594 20.046875 28.984375 19.976562 C 29.035156 19.902344 29.097656 19.84375 29.175781 19.796875 C 29.253906 19.75 29.339844 19.71875 29.429688 19.703125 C 29.515625 19.6875 29.597656 19.691406 29.683594 19.710938 C 29.761719 19.734375 29.832031 19.777344 29.882812 19.84375 C 29.945312 19.925781 29.976562 20.015625 29.976562 20.117188 C 29.996094 20.558594 30.003906 20.945312 30.003906 21.277344 C 30.003906 21.613281 30 21.9375 29.996094 22.269531 C 30.132812 22.171875 30.261719 22.074219 30.382812 21.972656 C 30.503906 21.871094 30.628906 21.765625 30.742188 21.65625 C 30.855469 21.550781 30.960938 21.4375 31.054688 21.320312 C 31.15625 21.191406 31.285156 21.105469 31.4375 21.054688 C 31.542969 21.023438 31.648438 21.015625 31.753906 21.039062 C 31.847656 21.054688 31.933594 21.09375 32.003906 21.15625 C 32.074219 21.210938 32.121094 21.285156 32.144531 21.371094 C 32.167969 21.460938 32.164062 21.550781 32.125 21.640625 C 32.074219 21.738281 32.007812 21.828125 31.925781 21.90625 C 31.820312 22.011719 31.703125 22.121094 31.578125 22.238281 C 31.449219 22.351562 31.324219 22.457031 31.199219 22.558594 C 31.074219 22.660156 30.972656 22.738281 30.894531 22.792969 C 31.101562 22.972656 31.308594 23.152344 31.511719 23.335938 C 31.710938 23.523438 31.917969 23.707031 32.125 23.902344 C 32.214844 23.984375 32.300781 24.0625 32.378906 24.132812 C 32.464844 24.203125 32.535156 24.289062 32.589844 24.386719 C 32.636719 24.472656 32.652344 24.5625 32.632812 24.65625 C 32.617188 24.75 32.578125 24.835938 32.511719 24.90625 C 32.449219 24.980469 32.371094 25.035156 32.28125 25.070312 C 32.183594 25.109375 32.085938 25.117188 31.984375 25.09375 C 31.875 25.070312 31.777344 25.023438 31.6875 24.957031 C 31.59375 24.886719 31.503906 24.8125 31.417969 24.730469 C 31.332031 24.652344 31.25 24.570312 31.171875 24.484375 C 31.105469 24.410156 31.03125 24.335938 30.957031 24.269531 C 30.796875 24.121094 30.640625 23.972656 30.480469 23.828125 C 30.324219 23.683594 30.160156 23.542969 29.996094 23.402344 L 29.996094 24.820312 C 29.957031 25.007812 29.882812 25.152344 29.761719 25.253906 Z M 29.761719 25.253906 "/><path style=" stroke:none;fill-rule:nonzero;fill:#ffffff;fill-opacity:1;" d="M 20.296875 31.113281 C 19.933594 31.023438 19.613281 30.847656 19.335938 30.59375 C 19.058594 30.339844 18.859375 30.035156 18.734375 29.675781 C 18.691406 29.53125 18.742188 29.433594 18.886719 29.382812 C 19.03125 29.332031 19.128906 29.378906 19.183594 29.523438 C 19.292969 29.84375 19.476562 30.109375 19.742188 30.320312 C 20.003906 30.53125 20.300781 30.65625 20.636719 30.6875 C 20.96875 30.722656 21.289062 30.664062 21.585938 30.511719 C 21.886719 30.359375 22.121094 30.140625 22.292969 29.847656 C 22.335938 29.777344 22.398438 29.738281 22.480469 29.730469 C 22.558594 29.726562 22.628906 29.753906 22.679688 29.816406 C 22.773438 29.929688 22.878906 30.027344 22.996094 30.113281 C 23.113281 30.199219 23.242188 30.273438 23.375 30.328125 C 23.511719 30.382812 23.648438 30.421875 23.792969 30.441406 C 23.9375 30.460938 24.082031 30.464844 24.226562 30.449219 C 24.371094 30.433594 24.511719 30.402344 24.648438 30.351562 C 24.785156 30.300781 24.914062 30.234375 25.035156 30.152344 C 25.15625 30.074219 25.265625 29.976562 25.363281 29.867188 C 25.460938 29.757812 25.546875 29.640625 25.613281 29.511719 C 25.660156 29.417969 25.738281 29.378906 25.839844 29.382812 C 25.941406 29.390625 26.011719 29.441406 26.046875 29.539062 C 26.21875 30.003906 26.78125 30.316406 27.347656 30.265625 C 27.859375 30.214844 28.375 29.917969 28.8125 29.421875 C 28.867188 29.355469 28.9375 29.328125 29.019531 29.339844 C 29.105469 29.351562 29.164062 29.394531 29.203125 29.472656 C 29.339844 29.757812 29.65625 29.957031 30.03125 29.992188 C 30.402344 30.023438 30.75 29.886719 30.9375 29.628906 C 31.03125 29.5 31.140625 29.484375 31.269531 29.578125 C 31.398438 29.675781 31.414062 29.785156 31.320312 29.914062 C 31.03125 30.3125 30.535156 30.515625 29.988281 30.46875 C 29.566406 30.429688 29.203125 30.246094 28.957031 29.960938 C 28.488281 30.417969 27.9375 30.691406 27.390625 30.742188 C 26.761719 30.800781 26.15625 30.53125 25.808594 30.078125 C 25.613281 30.324219 25.378906 30.523438 25.105469 30.667969 C 24.828125 30.816406 24.535156 30.902344 24.226562 30.929688 C 23.914062 30.953125 23.613281 30.914062 23.316406 30.8125 C 23.023438 30.710938 22.761719 30.554688 22.53125 30.34375 C 22.292969 30.632812 22.003906 30.851562 21.660156 31 C 21.316406 31.144531 20.960938 31.199219 20.589844 31.164062 C 20.492188 31.15625 20.394531 31.136719 20.296875 31.113281 Z M 20.296875 31.113281 "/><path style=" stroke:none;fill-rule:nonzero;fill:#ffffff;fill-opacity:1;" d="M 20.511719 33.339844 C 20.148438 33.25 19.828125 33.074219 19.550781 32.820312 C 19.273438 32.566406 19.074219 32.261719 18.949219 31.90625 C 18.902344 31.753906 18.953125 31.65625 19.097656 31.605469 C 19.246094 31.554688 19.34375 31.601562 19.398438 31.75 C 19.507812 32.070312 19.691406 32.335938 19.957031 32.546875 C 20.21875 32.757812 20.515625 32.878906 20.851562 32.914062 C 21.183594 32.949219 21.5 32.890625 21.800781 32.738281 C 22.101562 32.585938 22.335938 32.367188 22.507812 32.074219 C 22.550781 32.003906 22.613281 31.964844 22.691406 31.957031 C 22.773438 31.949219 22.84375 31.980469 22.894531 32.042969 C 22.988281 32.15625 23.09375 32.253906 23.210938 32.339844 C 23.328125 32.429688 23.453125 32.5 23.589844 32.554688 C 23.722656 32.609375 23.863281 32.648438 24.007812 32.667969 C 24.152344 32.6875 24.296875 32.691406 24.441406 32.675781 C 24.585938 32.660156 24.726562 32.628906 24.863281 32.578125 C 25 32.527344 25.128906 32.464844 25.25 32.382812 C 25.371094 32.300781 25.480469 32.203125 25.578125 32.09375 C 25.675781 31.984375 25.757812 31.867188 25.828125 31.738281 C 25.875 31.648438 25.953125 31.609375 26.050781 31.613281 C 26.152344 31.621094 26.222656 31.671875 26.257812 31.765625 C 26.433594 32.234375 26.992188 32.546875 27.5625 32.492188 C 28.070312 32.445312 28.589844 32.144531 29.023438 31.648438 C 29.082031 31.582031 29.152344 31.554688 29.234375 31.566406 C 29.320312 31.578125 29.378906 31.625 29.417969 31.699219 C 29.554688 31.984375 29.871094 32.183594 30.242188 32.21875 C 30.617188 32.25 30.964844 32.113281 31.148438 31.859375 C 31.246094 31.753906 31.351562 31.746094 31.464844 31.832031 C 31.578125 31.914062 31.601562 32.019531 31.535156 32.140625 C 31.246094 32.539062 30.746094 32.746094 30.203125 32.695312 C 29.78125 32.65625 29.414062 32.472656 29.171875 32.1875 C 28.699219 32.644531 28.152344 32.921875 27.605469 32.96875 C 26.976562 33.027344 26.367188 32.757812 26.023438 32.304688 C 25.828125 32.550781 25.59375 32.75 25.316406 32.898438 C 25.042969 33.046875 24.75 33.132812 24.4375 33.15625 C 24.128906 33.183594 23.824219 33.144531 23.53125 33.042969 C 23.234375 32.941406 22.972656 32.78125 22.742188 32.570312 C 22.507812 32.863281 22.21875 33.082031 21.875 33.226562 C 21.53125 33.371094 21.171875 33.429688 20.800781 33.394531 C 20.703125 33.382812 20.605469 33.367188 20.511719 33.339844 Z M 20.511719 33.339844 "/><path style=" stroke:none;fill-rule:nonzero;fill:#ffffff;fill-opacity:1;" d="M 20.4375 35.925781 C 20.078125 35.832031 19.757812 35.660156 19.480469 35.40625 C 19.203125 35.148438 19.003906 34.84375 18.878906 34.488281 C 18.851562 34.425781 18.855469 34.363281 18.882812 34.300781 C 18.914062 34.238281 18.957031 34.199219 19.023438 34.175781 C 19.085938 34.152344 19.148438 34.15625 19.207031 34.1875 C 19.269531 34.21875 19.308594 34.269531 19.328125 34.335938 C 19.433594 34.65625 19.621094 34.921875 19.882812 35.132812 C 20.144531 35.34375 20.445312 35.464844 20.777344 35.5 C 21.113281 35.535156 21.429688 35.476562 21.730469 35.324219 C 22.03125 35.171875 22.265625 34.949219 22.4375 34.660156 C 22.480469 34.589844 22.539062 34.550781 22.621094 34.542969 C 22.703125 34.535156 22.769531 34.566406 22.824219 34.625 C 22.917969 34.738281 23.023438 34.839844 23.140625 34.925781 C 23.257812 35.011719 23.382812 35.082031 23.519531 35.136719 C 23.652344 35.191406 23.792969 35.230469 23.9375 35.25 C 24.082031 35.273438 24.226562 35.273438 24.371094 35.261719 C 24.515625 35.246094 24.65625 35.210938 24.792969 35.164062 C 24.929688 35.113281 25.058594 35.046875 25.179688 34.964844 C 25.300781 34.882812 25.410156 34.789062 25.507812 34.679688 C 25.605469 34.570312 25.6875 34.453125 25.757812 34.320312 C 25.804688 34.230469 25.878906 34.1875 25.980469 34.195312 C 26.082031 34.203125 26.152344 34.253906 26.1875 34.351562 C 26.363281 34.816406 26.921875 35.128906 27.492188 35.078125 C 28 35.027344 28.519531 34.730469 28.953125 34.230469 C 29.011719 34.167969 29.078125 34.140625 29.164062 34.152344 C 29.246094 34.164062 29.308594 34.207031 29.34375 34.285156 C 29.484375 34.570312 29.800781 34.769531 30.171875 34.800781 C 30.546875 34.835938 30.894531 34.699219 31.078125 34.441406 C 31.171875 34.3125 31.285156 34.296875 31.410156 34.390625 C 31.539062 34.484375 31.558594 34.597656 31.464844 34.726562 C 31.175781 35.121094 30.675781 35.328125 30.132812 35.277344 C 29.710938 35.242188 29.34375 35.054688 29.101562 34.769531 C 28.628906 35.230469 28.082031 35.503906 27.535156 35.554688 C 26.90625 35.609375 26.296875 35.34375 25.953125 34.890625 C 25.757812 35.136719 25.523438 35.332031 25.246094 35.480469 C 24.972656 35.628906 24.679688 35.714844 24.367188 35.742188 C 24.058594 35.765625 23.753906 35.726562 23.460938 35.625 C 23.164062 35.523438 22.902344 35.367188 22.671875 35.15625 C 22.4375 35.445312 22.148438 35.664062 21.804688 35.808594 C 21.460938 35.957031 21.101562 36.011719 20.730469 35.976562 C 20.632812 35.964844 20.535156 35.949219 20.4375 35.925781 Z M 20.4375 35.925781 "/><path style=" stroke:none;fill-rule:nonzero;fill:#ffffff;fill-opacity:1;" d="M 19.648438 38.496094 C 19.265625 38.394531 19.011719 38.160156 18.878906 37.789062 C 18.847656 37.710938 18.871094 37.65625 18.949219 37.628906 C 19.027344 37.601562 19.078125 37.628906 19.101562 37.710938 C 19.21875 38.054688 19.457031 38.246094 19.8125 38.28125 C 20.171875 38.320312 20.441406 38.183594 20.628906 37.871094 C 20.648438 37.835938 20.679688 37.816406 20.71875 37.8125 C 20.761719 37.808594 20.792969 37.824219 20.820312 37.855469 C 20.914062 37.96875 21.027344 38.050781 21.160156 38.105469 C 21.296875 38.164062 21.4375 38.183594 21.582031 38.167969 C 21.726562 38.152344 21.859375 38.105469 21.980469 38.023438 C 22.101562 37.941406 22.195312 37.835938 22.261719 37.703125 C 22.285156 37.660156 22.324219 37.640625 22.375 37.644531 C 22.425781 37.644531 22.457031 37.671875 22.476562 37.71875 C 22.5625 37.949219 22.835938 38.101562 23.117188 38.078125 C 23.367188 38.054688 23.625 37.90625 23.835938 37.660156 C 23.863281 37.628906 23.898438 37.617188 23.941406 37.621094 C 23.980469 37.628906 24.011719 37.648438 24.027344 37.6875 C 24.097656 37.828125 24.253906 37.925781 24.4375 37.941406 C 24.621094 37.960938 24.789062 37.890625 24.882812 37.765625 C 24.925781 37.695312 24.984375 37.683594 25.050781 37.734375 C 25.117188 37.785156 25.125 37.839844 25.070312 37.90625 C 24.925781 38.097656 24.683594 38.199219 24.414062 38.175781 C 24.210938 38.164062 24.042969 38.078125 23.90625 37.925781 C 23.675781 38.152344 23.40625 38.289062 23.136719 38.3125 C 22.820312 38.347656 22.558594 38.238281 22.355469 37.988281 C 22.261719 38.109375 22.144531 38.207031 22.011719 38.277344 C 21.875 38.351562 21.730469 38.394531 21.578125 38.40625 C 21.425781 38.417969 21.277344 38.398438 21.132812 38.347656 C 20.984375 38.300781 20.855469 38.222656 20.742188 38.117188 C 20.496094 38.421875 20.179688 38.558594 19.789062 38.519531 C 19.742188 38.515625 19.695312 38.507812 19.648438 38.496094 Z M 19.648438 38.496094 "/><path style=" stroke:none;fill-rule:nonzero;fill:#ffffff;fill-opacity:1;" d="M 26.675781 37.910156 C 26.292969 37.8125 26.039062 37.574219 25.90625 37.203125 C 25.875 37.125 25.898438 37.074219 25.976562 37.046875 C 26.054688 37.019531 26.105469 37.046875 26.128906 37.125 C 26.246094 37.472656 26.484375 37.664062 26.84375 37.699219 C 27.203125 37.738281 27.472656 37.601562 27.65625 37.285156 C 27.679688 37.25 27.707031 37.230469 27.75 37.230469 C 27.789062 37.226562 27.820312 37.238281 27.847656 37.269531 C 27.941406 37.382812 28.054688 37.46875 28.191406 37.523438 C 28.324219 37.578125 28.464844 37.597656 28.609375 37.582031 C 28.753906 37.566406 28.886719 37.519531 29.007812 37.4375 C 29.128906 37.355469 29.222656 37.25 29.292969 37.121094 C 29.316406 37.074219 29.351562 37.054688 29.402344 37.058594 C 29.453125 37.0625 29.484375 37.085938 29.503906 37.132812 C 29.589844 37.363281 29.867188 37.519531 30.144531 37.492188 C 30.394531 37.46875 30.652344 37.320312 30.863281 37.078125 C 30.890625 37.046875 30.925781 37.03125 30.96875 37.039062 C 31.007812 37.042969 31.039062 37.066406 31.058594 37.101562 C 31.125 37.242188 31.28125 37.339844 31.464844 37.355469 C 31.648438 37.375 31.816406 37.304688 31.910156 37.179688 C 31.957031 37.113281 32.011719 37.105469 32.074219 37.152344 C 32.140625 37.199219 32.148438 37.257812 32.097656 37.320312 C 31.953125 37.515625 31.710938 37.617188 31.441406 37.59375 C 31.242188 37.578125 31.070312 37.496094 30.9375 37.34375 C 30.703125 37.566406 30.433594 37.703125 30.164062 37.730469 C 29.847656 37.761719 29.585938 37.652344 29.386719 37.402344 C 29.289062 37.523438 29.175781 37.621094 29.039062 37.695312 C 28.902344 37.765625 28.761719 37.808594 28.605469 37.820312 C 28.453125 37.832031 28.304688 37.816406 28.160156 37.765625 C 28.015625 37.714844 27.886719 37.636719 27.773438 37.53125 C 27.523438 37.839844 27.207031 37.972656 26.816406 37.9375 C 26.769531 37.929688 26.722656 37.921875 26.675781 37.910156 Z M 26.675781 37.910156 "/><path style=" stroke:none;fill-rule:nonzero;fill:#ffffff;fill-opacity:1;" d="M 19.039062 41 C 19.039062 41.15625 19.015625 41.308594 18.964844 41.453125 C 18.914062 41.601562 18.839844 41.726562 18.746094 41.839844 C 18.652344 41.949219 18.546875 42.035156 18.421875 42.097656 C 18.300781 42.15625 18.175781 42.1875 18.042969 42.1875 C 17.910156 42.1875 17.78125 42.15625 17.660156 42.097656 C 17.539062 42.035156 17.429688 41.949219 17.335938 41.839844 C 17.242188 41.726562 17.171875 41.601562 17.121094 41.453125 C 17.070312 41.308594 17.046875 41.15625 17.046875 41 C 17.046875 40.84375 17.070312 40.691406 17.121094 40.546875 C 17.171875 40.402344 17.242188 40.273438 17.335938 40.164062 C 17.429688 40.050781 17.539062 39.964844 17.660156 39.90625 C 17.78125 39.84375 17.910156 39.816406 18.042969 39.816406 C 18.175781 39.816406 18.300781 39.84375 18.421875 39.90625 C 18.546875 39.964844 18.652344 40.050781 18.746094 40.164062 C 18.839844 40.273438 18.914062 40.402344 18.964844 40.546875 C 19.015625 40.691406 19.039062 40.84375 19.039062 41 Z M 19.039062 41 "/></g></svg>