<svg xmlns="http://www.w3.org/2000/svg" xmlns:xlink="http://www.w3.org/1999/xlink" width="60" zoomAndPan="magnify" viewBox="0 0 45 44.999999" height="60" preserveAspectRatio="xMidYMid meet" version="1.2"><defs><clipPath id="ad87cb88db"><path d="M 9.359375 18.109375 L 35.949219 18.109375 L 35.949219 43.082031 L 9.359375 43.082031 Z M 9.359375 18.109375 "/></clipPath><clipPath id="fc4765a898"><path d="M 34.277344 15 L 39.15625 15 L 39.15625 20.214844 L 34.277344 20.214844 Z M 34.277344 15 "/></clipPath><clipPath id="f8adad7994"><path d="M 21 1.84375 L 24 1.84375 L 24 8 L 21 8 Z M 21 1.84375 "/></clipPath><clipPath id="d5109bd33a"><path d="M 18 1.84375 L 24 1.84375 L 24 8 L 18 8 Z M 18 1.84375 "/></clipPath><clipPath id="b78531f9d6"><path d="M 6.15625 15 L 12 15 L 12 21 L 6.15625 21 Z M 6.15625 15 "/></clipPath><clipPath id="b50f28232d"><path d="M 6.15625 13 L 12 13 L 12 16 L 6.15625 16 Z M 6.15625 13 "/></clipPath><clipPath id="325f99ed9f"><path d="M 6.15625 9 L 12 9 L 12 15 L 6.15625 15 Z M 6.15625 9 "/></clipPath></defs><g id="e2355b62c0"><path style=" stroke:none;fill-rule:nonzero;fill:#e20016;fill-opacity:1;" d="M 33.070312 18.351562 C 31.722656 18.351562 30.613281 19.34375 30.472656 20.621094 L 30.464844 20.710938 C 30.367188 19.390625 29.242188 18.351562 27.863281 18.351562 C 26.519531 18.351562 25.410156 19.34375 25.269531 20.621094 L 25.261719 20.621094 C 25.121094 19.34375 24.011719 18.351562 22.664062 18.351562 C 21.316406 18.351562 20.210938 19.34375 20.070312 20.621094 L 20.0625 20.625 L 20.0625 20.621094 C 19.921875 19.34375 18.8125 18.351562 17.464844 18.351562 C 16.089844 18.351562 14.964844 19.390625 14.867188 20.710938 L 14.859375 20.621094 C 14.714844 19.34375 13.609375 18.351562 12.261719 18.351562 C 10.820312 18.351562 9.648438 19.492188 9.648438 20.898438 L 13.5 42.863281 L 31.828125 42.863281 L 35.679688 20.898438 C 35.679688 19.492188 34.511719 18.351562 33.070312 18.351562 "/><g clip-rule="nonzero" clip-path="url(#ad87cb88db)"><path style=" stroke:none;fill-rule:nonzero;fill:#e20016;fill-opacity:1;" d="M 35.679688 20.898438 L 35.683594 20.898438 Z M 13.6875 42.644531 L 31.644531 42.644531 L 35.460938 20.882812 C 35.449219 19.605469 34.378906 18.570312 33.070312 18.570312 C 31.84375 18.570312 30.824219 19.464844 30.691406 20.648438 L 30.683594 20.730469 C 30.671875 20.84375 30.578125 20.929688 30.464844 20.929688 C 30.460938 20.929688 30.460938 20.929688 30.460938 20.929688 C 30.347656 20.925781 30.25 20.839844 30.242188 20.726562 C 30.152344 19.515625 29.109375 18.570312 27.863281 18.570312 C 26.640625 18.570312 25.621094 19.464844 25.488281 20.648438 C 25.476562 20.757812 25.382812 20.839844 25.269531 20.839844 C 25.15625 20.839844 25.054688 20.757812 25.042969 20.648438 C 24.910156 19.464844 23.886719 18.570312 22.664062 18.570312 C 21.441406 18.570312 20.421875 19.464844 20.289062 20.648438 C 20.28125 20.730469 20.222656 20.800781 20.144531 20.828125 C 20.078125 20.851562 20 20.84375 19.945312 20.808594 C 19.886719 20.769531 19.84375 20.707031 19.839844 20.636719 C 19.710938 19.464844 18.691406 18.570312 17.464844 18.570312 C 16.222656 18.570312 15.175781 19.515625 15.085938 20.726562 C 15.078125 20.839844 14.984375 20.925781 14.871094 20.929688 C 14.867188 20.929688 14.867188 20.929688 14.867188 20.929688 C 14.753906 20.929688 14.65625 20.84375 14.644531 20.730469 L 14.636719 20.644531 C 14.507812 19.464844 13.484375 18.570312 12.261719 18.570312 C 10.949219 18.570312 9.882812 19.605469 9.871094 20.882812 Z M 31.828125 43.082031 L 13.5 43.082031 C 13.394531 43.082031 13.300781 43.003906 13.28125 42.898438 L 9.429688 20.9375 C 9.429688 20.925781 9.429688 20.914062 9.429688 20.898438 C 9.429688 19.375 10.699219 18.132812 12.261719 18.132812 C 13.425781 18.132812 14.433594 18.8125 14.867188 19.808594 C 15.300781 18.820312 16.3125 18.132812 17.464844 18.132812 C 18.625 18.132812 19.628906 18.808594 20.066406 19.796875 C 20.503906 18.808594 21.507812 18.132812 22.664062 18.132812 C 23.820312 18.132812 24.828125 18.808594 25.265625 19.796875 C 25.703125 18.808594 26.707031 18.132812 27.863281 18.132812 C 29.019531 18.132812 30.027344 18.820312 30.464844 19.808594 C 30.898438 18.8125 31.90625 18.132812 33.070312 18.132812 C 34.628906 18.132812 35.902344 19.375 35.902344 20.898438 C 35.902344 20.914062 35.902344 20.925781 35.898438 20.9375 L 32.046875 42.898438 C 32.03125 43.003906 31.9375 43.082031 31.828125 43.082031 "/></g><path style=" stroke:none;fill-rule:nonzero;fill:#e20016;fill-opacity:1;" d="M 28.171875 42.863281 L 30.472656 20.621094 C 30.613281 19.34375 31.722656 18.351562 33.070312 18.351562 C 34.511719 18.351562 35.679688 19.492188 35.679688 20.898438 L 31.828125 42.863281 L 28.171875 42.863281 "/><path style=" stroke:none;fill-rule:nonzero;fill:#e20016;fill-opacity:1;" d="M 24.496094 42.863281 L 25.261719 20.621094 C 25.121094 19.34375 24.011719 18.351562 22.664062 18.351562 C 21.316406 18.351562 20.210938 19.34375 20.070312 20.621094 L 20.835938 42.863281 L 24.496094 42.863281 "/><path style=" stroke:none;fill-rule:nonzero;fill:#e20016;fill-opacity:1;" d="M 17.160156 42.863281 L 14.859375 20.621094 C 14.714844 19.34375 13.609375 18.351562 12.261719 18.351562 C 10.820312 18.351562 9.648438 19.492188 9.648438 20.898438 L 13.5 42.863281 L 17.160156 42.863281 "/><path style=" stroke:none;fill-rule:nonzero;fill:#fffaf1;fill-opacity:1;" d="M 30.46875 20.761719 C 30.398438 19.417969 29.257812 18.351562 27.863281 18.351562 C 26.519531 18.351562 25.410156 19.34375 25.269531 20.621094 L 24.503906 42.757812 L 28.171875 42.757812 L 30.46875 20.761719 "/><path style=" stroke:none;fill-rule:nonzero;fill:#fffaf1;fill-opacity:1;" d="M 17.464844 18.351562 C 16.070312 18.351562 14.933594 19.417969 14.863281 20.761719 L 17.160156 42.757812 L 20.824219 42.757812 L 20.0625 20.621094 C 19.921875 19.34375 18.8125 18.351562 17.464844 18.351562 "/><path style=" stroke:none;fill-rule:nonzero;fill:#f2b151;fill-opacity:1;" d="M 28.882812 18.636719 C 28.800781 18.683594 28.714844 18.714844 28.621094 18.742188 C 27.898438 18.9375 27.152344 18.523438 26.953125 17.8125 C 26.910156 17.660156 26.898438 17.503906 26.910156 17.351562 C 26.917969 17.203125 26.957031 17.054688 27.019531 16.917969 C 27.082031 16.777344 27.164062 16.648438 27.269531 16.539062 C 27.105469 16.625 26.96875 16.738281 26.855469 16.875 C 26.4375 16.742188 26.09375 16.414062 25.96875 15.960938 C 25.882812 15.65625 25.910156 15.347656 26.03125 15.078125 C 25.699219 15.40625 25.550781 15.898438 25.6875 16.378906 C 25.816406 16.84375 26.179688 17.179688 26.621094 17.304688 C 26.539062 17.546875 26.527344 17.816406 26.601562 18.078125 C 26.800781 18.789062 27.546875 19.203125 28.265625 19.007812 C 28.511719 18.941406 28.722656 18.808594 28.882812 18.636719 "/><path style=" stroke:none;fill-rule:nonzero;fill:#f9d482;fill-opacity:1;" d="M 28.882812 18.636719 C 28.886719 18.636719 28.886719 18.636719 28.890625 18.632812 C 29.203125 18.304688 29.339844 17.828125 29.207031 17.363281 C 29.199219 17.339844 29.191406 17.316406 29.183594 17.292969 C 29.902344 17.09375 30.324219 16.359375 30.125 15.644531 C 29.921875 14.933594 29.179688 14.519531 28.460938 14.714844 C 28.242188 14.777344 28.050781 14.886719 27.894531 15.027344 C 27.5625 14.730469 27.089844 14.601562 26.625 14.730469 C 26.390625 14.792969 26.191406 14.917969 26.03125 15.078125 C 25.910156 15.347656 25.882812 15.65625 25.96875 15.960938 C 26.09375 16.414062 26.4375 16.742188 26.855469 16.875 C 26.96875 16.738281 27.105469 16.625 27.269531 16.539062 C 27.164062 16.648438 27.082031 16.777344 27.019531 16.917969 C 26.957031 17.054688 26.917969 17.203125 26.910156 17.351562 C 26.898438 17.503906 26.910156 17.660156 26.953125 17.8125 C 27.152344 18.523438 27.898438 18.9375 28.621094 18.742188 C 28.714844 18.714844 28.800781 18.683594 28.882812 18.636719 "/><path style=" stroke:none;fill-rule:nonzero;fill:#f9d482;fill-opacity:1;" d="M 38.113281 13.441406 C 38.089844 13.554688 38.050781 13.667969 38 13.777344 C 37.605469 14.628906 36.589844 15.003906 35.730469 14.613281 C 35.546875 14.53125 35.382812 14.414062 35.246094 14.28125 C 35.105469 14.148438 34.996094 13.992188 34.910156 13.820312 C 34.824219 13.648438 34.765625 13.460938 34.742188 13.269531 C 34.691406 13.496094 34.691406 13.726562 34.734375 13.945312 C 34.261719 14.234375 33.660156 14.292969 33.117188 14.046875 C 32.75 13.878906 32.46875 13.601562 32.300781 13.265625 C 32.355469 13.851562 32.714844 14.394531 33.292969 14.65625 C 33.855469 14.910156 34.484375 14.835938 34.964844 14.519531 C 35.132812 14.792969 35.386719 15.023438 35.703125 15.167969 C 36.5625 15.558594 37.578125 15.183594 37.972656 14.332031 C 38.105469 14.042969 38.152344 13.738281 38.113281 13.441406 "/><path style=" stroke:none;fill-rule:nonzero;fill:#fff3b3;fill-opacity:1;" d="M 38.113281 13.441406 C 38.113281 13.4375 38.117188 13.4375 38.113281 13.433594 C 38.050781 12.867188 37.695312 12.347656 37.128906 12.089844 C 37.101562 12.078125 37.070312 12.066406 37.042969 12.054688 C 37.433594 11.207031 37.058594 10.203125 36.199219 9.8125 C 35.339844 9.421875 34.324219 9.796875 33.929688 10.644531 C 33.8125 10.902344 33.761719 11.175781 33.777344 11.441406 C 33.214844 11.515625 32.703125 11.863281 32.449219 12.410156 C 32.320312 12.6875 32.273438 12.980469 32.300781 13.265625 C 32.46875 13.601562 32.75 13.878906 33.117188 14.046875 C 33.660156 14.292969 34.261719 14.234375 34.734375 13.945312 C 34.691406 13.726562 34.691406 13.496094 34.742188 13.269531 C 34.765625 13.460938 34.824219 13.648438 34.910156 13.820312 C 34.996094 13.992188 35.105469 14.148438 35.246094 14.28125 C 35.382812 14.414062 35.546875 14.53125 35.730469 14.613281 C 36.589844 15.003906 37.605469 14.628906 38 13.777344 C 38.050781 13.667969 38.089844 13.554688 38.113281 13.441406 "/><path style=" stroke:none;fill-rule:nonzero;fill:#f9d482;fill-opacity:1;" d="M 30.847656 14.382812 C 30.957031 14.335938 31.070312 14.300781 31.191406 14.277344 C 32.109375 14.101562 33.003906 14.695312 33.183594 15.605469 C 33.222656 15.800781 33.222656 15.996094 33.195312 16.183594 C 33.164062 16.371094 33.101562 16.550781 33.011719 16.71875 C 32.921875 16.886719 32.804688 17.039062 32.660156 17.167969 C 32.875 17.078125 33.058594 16.945312 33.214844 16.785156 C 33.722656 16.996094 34.121094 17.441406 34.230469 18.015625 C 34.308594 18.40625 34.242188 18.792969 34.070312 19.117188 C 34.515625 18.738281 34.746094 18.136719 34.628906 17.523438 C 34.507812 16.929688 34.085938 16.46875 33.550781 16.269531 C 33.675781 15.976562 33.714844 15.640625 33.652344 15.304688 C 33.472656 14.394531 32.578125 13.804688 31.65625 13.980469 C 31.34375 14.039062 31.070312 14.183594 30.847656 14.382812 "/><path style=" stroke:none;fill-rule:nonzero;fill:#fff3b3;fill-opacity:1;" d="M 30.847656 14.382812 C 30.84375 14.382812 30.84375 14.382812 30.84375 14.386719 C 30.414062 14.765625 30.199219 15.351562 30.316406 15.949219 C 30.324219 15.980469 30.332031 16.007812 30.339844 16.039062 C 29.417969 16.214844 28.820312 17.097656 28.996094 18.007812 C 29.175781 18.917969 30.070312 19.511719 30.988281 19.335938 C 31.269531 19.28125 31.519531 19.164062 31.726562 19 C 32.113281 19.402344 32.691406 19.609375 33.285156 19.496094 C 33.585938 19.4375 33.851562 19.304688 34.070312 19.117188 C 34.242188 18.792969 34.308594 18.40625 34.230469 18.015625 C 34.121094 17.441406 33.722656 16.996094 33.214844 16.785156 C 33.058594 16.945312 32.875 17.078125 32.660156 17.167969 C 32.804688 17.039062 32.921875 16.886719 33.011719 16.71875 C 33.101562 16.550781 33.164062 16.371094 33.195312 16.183594 C 33.222656 15.996094 33.222656 15.800781 33.183594 15.605469 C 33.003906 14.695312 32.109375 14.101562 31.191406 14.277344 C 31.070312 14.300781 30.957031 14.335938 30.847656 14.382812 "/><path style=" stroke:none;fill-rule:nonzero;fill:#f2b151;fill-opacity:1;" d="M 35.625 15.050781 C 35.515625 15.078125 35.410156 15.117188 35.304688 15.167969 C 34.503906 15.554688 34.144531 16.460938 34.507812 17.1875 C 34.582031 17.34375 34.691406 17.480469 34.816406 17.59375 C 34.9375 17.707031 35.085938 17.796875 35.246094 17.863281 C 35.40625 17.925781 35.582031 17.964844 35.761719 17.976562 C 35.546875 18.03125 35.335938 18.046875 35.128906 18.019531 C 34.851562 18.445312 34.792969 18.972656 35.023438 19.433594 C 35.175781 19.746094 35.4375 19.972656 35.75 20.101562 C 35.199219 20.089844 34.695312 19.804688 34.453125 19.3125 C 34.214844 18.835938 34.289062 18.285156 34.589844 17.851562 C 34.332031 17.71875 34.117188 17.511719 33.984375 17.242188 C 33.625 16.515625 33.984375 15.609375 34.785156 15.222656 C 35.054688 15.089844 35.34375 15.035156 35.625 15.050781 "/><g clip-rule="nonzero" clip-path="url(#fc4765a898)"><path style=" stroke:none;fill-rule:nonzero;fill:#f9d482;fill-opacity:1;" d="M 35.625 15.050781 C 35.625 15.050781 35.628906 15.046875 35.628906 15.050781 C 36.164062 15.074219 36.648438 15.359375 36.886719 15.835938 C 36.898438 15.859375 36.90625 15.886719 36.917969 15.910156 C 37.71875 15.523438 38.65625 15.796875 39.019531 16.523438 C 39.378906 17.25 39.023438 18.15625 38.222656 18.542969 C 37.980469 18.664062 37.722656 18.71875 37.476562 18.71875 C 37.402344 19.214844 37.070312 19.679688 36.554688 19.929688 C 36.292969 20.054688 36.015625 20.109375 35.75 20.101562 C 35.4375 19.972656 35.175781 19.746094 35.023438 19.433594 C 34.792969 18.972656 34.851562 18.445312 35.128906 18.019531 C 35.335938 18.046875 35.546875 18.03125 35.761719 17.976562 C 35.582031 17.964844 35.40625 17.925781 35.246094 17.863281 C 35.085938 17.796875 34.9375 17.707031 34.816406 17.59375 C 34.691406 17.480469 34.582031 17.34375 34.507812 17.1875 C 34.144531 16.460938 34.503906 15.554688 35.304688 15.167969 C 35.410156 15.117188 35.515625 15.078125 35.625 15.050781 "/></g><path style=" stroke:none;fill-rule:nonzero;fill:#f9d482;fill-opacity:1;" d="M 31.394531 2.089844 C 31.507812 2.164062 31.613281 2.25 31.710938 2.351562 C 32.453125 3.113281 32.433594 4.328125 31.660156 5.066406 C 31.492188 5.222656 31.304688 5.347656 31.105469 5.4375 C 30.90625 5.523438 30.691406 5.578125 30.472656 5.597656 C 30.253906 5.613281 30.03125 5.597656 29.816406 5.539062 C 30.039062 5.6875 30.28125 5.78125 30.535156 5.828125 C 30.648438 6.441406 30.460938 7.09375 29.972656 7.558594 C 29.640625 7.875 29.226562 8.050781 28.800781 8.089844 C 29.449219 8.277344 30.175781 8.125 30.695312 7.628906 C 31.199219 7.148438 31.382812 6.460938 31.242188 5.828125 C 31.605469 5.765625 31.957031 5.597656 32.238281 5.324219 C 33.011719 4.589844 33.03125 3.375 32.289062 2.609375 C 32.035156 2.351562 31.726562 2.175781 31.394531 2.089844 "/><path style=" stroke:none;fill-rule:nonzero;fill:#fff3b3;fill-opacity:1;" d="M 31.394531 2.089844 C 31.394531 2.089844 31.390625 2.085938 31.386719 2.085938 C 30.753906 1.917969 30.054688 2.078125 29.546875 2.558594 C 29.519531 2.585938 29.496094 2.613281 29.472656 2.636719 C 28.730469 1.875 27.5 1.851562 26.730469 2.585938 C 25.957031 3.324219 25.933594 4.539062 26.675781 5.300781 C 26.902344 5.535156 27.175781 5.695312 27.460938 5.789062 C 27.3125 6.410156 27.46875 7.085938 27.949219 7.582031 C 28.191406 7.828125 28.484375 8 28.800781 8.089844 C 29.226562 8.050781 29.640625 7.875 29.972656 7.558594 C 30.460938 7.09375 30.648438 6.441406 30.535156 5.828125 C 30.28125 5.78125 30.039062 5.6875 29.816406 5.539062 C 30.03125 5.597656 30.253906 5.613281 30.472656 5.597656 C 30.691406 5.578125 30.90625 5.523438 31.105469 5.4375 C 31.304688 5.347656 31.492188 5.222656 31.660156 5.066406 C 32.433594 4.328125 32.453125 3.113281 31.710938 2.351562 C 31.613281 2.25 31.507812 2.164062 31.394531 2.089844 "/><g clip-rule="nonzero" clip-path="url(#f8adad7994)"><path style=" stroke:none;fill-rule:nonzero;fill:#f9d482;fill-opacity:1;" d="M 22.320312 1.882812 C 22.421875 1.921875 22.519531 1.964844 22.613281 2.023438 C 23.335938 2.472656 23.558594 3.414062 23.105469 4.128906 C 23.007812 4.28125 22.886719 4.414062 22.75 4.519531 C 22.613281 4.628906 22.460938 4.710938 22.296875 4.765625 C 22.128906 4.820312 21.953125 4.851562 21.777344 4.847656 C 21.976562 4.917969 22.183594 4.945312 22.386719 4.933594 C 22.59375 5.386719 22.578125 5.925781 22.292969 6.378906 C 22.097656 6.683594 21.8125 6.898438 21.492188 7.007812 C 22.027344 7.03125 22.558594 6.773438 22.863281 6.292969 C 23.160156 5.824219 23.164062 5.261719 22.933594 4.796875 C 23.203125 4.679688 23.4375 4.480469 23.605469 4.21875 C 24.054688 3.503906 23.835938 2.5625 23.113281 2.113281 C 22.867188 1.960938 22.59375 1.886719 22.320312 1.882812 "/></g><g clip-rule="nonzero" clip-path="url(#d5109bd33a)"><path style=" stroke:none;fill-rule:nonzero;fill:#fff3b3;fill-opacity:1;" d="M 22.320312 1.882812 C 22.320312 1.882812 22.316406 1.882812 22.3125 1.882812 C 21.792969 1.875 21.28125 2.128906 20.984375 2.601562 C 20.96875 2.625 20.957031 2.648438 20.945312 2.675781 C 20.222656 2.226562 19.269531 2.445312 18.816406 3.160156 C 18.363281 3.875 18.585938 4.816406 19.308594 5.265625 C 19.527344 5.402344 19.769531 5.472656 20.007812 5.492188 C 20.011719 6 20.269531 6.492188 20.734375 6.78125 C 20.96875 6.925781 21.230469 7 21.492188 7.007812 C 21.8125 6.898438 22.097656 6.683594 22.292969 6.378906 C 22.578125 5.925781 22.59375 5.386719 22.386719 4.933594 C 22.183594 4.945312 21.976562 4.917969 21.777344 4.847656 C 21.953125 4.851562 22.128906 4.820312 22.296875 4.765625 C 22.460938 4.710938 22.613281 4.628906 22.75 4.519531 C 22.886719 4.414062 23.007812 4.28125 23.105469 4.128906 C 23.558594 3.414062 23.335938 2.472656 22.613281 2.023438 C 22.519531 1.964844 22.421875 1.921875 22.320312 1.882812 "/></g><path style=" stroke:none;fill-rule:nonzero;fill:#f9d482;fill-opacity:1;" d="M 33.132812 10.195312 C 33.199219 10.300781 33.257812 10.410156 33.300781 10.535156 C 33.648438 11.464844 33.164062 12.496094 32.222656 12.835938 C 32.019531 12.910156 31.8125 12.945312 31.609375 12.949219 C 31.402344 12.949219 31.199219 12.914062 31.007812 12.847656 C 30.808594 12.78125 30.628906 12.683594 30.464844 12.558594 C 30.597656 12.765625 30.769531 12.9375 30.96875 13.070312 C 30.832031 13.636719 30.421875 14.125 29.828125 14.34375 C 29.421875 14.488281 29 14.484375 28.625 14.359375 C 29.105469 14.761719 29.785156 14.902344 30.417969 14.671875 C 31.035156 14.449219 31.453125 13.929688 31.574219 13.335938 C 31.910156 13.414062 32.273438 13.402344 32.621094 13.277344 C 33.5625 12.933594 34.042969 11.902344 33.699219 10.972656 C 33.582031 10.65625 33.382812 10.390625 33.132812 10.195312 "/><path style=" stroke:none;fill-rule:nonzero;fill:#fff3b3;fill-opacity:1;" d="M 33.132812 10.195312 C 33.132812 10.191406 33.128906 10.1875 33.128906 10.1875 C 32.648438 9.808594 31.988281 9.679688 31.371094 9.90625 C 31.339844 9.917969 31.308594 9.933594 31.277344 9.945312 C 30.933594 9.015625 29.890625 8.535156 28.949219 8.878906 C 28.007812 9.21875 27.523438 10.25 27.871094 11.179688 C 27.972656 11.464844 28.144531 11.703125 28.355469 11.894531 C 27.988281 12.363281 27.867188 13.003906 28.089844 13.605469 C 28.203125 13.910156 28.390625 14.164062 28.625 14.359375 C 29 14.484375 29.421875 14.488281 29.828125 14.34375 C 30.421875 14.125 30.832031 13.636719 30.96875 13.070312 C 30.769531 12.9375 30.597656 12.765625 30.464844 12.558594 C 30.628906 12.683594 30.808594 12.78125 31.007812 12.847656 C 31.199219 12.914062 31.402344 12.949219 31.609375 12.949219 C 31.8125 12.945312 32.019531 12.910156 32.222656 12.835938 C 33.164062 12.496094 33.648438 11.464844 33.300781 10.535156 C 33.257812 10.410156 33.199219 10.300781 33.132812 10.195312 "/><path style=" stroke:none;fill-rule:nonzero;fill:#f9d482;fill-opacity:1;" d="M 22.582031 14.09375 C 22.691406 14.046875 22.804688 14.011719 22.925781 13.988281 C 23.859375 13.8125 24.757812 14.417969 24.933594 15.34375 C 24.972656 15.539062 24.976562 15.738281 24.945312 15.929688 C 24.914062 16.117188 24.851562 16.300781 24.761719 16.46875 C 24.667969 16.640625 24.546875 16.792969 24.402344 16.925781 C 24.617188 16.832031 24.808594 16.703125 24.960938 16.539062 C 25.476562 16.753906 25.875 17.207031 25.988281 17.789062 C 26.0625 18.1875 25.996094 18.578125 25.816406 18.90625 C 26.269531 18.523438 26.507812 17.917969 26.386719 17.296875 C 26.273438 16.691406 25.847656 16.222656 25.304688 16.019531 C 25.433594 15.722656 25.476562 15.382812 25.410156 15.042969 C 25.230469 14.117188 24.332031 13.511719 23.402344 13.6875 C 23.085938 13.746094 22.804688 13.890625 22.582031 14.09375 "/><path style=" stroke:none;fill-rule:nonzero;fill:#fff3b3;fill-opacity:1;" d="M 22.582031 14.09375 C 22.578125 14.09375 22.578125 14.09375 22.574219 14.097656 C 22.144531 14.476562 21.921875 15.070312 22.039062 15.675781 C 22.042969 15.707031 22.054688 15.738281 22.0625 15.769531 C 21.132812 15.941406 20.519531 16.832031 20.699219 17.757812 C 20.875 18.679688 21.773438 19.289062 22.707031 19.113281 C 22.988281 19.058594 23.242188 18.941406 23.453125 18.773438 C 23.839844 19.183594 24.425781 19.398438 25.027344 19.285156 C 25.328125 19.230469 25.597656 19.09375 25.816406 18.90625 C 25.996094 18.578125 26.0625 18.1875 25.988281 17.789062 C 25.875 17.207031 25.476562 16.753906 24.960938 16.539062 C 24.808594 16.703125 24.617188 16.832031 24.402344 16.925781 C 24.546875 16.792969 24.667969 16.640625 24.761719 16.46875 C 24.851562 16.300781 24.914062 16.117188 24.945312 15.929688 C 24.976562 15.738281 24.972656 15.539062 24.933594 15.34375 C 24.757812 14.417969 23.859375 13.8125 22.925781 13.988281 C 22.804688 14.011719 22.691406 14.046875 22.582031 14.09375 "/><path style=" stroke:none;fill-rule:nonzero;fill:#f2b151;fill-opacity:1;" d="M 8.113281 15.492188 C 8.207031 15.433594 8.3125 15.382812 8.421875 15.34375 C 9.269531 15.054688 10.199219 15.496094 10.492188 16.335938 C 10.554688 16.515625 10.582031 16.699219 10.582031 16.882812 C 10.582031 17.0625 10.546875 17.242188 10.484375 17.414062 C 10.421875 17.585938 10.328125 17.746094 10.210938 17.886719 C 10.402344 17.773438 10.558594 17.621094 10.683594 17.449219 C 11.195312 17.578125 11.632812 17.949219 11.816406 18.480469 C 11.945312 18.839844 11.933594 19.210938 11.8125 19.542969 C 12.183594 19.125 12.324219 18.523438 12.125 17.960938 C 11.929688 17.410156 11.46875 17.03125 10.933594 16.917969 C 11.011719 16.621094 11.003906 16.296875 10.894531 15.988281 C 10.601562 15.152344 9.671875 14.710938 8.824219 15 C 8.535156 15.101562 8.292969 15.269531 8.113281 15.492188 "/><g clip-rule="nonzero" clip-path="url(#b78531f9d6)"><path style=" stroke:none;fill-rule:nonzero;fill:#f9d482;fill-opacity:1;" d="M 8.113281 15.492188 C 8.109375 15.492188 8.109375 15.492188 8.105469 15.496094 C 7.753906 15.910156 7.628906 16.496094 7.824219 17.046875 C 7.835938 17.074219 7.847656 17.101562 7.859375 17.128906 C 7.011719 17.417969 6.5625 18.335938 6.855469 19.175781 C 7.152344 20.011719 8.078125 20.457031 8.925781 20.164062 C 9.183594 20.074219 9.402344 19.929688 9.578125 19.746094 C 10 20.078125 10.578125 20.195312 11.125 20.007812 C 11.398438 19.914062 11.632812 19.75 11.8125 19.542969 C 11.933594 19.210938 11.945312 18.839844 11.816406 18.480469 C 11.632812 17.949219 11.195312 17.578125 10.683594 17.449219 C 10.558594 17.621094 10.402344 17.773438 10.210938 17.886719 C 10.328125 17.746094 10.421875 17.585938 10.484375 17.414062 C 10.546875 17.242188 10.582031 17.0625 10.582031 16.882812 C 10.582031 16.699219 10.554688 16.515625 10.492188 16.335938 C 10.199219 15.496094 9.269531 15.054688 8.421875 15.34375 C 8.3125 15.382812 8.207031 15.433594 8.113281 15.492188 "/></g><path style=" stroke:none;fill-rule:nonzero;fill:#f9d482;fill-opacity:1;" d="M 16.160156 14.960938 C 16.246094 15.039062 16.324219 15.128906 16.394531 15.230469 C 16.9375 16.003906 16.742188 17.066406 15.960938 17.597656 C 15.792969 17.714844 15.609375 17.792969 15.421875 17.84375 C 15.234375 17.894531 15.039062 17.910156 14.847656 17.894531 C 14.652344 17.878906 14.460938 17.832031 14.28125 17.753906 C 14.453125 17.914062 14.652344 18.03125 14.863281 18.109375 C 14.875 18.660156 14.617188 19.203125 14.125 19.542969 C 13.789062 19.773438 13.398438 19.867188 13.023438 19.839844 C 13.5625 20.097656 14.21875 20.066406 14.746094 19.707031 C 15.257812 19.355469 15.515625 18.78125 15.484375 18.207031 C 15.8125 18.203125 16.140625 18.105469 16.429688 17.90625 C 17.210938 17.375 17.40625 16.3125 16.863281 15.539062 C 16.679688 15.277344 16.4375 15.082031 16.160156 14.960938 "/><path style=" stroke:none;fill-rule:nonzero;fill:#fff3b3;fill-opacity:1;" d="M 16.160156 14.960938 C 16.15625 14.957031 16.15625 14.957031 16.152344 14.957031 C 15.621094 14.71875 14.984375 14.757812 14.472656 15.109375 C 14.445312 15.125 14.421875 15.148438 14.398438 15.167969 C 13.859375 14.394531 12.785156 14.199219 12.003906 14.734375 C 11.222656 15.269531 11.027344 16.328125 11.566406 17.101562 C 11.730469 17.335938 11.945312 17.515625 12.183594 17.640625 C 11.960938 18.160156 12.003906 18.777344 12.351562 19.273438 C 12.527344 19.527344 12.761719 19.714844 13.023438 19.839844 C 13.398438 19.867188 13.789062 19.773438 14.125 19.542969 C 14.617188 19.203125 14.875 18.660156 14.863281 18.109375 C 14.652344 18.03125 14.453125 17.914062 14.28125 17.753906 C 14.460938 17.832031 14.652344 17.878906 14.847656 17.894531 C 15.039062 17.910156 15.234375 17.894531 15.421875 17.84375 C 15.609375 17.792969 15.792969 17.714844 15.960938 17.597656 C 16.742188 17.066406 16.9375 16.003906 16.394531 15.230469 C 16.324219 15.128906 16.246094 15.039062 16.160156 14.960938 "/><path style=" stroke:none;fill-rule:nonzero;fill:#f2b151;fill-opacity:1;" d="M 18.359375 19.984375 C 18.242188 19.957031 18.125 19.921875 18.007812 19.871094 C 17.128906 19.484375 16.730469 18.460938 17.125 17.589844 C 17.207031 17.402344 17.324219 17.238281 17.460938 17.097656 C 17.597656 16.957031 17.757812 16.839844 17.933594 16.753906 C 18.109375 16.664062 18.300781 16.605469 18.496094 16.578125 C 18.261719 16.53125 18.027344 16.53125 17.800781 16.578125 C 17.5 16.105469 17.433594 15.496094 17.679688 14.949219 C 17.847656 14.574219 18.132812 14.289062 18.476562 14.113281 C 17.871094 14.171875 17.316406 14.542969 17.054688 15.128906 C 16.796875 15.699219 16.878906 16.332031 17.210938 16.8125 C 16.929688 16.988281 16.695312 17.246094 16.550781 17.566406 C 16.160156 18.4375 16.554688 19.460938 17.4375 19.847656 C 17.738281 19.980469 18.054688 20.023438 18.359375 19.984375 "/><path style=" stroke:none;fill-rule:nonzero;fill:#f9d482;fill-opacity:1;" d="M 18.359375 19.984375 C 18.363281 19.984375 18.363281 19.984375 18.367188 19.984375 C 18.953125 19.910156 19.484375 19.546875 19.742188 18.976562 C 19.753906 18.945312 19.765625 18.914062 19.777344 18.886719 C 20.65625 19.273438 21.6875 18.882812 22.082031 18.011719 C 22.476562 17.140625 22.078125 16.117188 21.199219 15.730469 C 20.929688 15.613281 20.648438 15.566406 20.375 15.585938 C 20.292969 15.019531 19.929688 14.503906 19.359375 14.253906 C 19.074219 14.128906 18.769531 14.085938 18.476562 14.113281 C 18.132812 14.289062 17.847656 14.574219 17.679688 14.949219 C 17.433594 15.496094 17.5 16.105469 17.800781 16.578125 C 18.027344 16.53125 18.261719 16.53125 18.496094 16.578125 C 18.300781 16.605469 18.109375 16.664062 17.933594 16.753906 C 17.757812 16.839844 17.597656 16.957031 17.460938 17.097656 C 17.324219 17.238281 17.207031 17.402344 17.125 17.589844 C 16.730469 18.460938 17.128906 19.484375 18.007812 19.871094 C 18.125 19.921875 18.242188 19.957031 18.359375 19.984375 "/><path style=" stroke:none;fill-rule:nonzero;fill:#f9d482;fill-opacity:1;" d="M 23.21875 4.898438 C 23.308594 4.816406 23.410156 4.746094 23.519531 4.683594 C 24.371094 4.203125 25.453125 4.492188 25.941406 5.332031 C 26.046875 5.511719 26.113281 5.703125 26.148438 5.898438 C 26.183594 6.09375 26.183594 6.292969 26.152344 6.488281 C 26.117188 6.683594 26.054688 6.875 25.957031 7.050781 C 26.136719 6.890625 26.277344 6.699219 26.371094 6.488281 C 26.945312 6.523438 27.492188 6.832031 27.796875 7.363281 C 28.007812 7.726562 28.074219 8.128906 28.011719 8.507812 C 28.324219 7.984375 28.347656 7.3125 28.019531 6.746094 C 27.703125 6.199219 27.128906 5.886719 26.53125 5.867188 C 26.554688 5.535156 26.480469 5.191406 26.300781 4.882812 C 25.816406 4.039062 24.730469 3.75 23.882812 4.234375 C 23.59375 4.398438 23.367188 4.628906 23.21875 4.898438 "/><path style=" stroke:none;fill-rule:nonzero;fill:#fff3b3;fill-opacity:1;" d="M 23.21875 4.898438 C 23.214844 4.902344 23.214844 4.902344 23.214844 4.90625 C 22.921875 5.421875 22.90625 6.074219 23.226562 6.625 C 23.242188 6.652344 23.261719 6.679688 23.28125 6.707031 C 22.429688 7.1875 22.136719 8.257812 22.625 9.097656 C 23.109375 9.9375 24.195312 10.230469 25.042969 9.746094 C 25.300781 9.601562 25.507812 9.398438 25.65625 9.167969 C 26.175781 9.4375 26.820312 9.449219 27.367188 9.140625 C 27.640625 8.984375 27.859375 8.765625 28.011719 8.507812 C 28.074219 8.128906 28.007812 7.726562 27.796875 7.363281 C 27.492188 6.832031 26.945312 6.523438 26.371094 6.488281 C 26.277344 6.699219 26.136719 6.890625 25.957031 7.050781 C 26.054688 6.875 26.117188 6.683594 26.152344 6.488281 C 26.183594 6.292969 26.183594 6.09375 26.148438 5.898438 C 26.113281 5.703125 26.046875 5.511719 25.941406 5.332031 C 25.453125 4.492188 24.371094 4.203125 23.519531 4.683594 C 23.410156 4.746094 23.308594 4.816406 23.21875 4.898438 "/><path style=" stroke:none;fill-rule:nonzero;fill:#f2b151;fill-opacity:1;" d="M 27.542969 14.128906 C 27.460938 14.210938 27.371094 14.28125 27.273438 14.34375 C 26.507812 14.832031 25.488281 14.617188 24.996094 13.859375 C 24.890625 13.699219 24.816406 13.523438 24.773438 13.34375 C 24.734375 13.164062 24.722656 12.980469 24.742188 12.796875 C 24.765625 12.613281 24.816406 12.433594 24.898438 12.265625 C 24.738281 12.425781 24.617188 12.609375 24.539062 12.808594 C 24.003906 12.800781 23.484375 12.542969 23.171875 12.066406 C 22.960938 11.738281 22.878906 11.371094 22.917969 11.015625 C 22.65625 11.515625 22.664062 12.140625 22.996094 12.648438 C 23.320312 13.140625 23.867188 13.402344 24.421875 13.394531 C 24.417969 13.703125 24.503906 14.019531 24.683594 14.296875 C 25.175781 15.050781 26.195312 15.265625 26.960938 14.777344 C 27.21875 14.613281 27.417969 14.386719 27.542969 14.128906 "/><path style=" stroke:none;fill-rule:nonzero;fill:#f9d482;fill-opacity:1;" d="M 27.542969 14.128906 C 27.542969 14.125 27.546875 14.125 27.546875 14.121094 C 27.792969 13.628906 27.773438 13.027344 27.449219 12.527344 C 27.433594 12.503906 27.414062 12.480469 27.394531 12.457031 C 28.160156 11.96875 28.378906 10.960938 27.886719 10.207031 C 27.394531 9.449219 26.375 9.234375 25.609375 9.722656 C 25.378906 9.867188 25.195312 10.066406 25.070312 10.289062 C 24.574219 10.0625 23.976562 10.082031 23.484375 10.394531 C 23.238281 10.554688 23.046875 10.769531 22.917969 11.015625 C 22.878906 11.371094 22.960938 11.738281 23.171875 12.066406 C 23.484375 12.542969 24.003906 12.800781 24.539062 12.808594 C 24.617188 12.609375 24.738281 12.425781 24.898438 12.265625 C 24.816406 12.433594 24.765625 12.613281 24.742188 12.796875 C 24.722656 12.980469 24.734375 13.164062 24.773438 13.34375 C 24.816406 13.523438 24.890625 13.699219 24.996094 13.859375 C 25.488281 14.617188 26.507812 14.832031 27.273438 14.34375 C 27.371094 14.28125 27.460938 14.210938 27.542969 14.128906 "/><path style=" stroke:none;fill-rule:nonzero;fill:#f2b151;fill-opacity:1;" d="M 13.058594 14.621094 C 12.957031 14.546875 12.859375 14.464844 12.769531 14.367188 C 12.09375 13.625 12.148438 12.480469 12.898438 11.8125 C 13.058594 11.667969 13.242188 11.554688 13.429688 11.476562 C 13.621094 11.398438 13.824219 11.355469 14.03125 11.347656 C 14.238281 11.335938 14.445312 11.359375 14.648438 11.417969 C 14.441406 11.273438 14.21875 11.175781 13.980469 11.125 C 13.890625 10.542969 14.085938 9.933594 14.5625 9.511719 C 14.882812 9.222656 15.277344 9.066406 15.679688 9.046875 C 15.074219 8.851562 14.386719 8.972656 13.882812 9.425781 C 13.394531 9.863281 13.199219 10.503906 13.3125 11.101562 C 12.96875 11.15625 12.636719 11.304688 12.359375 11.550781 C 11.609375 12.222656 11.554688 13.367188 12.234375 14.105469 C 12.464844 14.359375 12.75 14.53125 13.058594 14.621094 "/><path style=" stroke:none;fill-rule:nonzero;fill:#f9d482;fill-opacity:1;" d="M 13.058594 14.621094 C 13.0625 14.621094 13.0625 14.625 13.066406 14.625 C 13.65625 14.800781 14.324219 14.671875 14.816406 14.234375 C 14.839844 14.210938 14.863281 14.183594 14.886719 14.160156 C 15.5625 14.902344 16.71875 14.957031 17.46875 14.285156 C 18.21875 13.617188 18.273438 12.472656 17.597656 11.730469 C 17.390625 11.507812 17.140625 11.347656 16.871094 11.25 C 17.035156 10.671875 16.902344 10.027344 16.464844 9.550781 C 16.246094 9.308594 15.972656 9.140625 15.679688 9.046875 C 15.277344 9.066406 14.882812 9.222656 14.5625 9.511719 C 14.085938 9.933594 13.890625 10.542969 13.980469 11.125 C 14.21875 11.175781 14.441406 11.273438 14.648438 11.417969 C 14.445312 11.359375 14.238281 11.335938 14.03125 11.347656 C 13.824219 11.355469 13.621094 11.398438 13.429688 11.476562 C 13.242188 11.554688 13.058594 11.667969 12.898438 11.8125 C 12.148438 12.480469 12.09375 13.625 12.769531 14.367188 C 12.859375 14.464844 12.957031 14.546875 13.058594 14.621094 "/><path style=" stroke:none;fill-rule:nonzero;fill:#f2b151;fill-opacity:1;" d="M 20.304688 6.964844 C 20.292969 7.09375 20.269531 7.214844 20.230469 7.339844 C 19.933594 8.292969 18.910156 8.832031 17.945312 8.535156 C 17.738281 8.472656 17.546875 8.375 17.382812 8.253906 C 17.21875 8.128906 17.074219 7.980469 16.960938 7.808594 C 16.84375 7.640625 16.757812 7.449219 16.707031 7.25 C 16.6875 7.496094 16.71875 7.738281 16.792969 7.964844 C 16.335938 8.335938 15.703125 8.480469 15.09375 8.296875 C 14.679688 8.167969 14.34375 7.910156 14.121094 7.582031 C 14.257812 8.195312 14.714844 8.71875 15.367188 8.917969 C 15.996094 9.109375 16.652344 8.945312 17.117188 8.542969 C 17.335938 8.808594 17.636719 9.019531 17.992188 9.128906 C 18.957031 9.421875 19.980469 8.886719 20.277344 7.933594 C 20.378906 7.605469 20.382812 7.273438 20.304688 6.964844 "/><path style=" stroke:none;fill-rule:nonzero;fill:#f9d482;fill-opacity:1;" d="M 20.304688 6.964844 C 20.304688 6.964844 20.304688 6.960938 20.304688 6.957031 C 20.15625 6.367188 19.703125 5.863281 19.070312 5.671875 C 19.039062 5.660156 19.007812 5.65625 18.972656 5.648438 C 19.269531 4.691406 18.730469 3.679688 17.765625 3.382812 C 16.800781 3.089844 15.777344 3.625 15.476562 4.578125 C 15.386719 4.871094 15.375 5.164062 15.425781 5.441406 C 14.84375 5.601562 14.347656 6.039062 14.15625 6.65625 C 14.058594 6.964844 14.050781 7.28125 14.121094 7.582031 C 14.34375 7.910156 14.679688 8.167969 15.09375 8.296875 C 15.703125 8.480469 16.335938 8.335938 16.792969 7.964844 C 16.71875 7.738281 16.6875 7.496094 16.707031 7.25 C 16.757812 7.449219 16.84375 7.640625 16.960938 7.808594 C 17.074219 7.980469 17.21875 8.128906 17.382812 8.253906 C 17.546875 8.375 17.738281 8.472656 17.945312 8.535156 C 18.910156 8.832031 19.933594 8.292969 20.230469 7.339844 C 20.269531 7.214844 20.292969 7.09375 20.304688 6.964844 "/><path style=" stroke:none;fill-rule:nonzero;fill:#f9d482;fill-opacity:1;" d="M 13.6875 9.816406 C 13.609375 9.90625 13.523438 9.988281 13.425781 10.0625 C 12.667969 10.632812 11.582031 10.488281 11.007812 9.738281 C 10.882812 9.578125 10.792969 9.398438 10.734375 9.214844 C 10.675781 9.03125 10.652344 8.839844 10.65625 8.648438 C 10.664062 8.453125 10.703125 8.261719 10.773438 8.082031 C 10.621094 8.261719 10.511719 8.460938 10.445312 8.675781 C 9.886719 8.710938 9.320312 8.480469 8.957031 8.007812 C 8.710938 7.683594 8.597656 7.304688 8.605469 6.929688 C 8.371094 7.476562 8.433594 8.125 8.820312 8.628906 C 9.199219 9.121094 9.789062 9.351562 10.371094 9.296875 C 10.390625 9.617188 10.503906 9.941406 10.714844 10.21875 C 11.292969 10.96875 12.375 11.113281 13.132812 10.542969 C 13.390625 10.347656 13.578125 10.097656 13.6875 9.816406 "/><path style=" stroke:none;fill-rule:nonzero;fill:#fff3b3;fill-opacity:1;" d="M 13.6875 9.816406 C 13.691406 9.816406 13.691406 9.8125 13.691406 9.8125 C 13.910156 9.277344 13.839844 8.648438 13.464844 8.15625 C 13.445312 8.128906 13.421875 8.109375 13.402344 8.082031 C 14.160156 7.511719 14.308594 6.445312 13.730469 5.691406 C 13.15625 4.941406 12.074219 4.796875 11.3125 5.367188 C 11.085938 5.539062 10.910156 5.757812 10.796875 6 C 10.261719 5.804688 9.640625 5.871094 9.148438 6.238281 C 8.902344 6.425781 8.722656 6.664062 8.605469 6.929688 C 8.597656 7.304688 8.710938 7.683594 8.957031 8.007812 C 9.320312 8.480469 9.886719 8.710938 10.445312 8.675781 C 10.511719 8.460938 10.621094 8.261719 10.773438 8.082031 C 10.703125 8.261719 10.664062 8.453125 10.65625 8.648438 C 10.652344 8.839844 10.675781 9.03125 10.734375 9.214844 C 10.792969 9.398438 10.882812 9.578125 11.007812 9.738281 C 11.582031 10.488281 12.667969 10.632812 13.425781 10.0625 C 13.523438 9.988281 13.609375 9.90625 13.6875 9.816406 "/><path style=" stroke:none;fill-rule:nonzero;fill:#f9d482;fill-opacity:1;" d="M 20.652344 8.089844 C 20.789062 8.101562 20.925781 8.128906 21.0625 8.171875 C 22.113281 8.492188 22.703125 9.597656 22.378906 10.632812 C 22.308594 10.859375 22.199219 11.0625 22.0625 11.238281 C 21.929688 11.417969 21.761719 11.570312 21.578125 11.691406 C 21.386719 11.816406 21.179688 11.90625 20.960938 11.964844 C 21.230469 11.984375 21.496094 11.953125 21.746094 11.871094 C 22.15625 12.367188 22.3125 13.046875 22.109375 13.703125 C 21.96875 14.148438 21.683594 14.507812 21.320312 14.75 C 21.996094 14.601562 22.570312 14.109375 22.792969 13.410156 C 23.003906 12.730469 22.824219 12.027344 22.382812 11.523438 C 22.675781 11.289062 22.90625 10.964844 23.027344 10.582031 C 23.355469 9.546875 22.765625 8.441406 21.714844 8.121094 C 21.355469 8.011719 20.992188 8.003906 20.652344 8.089844 "/><path style=" stroke:none;fill-rule:nonzero;fill:#fff3b3;fill-opacity:1;" d="M 20.652344 8.089844 C 20.648438 8.089844 20.648438 8.089844 20.644531 8.089844 C 19.992188 8.25 19.4375 8.734375 19.222656 9.417969 C 19.214844 9.453125 19.207031 9.488281 19.199219 9.523438 C 18.148438 9.199219 17.03125 9.78125 16.707031 10.820312 C 16.378906 11.859375 16.96875 12.960938 18.019531 13.285156 C 18.335938 13.382812 18.660156 13.394531 18.96875 13.339844 C 19.140625 13.96875 19.621094 14.5 20.300781 14.710938 C 20.640625 14.816406 20.992188 14.824219 21.320312 14.75 C 21.683594 14.507812 21.96875 14.148438 22.109375 13.703125 C 22.3125 13.046875 22.15625 12.367188 21.746094 11.871094 C 21.496094 11.953125 21.230469 11.984375 20.960938 11.964844 C 21.179688 11.90625 21.386719 11.816406 21.578125 11.691406 C 21.761719 11.570312 21.929688 11.417969 22.0625 11.238281 C 22.199219 11.0625 22.308594 10.859375 22.378906 10.632812 C 22.703125 9.597656 22.113281 8.492188 21.0625 8.171875 C 20.925781 8.128906 20.789062 8.101562 20.652344 8.089844 "/><g clip-rule="nonzero" clip-path="url(#b50f28232d)"><path style=" stroke:none;fill-rule:nonzero;fill:#f9d482;fill-opacity:1;" d="M 11.976562 13.617188 C 11.945312 13.730469 11.902344 13.839844 11.84375 13.949219 C 11.394531 14.773438 10.355469 15.089844 9.519531 14.644531 C 9.339844 14.550781 9.183594 14.425781 9.054688 14.285156 C 8.925781 14.144531 8.820312 13.980469 8.746094 13.804688 C 8.671875 13.625 8.625 13.4375 8.613281 13.242188 C 8.550781 13.46875 8.535156 13.695312 8.566406 13.917969 C 8.074219 14.179688 7.46875 14.203125 6.941406 13.921875 C 6.582031 13.730469 6.316406 13.4375 6.171875 13.09375 C 6.1875 13.683594 6.515625 14.246094 7.078125 14.542969 C 7.625 14.832031 8.257812 14.796875 8.757812 14.507812 C 8.910156 14.792969 9.152344 15.035156 9.457031 15.199219 C 10.292969 15.640625 11.332031 15.328125 11.78125 14.5 C 11.933594 14.21875 11.996094 13.914062 11.976562 13.617188 "/></g><g clip-rule="nonzero" clip-path="url(#325f99ed9f)"><path style=" stroke:none;fill-rule:nonzero;fill:#fff3b3;fill-opacity:1;" d="M 11.976562 13.617188 C 11.976562 13.613281 11.980469 13.613281 11.976562 13.609375 C 11.949219 13.035156 11.625 12.496094 11.074219 12.207031 C 11.046875 12.191406 11.015625 12.179688 10.988281 12.167969 C 11.433594 11.339844 11.121094 10.3125 10.285156 9.871094 C 9.449219 9.429688 8.40625 9.742188 7.960938 10.566406 C 7.828125 10.816406 7.761719 11.085938 7.761719 11.355469 C 7.191406 11.394531 6.660156 11.710938 6.371094 12.246094 C 6.226562 12.515625 6.160156 12.804688 6.171875 13.09375 C 6.316406 13.4375 6.582031 13.730469 6.941406 13.921875 C 7.46875 14.203125 8.074219 14.179688 8.566406 13.917969 C 8.535156 13.695312 8.550781 13.46875 8.613281 13.242188 C 8.625 13.4375 8.671875 13.625 8.746094 13.804688 C 8.820312 13.980469 8.925781 14.144531 9.054688 14.285156 C 9.183594 14.425781 9.339844 14.550781 9.519531 14.644531 C 10.355469 15.089844 11.394531 14.773438 11.84375 13.949219 C 11.902344 13.839844 11.945312 13.730469 11.976562 13.617188 "/></g><path style=" stroke:none;fill-rule:nonzero;fill:#f2b151;fill-opacity:1;" d="M 32.023438 10.054688 C 31.925781 10.003906 31.835938 9.941406 31.75 9.871094 C 31.089844 9.308594 31.015625 8.328125 31.582031 7.675781 C 31.703125 7.535156 31.847656 7.421875 32 7.335938 C 32.15625 7.246094 32.324219 7.1875 32.496094 7.15625 C 32.675781 7.125 32.855469 7.125 33.03125 7.152344 C 32.839844 7.050781 32.636719 6.992188 32.429688 6.976562 C 32.292969 6.488281 32.394531 5.945312 32.75 5.535156 C 32.996094 5.253906 33.316406 5.082031 33.65625 5.019531 C 33.117188 4.917969 32.542969 5.09375 32.164062 5.535156 C 31.792969 5.960938 31.699219 6.527344 31.859375 7.027344 C 31.570312 7.105469 31.300781 7.269531 31.09375 7.507812 C 30.527344 8.160156 30.605469 9.144531 31.261719 9.703125 C 31.488281 9.894531 31.75 10.011719 32.023438 10.054688 "/><path style=" stroke:none;fill-rule:nonzero;fill:#f9d482;fill-opacity:1;" d="M 32.023438 10.054688 C 32.023438 10.058594 32.027344 10.058594 32.03125 10.058594 C 32.554688 10.144531 33.109375 9.964844 33.480469 9.539062 C 33.5 9.515625 33.515625 9.492188 33.53125 9.46875 C 34.191406 10.027344 35.183594 9.957031 35.75 9.304688 C 36.316406 8.652344 36.242188 7.667969 35.582031 7.109375 C 35.382812 6.9375 35.152344 6.828125 34.910156 6.773438 C 34.988281 6.261719 34.808594 5.726562 34.382812 5.367188 C 34.167969 5.183594 33.917969 5.070312 33.65625 5.019531 C 33.316406 5.082031 32.996094 5.253906 32.75 5.535156 C 32.394531 5.945312 32.292969 6.488281 32.429688 6.976562 C 32.636719 6.992188 32.839844 7.050781 33.03125 7.152344 C 32.855469 7.125 32.675781 7.125 32.496094 7.15625 C 32.324219 7.1875 32.15625 7.246094 32 7.335938 C 31.847656 7.421875 31.703125 7.535156 31.582031 7.675781 C 31.015625 8.328125 31.089844 9.308594 31.75 9.871094 C 31.835938 9.941406 31.925781 10.003906 32.023438 10.054688 "/></g></svg>