<svg xmlns="http://www.w3.org/2000/svg" xmlns:xlink="http://www.w3.org/1999/xlink" width="60" zoomAndPan="magnify" viewBox="0 0 45 44.999999" height="60" preserveAspectRatio="xMidYMid meet" version="1.2"><defs><clipPath id="994c470cfd"><path d="M 2 24 L 43 24 L 43 40.789062 L 2 40.789062 Z M 2 24 "/></clipPath></defs><g id="11a5abaa99"><g clip-rule="nonzero" clip-path="url(#994c470cfd)"><path style=" stroke:none;fill-rule:nonzero;fill:#f4900c;fill-opacity:1;" d="M 42.769531 25.242188 L 2.410156 24.628906 L 2.429688 27.75 C 2.449219 28.453125 2.851562 29.160156 3.710938 29.6875 L 20.109375 39.734375 C 21.921875 40.84375 25.03125 40.742188 26.667969 39.734375 C 28.3125 38.730469 27.492188 38.226562 29.128906 37.222656 C 30.769531 36.21875 31.589844 36.71875 33.230469 35.71875 C 34.871094 34.710938 41.433594 30.695312 41.433594 30.695312 C 42.335938 30.140625 42.785156 29.414062 42.789062 28.6875 Z M 42.769531 25.242188 "/></g><path style=" stroke:none;fill-rule:nonzero;fill:#ffac33;fill-opacity:1;" d="M 41.433594 23.109375 C 41.433594 23.109375 5.351562 21.101562 3.710938 22.105469 C 2.070312 23.109375 1.902344 25.011719 3.710938 26.125 L 20.109375 36.171875 C 21.921875 37.28125 25.03125 37.179688 26.667969 36.171875 C 28.3125 35.167969 27.492188 34.664062 29.128906 33.660156 C 30.769531 32.65625 31.589844 33.15625 33.230469 32.15625 C 34.871094 31.148438 41.429688 27.132812 41.429688 27.132812 C 43.242188 26.019531 43.242188 24.21875 41.433594 23.109375 Z M 41.433594 23.109375 "/><path style=" stroke:none;fill-rule:nonzero;fill:#ffd983;fill-opacity:1;" d="M 13.355469 30.144531 L 21.75 35.167969 C 21.75 35.167969 23.429688 36.171875 25.109375 35.167969 C 26.527344 34.316406 27.625 32.65625 27.625 32.65625 Z M 13.355469 30.144531 "/><path style=" stroke:none;fill-rule:nonzero;fill:#77b255;fill-opacity:1;" d="M 41.273438 22.925781 C 38.96875 19.847656 9.585938 17.683594 4.976562 22.011719 C 4.046875 22.890625 2.289062 24.652344 4.160156 27.289062 C 4.976562 28.667969 6.671875 29.566406 6.898438 29.140625 C 7.421875 28.140625 8.472656 27.265625 10.046875 27.351562 C 9.957031 27.5625 10.808594 31.160156 10.710938 31.242188 C 9.613281 32.175781 11.894531 35.421875 14.566406 33.691406 C 15.234375 35.007812 19.261719 38.257812 22.042969 33.8125 C 22.597656 34.816406 28.40625 36.34375 30.019531 31.714844 C 30.007812 31.796875 30.011719 31.863281 29.988281 31.949219 C 29.882812 32.363281 30.847656 32.722656 31.828125 32.378906 C 33.476562 31.800781 35.859375 30.367188 36.277344 28.792969 C 37.457031 28.589844 38.335938 28.914062 39.015625 29.8125 C 39.351562 30.257812 40.503906 30.363281 40.996094 29.785156 C 41.867188 28.761719 43.292969 25.621094 41.273438 22.925781 Z M 41.273438 22.925781 "/><path style=" stroke:none;fill-rule:nonzero;fill:#ffcc4d;fill-opacity:1;" d="M 38.023438 30.617188 C 38.023438 31.246094 36.957031 31.757812 35.648438 31.757812 L 9.53125 31.757812 C 8.222656 31.757812 7.15625 31.246094 7.15625 30.617188 L 7.15625 22.835938 L 38.023438 22.835938 Z M 38.023438 30.617188 "/><path style=" stroke:none;fill-rule:nonzero;fill:#be1931;fill-opacity:1;" d="M 40.765625 24.613281 C 40.765625 27.902344 35.320312 30.570312 28.605469 30.570312 C 21.890625 30.570312 16.449219 27.902344 16.449219 24.613281 C 16.449219 21.324219 21.890625 18.660156 28.605469 18.660156 C 35.320312 18.660156 40.765625 21.324219 40.765625 24.613281 Z M 40.765625 24.613281 "/><path style=" stroke:none;fill-rule:nonzero;fill:#f4900c;fill-opacity:1;" d="M 42.769531 18.113281 L 2.410156 17.5 L 2.410156 20.621094 L 2.429688 20.621094 C 2.449219 21.324219 2.851562 22.03125 3.710938 22.558594 L 20.109375 32.605469 C 21.921875 33.714844 25.03125 33.613281 26.667969 32.605469 C 28.3125 31.601562 27.492188 31.097656 29.128906 30.09375 C 30.769531 29.089844 31.589844 29.589844 33.230469 28.589844 C 34.871094 27.582031 41.433594 23.566406 41.433594 23.566406 C 42.335938 23.011719 42.785156 22.285156 42.789062 21.558594 L 42.789062 21.554688 Z M 42.769531 18.113281 "/><path style=" stroke:none;fill-rule:nonzero;fill:#ffac33;fill-opacity:1;" d="M 41.433594 15.980469 L 25.03125 5.9375 C 23.222656 4.828125 20.285156 4.828125 18.472656 5.9375 L 10.273438 10.960938 C 8.632812 11.964844 9.453125 12.46875 7.8125 13.472656 C 6.171875 14.476562 5.351562 13.972656 3.710938 14.976562 C 2.070312 15.980469 1.902344 17.886719 3.710938 18.996094 L 20.109375 29.042969 C 21.921875 30.152344 25.03125 30.046875 26.667969 29.042969 C 28.3125 28.039062 27.492188 27.535156 29.128906 26.53125 C 30.769531 25.527344 31.589844 26.027344 33.230469 25.023438 C 34.871094 24.019531 41.429688 20.003906 41.429688 20.003906 C 43.242188 18.890625 43.242188 17.089844 41.433594 15.980469 Z M 41.433594 15.980469 "/><path style=" stroke:none;fill-rule:nonzero;fill:#ffd983;fill-opacity:1;" d="M 40.21875 16.988281 L 23.429688 6.941406 C 23.429688 6.941406 21.640625 6.003906 20.070312 6.941406 L 11.804688 11.886719 C 10.386719 12.738281 10.582031 13.625 9.160156 14.476562 C 7.738281 15.324219 6.382812 15.132812 4.960938 15.980469 C 3.285156 16.988281 4.960938 17.992188 4.960938 17.992188 L 21.75 28.039062 C 21.75 28.039062 23.429688 29.042969 25.105469 28.039062 C 26.527344 27.1875 26.207031 26.378906 27.625 25.527344 C 29.046875 24.675781 30.527344 24.792969 31.949219 23.941406 C 33.371094 23.09375 40.214844 18.996094 40.214844 18.996094 C 40.214844 18.996094 41.785156 17.925781 40.21875 16.988281 Z M 40.21875 16.988281 "/></g></svg>