<svg xmlns="http://www.w3.org/2000/svg" xmlns:xlink="http://www.w3.org/1999/xlink" width="60" zoomAndPan="magnify" viewBox="0 0 45 44.999999" height="60" preserveAspectRatio="xMidYMid meet" version="1.2"><defs><clipPath id="0a724d13a2"><path d="M 10 19 L 35 19 L 35 42.976562 L 10 42.976562 Z M 10 19 "/></clipPath><clipPath id="9f5cec25ab"><path d="M 6.296875 11 L 38.546875 11 L 38.546875 26 L 6.296875 26 Z M 6.296875 11 "/></clipPath></defs><g id="020ac0f8e5"><g clip-rule="nonzero" clip-path="url(#0a724d13a2)"><path style=" stroke:none;fill-rule:nonzero;fill:#5e9dec;fill-opacity:1;" d="M 34.316406 19.84375 L 34.265625 20.460938 L 32.898438 37.164062 C 32.746094 39.03125 31.601562 40.617188 29.988281 41.160156 C 24.628906 42.96875 19.4375 42.886719 14.414062 40.953125 C 12.894531 40.371094 11.828125 38.847656 11.660156 37.074219 L 11.019531 30.164062 L 10.058594 19.84375 Z M 34.316406 19.84375 "/></g><g clip-rule="nonzero" clip-path="url(#9f5cec25ab)"><path style=" stroke:none;fill-rule:nonzero;fill:#c7e3ff;fill-opacity:1;" d="M 7.519531 20.519531 L 22.070312 25.320312 C 23.714844 25.863281 25.515625 25.6875 27.019531 24.839844 L 37.53125 18.917969 C 38.546875 18.347656 38.367188 16.835938 37.246094 16.515625 L 21.976562 12.164062 C 20.910156 11.859375 19.769531 11.960938 18.777344 12.453125 L 7.347656 18.097656 C 6.296875 18.617188 6.402344 20.152344 7.519531 20.519531 Z M 7.519531 20.519531 "/></g><path style=" stroke:none;fill-rule:nonzero;fill:#fffce9;fill-opacity:1;" d="M 32.859375 18.53125 C 32.859375 20.988281 28.082031 22.984375 22.1875 22.984375 C 16.292969 22.984375 11.515625 20.988281 11.515625 18.53125 C 11.515625 16.070312 16.292969 14.078125 22.1875 14.078125 C 28.082031 14.078125 32.859375 16.070312 32.859375 18.53125 Z M 32.859375 18.53125 "/><path style=" stroke:none;fill-rule:nonzero;fill:#5e9dec;fill-opacity:1;" d="M 20.082031 17.777344 L 15.363281 3.5 C 14.941406 2.234375 13.40625 1.734375 12.320312 2.519531 C 12.308594 2.527344 12.292969 2.539062 12.277344 2.550781 C 11.554688 3.089844 11.316406 4.066406 11.679688 4.894531 L 17.710938 18.777344 C 19.03125 18.917969 19.875 18.632812 20.082031 17.777344 Z M 20.082031 17.777344 "/><path style=" stroke:none;fill-rule:nonzero;fill:#c7e3ff;fill-opacity:1;" d="M 31.585938 33.214844 C 31.585938 33.53125 31.527344 33.84375 31.40625 34.15625 C 31.289062 34.464844 31.117188 34.765625 30.886719 35.058594 C 30.65625 35.347656 30.371094 35.625 30.039062 35.886719 C 29.703125 36.152344 29.324219 36.394531 28.898438 36.617188 C 28.46875 36.839844 28.007812 37.039062 27.507812 37.214844 C 27.003906 37.390625 26.476562 37.539062 25.917969 37.660156 C 25.363281 37.78125 24.789062 37.871094 24.199219 37.933594 C 23.609375 37.996094 23.011719 38.027344 22.410156 38.027344 C 21.804688 38.027344 21.210938 37.996094 20.617188 37.933594 C 20.027344 37.871094 19.453125 37.78125 18.898438 37.660156 C 18.339844 37.539062 17.8125 37.390625 17.308594 37.214844 C 16.808594 37.039062 16.347656 36.839844 15.921875 36.617188 C 15.492188 36.394531 15.113281 36.152344 14.777344 35.886719 C 14.445312 35.625 14.160156 35.347656 13.929688 35.058594 C 13.699219 34.765625 13.527344 34.464844 13.410156 34.15625 C 13.292969 33.84375 13.230469 33.53125 13.230469 33.214844 C 13.230469 32.902344 13.292969 32.585938 13.410156 32.277344 C 13.527344 31.96875 13.699219 31.667969 13.929688 31.375 C 14.160156 31.085938 14.445312 30.808594 14.777344 30.542969 C 15.113281 30.28125 15.492188 30.039062 15.921875 29.816406 C 16.347656 29.59375 16.808594 29.394531 17.308594 29.21875 C 17.8125 29.042969 18.339844 28.894531 18.898438 28.773438 C 19.453125 28.652344 20.027344 28.5625 20.617188 28.5 C 21.210938 28.4375 21.804688 28.40625 22.410156 28.40625 C 23.011719 28.40625 23.609375 28.4375 24.199219 28.5 C 24.789062 28.5625 25.363281 28.652344 25.917969 28.773438 C 26.476562 28.894531 27.003906 29.042969 27.507812 29.21875 C 28.007812 29.394531 28.46875 29.59375 28.898438 29.816406 C 29.324219 30.039062 29.703125 30.28125 30.039062 30.542969 C 30.371094 30.808594 30.65625 31.085938 30.886719 31.375 C 31.117188 31.667969 31.289062 31.96875 31.40625 32.277344 C 31.527344 32.585938 31.585938 32.902344 31.585938 33.214844 Z M 31.585938 33.214844 "/><path style=" stroke:none;fill-rule:nonzero;fill:#fffce9;fill-opacity:1;" d="M 22.410156 37.3125 C 20.070312 37.3125 17.882812 36.839844 16.25 35.984375 C 14.785156 35.21875 13.945312 34.207031 13.945312 33.214844 C 13.945312 32.222656 14.785156 31.210938 16.25 30.445312 C 17.882812 29.585938 20.070312 29.117188 22.410156 29.117188 C 24.746094 29.117188 26.933594 29.585938 28.566406 30.445312 C 30.03125 31.210938 30.871094 32.222656 30.871094 33.214844 C 30.871094 34.207031 30.03125 35.21875 28.566406 35.984375 C 26.929688 36.839844 24.746094 37.3125 22.410156 37.3125 Z M 22.410156 37.3125 "/><path style=" stroke:none;fill-rule:nonzero;fill:#5e9dec;fill-opacity:1;" d="M 18.042969 31.34375 L 17.316406 33.835938 L 17.316406 35.167969 L 16.882812 35.167969 L 16.882812 33.835938 L 16.15625 31.34375 L 16.640625 31.34375 L 17.105469 33.089844 L 17.5625 31.34375 Z M 18.042969 31.34375 "/><path style=" stroke:none;fill-rule:nonzero;fill:#5e9dec;fill-opacity:1;" d="M 18.734375 34.953125 C 18.566406 34.785156 18.433594 34.550781 18.335938 34.253906 C 18.234375 33.957031 18.1875 33.621094 18.1875 33.242188 C 18.1875 32.871094 18.234375 32.539062 18.335938 32.238281 C 18.433594 31.941406 18.566406 31.707031 18.734375 31.539062 C 18.902344 31.371094 19.085938 31.289062 19.289062 31.289062 C 19.492188 31.289062 19.679688 31.371094 19.847656 31.539062 C 20.015625 31.707031 20.144531 31.941406 20.242188 32.238281 C 20.339844 32.535156 20.390625 32.871094 20.390625 33.242188 C 20.390625 33.621094 20.34375 33.957031 20.242188 34.253906 C 20.148438 34.550781 20.011719 34.785156 19.84375 34.953125 C 19.675781 35.121094 19.492188 35.203125 19.289062 35.203125 C 19.089844 35.203125 18.90625 35.121094 18.734375 34.953125 Z M 19.632812 34.363281 C 19.730469 34.257812 19.808594 34.109375 19.863281 33.917969 C 19.917969 33.722656 19.945312 33.5 19.945312 33.242188 C 19.945312 32.988281 19.917969 32.761719 19.863281 32.570312 C 19.808594 32.378906 19.730469 32.230469 19.632812 32.128906 C 19.535156 32.027344 19.421875 31.976562 19.289062 31.976562 C 19.160156 31.976562 19.046875 32.027344 18.945312 32.128906 C 18.847656 32.230469 18.769531 32.378906 18.714844 32.570312 C 18.660156 32.761719 18.632812 32.984375 18.632812 33.242188 C 18.632812 33.496094 18.660156 33.722656 18.714844 33.917969 C 18.769531 34.109375 18.847656 34.257812 18.945312 34.363281 C 19.046875 34.46875 19.160156 34.519531 19.289062 34.519531 C 19.417969 34.519531 19.535156 34.46875 19.632812 34.363281 Z M 19.632812 34.363281 "/><path style=" stroke:none;fill-rule:nonzero;fill:#5e9dec;fill-opacity:1;" d="M 22.207031 32.492188 C 22.160156 32.332031 22.089844 32.210938 22.003906 32.128906 C 21.917969 32.042969 21.816406 32 21.703125 32 C 21.574219 32 21.460938 32.054688 21.363281 32.15625 C 21.265625 32.257812 21.1875 32.402344 21.132812 32.59375 C 21.078125 32.785156 21.046875 33 21.046875 33.25 C 21.046875 33.503906 21.078125 33.730469 21.132812 33.917969 C 21.1875 34.109375 21.269531 34.253906 21.367188 34.355469 C 21.46875 34.457031 21.585938 34.507812 21.71875 34.507812 C 21.882812 34.507812 22.019531 34.433594 22.125 34.277344 C 22.230469 34.121094 22.296875 33.90625 22.332031 33.628906 L 21.59375 33.628906 L 21.59375 33.042969 L 22.757812 33.042969 L 22.757812 33.710938 C 22.726562 33.976562 22.664062 34.222656 22.570312 34.449219 C 22.476562 34.675781 22.355469 34.859375 22.207031 34.996094 C 22.058594 35.132812 21.890625 35.199219 21.707031 35.199219 C 21.5 35.199219 21.3125 35.117188 21.140625 34.953125 C 20.972656 34.785156 20.84375 34.554688 20.75 34.257812 C 20.652344 33.964844 20.605469 33.628906 20.605469 33.25 C 20.605469 32.875 20.652344 32.539062 20.75 32.242188 C 20.84375 31.945312 20.972656 31.714844 21.140625 31.546875 C 21.3125 31.378906 21.496094 31.296875 21.703125 31.296875 C 21.945312 31.296875 22.15625 31.402344 22.332031 31.613281 C 22.511719 31.824219 22.636719 32.117188 22.703125 32.496094 L 22.207031 32.496094 Z M 22.207031 32.492188 "/><path style=" stroke:none;fill-rule:nonzero;fill:#5e9dec;fill-opacity:1;" d="M 23.5 31.34375 L 23.5 33.707031 C 23.5 33.96875 23.539062 34.164062 23.617188 34.300781 C 23.691406 34.4375 23.796875 34.507812 23.9375 34.507812 C 24.074219 34.507812 24.183594 34.4375 24.257812 34.300781 C 24.335938 34.164062 24.375 33.964844 24.375 33.707031 L 24.375 31.34375 L 24.808594 31.34375 L 24.808594 33.703125 C 24.808594 34.027344 24.769531 34.304688 24.691406 34.527344 C 24.613281 34.75 24.507812 34.921875 24.375 35.035156 C 24.242188 35.148438 24.09375 35.203125 23.933594 35.203125 C 23.773438 35.203125 23.628906 35.148438 23.496094 35.035156 C 23.367188 34.921875 23.261719 34.75 23.1875 34.527344 C 23.113281 34.304688 23.074219 34.027344 23.074219 33.703125 L 23.074219 31.34375 Z M 23.5 31.34375 "/><path style=" stroke:none;fill-rule:nonzero;fill:#5e9dec;fill-opacity:1;" d="M 26.332031 35.164062 L 25.859375 33.675781 L 25.65625 33.675781 L 25.65625 35.164062 L 25.222656 35.164062 L 25.222656 31.34375 L 26.03125 31.34375 C 26.195312 31.34375 26.339844 31.394531 26.453125 31.5 C 26.570312 31.605469 26.660156 31.746094 26.71875 31.921875 C 26.777344 32.097656 26.804688 32.296875 26.804688 32.515625 C 26.804688 32.765625 26.765625 32.992188 26.683594 33.195312 C 26.601562 33.398438 26.480469 33.539062 26.316406 33.617188 L 26.828125 35.167969 L 26.332031 35.167969 Z M 25.65625 33.101562 L 26.015625 33.101562 C 26.132812 33.101562 26.21875 33.050781 26.277344 32.953125 C 26.335938 32.851562 26.363281 32.710938 26.363281 32.53125 C 26.363281 32.355469 26.332031 32.222656 26.277344 32.125 C 26.21875 32.027344 26.132812 31.980469 26.015625 31.980469 L 25.65625 31.980469 Z M 25.65625 33.101562 "/><path style=" stroke:none;fill-rule:nonzero;fill:#5e9dec;fill-opacity:1;" d="M 28.660156 31.34375 L 28.660156 31.964844 L 28.089844 31.964844 L 28.089844 35.167969 L 27.65625 35.167969 L 27.65625 31.964844 L 27.082031 31.964844 L 27.082031 31.34375 Z M 28.660156 31.34375 "/></g></svg>